<?xml version="1.0" standalone="no"?>
<!DOCTYPE svg PUBLIC "-//W3C//DTD SVG 1.1//EN" "http://www.w3.org/Graphics/SVG/1.1/DTD/svg11.dtd" >
<svg xmlns="http://www.w3.org/2000/svg" xmlns:xlink="http://www.w3.org/1999/xlink" version="1.1">
<metadata></metadata>
<defs>
<font id="cloudregular" horiz-adv-x="0" >
<font-face units-per-em="2048" ascent="1536" descent="-512" />
<missing-glyph horiz-adv-x="634" />
<glyph unicode="&#x3b;&#x3b;For&#x20;Education&#x20;Used&#x20;Only&#x3b;&#x3b;" horiz-adv-x="1720" d="M123 719q0 152 58.5 286t158.5 233t234.5 157.5t287.5 58.5q152 0 286 -58.5t233.5 -157.5t157.5 -233.5t58 -285.5q0 -154 -58 -288t-157.5 -234.5t-233.5 -158.5t-286 -58q-154 0 -288 58t-234 158.5t-158.5 234.5t-58.5 288zM276 719q0 -121 46.5 -227.5t126 -186.5 t186 -126t227.5 -46q119 0 225.5 46t185.5 126t125 186.5t46 227.5q0 119 -46 225.5t-125 185t-185.5 124.5t-225.5 46q-121 0 -227.5 -46t-186 -124.5t-126 -185t-46.5 -225.5zM449 719q0 106 26.5 192t78.5 147.5t129 95.5t179 34q129 0 217 -53.5t135 -149.5l-127 -94 q-29 70 -88 106.5t-137 36.5q-119 0 -179 -83t-60 -232q0 -150 60 -235t179 -85q80 0 138.5 39t86.5 115l142 -72q-43 -111 -135.5 -173t-231.5 -62q-102 0 -179 33.5t-129 96t-78.5 149.5t-26.5 194z" />
<glyph unicode="&#x3b;&#x3b;Registered&#x3b;&#x3b;" horiz-adv-x="1085" d="M61 973q0 100 38 187t103.5 152.5t152.5 103.5t188 38q100 0 187 -38t152.5 -103.5t103.5 -152.5t38 -187t-38 -187.5t-103.5 -153t-152.5 -103t-187 -37.5t-187.5 37.5t-153 103t-103.5 153t-38 187.5zM168 973q0 -78 29.5 -146.5t80 -119t119 -80t146.5 -29.5 t146.5 29.5t118.5 80t80 119t30 146.5t-30 146.5t-80 118.5t-118.5 80t-146.5 30t-146.5 -30t-119 -80t-80 -118.5t-29.5 -146.5zM344 694v559h225q47 0 83 -14t59.5 -38.5t35 -55.5t11.5 -62q0 -51 -28 -95t-85 -64l135 -230h-137l-127 217h-49v-217h-123zM467 1014h102 q33 0 49.5 20.5t16.5 46.5q0 25 -16.5 46.5t-49.5 21.5h-102v-135z" />
<glyph unicode="&#x3b;&#x3b;Multiply&#x3b;&#x3b;" horiz-adv-x="921" d="M98 426l230 229l-230 230l123 123l230 -230l229 230l123 -123l-230 -230l230 -229l-123 -123l-229 229l-230 -229z" />
<glyph unicode="&#x3b;&#x3b;Divide&#x3b;&#x3b;" horiz-adv-x="921" d="M72 575v162h778v-162h-778zM365 264v193h192v-193h-192zM365 854v193h192v-193h-192z" />
<glyph unicode="&#x2018;&#x2018;" horiz-adv-x="659" d="M61 963v110q0 117 22.5 210t80.5 171l112 -35q-47 -61 -67.5 -123.5t-26.5 -128.5h105v-204h-226zM373 963v110q0 117 22.5 210t79.5 171l113 -35q-47 -61 -66.5 -123.5t-25.5 -128.5h102v-204h-225z" />
<glyph unicode="&#x2019;&#x2019;" horiz-adv-x="659" d="M61 1227v207h226v-111q0 -117 -22.5 -210t-80.5 -171l-112 33q45 59 65.5 122.5t26.5 129.5h-103zM373 1227v207h225v-111q0 -117 -22.5 -210t-79.5 -171l-113 33q47 59 67.5 122.5t26.5 129.5h-104z" />
<glyph unicode="&#x3b;&#x3b;Trademark&#x3b;&#x3b;" horiz-adv-x="1130" d="M41 1315v119h420v-119h-139v-363h-144v363h-137zM522 952v482h152l117 -275l116 275h152v-482h-133v207l-88 -207h-95l-88 207v-207h-133z" />
<glyph unicode="&#xe24;&#xe32;" horiz-adv-x="1601" d="M119 987q242 57 407 57q92 0 160 -14t117 -43q72 27 145.5 42t138.5 15q78 0 145.5 -21.5t118 -69.5t79 -124.5t28.5 -189.5v-1049h-174v1047q0 72 -15.5 120t-43 77.5t-64.5 43t-80 13.5q-41 0 -83 -7t-85 -20q39 -90 39 -225v-1049h-174v990q0 86 -10 145t-38 96 t-75 53.5t-123 16.5q-39 0 -82.5 -5t-97.5 -16l88 -172q-41 -23 -64.5 -48t-36.5 -57t-17.5 -75t-4.5 -100v-264h179v-154h-248q-63 0 -84 22.5t-21 81.5v340q0 59 3.5 101.5t14.5 75t31.5 58.5t57.5 54z" />
<glyph unicode="&#xe26;&#xe32;" horiz-adv-x="1601" d="M20 0v154h123v290q0 59 3.5 101.5t14.5 75t31.5 58.5t57.5 54l-131 254q242 57 407 57q92 0 160 -14t117 -43q72 27 145.5 42t138.5 15q78 0 145.5 -21.5t118 -69.5t79 -124.5t28.5 -189.5v-1049h-174v1047q0 72 -15.5 120t-43 77.5t-64.5 43t-80 13.5q-41 0 -83 -7 t-85 -20q39 -90 39 -225v-1049h-174v1047q0 135 -55 194.5t-191 59.5q-39 0 -82.5 -5t-97.5 -16l88 -172q-41 -23 -64.5 -48t-36.5 -57t-17.5 -75t-4.5 -100v-295q0 -72 -25.5 -97.5t-101.5 -25.5h-170z" />
<glyph unicode=" "  horiz-adv-x="634" />
<glyph unicode="&#x09;" horiz-adv-x="634" />
<glyph unicode="&#xa0;" horiz-adv-x="634" />
<glyph unicode="!" horiz-adv-x="440" d="M119 0v203h203v-203h-203zM133 358v1076h174v-1076h-174z" />
<glyph unicode="&#x22;" horiz-adv-x="665" d="M82 1296v138h178v-138l-20 -333h-138zM403 1296v138h181v-138l-21 -333h-139z" />
<glyph unicode="#" horiz-adv-x="1329" d="M92 383v154h242l47 358h-246v154h266l52 385h172l-52 -385h271l51 385h172l-51 -385h221v-154h-242l-47 -358h246v-154h-266l-49 -383h-172l49 383h-271l-49 -383h-172l49 383h-221zM506 537h270l47 358h-270z" />
<glyph unicode="$" horiz-adv-x="1126" d="M109 104l65 150q76 -51 147.5 -80t161.5 -37v465q-66 16 -127 40t-109 65t-78 105.5t-30 162.5q0 82 25.5 142.5t72 103.5t110 66.5t136.5 31.5v176h174v-178q96 -10 177 -36t147 -60l-53 -146q-53 27 -121 51.5t-150 34.5v-424q68 -14 132.5 -35.5t114.5 -61.5 t82 -103.5t32 -163.5q0 -98 -27.5 -168t-77 -116t-115 -70.5t-141.5 -32.5v-179h-174v177q-109 10 -204 41.5t-170 78.5zM313 975q0 -86 48.5 -129t121.5 -66v385q-78 -12 -124 -56t-46 -134zM657 139q86 14 136.5 64.5t50.5 167.5q0 84 -53.5 125t-133.5 63v-420z" />
<glyph unicode="%" horiz-adv-x="1658" d="M96 1100q0 170 87 262t231 92q143 0 230 -92t87 -262t-87 -262.5t-230 -92.5t-230.5 92.5t-87.5 262.5zM246 0l958 1434h207l-958 -1434h-207zM260 1100q0 -82 35 -139.5t119 -57.5t118.5 57.5t34.5 139.5q0 80 -34.5 137t-118.5 57t-119 -57t-35 -137zM928 334 q0 170 87 262t230 92t230.5 -92t87.5 -262t-87 -262t-231 -92q-143 0 -230 92t-87 262zM1092 334q0 -82 34.5 -139.5t118.5 -57.5t119 57.5t35 139.5q0 80 -35 137t-119 57t-118.5 -57t-34.5 -137z" />
<glyph unicode="&#x26;" horiz-adv-x="1388" d="M92 354q0 147 77 254t230 193q-72 100 -98.5 177t-26.5 155q0 156 92.5 238.5t245.5 82.5q137 0 229.5 -61.5t116.5 -186.5l-165 -49q-14 74 -59.5 108.5t-117.5 34.5q-76 0 -121.5 -44t-45.5 -123q0 -68 33.5 -133.5t97.5 -151.5l309 -410q16 33 29.5 62.5t27.5 64.5 l119 283h262v-154h-139l-86 -205q-23 -55 -47.5 -105t-53.5 -97q53 -68 97.5 -111t99.5 -43q25 0 52.5 10.5t60.5 34.5l57 -139q-41 -27 -83 -43t-99 -16q-88 0 -161 44t-132 117q-74 -78 -169 -119.5t-224 -41.5q-109 0 -186.5 32.5t-127 87t-72 121t-22.5 133.5zM266 365 q0 -41 11.5 -82t39 -75t72.5 -54.5t113 -20.5q96 0 165.5 40t123.5 106l-297 393q-106 -57 -167 -130t-61 -177z" />
<glyph unicode="'" horiz-adv-x="342" d="M82 1296v138h178v-138l-20 -333h-138z" />
<glyph unicode="(" horiz-adv-x="563" d="M113 625q0 156 13 280.5t43 226t79 181.5t123 141l145 -82q-68 -57 -112 -126.5t-70.5 -161t-36.5 -204t-10 -255.5t10 -256t36.5 -204t71 -161t111.5 -127l-145 -82q-74 61 -123 141t-79 181.5t-43 226.5t-13 281z" />
<glyph unicode=")" horiz-adv-x="563" d="M47 -123q68 57 112 127t69.5 161t36.5 203.5t11 256.5q0 143 -11 255.5t-36.5 204t-69.5 161t-112 126.5l143 82q74 -61 124.5 -141t80 -181.5t43 -226t13.5 -280.5t-13.5 -281t-43 -226.5t-80 -181t-124.5 -141.5z" />
<glyph unicode="*" horiz-adv-x="778" d="M61 1153l64 164l188 -88l-10 205h172l-10 -205l188 88l64 -164l-199 -66l137 -161l-141 -105l-125 189l-125 -189l-141 105l137 161z" />
<glyph unicode="+" horiz-adv-x="921" d="M72 567v174h301v303h174v-303h303v-174h-303v-301h-174v301h-301z" />
<glyph unicode="," horiz-adv-x="382" d="M78 -244q47 59 68.5 118.5t27.5 125.5h-74v182h183v-125q0 -98 -22.5 -175t-76.5 -148z" />
<glyph unicode="-" horiz-adv-x="583" d="M72 440v154h440v-154h-440z" />
<glyph unicode="." horiz-adv-x="382" d="M100 0v182h183v-182h-183z" />
<glyph unicode="/" horiz-adv-x="905" d="M0 -205l719 1639h186l-719 -1639h-186z" />
<glyph unicode="0" horiz-adv-x="1177" d="M72 717q0 190 26.5 329.5t88 229.5t159.5 134t242 44q143 0 241.5 -44t160 -134t89 -229.5t27.5 -329.5t-27.5 -329.5t-89 -229.5t-160 -134t-241.5 -44t-241.5 44t-160 134t-88 229t-26.5 330zM246 717q0 -139 14 -247t53 -180.5t105.5 -109.5t169.5 -37q102 0 168.5 37 t105.5 109.5t54.5 180.5t15.5 247q0 141 -15.5 249.5t-54.5 183.5t-105.5 112.5t-168.5 37.5t-169 -37.5t-106 -112.5t-53 -183.5t-14 -249.5z" />
<glyph unicode="1" horiz-adv-x="1177" d="M158 1255l432 199h98v-1300h297v-154h-768v154h297v1087l-301 -137z" />
<glyph unicode="2" horiz-adv-x="1177" d="M88 0v135l455 469q41 41 94 93.5t101 113.5t82 131t34 143q0 104 -70.5 159.5t-199.5 55.5q-131 0 -206 -60t-83 -191l-174 38q8 94 48 164t101.5 115t142.5 66.5t173 21.5q98 0 180 -23.5t140.5 -69.5t90 -114.5t31.5 -161.5q0 -86 -25.5 -156.5t-73.5 -141t-119 -144.5 t-159 -166l-303 -311h739v-166h-999z" />
<glyph unicode="3" horiz-adv-x="1177" d="M90 377l170 37q10 -135 101.5 -208t232.5 -73q145 0 232 71.5t87 219.5q0 113 -81.5 181.5t-278.5 68.5h-180v153h190q92 0 151.5 21.5t94.5 56.5t48 82t13 96q0 57 -22.5 98.5t-61 68t-91 38.5t-111.5 12q-111 0 -192 -45t-93 -145l-170 29q12 80 52 138t101.5 98 t138.5 59.5t163 19.5q92 0 176 -21.5t147.5 -64.5t100 -108.5t36.5 -153.5q0 -100 -40.5 -192.5t-149.5 -153.5q123 -53 178 -138t55 -202q0 -111 -37.5 -194t-103 -138t-156 -81.5t-196.5 -26.5q-98 0 -185 24.5t-155 74.5t-111 125t-53 173z" />
<glyph unicode="4" horiz-adv-x="1177" d="M61 260v131l680 1063l150 -78l-617 -962h463v524h174v-524h205v-154h-205v-260h-174v260h-676z" />
<glyph unicode="5" horiz-adv-x="1177" d="M90 389l172 49q14 -150 104.5 -222.5t219.5 -72.5q70 0 129 21.5t103 63.5t68.5 104.5t24.5 146.5q0 61 -14 116.5t-47 97.5t-87 65.5t-136 23.5q-55 0 -123 -16t-154 -55h-176l35 723h792v-162h-626l-21 -391q160 55 293 55q217 0 327.5 -124t110.5 -333 q0 -125 -37.5 -218t-105.5 -155.5t-160 -94t-198 -31.5q-86 0 -169 25.5t-150.5 76.5t-114 128t-60.5 179z" />
<glyph unicode="6" horiz-adv-x="1177" d="M102 662q0 178 28 324.5t90.5 249.5t161.5 160.5t243 57.5q129 0 233.5 -51t167.5 -160l-141 -102q-49 86 -118 122.5t-142 36.5q-184 0 -267.5 -142t-83.5 -410q53 86 145.5 132t211.5 46q96 0 177 -28t140.5 -84t92 -141t32.5 -198q0 -90 -24.5 -178t-80 -158.5 t-143.5 -114.5t-217 -44q-137 0 -233 49t-156.5 138t-88.5 215t-28 280zM297 457q0 -59 16.5 -116.5t52 -104t93 -75t141.5 -28.5q82 0 139.5 28.5t92 76t51 106.5t16.5 121q0 57 -15.5 112.5t-51 98.5t-92 69.5t-138.5 26.5q-84 0 -142.5 -26.5t-94 -70.5t-52 -100.5 t-16.5 -117.5z" />
<glyph unicode="7" horiz-adv-x="1177" d="M80 1268v166h1018v-86l-572 -1348h-188l534 1268h-792z" />
<glyph unicode="8" horiz-adv-x="1177" d="M111 397q0 123 53 217.5t164 147.5q-84 51 -125 134t-41 187q0 80 24.5 147.5t75.5 117t132 78t194 28.5t193.5 -28.5t133 -78t77 -117t24.5 -147.5q0 -104 -42 -187t-126 -134q111 -53 165 -147.5t54 -217.5q0 -90 -27.5 -165.5t-86 -132t-148.5 -88t-217 -31.5 t-217 31.5t-148.5 88t-85 132t-26.5 165.5zM285 412q0 -61 16 -112.5t53 -88.5t94.5 -57.5t139.5 -20.5q162 0 233.5 78t71.5 201q0 57 -17.5 106t-54.5 86t-94 57.5t-139 20.5t-139.5 -20.5t-94.5 -57.5t-53 -86t-16 -106zM336 1071q0 -104 57.5 -169.5t194.5 -65.5 t195.5 65.5t58.5 169.5q0 100 -58.5 164.5t-195.5 64.5t-194.5 -64.5t-57.5 -164.5z" />
<glyph unicode="9" horiz-adv-x="1177" d="M102 956q0 90 25 179.5t80 160t144 114.5t218 44q137 0 232.5 -49t156 -138t88 -215t27.5 -280q0 -178 -27.5 -324.5t-89 -250t-161 -160.5t-242.5 -57q-129 0 -234.5 51t-168.5 157l143 105q47 -86 115.5 -123t144.5 -37q184 0 267 140.5t83 410.5q-53 -82 -146 -130 t-212 -48q-96 0 -177 28.5t-140.5 85t-92.5 140.5t-33 196zM276 969q0 -59 15.5 -114.5t51.5 -98.5t92.5 -70t137.5 -27q84 0 142.5 27t95.5 71t53.5 101t16.5 117q0 59 -16.5 117.5t-52.5 104.5t-94.5 74.5t-142.5 28.5q-82 0 -139 -28.5t-92 -75.5t-51.5 -106.5 t-16.5 -120.5z" />
<glyph unicode=":" horiz-adv-x="382" d="M100 0v182h183v-182h-183zM100 842v182h183v-182h-183z" />
<glyph unicode=";" horiz-adv-x="382" d="M78 -244q47 59 68.5 118.5t27.5 125.5h-74v182h183v-100q0 -111 -20.5 -190.5t-78.5 -157.5zM100 842v182h183v-182h-183z" />
<glyph unicode="&#x3c;" horiz-adv-x="921" d="M94 551v125l735 571v-209l-542 -426l542 -426v-206z" />
<glyph unicode="=" horiz-adv-x="921" d="M72 389v174h778v-174h-778zM72 748v174h778v-174h-778z" />
<glyph unicode="&#x3e;" horiz-adv-x="921" d="M92 -20v206l543 426l-543 426v209l735 -571v-125z" />
<glyph unicode="?" horiz-adv-x="958" d="M76 1143q8 82 44 141t90 97t120.5 55.5t140.5 17.5q78 0 149.5 -17.5t126 -57.5t87 -104.5t32.5 -158.5q0 -80 -21.5 -142.5t-55 -116.5t-72.5 -105.5t-74 -107.5t-60.5 -123.5t-29.5 -153.5h-174q4 100 29.5 174.5t60.5 135t74 112t72.5 100.5t55 102t21.5 121 q0 55 -17.5 91t-48 57.5t-70.5 30.5t-85 9q-43 0 -83 -11t-69.5 -34.5t-48 -61.5t-20.5 -93zM365 0v203h202v-203h-202z" />
<glyph unicode="@" horiz-adv-x="1665" d="M113 510q0 164 44 301t133 236.5t224 154.5t317 55q168 0 301.5 -46t226.5 -135t143 -218t50 -293q0 -80 -15 -167t-51 -159.5t-94.5 -119.5t-146.5 -47q-78 0 -126 42t-66 99q-51 -74 -119 -107.5t-154 -33.5q-154 0 -242.5 108.5t-88.5 306.5q0 244 103 354.5 t279 110.5q84 0 168 -24.5t170 -71.5v-418q0 -43 3.5 -82t12.5 -68.5t26.5 -46t45.5 -16.5q61 0 91 91.5t30 256.5q0 125 -37.5 223.5t-109.5 167t-173.5 104.5t-226.5 36q-143 0 -246.5 -44t-170 -122t-98 -185.5t-31.5 -232.5q0 -127 30.5 -237.5t96 -191.5t169 -128 t250.5 -47q199 0 332 74l54 -146q-82 -39 -172.5 -60.5t-213.5 -21.5q-182 0 -317 55.5t-224 155t-133 236.5t-44 301zM623 487q0 -135 43 -198.5t125 -63.5q98 0 151 84t53 269v186q-82 35 -159 35q-111 0 -162 -73t-51 -239z" />
<glyph unicode="A" horiz-adv-x="1331" d="M51 0l524 1434h181l524 -1434h-184l-138 375h-585l-137 -375h-185zM428 528h473l-235 646z" />
<glyph unicode="B" horiz-adv-x="1206" d="M154 0v1434h495q213 0 322.5 -91.5t109.5 -273.5q0 -129 -46 -212t-138 -136q100 -41 151.5 -117t51.5 -203q0 -211 -108.5 -306t-342.5 -95h-495zM328 154h305q147 0 220 57t73 203q0 127 -73 176t-218 49h-307v-485zM328 793h307q135 0 203.5 59t68.5 199 q0 123 -69.5 176t-206.5 53h-303v-487z" />
<glyph unicode="C" horiz-adv-x="1382" d="M123 715q0 211 47 352t127 227t188.5 123t231.5 37q94 0 179 -19.5t156.5 -65.5t127 -120.5t90.5 -185.5l-164 -55q-23 86 -62.5 142t-91 90t-112 47t-123.5 13q-86 0 -163 -26.5t-134.5 -94t-90 -180t-32.5 -284.5t32.5 -285t90 -179.5t134.5 -92t163 -25.5 q68 0 129 15.5t113.5 52.5t91.5 98t61 156l168 -47q-31 -121 -86 -203t-129 -132t-163 -71.5t-185 -21.5q-123 0 -231.5 35.5t-188.5 120.5t-127 226.5t-47 352.5z" />
<glyph unicode="D" horiz-adv-x="1351" d="M154 0v1434h376q221 0 358.5 -49.5t212.5 -143.5t101.5 -230.5t26.5 -308.5q0 -154 -29 -282.5t-103.5 -222t-204.5 -145.5t-335 -52h-403zM328 154h231q154 0 250 38.5t150.5 109.5t75 172t20.5 228q0 143 -18.5 251t-75 180.5t-160 109.5t-271.5 37h-202v-1126z" />
<glyph unicode="E" horiz-adv-x="1130" d="M154 0v1434h850v-154h-676v-485h645v-154h-645v-487h696v-154h-870z" />
<glyph unicode="F" horiz-adv-x="1028" d="M154 0v1434h768v-154h-594v-506h563v-153h-563v-621h-174z" />
<glyph unicode="G" horiz-adv-x="1411" d="M123 715q0 211 48 352t131 227t192.5 123t232.5 37q94 0 178 -20.5t153.5 -66.5t123 -121t88.5 -185l-162 -51q-25 84 -61.5 140t-86 90t-108.5 47t-125 13q-88 0 -166 -26.5t-136 -94t-93 -180t-35 -284.5t35 -285t93 -179.5t136 -92t166 -25.5q86 0 156.5 24.5t122 79 t80 141.5t28.5 214v8h-422v154h596v-162q0 -154 -41 -269.5t-114.5 -191.5t-177 -113.5t-228.5 -37.5q-123 0 -232.5 35.5t-192.5 120.5t-131 226.5t-48 352.5z" />
<glyph unicode="H" horiz-adv-x="1361" d="M154 0v1434h174v-660h706v660h174v-1434h-174v621h-706v-621h-174z" />
<glyph unicode="I" horiz-adv-x="716" d="M106 0v154h164v1126h-164v154h504v-154h-166v-1126h166v-154h-504z" />
<glyph unicode="J" horiz-adv-x="788" d="M37 109l82 145q39 -51 85 -81t107 -30q72 0 111 50.5t39 160.5v926h-205v154h379v-1086q0 -98 -23.5 -167.5t-64.5 -113.5t-98.5 -65.5t-124.5 -21.5q-176 0 -287 129z" />
<glyph unicode="K" horiz-adv-x="1277" d="M154 0v1434h174v-752l620 752h223l-501 -607q63 -25 111 -56.5t88 -73.5t72 -96t63 -126l198 -475h-190l-178 426q-25 57 -51.5 100t-58.5 75t-72 55.5t-91 41.5l-233 -282v-416h-174z" />
<glyph unicode="L" horiz-adv-x="1056" d="M154 0v1434h174v-1280h616v-154h-790z" />
<glyph unicode="M" horiz-adv-x="1652" d="M133 0l76 1434h176l440 -1153l441 1153h178l76 -1434h-174l-54 1020l-389 -1020h-153l-392 1020l-51 -1020h-174z" />
<glyph unicode="N" horiz-adv-x="1351" d="M154 0v1434h163l707 -1096v1096h174v-1434h-164l-706 1094v-1094h-174z" />
<glyph unicode="O" horiz-adv-x="1435" d="M123 717q0 211 43 352t121 227t187.5 122t242.5 36q135 0 244.5 -36t187.5 -122t121 -227t43 -352t-43 -352.5t-121 -227.5t-187.5 -121.5t-244.5 -35.5q-133 0 -242.5 35.5t-187.5 121.5t-121 227.5t-43 352.5zM297 717q0 -172 29.5 -286t85 -179.5t133.5 -92t172 -26.5 t172 26.5t133 92t86 179.5t31 286t-31 284.5t-86 179t-133 93t-172 26.5t-172 -26.5t-133.5 -93t-85 -179t-29.5 -284.5z" />
<glyph unicode="P" horiz-adv-x="1155" d="M154 0v1434h426q229 0 349 -103.5t120 -322.5q0 -233 -120 -337t-349 -104h-252v-567h-174zM328 721h252q145 0 219.5 61.5t74.5 225.5q0 156 -74.5 214t-219.5 58h-252v-559z" />
<glyph unicode="Q" horiz-adv-x="1435" d="M123 717q0 211 43 352t121 227t187.5 122t242.5 36q135 0 244.5 -36t187.5 -122t121 -227t43 -352q0 -174 -30 -301t-85 -213t-133 -136.5t-176 -70.5q39 -29 80 -46.5t90 -26.5t109.5 -12t140.5 -3l-58 -154q-117 0 -201.5 9.5t-151.5 35t-123 69.5t-118 114 q-121 6 -220 48t-168.5 128t-107.5 223t-38 336zM297 717q0 -172 29.5 -286t85 -179.5t133.5 -92t172 -26.5t172 26.5t133 92t86 179.5t31 286t-31 284.5t-86 179t-133 93t-172 26.5t-172 -26.5t-133.5 -93t-85 -179t-29.5 -284.5z" />
<glyph unicode="R" horiz-adv-x="1173" d="M154 0v1434h446q221 0 335 -103.5t114 -296.5q0 -348 -322 -403l369 -631h-199l-362 621h-207v-621h-174zM328 774h272q139 0 206.5 58.5t67.5 197.5q0 250 -274 250h-272v-506z" />
<glyph unicode="S" horiz-adv-x="1228" d="M113 117l69 147q49 -33 97.5 -57.5t97.5 -40.5t103.5 -24.5t119.5 -8.5q70 0 130.5 13.5t104.5 43t68.5 77.5t24.5 120q0 102 -57.5 153.5t-143.5 79t-186.5 49t-186.5 65.5t-143 125t-57 231q0 94 35.5 162.5t97 113.5t144.5 66.5t179 21.5q141 0 256 -32.5t205 -80.5 l-59 -145q-74 41 -174.5 72.5t-227.5 31.5q-59 0 -110 -13t-90 -38.5t-60.5 -65.5t-21.5 -93q0 -82 32.5 -131.5t88 -79t125 -47t141 -36t141.5 -43t125 -68.5t88 -114.5t33 -179.5q0 -117 -40 -195.5t-107.5 -127t-158.5 -68.5t-194 -20q-141 0 -266 38.5t-223 98.5z" />
<glyph unicode="T" horiz-adv-x="1105" d="M66 1280v154h974v-154h-401v-1280h-174v1280h-399z" />
<glyph unicode="U" horiz-adv-x="1382" d="M154 451v983h174v-983q0 -92 30.5 -152.5t82 -97.5t117 -52.5t132.5 -15.5q68 0 133.5 15.5t116.5 52.5t83 97t32 153v983h174v-983q0 -133 -46 -223.5t-122 -145.5t-173 -78.5t-198 -23.5q-100 0 -196.5 24.5t-172 79.5t-121.5 145t-46 222z" />
<glyph unicode="V" horiz-adv-x="1345" d="M51 1434h185l436 -1153l438 1153h184l-544 -1434h-154z" />
<glyph unicode="W" horiz-adv-x="2019" d="M51 1434h180l342 -1112l345 1112h184l342 -1112l344 1112h180l-442 -1434h-164l-352 1141l-353 -1141h-163z" />
<glyph unicode="X" horiz-adv-x="1261" d="M55 0l471 735l-446 699h205l344 -539l346 539h207l-449 -699l473 -735h-205l-370 575l-369 -575h-207z" />
<glyph unicode="Y" horiz-adv-x="1173" d="M51 1434h197l338 -629l340 629h196l-448 -830v-604h-174v604z" />
<glyph unicode="Z" horiz-adv-x="1241" d="M106 0v104l752 1168h-721v162h965v-107l-754 -1167h785v-160h-1027z" />
<glyph unicode="[" horiz-adv-x="563" d="M133 -205v1639h348v-154h-174v-1331h174v-154h-348z" />
<glyph unicode="\" horiz-adv-x="905" d="M0 1434h186l719 -1639h-186z" />
<glyph unicode="]" horiz-adv-x="563" d="M82 -51h174v1331h-174v154h348v-1639h-348v154z" />
<glyph unicode="^" horiz-adv-x="1058" d="M31 819l422 615h153l422 -615h-203l-297 430l-295 -430h-202z" />
<glyph unicode="_" horiz-adv-x="942" d="M51 0h840v-154h-840v154z" />
<glyph unicode="`" horiz-adv-x="380" d="M25 1352l141 123l190 -306l-47 -43z" />
<glyph unicode="a" horiz-adv-x="1046" d="M76 287q0 166 109.5 253t320.5 87q47 0 100 -6.5t113 -16.5v94q0 98 -59.5 145.5t-145.5 47.5q-78 0 -133 -36t-70 -103l-182 24q10 63 45 113.5t86 85.5t116.5 52t139.5 17q78 0 146.5 -20t120 -62t81 -106.5t29.5 -153.5v-333q0 -104 5 -191.5t17 -177.5h-174 q-10 35 -14 72t-8 78q-63 -86 -152.5 -128t-179.5 -42q-145 0 -228 76.5t-83 230.5zM250 287q0 -80 42 -117t118 -37q59 0 114.5 21.5t98.5 60.5t69.5 93t26.5 120v18q-57 14 -105.5 20.5t-107.5 6.5q-135 0 -195.5 -47t-60.5 -139z" />
<glyph unicode="b" horiz-adv-x="1157" d="M131 0q12 92 17.5 180t5.5 193v1122h174v-637q51 90 127.5 138t189.5 48q84 0 155.5 -30.5t125 -94t84 -160.5t30.5 -229q0 -139 -31.5 -242.5t-88 -172t-134 -102t-170.5 -33.5q-96 0 -169.5 38.5t-131.5 110.5q-4 -33 -9 -64.5t-13 -64.5h-162zM328 299 q59 -86 121.5 -126t144.5 -40q125 0 198.5 103.5t73.5 293.5q0 184 -71.5 272.5t-182.5 88.5q-59 0 -111 -27.5t-91 -83t-60.5 -137.5t-21.5 -188v-156z" />
<glyph unicode="c" horiz-adv-x="1064" d="M117 512q0 119 29.5 217t88 169t146.5 108.5t205 37.5q150 0 252 -61t155 -170l-149 -92q-78 170 -258 170q-150 0 -222.5 -102.5t-72.5 -276.5t72.5 -276.5t222.5 -102.5q92 0 159.5 45t102.5 135l160 -69q-51 -123 -157 -193.5t-265 -70.5q-117 0 -205 37.5 t-146.5 108.5t-88 168t-29.5 218z" />
<glyph unicode="d" horiz-adv-x="1157" d="M117 483q0 143 31.5 250t89 175.5t137.5 102t174 33.5q74 0 146.5 -28.5t133.5 -83.5v563h175v-1122q0 -104 5 -192.5t17 -180.5h-162q-10 41 -17 82t-11 82q-127 -184 -326 -184q-84 0 -156.5 31.5t-125 94t-82 156.5t-29.5 221zM291 483q0 -180 70.5 -265t181.5 -85 q59 0 111.5 27.5t91 82t61 136.5t22.5 190v193q-129 129 -262 129q-129 0 -202.5 -103.5t-73.5 -304.5z" />
<glyph unicode="e" horiz-adv-x="1140" d="M117 512q0 119 29.5 217t88 169t146.5 108.5t205 37.5q113 0 195.5 -37.5t136 -105t79 -160t25.5 -202.5v-97h-727q16 -154 103 -231.5t235 -77.5q70 0 146.5 21.5t156.5 66.5l57 -141q-92 -51 -184 -75.5t-178 -24.5q-115 0 -209 35.5t-161.5 104t-105.5 168t-38 224.5z M295 596h551q-6 135 -68.5 215t-191.5 80q-131 0 -203 -80t-88 -215z" />
<glyph unicode="f" horiz-adv-x="716" d="M45 870v154h154v170q0 158 78.5 240t214.5 82q70 0 165 -29l-43 -152q-63 27 -110 27q-55 0 -93 -38t-38 -128v-172h276v-154h-276v-870h-174v870h-154z" />
<glyph unicode="g" horiz-adv-x="1081" d="M98 -315l68 143q98 -59 179 -81.5t181 -22.5q135 0 208 45t73 122q0 51 -33 80t-121 29h-454v74l106 256q-92 47 -134 133t-42 203q0 84 23.5 153.5t70.5 119.5t121 77.5t174 27.5q43 0 81 -5t73 -15h383v-154h-189q45 -84 45 -204q0 -84 -23.5 -154t-71.5 -120 t-121.5 -77.5t-176.5 -27.5h-27.5t-25.5 2l-57 -135h266q84 0 142 -19.5t95 -54.5t53.5 -82t16.5 -102q0 -86 -34 -147.5t-94 -101.5t-144 -58.5t-183 -18.5q-139 0 -239.5 28.5t-188.5 86.5zM303 666q0 -102 50 -164t165 -62q117 0 168 61.5t51 164.5q0 104 -51 164.5 t-168 60.5q-115 0 -165 -60.5t-50 -164.5z" />
<glyph unicode="h" horiz-adv-x="1124" d="M154 0v1495h174v-618q114 167 321 167h2q147 0 233.5 -88t86.5 -282v-674h-174v672q0 113 -54.5 166t-142.5 53q-119 0 -195.5 -95.5t-76.5 -285.5v-510h-174z" />
<glyph unicode="i" horiz-adv-x="516" d="M61 872v152h201q59 0 79.5 -16.5t20.5 -75.5v-932h-174v872h-127zM180 1243v191h191v-191h-191z" />
<glyph unicode="j" horiz-adv-x="516" d="M61 872v152h201q59 0 79.5 -16.5t20.5 -75.5v-881q0 -78 -6 -140.5t-23.5 -118.5t-46 -109.5t-73.5 -112.5l-150 86q37 51 62 93t39 86t19 94.5t5 115.5v827h-127zM180 1243v191h191v-191h-191z" />
<glyph unicode="k" horiz-adv-x="1087" d="M154 0v1495h174v-956l454 485h228l-363 -385q39 -12 72 -31.5t59.5 -48.5t51 -71t49.5 -101l161 -387h-190l-131 315q-18 45 -37.5 78t-41.5 55.5t-48.5 38t-61.5 27.5l-202 -217v-297h-174z" />
<glyph unicode="l" horiz-adv-x="548" d="M154 207v1288h174v-1253q0 -53 20.5 -77t54.5 -24q18 0 40 4.5t44 16.5l31 -150q-78 -32 -153 -32h-5q-88 0 -147 53t-59 174z" />
<glyph unicode="m" horiz-adv-x="1697" d="M154 0v1024h174v-141q98 161 282 161q96 0 169 -45t108 -133q53 88 137 133t184 45q147 0 241.5 -85t94.5 -259v-700h-174v702q0 98 -54 143.5t-128 45.5q-111 0 -181.5 -85t-70.5 -243v-563h-174v696q0 100 -48 147.5t-126 47.5q-53 0 -100.5 -21.5t-82 -63.5 t-56 -103.5t-21.5 -141.5v-561h-174z" />
<glyph unicode="n" horiz-adv-x="1124" d="M154 0v1024h174v-147q114 167 321 167h2q147 0 233.5 -88t86.5 -282v-674h-174v672q0 113 -54.5 166t-142.5 53q-119 0 -195.5 -94.5t-76.5 -286.5v-510h-174z" />
<glyph unicode="o" horiz-adv-x="1171" d="M117 512q0 119 29.5 217t88 169t146.5 108.5t205 37.5t205 -37.5t146 -108.5t88 -169t30 -217q0 -121 -30 -218t-88 -168t-146 -108.5t-205 -37.5t-205 37.5t-146.5 108.5t-88 168t-29.5 218zM291 512q0 -174 72.5 -276.5t222.5 -102.5t222.5 102.5t72.5 276.5 t-72.5 276.5t-222.5 102.5t-222.5 -102.5t-72.5 -276.5z" />
<glyph unicode="p" horiz-adv-x="1157" d="M154 -410v1434h174v-166q51 90 127.5 138t189.5 48q84 0 155.5 -30.5t125 -94t84 -160.5t30.5 -229q0 -139 -31.5 -242.5t-88 -172t-134 -102t-170.5 -33.5q-176 0 -288 135v-525h-174zM328 303q61 -86 122.5 -128t143.5 -42q125 0 198.5 103.5t73.5 293.5 q0 184 -71.5 272.5t-182.5 88.5q-59 0 -111 -27.5t-91 -83t-60.5 -137.5t-21.5 -188v-152z" />
<glyph unicode="q" horiz-adv-x="1157" d="M117 494q0 139 31.5 242.5t88 172t134.5 102t170 33.5q172 0 288 -137v117h175v-1434h-175v574q-47 -80 -124.5 -132t-192.5 -52q-84 0 -155.5 30.5t-125 94t-84 160.5t-30.5 229zM291 494q0 -184 71.5 -272.5t182.5 -88.5q59 0 111.5 27.5t90 83t60 136.5t22.5 189v154 q-61 86 -123.5 127t-142.5 41q-125 0 -198.5 -103.5t-73.5 -293.5z" />
<glyph unicode="r" horiz-adv-x="724" d="M154 0v1024h174v-123q39 72 98 107.5t131 35.5q61 0 123 -20l-33 -166q-61 23 -108 23q-100 0 -155.5 -83t-55.5 -249v-549h-174z" />
<glyph unicode="s" horiz-adv-x="974" d="M88 102l90 140q59 -49 138 -79t165 -30q39 0 76 7t66.5 25.5t47 47.5t17.5 72q0 59 -41 90t-102.5 51t-134 39.5t-134 53.5t-102.5 91.5t-41 155.5q0 74 31 126t82 86t117.5 50t140.5 16q92 0 182 -23.5t160 -64.5l-72 -147q-129 82 -274 82q-39 0 -74 -7t-61.5 -22.5 t-42 -39t-15.5 -58.5q0 -57 41 -87t102.5 -49.5t134 -38t134 -52t102.5 -93t41 -159.5q0 -82 -31.5 -140.5t-86 -95.5t-124 -53t-145.5 -16q-225 0 -387 122z" />
<glyph unicode="t" horiz-adv-x="727" d="M45 870v154h154v328h174v-328h286v-154h-286v-567q0 -94 36.5 -132t94.5 -38q70 0 143 45l41 -145q-100 -53 -209 -53q-59 0 -110.5 16t-89 54t-59 98.5t-21.5 146.5v575h-154z" />
<glyph unicode="u" horiz-adv-x="1124" d="M154 350v674h174v-670q0 -115 53 -168t139 -53q121 0 199 97.5t78 277.5v516h174v-651q0 -104 5 -192.5t17 -180.5h-174q-10 37 -15 74t-7 80q-51 -86 -132 -130t-182 -44q-154 0 -241.5 86t-87.5 284z" />
<glyph unicode="v" horiz-adv-x="1046" d="M45 1024h188l289 -741l291 741h188l-401 -1024h-154z" />
<glyph unicode="w" horiz-adv-x="1443" d="M45 1024h186l197 -670l199 670h190l197 -670l198 670h187l-303 -1024h-160l-215 723l-213 -723h-160z" />
<glyph unicode="x" horiz-adv-x="1005" d="M45 0l352 526l-331 498h210l226 -340l227 340h211l-332 -498l353 -526h-211l-248 369l-246 -369h-211z" />
<glyph unicode="y" horiz-adv-x="1046" d="M45 1024h188l289 -719l293 719h186l-579 -1434h-189l195 482z" />
<glyph unicode="z" horiz-adv-x="956" d="M76 0v82l520 780h-502v162h766v-82l-524 -782h543v-160h-803z" />
<glyph unicode="{" horiz-adv-x="563" d="M61 553v145q41 10 67 23.5t39 33t18 47t5 64.5v318q0 68 8.5 115t32 77.5t66.5 44t113 13.5h92v-154h-60q-53 0 -65 -26.5t-12 -98.5v-262q0 -92 -20.5 -158.5t-92.5 -109.5q72 -45 92.5 -110.5t20.5 -158.5v-262q0 -72 12 -98.5t65 -26.5h60v-153h-92q-70 0 -113 13 t-66.5 44t-32 78t-8.5 115v317q0 37 -5 64.5t-18 47t-39 34t-67 24.5z" />
<glyph unicode="|" horiz-adv-x="550" d="M188 -225v1781h174v-1781h-174z" />
<glyph unicode="}" horiz-adv-x="563" d="M61 -31h60q53 0 65.5 27t12.5 98v262q0 92 19.5 158t90.5 111q-72 43 -91 109.5t-19 158.5v262q0 72 -12.5 98.5t-65.5 26.5h-60v154h93q70 0 112.5 -13.5t66 -44t32 -78t8.5 -114.5v-318q0 -37 5 -64.5t18.5 -47t39 -32.5t66.5 -24v-145q-41 -10 -66.5 -24.5t-39 -34 t-18.5 -47t-5 -64.5v-317q0 -68 -8.5 -115t-32 -78t-66.5 -44t-112 -13h-93v153z" />
<glyph unicode="~" horiz-adv-x="956" d="M72 559q0 70 13 129.5t41 102.5t72 66.5t103 23.5t109.5 -28t93.5 -61.5t78.5 -61.5t68.5 -28q41 0 58.5 35t17.5 123h158q0 -141 -54.5 -231t-175.5 -90q-57 0 -105 27.5t-91 61.5t-81 61.5t-73 27.5q-41 0 -58.5 -36t-17.5 -122h-157z" />
<glyph unicode="&#xa1;" horiz-adv-x="440" d="M119 985h203v203h-203v-203zM133 -246h174v1076h-174v-1076z" />
<glyph unicode="&#xa2;" horiz-adv-x="1126" d="M117 715q0 213 91 352t277 172v195h174v-191q121 -16 204 -74.5t130 -152.5l-149 -92q-61 131 -185 161v-741q133 33 189 172l160 -70q-45 -111 -132.5 -177t-216.5 -83v-186h-174v190q-186 31 -277 170.5t-91 354.5zM291 715q0 -141 48 -236.5t146 -128.5v727 q-98 -33 -146 -127t-48 -235z" />
<glyph unicode="&#xa3;" horiz-adv-x="1126" d="M55 0v154q82 0 135.5 14t84 48t42 88t11.5 134v174h-230v154h230v326q0 182 97 272t253 90q123 0 213 -60.5t119 -185.5l-150 -61q-14 78 -61 115.5t-119 37.5q-84 0 -131 -51t-47 -157v-326h352v-154h-352v-172q0 -113 -19.5 -176t-70.5 -110h657v-154h-1014z" />
<glyph unicode="&#xa5;" horiz-adv-x="1126" d="M27 1434h196l338 -629l340 629h197l-373 -689h256v-153h-332v-133h332v-154h-332v-305h-174v305h-330v154h330v133h-330v153h252z" />
<glyph unicode="&#xa6;" horiz-adv-x="550" d="M188 -225v788h174v-788h-174zM188 768v788h174v-788h-174z" />
<glyph unicode="&#xa7;" horiz-adv-x="958" d="M90 725q0 86 31 150.5t92 115.5q-18 35 -28.5 76t-10.5 90q0 78 27.5 134.5t75 92t111 53t136.5 17.5q92 0 179.5 -23.5t156.5 -64.5l-67 -152q-57 41 -125 63.5t-140 22.5q-31 0 -61.5 -8t-55 -25.5t-40 -45t-15.5 -64.5q0 -68 38 -115t94.5 -85.5t123 -75.5t123 -84 t94 -113t37.5 -160q0 -88 -31.5 -151.5t-93.5 -114.5q18 -35 29.5 -77t11.5 -89q0 -78 -27.5 -134t-74.5 -92t-110.5 -53.5t-137.5 -17.5q-92 0 -179 23.5t-157 64.5l68 152q57 -41 124.5 -63.5t139.5 -22.5q31 0 61.5 8t55 25.5t40 45t15.5 64.5q0 68 -38 115t-94 86 t-122.5 76t-123 84t-94.5 112.5t-38 159.5zM264 733q0 -59 37 -103t92.5 -82t121 -77t122.5 -88q25 25 40 57.5t15 75.5q0 57 -37 101.5t-93 82t-121.5 76.5t-123.5 88q-25 -25 -39 -56.5t-14 -74.5z" />
<glyph unicode="&#xa8;" horiz-adv-x="636" d="M51 1202v180h180v-180h-180zM406 1202v180h180v-180h-180z" />
<glyph unicode="&#xaa;" horiz-adv-x="745" d="M53 942q0 61 24.5 107.5t67.5 76t100.5 45t123.5 15.5q37 0 74.5 -7.5t72.5 -17.5q0 82 -33.5 123t-111.5 41q-57 0 -96 -22.5t-50 -69.5l-139 39q25 92 102.5 137t188.5 45q59 0 112.5 -16.5t93.5 -48t63.5 -78.5t23.5 -109v-217q0 -68 2 -128t10 -120h-152 q-8 27 -10 54.5t-4 60.5q-35 -66 -99.5 -100.5t-140.5 -34.5q-94 0 -158.5 54t-64.5 171zM207 950q0 -57 27.5 -80.5t74.5 -23.5q37 0 75 14t66.5 40t47 60.5t18.5 75.5q-41 10 -79 17.5t-72 7.5q-70 0 -114 -25.5t-44 -85.5z" />
<glyph unicode="&#xab;" horiz-adv-x="999" d="M82 436v150l436 420v-226l-276 -268l276 -270v-226zM481 436v150l437 420v-226l-277 -268l277 -270v-226z" />
<glyph unicode="&#xac;" horiz-adv-x="921" d="M86 551v164h748v-361h-175v197h-573z" />
<glyph unicode="&#xad;" horiz-adv-x="583" d="M72 440v154h440v-154h-440z" />
<glyph unicode="&#xaf;" horiz-adv-x="655" d="M51 1202v150h553v-150h-553z" />
<glyph unicode="&#xb0;" horiz-adv-x="645" d="M61 1190q0 123 60.5 193.5t200.5 70.5q141 0 201.5 -70.5t60.5 -193.5t-60.5 -192.5t-201.5 -69.5q-139 0 -200 69.5t-61 192.5zM213 1190q0 -53 25 -81t84 -28t83.5 28t24.5 81t-24.5 81.5t-83.5 28.5t-84 -28.5t-25 -81.5z" />
<glyph unicode="&#xb1;" horiz-adv-x="921" d="M72 0v174h778v-174h-778zM72 628v174h301v303h174v-303h303v-174h-303v-301h-174v301h-301z" />
<glyph unicode="&#xb2;" horiz-adv-x="645" d="M39 922v116l219 224q39 41 68.5 72.5t50 59t30 54.5t9.5 55q0 41 -29 64.5t-78 23.5q-47 0 -71.5 -22.5t-32.5 -61.5l-150 35q18 84 88 131t168 47q49 0 95.5 -12t83 -40t58 -70t21.5 -101q0 -47 -15 -89t-40 -79t-57.5 -71.5t-65.5 -69.5l-125 -127h338v-139h-565z" />
<glyph unicode="&#xb3;" horiz-adv-x="645" d="M35 1110l143 41q4 -59 42 -90t102 -31q59 0 96 31t37 96q0 47 -35 79t-113 32h-104v129h90q80 0 106.5 33.5t26.5 74.5q0 45 -33 65.5t-80 20.5t-78.5 -20.5t-37.5 -61.5l-144 31q8 45 33 79t60.5 56.5t80.5 33.5t92 11q121 0 191 -53t70 -143q0 -55 -21.5 -102.5 t-73.5 -82.5q66 -31 94.5 -80t28.5 -112q0 -61 -22.5 -107.5t-60.5 -77t-90 -46t-111 -15.5q-111 0 -191 52.5t-98 156.5z" />
<glyph unicode="&#xb4;" horiz-adv-x="380" d="M25 1169l190 306l141 -123l-284 -226z" />
<glyph unicode="&#xb5;" horiz-adv-x="1124" d="M154 -410v1434h174v-670q0 -115 53 -168t139 -53q121 0 199 97.5t78 277.5v516h174v-651q0 -104 5 -192.5t17 -180.5h-174q-10 37 -15 74t-7 80q-51 -86 -132 -130t-182 -44q-90 0 -155 26v-416h-174z" />
<glyph unicode="&#xb6;" horiz-adv-x="1167" d="M72 1024q0 78 19.5 151.5t65.5 131t123.5 92.5t194.5 35h559v-1639h-174v1485h-137v-1485h-174v823h-76q-117 0 -193.5 35t-122.5 92.5t-65.5 130t-19.5 148.5z" />
<glyph unicode="&#xb7;" horiz-adv-x="382" d="M100 539v182h183v-182h-183z" />
<glyph unicode="&#xb8;" horiz-adv-x="415" d="M25 -369l32 121q35 -16 69 -22t60 -6q29 0 47.5 9t18.5 34q0 41 -74 40h-104l41 193h133l-17 -82q84 -4 119 -45t35 -98q0 -80 -52 -127t-149 -47q-84 0 -159 30z" />
<glyph unicode="&#xb9;" horiz-adv-x="645" d="M43 1622l215 98h143v-665h162v-133h-479v133h164v512l-154 -70z" />
<glyph unicode="&#xba;" horiz-adv-x="794" d="M66 1085q0 166 80.5 267.5t250.5 101.5t250 -101.5t80 -267.5t-80 -267t-250 -101t-250.5 101.5t-80.5 266.5zM219 1085q0 -111 43 -176t135 -65t134 65.5t42 175.5q0 109 -42 174.5t-134 65.5t-135 -65.5t-43 -174.5z" />
<glyph unicode="&#xbb;" horiz-adv-x="999" d="M82 16v226l274 270l-274 268v226l436 -420v-150zM481 16v226l275 270l-275 268v226l437 -420v-150z" />
<glyph unicode="&#xbc;" horiz-adv-x="1570" d="M43 1356l215 98h143v-665h162v-133h-479v133h164v512l-154 -70zM277 0l1005 1434h187l-1006 -1434h-186zM951 120v111l362 567l117 -73l-307 -478h174v183h143v-183h102v-127h-102v-120h-143v120h-346z" />
<glyph unicode="&#xbd;" horiz-adv-x="1570" d="M43 1356l215 98h143v-665h162v-133h-479v133h164v512l-154 -70zM217 0l1005 1434h187l-1006 -1434h-186zM965 0v116l219 224q39 41 68.5 72.5t50 59t30 54.5t9.5 55q0 41 -29 64.5t-78 23.5q-47 0 -71.5 -22.5t-32.5 -61.5l-150 35q18 84 88 131t168 47q49 0 95.5 -12 t83 -40t58 -70t21.5 -101q0 -47 -15 -89t-40 -79t-57.5 -71.5t-65.5 -69.5l-125 -127h338v-139h-565z" />
<glyph unicode="&#xbe;" horiz-adv-x="1570" d="M35 844l143 41q4 -59 42 -90t102 -31q59 0 96 31t37 96q0 47 -35 79t-113 32h-104v129h90q80 0 106.5 33.5t26.5 74.5q0 45 -33 65.5t-80 20.5t-78.5 -20.5t-37.5 -61.5l-144 31q8 45 33 79t60.5 56.5t80.5 33.5t92 11q121 0 191 -53t70 -143q0 -55 -21.5 -102.5 t-73.5 -82.5q66 -31 94.5 -80t28.5 -112q0 -61 -22.5 -107.5t-60.5 -77t-90 -46t-111 -15.5q-111 0 -191 52.5t-98 156.5zM281 0l1005 1434h187l-1006 -1434h-186zM951 120v111l362 567l117 -73l-307 -478h174v183h143v-183h102v-127h-102v-120h-143v120h-346z" />
<glyph unicode="&#xbf;" horiz-adv-x="958" d="M78 72q0 80 21.5 142.5t55 116.5t72.5 105.5t74 107.5t60.5 123.5t29.5 153.5h174q-4 -100 -29.5 -174.5t-60.5 -135t-74 -112t-72.5 -100.5t-55 -102t-21.5 -121q0 -55 17.5 -91t48 -57.5t70.5 -30.5t85 -9q43 0 83 11t69.5 34.5t48 61.5t20.5 93l174 -43 q-8 -82 -44 -141t-90 -97t-120.5 -55.5t-140.5 -17.5q-78 0 -149.5 17.5t-126 57.5t-87 104.5t-32.5 158.5zM377 985v203h202v-203h-202z" />
<glyph unicode="&#xc0;" horiz-adv-x="1331" d="M51 0l524 1434h181l524 -1434h-184l-138 375h-585l-137 -375h-185zM428 528h473l-235 646zM492 1762l141 123l190 -306l-47 -43z" />
<glyph unicode="&#xc1;" horiz-adv-x="1331" d="M51 0l524 1434h181l524 -1434h-184l-138 375h-585l-137 -375h-185zM428 528h473l-235 646zM514 1579l190 306l141 -123l-284 -226z" />
<glyph unicode="&#xc2;" horiz-adv-x="1331" d="M51 0l524 1434h181l524 -1434h-184l-138 375h-585l-137 -375h-185zM389 1581l209 273h133l211 -273h-176l-100 129l-100 -129h-177zM428 528h473l-235 646z" />
<glyph unicode="&#xc3;" horiz-adv-x="1331" d="M51 0l524 1434h181l524 -1434h-184l-138 375h-585l-137 -375h-185zM385 1645q27 109 71.5 146.5t98.5 37.5q31 0 60.5 -12t57 -26.5t51 -27t46.5 -12.5q20 0 31.5 17.5t21.5 60.5l125 -33q-27 -109 -73 -146.5t-99 -37.5q-31 0 -60.5 12.5t-56 26.5t-51.5 26.5t-45 12.5 t-32.5 -17.5t-22.5 -60.5zM428 528h473l-235 646z" />
<glyph unicode="&#xc4;" horiz-adv-x="1331" d="M51 0l524 1434h181l524 -1434h-184l-138 375h-585l-137 -375h-185zM397 1612v180h180v-180h-180zM428 528h473l-235 646zM752 1612v180h180v-180h-180z" />
<glyph unicode="&#xc5;" horiz-adv-x="1331" d="M51 0l524 1434h181l524 -1434h-184l-138 375h-585l-137 -375h-185zM428 528h473l-235 646zM498 1745q0 82 45 126t123 44t123 -44t45 -126t-45 -125t-123 -43t-123 43t-45 125zM602 1745q1 -61 64 -61q61 0 61 61q0 63 -61 64q-63 0 -64 -64z" />
<glyph unicode="&#xc6;" horiz-adv-x="1765" d="M51 0l524 1434h1063v-154h-583v-485h553v-154h-553v-487h604v-154h-778v375h-508l-137 -375h-185zM428 528h453v752h-176z" />
<glyph unicode="&#xc7;" horiz-adv-x="1382" d="M123 715q0 211 47 352t127 227t188.5 123t231.5 37q94 0 179 -19.5t156.5 -65.5t127 -120.5t90.5 -185.5l-164 -55q-23 86 -62.5 142t-91 90t-112 47t-123.5 13q-86 0 -163 -26.5t-134.5 -94t-90 -180t-32.5 -284.5t32.5 -285t90 -179.5t134.5 -92t163 -25.5 q68 0 129 15.5t113.5 52.5t91.5 98t61 156l168 -47q-29 -113 -78 -191t-115.5 -128t-145.5 -75.5t-165 -31.5l-12 -64q84 -4 119 -45t35 -98q0 -80 -52.5 -127t-148.5 -47q-84 0 -160 30l33 121q35 -16 68.5 -22t60.5 -6q29 0 47 9t18 34q0 41 -73 40h-105l37 177 q-111 8 -205 51t-164.5 129t-110.5 221t-40 330z" />
<glyph unicode="&#xc8;" horiz-adv-x="1130" d="M154 0v1434h850v-154h-676v-485h645v-154h-645v-487h696v-154h-870zM412 1762l141 123l190 -306l-47 -43z" />
<glyph unicode="&#xc9;" horiz-adv-x="1130" d="M154 0v1434h850v-154h-676v-485h645v-154h-645v-487h696v-154h-870zM435 1579l190 306l141 -123l-284 -226z" />
<glyph unicode="&#xca;" horiz-adv-x="1130" d="M154 0v1434h850v-154h-676v-485h645v-154h-645v-487h696v-154h-870zM321 1581l209 273h133l211 -273h-176l-100 129l-100 -129h-177z" />
<glyph unicode="&#xcb;" horiz-adv-x="1130" d="M154 0v1434h850v-154h-676v-485h645v-154h-645v-487h696v-154h-870zM332 1612v180h180v-180h-180zM687 1612v180h180v-180h-180z" />
<glyph unicode="&#xcc;" horiz-adv-x="716" d="M106 0v154h164v1126h-164v154h504v-154h-166v-1126h166v-154h-504zM187 1762l141 123l190 -306l-47 -43z" />
<glyph unicode="&#xcd;" horiz-adv-x="716" d="M106 0v154h164v1126h-164v154h504v-154h-166v-1126h166v-154h-504zM209 1579l190 306l141 -123l-284 -226z" />
<glyph unicode="&#xce;" horiz-adv-x="716" d="M81 1581l209 273h133l211 -273h-176l-100 129l-100 -129h-177zM106 0v154h164v1126h-164v154h504v-154h-166v-1126h166v-154h-504z" />
<glyph unicode="&#xcf;" horiz-adv-x="716" d="M90 1612v180h180v-180h-180zM106 0v154h164v1126h-164v154h504v-154h-166v-1126h166v-154h-504zM445 1612v180h180v-180h-180z" />
<glyph unicode="&#xd0;" horiz-adv-x="1351" d="M20 639v154h134v641h376q221 0 358.5 -49.5t212.5 -143.5t101.5 -230.5t26.5 -308.5q0 -154 -29 -282.5t-103.5 -222t-204.5 -145.5t-335 -52h-403v639h-134zM328 154h231q154 0 250 38.5t150.5 109.5t75 172t20.5 228q0 143 -18.5 251t-75 180.5t-160 109.5t-271.5 37 h-202v-487h393v-154h-393v-485z" />
<glyph unicode="&#xd1;" horiz-adv-x="1351" d="M154 0v1434h163l707 -1096v1096h174v-1434h-164l-706 1094v-1094h-174zM402 1645q27 109 71.5 146.5t98.5 37.5q31 0 60.5 -12t57 -26.5t51 -27t46.5 -12.5q20 0 31.5 17.5t21.5 60.5l125 -33q-27 -109 -73 -146.5t-99 -37.5q-31 0 -60.5 12.5t-56 26.5t-51.5 26.5 t-45 12.5t-32.5 -17.5t-22.5 -60.5z" />
<glyph unicode="&#xd2;" horiz-adv-x="1435" d="M123 717q0 211 43 352t121 227t187.5 122t242.5 36q135 0 244.5 -36t187.5 -122t121 -227t43 -352t-43 -352.5t-121 -227.5t-187.5 -121.5t-244.5 -35.5q-133 0 -242.5 35.5t-187.5 121.5t-121 227.5t-43 352.5zM297 717q0 -172 29.5 -286t85 -179.5t133.5 -92t172 -26.5 t172 26.5t133 92t86 179.5t31 286t-31 284.5t-86 179t-133 93t-172 26.5t-172 -26.5t-133.5 -93t-85 -179t-29.5 -284.5zM551 1762l141 123l190 -306l-47 -43z" />
<glyph unicode="&#xd3;" horiz-adv-x="1435" d="M123 717q0 211 43 352t121 227t187.5 122t242.5 36q135 0 244.5 -36t187.5 -122t121 -227t43 -352t-43 -352.5t-121 -227.5t-187.5 -121.5t-244.5 -35.5q-133 0 -242.5 35.5t-187.5 121.5t-121 227.5t-43 352.5zM297 717q0 -172 29.5 -286t85 -179.5t133.5 -92t172 -26.5 t172 26.5t133 92t86 179.5t31 286t-31 284.5t-86 179t-133 93t-172 26.5t-172 -26.5t-133.5 -93t-85 -179t-29.5 -284.5zM551 1579l190 306l141 -123l-284 -226z" />
<glyph unicode="&#xd4;" horiz-adv-x="1435" d="M123 717q0 211 43 352t121 227t187.5 122t242.5 36q135 0 244.5 -36t187.5 -122t121 -227t43 -352t-43 -352.5t-121 -227.5t-187.5 -121.5t-244.5 -35.5q-133 0 -242.5 35.5t-187.5 121.5t-121 227.5t-43 352.5zM297 717q0 -172 29.5 -286t85 -179.5t133.5 -92t172 -26.5 t172 26.5t133 92t86 179.5t31 286t-31 284.5t-86 179t-133 93t-172 26.5t-172 -26.5t-133.5 -93t-85 -179t-29.5 -284.5zM440 1581l209 273h133l211 -273h-176l-100 129l-100 -129h-177z" />
<glyph unicode="&#xd5;" horiz-adv-x="1435" d="M123 717q0 211 43 352t121 227t187.5 122t242.5 36q135 0 244.5 -36t187.5 -122t121 -227t43 -352t-43 -352.5t-121 -227.5t-187.5 -121.5t-244.5 -35.5q-133 0 -242.5 35.5t-187.5 121.5t-121 227.5t-43 352.5zM297 717q0 -172 29.5 -286t85 -179.5t133.5 -92t172 -26.5 t172 26.5t133 92t86 179.5t31 286t-31 284.5t-86 179t-133 93t-172 26.5t-172 -26.5t-133.5 -93t-85 -179t-29.5 -284.5zM437 1645q27 109 71.5 146.5t98.5 37.5q31 0 60.5 -12t57 -26.5t51 -27t46.5 -12.5q20 0 31.5 17.5t21.5 60.5l125 -33q-27 -109 -73 -146.5t-99 -37.5 q-31 0 -60.5 12.5t-56 26.5t-51.5 26.5t-45 12.5t-32.5 -17.5t-22.5 -60.5z" />
<glyph unicode="&#xd6;" horiz-adv-x="1435" d="M123 717q0 211 43 352t121 227t187.5 122t242.5 36q135 0 244.5 -36t187.5 -122t121 -227t43 -352t-43 -352.5t-121 -227.5t-187.5 -121.5t-244.5 -35.5q-133 0 -242.5 35.5t-187.5 121.5t-121 227.5t-43 352.5zM297 717q0 -172 29.5 -286t85 -179.5t133.5 -92t172 -26.5 t172 26.5t133 92t86 179.5t31 286t-31 284.5t-86 179t-133 93t-172 26.5t-172 -26.5t-133.5 -93t-85 -179t-29.5 -284.5zM450 1612v180h180v-180h-180zM805 1612v180h180v-180h-180z" />
<glyph unicode="&#xd8;" horiz-adv-x="1435" d="M123 717q0 211 43 352t121 227t187.5 122t242.5 36q156 0 270 -47l68 129h186l-115 -217q88 -86 137.5 -231.5t49.5 -370.5q0 -211 -43 -352.5t-121 -227.5t-187.5 -121.5t-244.5 -35.5q-154 0 -268 45l-68 -127h-186l112 217q-88 84 -136 229t-48 373zM297 717 q0 -160 24.5 -266.5t71.5 -174.5l518 988q-43 20 -92 28t-102 8q-94 0 -172 -26.5t-133.5 -93t-85 -179t-29.5 -284.5zM522 168q82 -35 195 -35q94 0 172 26.5t133 92t86 179.5t31 286q0 158 -26 264t-73 174z" />
<glyph unicode="&#xd9;" horiz-adv-x="1382" d="M154 451v983h174v-983q0 -92 30.5 -152.5t82 -97.5t117 -52.5t132.5 -15.5q68 0 133.5 15.5t116.5 52.5t83 97t32 153v983h174v-983q0 -133 -46 -223.5t-122 -145.5t-173 -78.5t-198 -23.5q-100 0 -196.5 24.5t-172 79.5t-121.5 145t-46 222zM525 1762l141 123l190 -306 l-47 -43z" />
<glyph unicode="&#xda;" horiz-adv-x="1382" d="M154 451v983h174v-983q0 -92 30.5 -152.5t82 -97.5t117 -52.5t132.5 -15.5q68 0 133.5 15.5t116.5 52.5t83 97t32 153v983h174v-983q0 -133 -46 -223.5t-122 -145.5t-173 -78.5t-198 -23.5q-100 0 -196.5 24.5t-172 79.5t-121.5 145t-46 222zM525 1579l190 306l141 -123 l-284 -226z" />
<glyph unicode="&#xdb;" horiz-adv-x="1382" d="M154 451v983h174v-983q0 -92 30.5 -152.5t82 -97.5t117 -52.5t132.5 -15.5q68 0 133.5 15.5t116.5 52.5t83 97t32 153v983h174v-983q0 -133 -46 -223.5t-122 -145.5t-173 -78.5t-198 -23.5q-100 0 -196.5 24.5t-172 79.5t-121.5 145t-46 222zM413 1581l209 273h133 l211 -273h-176l-100 129l-100 -129h-177z" />
<glyph unicode="&#xdc;" horiz-adv-x="1382" d="M154 451v983h174v-983q0 -92 30.5 -152.5t82 -97.5t117 -52.5t132.5 -15.5q68 0 133.5 15.5t116.5 52.5t83 97t32 153v983h174v-983q0 -133 -46 -223.5t-122 -145.5t-173 -78.5t-198 -23.5q-100 0 -196.5 24.5t-172 79.5t-121.5 145t-46 222zM424 1612v180h180v-180h-180 zM779 1612v180h180v-180h-180z" />
<glyph unicode="&#xdd;" horiz-adv-x="1173" d="M51 1434h197l338 -629l340 629h196l-448 -830v-604h-174v604zM420 1579l190 306l141 -123l-284 -226z" />
<glyph unicode="&#xde;" horiz-adv-x="1118" d="M154 0v1434h174v-273h215q229 0 349 -106.5t120 -337.5q0 -233 -120 -340t-349 -107h-215v-270h-174zM328 424h215q145 0 220 64.5t75 228.5q0 166 -74 228.5t-221 62.5h-215v-584z" />
<glyph unicode="&#xdf;" horiz-adv-x="1140" d="M154 0v1092q0 123 29.5 204.5t84 130t130 69t167.5 20.5q106 0 216 -29t202 -70l-313 -502q84 -47 155.5 -97t123.5 -111.5t81 -138t29 -175.5q0 -90 -23.5 -165.5t-69.5 -131t-116 -86t-164 -30.5q-80 0 -138.5 17t-135.5 54l51 148q63 -35 113.5 -50.5t105.5 -15.5 q104 0 153.5 67.5t49.5 190.5q0 74 -24.5 132.5t-72 109.5t-117 96t-159.5 92v140l231 370q-47 14 -91 22.5t-85 8.5q-57 0 -101 -12.5t-75 -43t-47 -80.5t-16 -124v-1102h-174z" />
<glyph unicode="&#xe0;" horiz-adv-x="1046" d="M76 287q0 166 109.5 253t320.5 87q47 0 100 -6.5t113 -16.5v94q0 98 -59.5 145.5t-145.5 47.5q-78 0 -133 -36t-70 -103l-182 24q10 63 45 113.5t86 85.5t116.5 52t139.5 17q78 0 146.5 -20t120 -62t81 -106.5t29.5 -153.5v-333q0 -104 5 -191.5t17 -177.5h-174 q-10 35 -14 72t-8 78q-63 -86 -152.5 -128t-179.5 -42q-145 0 -228 76.5t-83 230.5zM250 287q0 -80 42 -117t118 -37q59 0 114.5 21.5t98.5 60.5t69.5 93t26.5 120v18q-57 14 -105.5 20.5t-107.5 6.5q-135 0 -195.5 -47t-60.5 -139zM349 1352l141 123l190 -306l-47 -43z" />
<glyph unicode="&#xe1;" horiz-adv-x="1046" d="M76 287q0 166 109.5 253t320.5 87q47 0 100 -6.5t113 -16.5v94q0 98 -59.5 145.5t-145.5 47.5q-78 0 -133 -36t-70 -103l-182 24q10 63 45 113.5t86 85.5t116.5 52t139.5 17q78 0 146.5 -20t120 -62t81 -106.5t29.5 -153.5v-333q0 -104 5 -191.5t17 -177.5h-174 q-10 35 -14 72t-8 78q-63 -86 -152.5 -128t-179.5 -42q-145 0 -228 76.5t-83 230.5zM250 287q0 -80 42 -117t118 -37q59 0 114.5 21.5t98.5 60.5t69.5 93t26.5 120v18q-57 14 -105.5 20.5t-107.5 6.5q-135 0 -195.5 -47t-60.5 -139zM351 1169l190 306l141 -123l-284 -226z " />
<glyph unicode="&#xe2;" horiz-adv-x="1046" d="M76 287q0 166 109.5 253t320.5 87q47 0 100 -6.5t113 -16.5v94q0 98 -59.5 145.5t-145.5 47.5q-78 0 -133 -36t-70 -103l-182 24q10 63 45 113.5t86 85.5t116.5 52t139.5 17q78 0 146.5 -20t120 -62t81 -106.5t29.5 -153.5v-333q0 -104 5 -191.5t17 -177.5h-174 q-10 35 -14 72t-8 78q-63 -86 -152.5 -128t-179.5 -42q-145 0 -228 76.5t-83 230.5zM239 1171l209 273h133l211 -273h-176l-100 129l-100 -129h-177zM250 287q0 -80 42 -117t118 -37q59 0 114.5 21.5t98.5 60.5t69.5 93t26.5 120v18q-57 14 -105.5 20.5t-107.5 6.5 q-135 0 -195.5 -47t-60.5 -139z" />
<glyph unicode="&#xe3;" horiz-adv-x="1046" d="M76 287q0 166 109.5 253t320.5 87q47 0 100 -6.5t113 -16.5v94q0 98 -59.5 145.5t-145.5 47.5q-78 0 -133 -36t-70 -103l-182 24q10 63 45 113.5t86 85.5t116.5 52t139.5 17q78 0 146.5 -20t120 -62t81 -106.5t29.5 -153.5v-333q0 -104 5 -191.5t17 -177.5h-174 q-10 35 -14 72t-8 78q-63 -86 -152.5 -128t-179.5 -42q-145 0 -228 76.5t-83 230.5zM236 1235q27 109 71.5 146.5t98.5 37.5q31 0 60.5 -12t57 -26.5t51 -27t46.5 -12.5q20 0 31.5 17.5t21.5 60.5l125 -33q-27 -109 -73 -146.5t-99 -37.5q-31 0 -60.5 12.5t-56 26.5 t-51.5 26.5t-45 12.5t-32.5 -17.5t-22.5 -60.5zM250 287q0 -80 42 -117t118 -37q59 0 114.5 21.5t98.5 60.5t69.5 93t26.5 120v18q-57 14 -105.5 20.5t-107.5 6.5q-135 0 -195.5 -47t-60.5 -139z" />
<glyph unicode="&#xe4;" horiz-adv-x="1046" d="M76 287q0 166 109.5 253t320.5 87q47 0 100 -6.5t113 -16.5v94q0 98 -59.5 145.5t-145.5 47.5q-78 0 -133 -36t-70 -103l-182 24q10 63 45 113.5t86 85.5t116.5 52t139.5 17q78 0 146.5 -20t120 -62t81 -106.5t29.5 -153.5v-333q0 -104 5 -191.5t17 -177.5h-174 q-10 35 -14 72t-8 78q-63 -86 -152.5 -128t-179.5 -42q-145 0 -228 76.5t-83 230.5zM250 287q0 -80 42 -117t118 -37q59 0 114.5 21.5t98.5 60.5t69.5 93t26.5 120v18q-57 14 -105.5 20.5t-107.5 6.5q-135 0 -195.5 -47t-60.5 -139zM250 1202v180h180v-180h-180zM605 1202 v180h180v-180h-180z" />
<glyph unicode="&#xe5;" horiz-adv-x="1046" d="M76 287q0 166 109.5 253t320.5 87q47 0 100 -6.5t113 -16.5v94q0 98 -59.5 145.5t-145.5 47.5q-78 0 -133 -36t-70 -103l-182 24q10 63 45 113.5t86 85.5t116.5 52t139.5 17q78 0 146.5 -20t120 -62t81 -106.5t29.5 -153.5v-333q0 -104 5 -191.5t17 -177.5h-174 q-10 35 -14 72t-8 78q-63 -86 -152.5 -128t-179.5 -42q-145 0 -228 76.5t-83 230.5zM250 287q0 -80 42 -117t118 -37q59 0 114.5 21.5t98.5 60.5t69.5 93t26.5 120v18q-57 14 -105.5 20.5t-107.5 6.5q-135 0 -195.5 -47t-60.5 -139zM348 1335q0 82 45 126t123 44t123 -44 t45 -126t-45 -125t-123 -43t-123 43t-45 125zM452 1335q1 -61 64 -61q61 0 61 61q0 63 -61 64q-63 0 -64 -64z" />
<glyph unicode="&#xe6;" horiz-adv-x="1703" d="M76 287q0 166 109.5 253t320.5 87q41 0 86 -4.5t94 -12.5q4 37 11.5 73t19.5 69q-18 74 -73.5 106.5t-129.5 32.5q-78 0 -133 -36t-70 -103l-182 24q10 63 45 113.5t86 85.5t116.5 52t139.5 17q96 0 174 -30.5t127 -93.5q59 59 141 91.5t191 32.5q113 0 195.5 -37.5 t136 -105t79 -160t25.5 -202.5v-97h-727q16 -154 103.5 -231.5t234.5 -77.5q70 0 146.5 21.5t156.5 66.5l57 -141q-92 -51 -184 -75.5t-178 -24.5q-139 0 -246.5 51t-175.5 149q-66 -84 -162 -142t-223 -58q-145 0 -228 76.5t-83 230.5zM250 287q0 -80 43 -117t121 -37 q100 0 172.5 56.5t118.5 134.5q-20 66 -23 131q-86 18 -176 18q-135 0 -195.5 -47t-60.5 -139zM858 596h551q-6 135 -68.5 215t-191.5 80q-131 0 -203 -80t-88 -215z" />
<glyph unicode="&#xe7;" horiz-adv-x="1064" d="M117 512q0 119 29.5 217t88 169t146.5 108.5t205 37.5q150 0 252 -61t155 -170l-149 -92q-78 170 -258 170q-150 0 -222.5 -102.5t-72.5 -276.5t72.5 -276.5t222.5 -102.5q92 0 159.5 45t102.5 135l160 -69q-47 -113 -138.5 -180.5t-226.5 -79.5l-12 -66q84 -4 118.5 -45 t34.5 -98q0 -80 -52 -127t-148 -47q-84 0 -160 30l33 121q35 -16 68.5 -22t60.5 -6q29 0 47 9t18 34q0 41 -73 40h-105l37 177q-98 12 -172 54t-123 111.5t-73.5 160.5t-24.5 202z" />
<glyph unicode="&#xe8;" horiz-adv-x="1140" d="M117 512q0 119 29.5 217t88 169t146.5 108.5t205 37.5q113 0 195.5 -37.5t136 -105t79 -160t25.5 -202.5v-97h-727q16 -154 103 -231.5t235 -77.5q70 0 146.5 21.5t156.5 66.5l57 -141q-92 -51 -184 -75.5t-178 -24.5q-115 0 -209 35.5t-161.5 104t-105.5 168t-38 224.5z M295 596h551q-6 135 -68.5 215t-191.5 80q-131 0 -203 -80t-88 -215zM418 1352l141 123l190 -306l-47 -43z" />
<glyph unicode="&#xe9;" horiz-adv-x="1140" d="M117 512q0 119 29.5 217t88 169t146.5 108.5t205 37.5q113 0 195.5 -37.5t136 -105t79 -160t25.5 -202.5v-97h-727q16 -154 103 -231.5t235 -77.5q70 0 146.5 21.5t156.5 66.5l57 -141q-92 -51 -184 -75.5t-178 -24.5q-115 0 -209 35.5t-161.5 104t-105.5 168t-38 224.5z M295 596h551q-6 135 -68.5 215t-191.5 80q-131 0 -203 -80t-88 -215zM428 1169l190 306l141 -123l-284 -226z" />
<glyph unicode="&#xea;" horiz-adv-x="1140" d="M117 512q0 119 29.5 217t88 169t146.5 108.5t205 37.5q113 0 195.5 -37.5t136 -105t79 -160t25.5 -202.5v-97h-727q16 -154 103 -231.5t235 -77.5q70 0 146.5 21.5t156.5 66.5l57 -141q-92 -51 -184 -75.5t-178 -24.5q-115 0 -209 35.5t-161.5 104t-105.5 168t-38 224.5z M295 596h551q-6 135 -68.5 215t-191.5 80q-131 0 -203 -80t-88 -215zM309 1171l209 273h133l211 -273h-176l-100 129l-100 -129h-177z" />
<glyph unicode="&#xeb;" horiz-adv-x="1140" d="M117 512q0 119 29.5 217t88 169t146.5 108.5t205 37.5q113 0 195.5 -37.5t136 -105t79 -160t25.5 -202.5v-97h-727q16 -154 103 -231.5t235 -77.5q70 0 146.5 21.5t156.5 66.5l57 -141q-92 -51 -184 -75.5t-178 -24.5q-115 0 -209 35.5t-161.5 104t-105.5 168t-38 224.5z M295 596h551q-6 135 -68.5 215t-191.5 80q-131 0 -203 -80t-88 -215zM317 1202v180h180v-180h-180zM672 1202v180h180v-180h-180z" />
<glyph unicode="&#xec;" horiz-adv-x="516" d="M61 872v152h201q59 0 79.5 -16.5t20.5 -75.5v-932h-174v872h-127zM76 1352l141 123l190 -306l-47 -43z" />
<glyph unicode="&#xed;" horiz-adv-x="516" d="M61 872v152h201q59 0 79.5 -16.5t20.5 -75.5v-932h-174v872h-127zM93 1169l190 306l141 -123l-284 -226z" />
<glyph unicode="&#xee;" horiz-adv-x="516" d="M-19 1171l209 273h133l211 -273h-176l-100 129l-100 -129h-177zM61 872v152h201q59 0 79.5 -16.5t20.5 -75.5v-932h-174v872h-127z" />
<glyph unicode="&#xef;" horiz-adv-x="516" d="M-10 1202v180h180v-180h-180zM61 872v152h201q59 0 79.5 -16.5t20.5 -75.5v-932h-174v872h-127zM345 1202v180h180v-180h-180z" />
<glyph unicode="&#xf0;" horiz-adv-x="1171" d="M117 512q0 119 29.5 217t85 168t137.5 108.5t186 38.5q59 0 109.5 -13t97.5 -36q-29 59 -66 112.5t-78 102.5l-180 -106l-73 129l145 86q-59 53 -131 102l145 95q74 -49 138 -107l184 109l72 -129l-146 -86q135 -150 208 -334.5t73 -401.5q0 -276 -117 -431.5 t-350 -155.5q-117 0 -205 37.5t-146.5 108.5t-88 168t-29.5 218zM291 512q0 -174 72.5 -276.5t222.5 -102.5t221.5 102.5t71.5 276.5t-72 276.5t-221 102.5q-150 0 -222.5 -102.5t-72.5 -276.5z" />
<glyph unicode="&#xf1;" horiz-adv-x="1114" d="M148 0v1024h174v-147q115 168 323 167q147 0 233.5 -88t86.5 -282v-674h-174v672q0 113 -54.5 166t-142.5 53q-119 0 -195.5 -94.5t-76.5 -286.5v-510h-174zM271 1235q27 109 71.5 146.5t98.5 37.5q31 0 60.5 -12t57 -26.5t51 -27t46.5 -12.5q20 0 31.5 17.5t21.5 60.5 l125 -33q-27 -109 -73 -146.5t-99 -37.5q-31 0 -60.5 12.5t-56 26.5t-51.5 26.5t-45 12.5t-32.5 -17.5t-22.5 -60.5z" />
<glyph unicode="&#xf2;" horiz-adv-x="1171" d="M117 512q0 119 29.5 217t88 169t146.5 108.5t205 37.5t205 -37.5t146 -108.5t88 -169t30 -217q0 -121 -30 -218t-88 -168t-146 -108.5t-205 -37.5t-205 37.5t-146.5 108.5t-88 168t-29.5 218zM291 512q0 -174 72.5 -276.5t222.5 -102.5t222.5 102.5t72.5 276.5 t-72.5 276.5t-222.5 102.5t-222.5 -102.5t-72.5 -276.5zM418 1352l141 123l190 -306l-47 -43z" />
<glyph unicode="&#xf3;" horiz-adv-x="1171" d="M117 512q0 119 29.5 217t88 169t146.5 108.5t205 37.5t205 -37.5t146 -108.5t88 -169t30 -217q0 -121 -30 -218t-88 -168t-146 -108.5t-205 -37.5t-205 37.5t-146.5 108.5t-88 168t-29.5 218zM291 512q0 -174 72.5 -276.5t222.5 -102.5t222.5 102.5t72.5 276.5 t-72.5 276.5t-222.5 102.5t-222.5 -102.5t-72.5 -276.5zM418 1169l190 306l141 -123l-284 -226z" />
<glyph unicode="&#xf4;" horiz-adv-x="1171" d="M117 512q0 119 29.5 217t88 169t146.5 108.5t205 37.5t205 -37.5t146 -108.5t88 -169t30 -217q0 -121 -30 -218t-88 -168t-146 -108.5t-205 -37.5t-205 37.5t-146.5 108.5t-88 168t-29.5 218zM291 512q0 -174 72.5 -276.5t222.5 -102.5t222.5 102.5t72.5 276.5 t-72.5 276.5t-222.5 102.5t-222.5 -102.5t-72.5 -276.5zM309 1171l209 273h133l211 -273h-176l-100 129l-100 -129h-177z" />
<glyph unicode="&#xf5;" horiz-adv-x="1171" d="M117 512q0 119 29.5 217t88 169t146.5 108.5t205 37.5t205 -37.5t146 -108.5t88 -169t30 -217q0 -121 -30 -218t-88 -168t-146 -108.5t-205 -37.5t-205 37.5t-146.5 108.5t-88 168t-29.5 218zM291 512q0 -174 72.5 -276.5t222.5 -102.5t222.5 102.5t72.5 276.5 t-72.5 276.5t-222.5 102.5t-222.5 -102.5t-72.5 -276.5zM303 1235q27 109 71.5 146.5t98.5 37.5q31 0 60.5 -12t57 -26.5t51 -27t46.5 -12.5q20 0 31.5 17.5t21.5 60.5l125 -33q-27 -109 -73 -146.5t-99 -37.5q-31 0 -60.5 12.5t-56 26.5t-51.5 26.5t-45 12.5t-32.5 -17.5 t-22.5 -60.5z" />
<glyph unicode="&#xf6;" horiz-adv-x="1171" d="M117 512q0 119 29.5 217t88 169t146.5 108.5t205 37.5t205 -37.5t146 -108.5t88 -169t30 -217q0 -121 -30 -218t-88 -168t-146 -108.5t-205 -37.5t-205 37.5t-146.5 108.5t-88 168t-29.5 218zM291 512q0 -174 72.5 -276.5t222.5 -102.5t222.5 102.5t72.5 276.5 t-72.5 276.5t-222.5 102.5t-222.5 -102.5t-72.5 -276.5zM317 1202v180h180v-180h-180zM672 1202v180h180v-180h-180z" />
<glyph unicode="&#xf8;" horiz-adv-x="1171" d="M117 512q0 119 29.5 217t88 169t146.5 108.5t205 37.5q84 0 157 -22l52 104h186l-90 -182q82 -70 123 -180.5t41 -251.5q0 -121 -30 -218t-88 -168t-146 -108.5t-205 -37.5q-45 0 -84 5t-74 15l-51 -102h-189l91 182q-82 70 -122 180.5t-40 251.5zM291 512 q0 -170 67 -268l314 635q-41 12 -86 12q-150 0 -222.5 -102.5t-72.5 -276.5zM498 143q20 -4 41.5 -7t46.5 -3q150 0 222.5 102.5t72.5 276.5q0 84 -17.5 152.5t-52.5 117.5z" />
<glyph unicode="&#xf9;" horiz-adv-x="1124" d="M154 350v674h174v-670q0 -115 53 -168t139 -53q121 0 199 97.5t78 277.5v516h174v-651q0 -104 5 -192.5t17 -180.5h-174q-10 37 -15 74t-7 80q-51 -86 -132 -130t-182 -44q-154 0 -241.5 86t-87.5 284zM394 1352l141 123l190 -306l-47 -43z" />
<glyph unicode="&#xfa;" horiz-adv-x="1124" d="M154 350v674h174v-670q0 -115 53 -168t139 -53q121 0 199 97.5t78 277.5v516h174v-651q0 -104 5 -192.5t17 -180.5h-174q-10 37 -15 74t-7 80q-51 -86 -132 -130t-182 -44q-154 0 -241.5 86t-87.5 284zM398 1169l190 306l141 -123l-284 -226z" />
<glyph unicode="&#xfb;" horiz-adv-x="1124" d="M154 350v674h174v-670q0 -115 53 -168t139 -53q121 0 199 97.5t78 277.5v516h174v-651q0 -104 5 -192.5t17 -180.5h-174q-10 37 -15 74t-7 80q-51 -86 -132 -130t-182 -44q-154 0 -241.5 86t-87.5 284zM284 1171l209 273h133l211 -273h-176l-100 129l-100 -129h-177z" />
<glyph unicode="&#xfc;" horiz-adv-x="1124" d="M154 350v674h174v-670q0 -115 53 -168t139 -53q121 0 199 97.5t78 277.5v516h174v-651q0 -104 5 -192.5t17 -180.5h-174q-10 37 -15 74t-7 80q-51 -86 -132 -130t-182 -44q-154 0 -241.5 86t-87.5 284zM293 1202v180h180v-180h-180zM648 1202v180h180v-180h-180z" />
<glyph unicode="&#xfd;" horiz-adv-x="1046" d="M45 1024h188l289 -719l293 719h186l-579 -1434h-189l195 482zM359 1169l190 306l141 -123l-284 -226z" />
<glyph unicode="&#xfe;" horiz-adv-x="1157" d="M154 -410v1905h174v-637q51 90 127.5 138t189.5 48q84 0 155.5 -30.5t125 -94t84 -160.5t30.5 -229q0 -139 -31.5 -242.5t-88 -172t-134 -102t-170.5 -33.5q-174 0 -288 133v-523h-174zM328 299q59 -86 121.5 -126t144.5 -40q125 0 198.5 103.5t73.5 293.5 q0 184 -71.5 272.5t-182.5 88.5q-59 0 -111 -27.5t-91 -83t-60.5 -137.5t-21.5 -188v-156z" />
<glyph unicode="&#xff;" horiz-adv-x="1046" d="M45 1024h188l289 -719l293 719h186l-579 -1434h-189l195 482zM256 1202v180h180v-180h-180zM611 1202v180h180v-180h-180z" />
<glyph unicode="&#x100;" horiz-adv-x="1331" d="M51 0l524 1434h181l524 -1434h-184l-138 375h-585l-137 -375h-185zM389 1612v150h553v-150h-553zM428 528h473l-235 646z" />
<glyph unicode="&#x101;" horiz-adv-x="1046" d="M76 287q0 166 109.5 253t320.5 87q47 0 100 -6.5t113 -16.5v94q0 98 -59.5 145.5t-145.5 47.5q-78 0 -133 -36t-70 -103l-182 24q10 63 45 113.5t86 85.5t116.5 52t139.5 17q78 0 146.5 -20t120 -62t81 -106.5t29.5 -153.5v-333q0 -104 5 -191.5t17 -177.5h-174 q-10 35 -14 72t-8 78q-63 -86 -152.5 -128t-179.5 -42q-145 0 -228 76.5t-83 230.5zM239 1202v150h553v-150h-553zM250 287q0 -80 42 -117t118 -37q59 0 114.5 21.5t98.5 60.5t69.5 93t26.5 120v18q-57 14 -105.5 20.5t-107.5 6.5q-135 0 -195.5 -47t-60.5 -139z" />
<glyph unicode="&#x102;" horiz-adv-x="1331" d="M51 0l524 1434h181l524 -1434h-184l-138 375h-585l-137 -375h-185zM428 528h473l-235 646zM443 1782v72h145v-66q0 -35 21.5 -51t56.5 -16t56.5 16t21.5 51v66h145v-72q0 -104 -62.5 -152.5t-160.5 -48.5t-160.5 48.5t-62.5 152.5z" />
<glyph unicode="&#x103;" horiz-adv-x="1046" d="M76 287q0 166 109.5 253t320.5 87q47 0 100 -6.5t113 -16.5v94q0 98 -59.5 145.5t-145.5 47.5q-78 0 -133 -36t-70 -103l-182 24q10 63 45 113.5t86 85.5t116.5 52t139.5 17q78 0 146.5 -20t120 -62t81 -106.5t29.5 -153.5v-333q0 -104 5 -191.5t17 -177.5h-174 q-10 35 -14 72t-8 78q-63 -86 -152.5 -128t-179.5 -42q-145 0 -228 76.5t-83 230.5zM250 287q0 -80 42 -117t118 -37q59 0 114.5 21.5t98.5 60.5t69.5 93t26.5 120v18q-57 14 -105.5 20.5t-107.5 6.5q-135 0 -195.5 -47t-60.5 -139zM293 1372v72h145v-66q0 -35 21.5 -51 t56.5 -16t56.5 16t21.5 51v66h145v-72q0 -104 -62.5 -152.5t-160.5 -48.5t-160.5 48.5t-62.5 152.5z" />
<glyph unicode="&#x104;" horiz-adv-x="1331" d="M51 0l524 1434h181l524 -1434q-61 -41 -96 -91t-35 -102q0 -35 18.5 -54t61.5 -19h61l-59 -133h-37q-104 0 -149.5 45t-45.5 131q0 59 24 120.5t71 104.5l-136 373h-585l-137 -375h-185zM428 528h473l-235 646z" />
<glyph unicode="&#x105;" horiz-adv-x="1046" d="M76 287q0 166 109.5 253t320.5 87q47 0 100 -6.5t113 -16.5v94q0 98 -59.5 145.5t-145.5 47.5q-78 0 -133 -36t-70 -103l-182 24q10 63 45 113.5t86 85.5t116.5 52t139.5 17q78 0 146.5 -20t120 -62t81 -106.5t29.5 -153.5v-333q0 -104 5 -191.5t17 -177.5 q-61 -41 -96 -91t-35 -102q0 -35 18.5 -54t61.5 -19h62l-60 -133h-37q-104 0 -149 45t-45 131q0 61 26.5 121.5t79.5 101.5q-10 35 -14 72t-8 78q-63 -86 -152.5 -128t-179.5 -42q-145 0 -228 76.5t-83 230.5zM250 287q0 -80 42 -117t118 -37q59 0 114.5 21.5t98.5 60.5 t69.5 93t26.5 120v18q-57 14 -105.5 20.5t-107.5 6.5q-135 0 -195.5 -47t-60.5 -139z" />
<glyph unicode="&#x106;" horiz-adv-x="1382" d="M123 715q0 211 47 352t127 227t188.5 123t231.5 37q94 0 179 -19.5t156.5 -65.5t127 -120.5t90.5 -185.5l-164 -55q-23 86 -62.5 142t-91 90t-112 47t-123.5 13q-86 0 -163 -26.5t-134.5 -94t-90 -180t-32.5 -284.5t32.5 -285t90 -179.5t134.5 -92t163 -25.5 q68 0 129 15.5t113.5 52.5t91.5 98t61 156l168 -47q-31 -121 -86 -203t-129 -132t-163 -71.5t-185 -21.5q-123 0 -231.5 35.5t-188.5 120.5t-127 226.5t-47 352.5zM541 1579l190 306l141 -123l-284 -226z" />
<glyph unicode="&#x107;" horiz-adv-x="1064" d="M117 512q0 119 29.5 217t88 169t146.5 108.5t205 37.5q150 0 252 -61t155 -170l-149 -92q-78 170 -258 170q-150 0 -222.5 -102.5t-72.5 -276.5t72.5 -276.5t222.5 -102.5q92 0 159.5 45t102.5 135l160 -69q-51 -123 -157 -193.5t-265 -70.5q-117 0 -205 37.5 t-146.5 108.5t-88 168t-29.5 218zM402 1169l190 306l141 -123l-284 -226z" />
<glyph unicode="&#x108;" horiz-adv-x="1382" d="M123 715q0 211 47 352t127 227t188.5 123t231.5 37q94 0 179 -19.5t156.5 -65.5t127 -120.5t90.5 -185.5l-164 -55q-23 86 -62.5 142t-91 90t-112 47t-123.5 13q-86 0 -163 -26.5t-134.5 -94t-90 -180t-32.5 -284.5t32.5 -285t90 -179.5t134.5 -92t163 -25.5 q68 0 129 15.5t113.5 52.5t91.5 98t61 156l168 -47q-31 -121 -86 -203t-129 -132t-163 -71.5t-185 -21.5q-123 0 -231.5 35.5t-188.5 120.5t-127 226.5t-47 352.5zM426 1581l209 273h133l211 -273h-176l-100 129l-100 -129h-177z" />
<glyph unicode="&#x109;" horiz-adv-x="1064" d="M117 512q0 119 29.5 217t88 169t146.5 108.5t205 37.5q150 0 252 -61t155 -170l-149 -92q-78 170 -258 170q-150 0 -222.5 -102.5t-72.5 -276.5t72.5 -276.5t222.5 -102.5q92 0 159.5 45t102.5 135l160 -69q-51 -123 -157 -193.5t-265 -70.5q-117 0 -205 37.5 t-146.5 108.5t-88 168t-29.5 218zM288 1171l209 273h133l211 -273h-176l-100 129l-100 -129h-177z" />
<glyph unicode="&#x10a;" horiz-adv-x="1382" d="M123 715q0 211 47 352t127 227t188.5 123t231.5 37q94 0 179 -19.5t156.5 -65.5t127 -120.5t90.5 -185.5l-164 -55q-23 86 -62.5 142t-91 90t-112 47t-123.5 13q-86 0 -163 -26.5t-134.5 -94t-90 -180t-32.5 -284.5t32.5 -285t90 -179.5t134.5 -92t163 -25.5 q68 0 129 15.5t113.5 52.5t91.5 98t61 156l168 -47q-31 -121 -86 -203t-129 -132t-163 -71.5t-185 -21.5q-123 0 -231.5 35.5t-188.5 120.5t-127 226.5t-47 352.5zM612 1612v180h180v-180h-180z" />
<glyph unicode="&#x10b;" horiz-adv-x="1064" d="M117 512q0 119 29.5 217t88 169t146.5 108.5t205 37.5q150 0 252 -61t155 -170l-149 -92q-78 170 -258 170q-150 0 -222.5 -102.5t-72.5 -276.5t72.5 -276.5t222.5 -102.5q92 0 159.5 45t102.5 135l160 -69q-51 -123 -157 -193.5t-265 -70.5q-117 0 -205 37.5 t-146.5 108.5t-88 168t-29.5 218zM475 1202v180h180v-180h-180z" />
<glyph unicode="&#x10c;" horiz-adv-x="1382" d="M123 715q0 211 47 352t127 227t188.5 123t231.5 37q94 0 179 -19.5t156.5 -65.5t127 -120.5t90.5 -185.5l-164 -55q-23 86 -62.5 142t-91 90t-112 47t-123.5 13q-86 0 -163 -26.5t-134.5 -94t-90 -180t-32.5 -284.5t32.5 -285t90 -179.5t134.5 -92t163 -25.5 q68 0 129 15.5t113.5 52.5t91.5 98t61 156l168 -47q-31 -121 -86 -203t-129 -132t-163 -71.5t-185 -21.5q-123 0 -231.5 35.5t-188.5 120.5t-127 226.5t-47 352.5zM426 1854h177l100 -129l100 129h176l-211 -273h-133z" />
<glyph unicode="&#x10d;" horiz-adv-x="1064" d="M117 512q0 119 29.5 217t88 169t146.5 108.5t205 37.5q150 0 252 -61t155 -170l-149 -92q-78 170 -258 170q-150 0 -222.5 -102.5t-72.5 -276.5t72.5 -276.5t222.5 -102.5q92 0 159.5 45t102.5 135l160 -69q-51 -123 -157 -193.5t-265 -70.5q-117 0 -205 37.5 t-146.5 108.5t-88 168t-29.5 218zM288 1444h177l100 -129l100 129h176l-211 -273h-133z" />
<glyph unicode="&#x10e;" horiz-adv-x="1351" d="M154 0v1434h376q221 0 358.5 -49.5t212.5 -143.5t101.5 -230.5t26.5 -308.5q0 -154 -29 -282.5t-103.5 -222t-204.5 -145.5t-335 -52h-403zM325 1854h177l100 -129l100 129h176l-211 -273h-133zM328 154h231q154 0 250 38.5t150.5 109.5t75 172t20.5 228q0 143 -18.5 251 t-75 180.5t-160 109.5t-271.5 37h-202v-1126z" />
<glyph unicode="&#x10f;" horiz-adv-x="1378" d="M117 483q0 143 31.5 250t89 175.5t137.5 102t174 33.5q74 0 146.5 -28.5t133.5 -83.5v563h175v-1122q0 -104 5 -192.5t17 -180.5h-162q-10 41 -17 82t-11 82q-127 -184 -326 -184q-84 0 -156.5 31.5t-125 94t-82 156.5t-29.5 221zM291 483q0 -180 70.5 -265t181.5 -85 q59 0 111.5 27.5t91 82t61 136.5t22.5 190v193q-129 129 -262 129q-129 0 -202.5 -103.5t-73.5 -304.5zM1142 1227v207h226v-111q0 -117 -22.5 -210t-80.5 -171l-112 33q45 59 65.5 122.5t26.5 129.5h-103z" />
<glyph unicode="&#x111;" horiz-adv-x="1157" d="M117 483q0 143 31.5 250t89 175.5t137.5 102t174 33.5q74 0 146.5 -28.5t133.5 -83.5v276h-245v154h245v133h175v-133h133v-154h-133v-835q0 -104 5 -192.5t17 -180.5h-162q-10 41 -17 82t-11 82q-127 -184 -326 -184q-84 0 -156.5 31.5t-125 94t-82 156.5t-29.5 221z M291 483q0 -180 70.5 -265t181.5 -85q59 0 111.5 27.5t91 82t61 136.5t22.5 190v193q-129 129 -262 129q-129 0 -202.5 -103.5t-73.5 -304.5z" />
<glyph unicode="&#x112;" horiz-adv-x="1130" d="M154 0v1434h850v-154h-676v-485h645v-154h-645v-487h696v-154h-870zM321 1612v150h553v-150h-553z" />
<glyph unicode="&#x113;" horiz-adv-x="1140" d="M117 512q0 119 29.5 217t88 169t146.5 108.5t205 37.5q113 0 195.5 -37.5t136 -105t79 -160t25.5 -202.5v-97h-727q16 -154 103 -231.5t235 -77.5q70 0 146.5 21.5t156.5 66.5l57 -141q-92 -51 -184 -75.5t-178 -24.5q-115 0 -209 35.5t-161.5 104t-105.5 168t-38 224.5z M295 596h551q-6 135 -68.5 215t-191.5 80q-131 0 -203 -80t-88 -215zM309 1202v150h553v-150h-553z" />
<glyph unicode="&#x114;" horiz-adv-x="1130" d="M154 0v1434h850v-154h-676v-485h645v-154h-645v-487h696v-154h-870zM375 1782v72h145v-66q0 -35 21.5 -51t56.5 -16t56.5 16t21.5 51v66h145v-72q0 -104 -62.5 -152.5t-160.5 -48.5t-160.5 48.5t-62.5 152.5z" />
<glyph unicode="&#x115;" horiz-adv-x="1140" d="M117 512q0 119 29.5 217t88 169t146.5 108.5t205 37.5q113 0 195.5 -37.5t136 -105t79 -160t25.5 -202.5v-97h-727q16 -154 103 -231.5t235 -77.5q70 0 146.5 21.5t156.5 66.5l57 -141q-92 -51 -184 -75.5t-178 -24.5q-115 0 -209 35.5t-161.5 104t-105.5 168t-38 224.5z M295 596h551q-6 135 -68.5 215t-191.5 80q-131 0 -203 -80t-88 -215zM363 1372v72h145v-66q0 -35 21.5 -51t56.5 -16t56.5 16t21.5 51v66h145v-72q0 -104 -62.5 -152.5t-160.5 -48.5t-160.5 48.5t-62.5 152.5z" />
<glyph unicode="&#x116;" horiz-adv-x="1130" d="M154 0v1434h850v-154h-676v-485h645v-154h-645v-487h696v-154h-870zM508 1612v180h180v-180h-180z" />
<glyph unicode="&#x117;" horiz-adv-x="1140" d="M117 512q0 119 29.5 217t88 169t146.5 108.5t205 37.5q113 0 195.5 -37.5t136 -105t79 -160t25.5 -202.5v-97h-727q16 -154 103 -231.5t235 -77.5q70 0 146.5 21.5t156.5 66.5l57 -141q-92 -51 -184 -75.5t-178 -24.5q-115 0 -209 35.5t-161.5 104t-105.5 168t-38 224.5z M295 596h551q-6 135 -68.5 215t-191.5 80q-131 0 -203 -80t-88 -215zM495 1202v180h180v-180h-180z" />
<glyph unicode="&#x118;" horiz-adv-x="1130" d="M154 0v1434h850v-154h-676v-485h645v-154h-645v-487h696v-154q-61 -41 -96 -91t-35 -102q0 -35 18.5 -54t61.5 -19h61l-59 -133h-37q-104 0 -149.5 45t-45.5 131q0 141 138 223h-727z" />
<glyph unicode="&#x119;" horiz-adv-x="1140" d="M117 512q0 119 29.5 217t88 169t146.5 108.5t205 37.5q113 0 195.5 -37.5t136 -105t79 -160t25.5 -202.5v-97h-727q16 -154 103 -231.5t235 -77.5q70 0 146.5 21.5t156.5 66.5l57 -141q-117 -66 -237 -88q-57 -41 -88 -88t-31 -97q0 -35 18.5 -54t61.5 -19h61l-59 -133 h-37q-104 0 -149.5 45t-45.5 131q0 125 107 205q-106 6 -194.5 43.5t-151 105.5t-97 164t-34.5 217zM295 596h551q-6 135 -68.5 215t-191.5 80q-131 0 -203 -80t-88 -215z" />
<glyph unicode="&#x11a;" horiz-adv-x="1130" d="M154 0v1434h850v-154h-676v-485h645v-154h-645v-487h696v-154h-870zM321 1854h177l100 -129l100 129h176l-211 -273h-133z" />
<glyph unicode="&#x11b;" horiz-adv-x="1140" d="M117 512q0 119 29.5 217t88 169t146.5 108.5t205 37.5q113 0 195.5 -37.5t136 -105t79 -160t25.5 -202.5v-97h-727q16 -154 103 -231.5t235 -77.5q70 0 146.5 21.5t156.5 66.5l57 -141q-92 -51 -184 -75.5t-178 -24.5q-115 0 -209 35.5t-161.5 104t-105.5 168t-38 224.5z M295 596h551q-6 135 -68.5 215t-191.5 80q-131 0 -203 -80t-88 -215zM309 1444h177l100 -129l100 129h176l-211 -273h-133z" />
<glyph unicode="&#x11c;" horiz-adv-x="1411" d="M123 715q0 211 48 352t131 227t192.5 123t232.5 37q94 0 178 -20.5t153.5 -66.5t123 -121t88.5 -185l-162 -51q-25 84 -61.5 140t-86 90t-108.5 47t-125 13q-88 0 -166 -26.5t-136 -94t-93 -180t-35 -284.5t35 -285t93 -179.5t136 -92t166 -25.5q86 0 156.5 24.5t122 79 t80 141.5t28.5 214v8h-422v154h596v-162q0 -154 -41 -269.5t-114.5 -191.5t-177 -113.5t-228.5 -37.5q-123 0 -232.5 35.5t-192.5 120.5t-131 226.5t-48 352.5zM446 1581l209 273h133l211 -273h-176l-100 129l-100 -129h-177z" />
<glyph unicode="&#x11d;" horiz-adv-x="1081" d="M98 -315l68 143q98 -59 179 -81.5t181 -22.5q135 0 208 45t73 122q0 51 -33 80t-121 29h-454v74l106 256q-92 47 -134 133t-42 203q0 84 23.5 153.5t70.5 119.5t121 77.5t174 27.5q43 0 81 -5t73 -15h383v-154h-189q45 -84 45 -204q0 -84 -23.5 -154t-71.5 -120 t-121.5 -77.5t-176.5 -27.5h-27.5t-25.5 2l-57 -135h266q84 0 142 -19.5t95 -54.5t53.5 -82t16.5 -102q0 -86 -34 -147.5t-94 -101.5t-144 -58.5t-183 -18.5q-139 0 -239.5 28.5t-188.5 86.5zM249 1171l209 273h133l211 -273h-176l-100 129l-100 -129h-177zM303 666 q0 -102 50 -164t165 -62q117 0 168 61.5t51 164.5q0 104 -51 164.5t-168 60.5q-115 0 -165 -60.5t-50 -164.5z" />
<glyph unicode="&#x11e;" horiz-adv-x="1411" d="M123 715q0 211 48 352t131 227t192.5 123t232.5 37q94 0 178 -20.5t153.5 -66.5t123 -121t88.5 -185l-162 -51q-25 84 -61.5 140t-86 90t-108.5 47t-125 13q-88 0 -166 -26.5t-136 -94t-93 -180t-35 -284.5t35 -285t93 -179.5t136 -92t166 -25.5q86 0 156.5 24.5t122 79 t80 141.5t28.5 214v8h-422v154h596v-162q0 -154 -41 -269.5t-114.5 -191.5t-177 -113.5t-228.5 -37.5q-123 0 -232.5 35.5t-192.5 120.5t-131 226.5t-48 352.5zM500 1782v72h145v-66q0 -35 21.5 -51t56.5 -16t56.5 16t21.5 51v66h145v-72q0 -104 -62.5 -152.5t-160.5 -48.5 t-160.5 48.5t-62.5 152.5z" />
<glyph unicode="&#x11f;" horiz-adv-x="1081" d="M98 -315l68 143q98 -59 179 -81.5t181 -22.5q135 0 208 45t73 122q0 51 -33 80t-121 29h-454v74l106 256q-92 47 -134 133t-42 203q0 84 23.5 153.5t70.5 119.5t121 77.5t174 27.5q43 0 81 -5t73 -15h383v-154h-189q45 -84 45 -204q0 -84 -23.5 -154t-71.5 -120 t-121.5 -77.5t-176.5 -27.5h-27.5t-25.5 2l-57 -135h266q84 0 142 -19.5t95 -54.5t53.5 -82t16.5 -102q0 -86 -34 -147.5t-94 -101.5t-144 -58.5t-183 -18.5q-139 0 -239.5 28.5t-188.5 86.5zM303 666q0 -102 50 -164t165 -62q117 0 168 61.5t51 164.5q0 104 -51 164.5 t-168 60.5q-115 0 -165 -60.5t-50 -164.5zM303 1372v72h145v-66q0 -35 21.5 -51t56.5 -16t56.5 16t21.5 51v66h145v-72q0 -104 -62.5 -152.5t-160.5 -48.5t-160.5 48.5t-62.5 152.5z" />
<glyph unicode="&#x120;" horiz-adv-x="1411" d="M123 715q0 211 48 352t131 227t192.5 123t232.5 37q94 0 178 -20.5t153.5 -66.5t123 -121t88.5 -185l-162 -51q-25 84 -61.5 140t-86 90t-108.5 47t-125 13q-88 0 -166 -26.5t-136 -94t-93 -180t-35 -284.5t35 -285t93 -179.5t136 -92t166 -25.5q86 0 156.5 24.5t122 79 t80 141.5t28.5 214v8h-422v154h596v-162q0 -154 -41 -269.5t-114.5 -191.5t-177 -113.5t-228.5 -37.5q-123 0 -232.5 35.5t-192.5 120.5t-131 226.5t-48 352.5zM633 1612v180h180v-180h-180z" />
<glyph unicode="&#x121;" horiz-adv-x="1081" d="M98 -315l68 143q98 -59 179 -81.5t181 -22.5q135 0 208 45t73 122q0 51 -33 80t-121 29h-454v74l106 256q-92 47 -134 133t-42 203q0 84 23.5 153.5t70.5 119.5t121 77.5t174 27.5q43 0 81 -5t73 -15h383v-154h-189q45 -84 45 -204q0 -84 -23.5 -154t-71.5 -120 t-121.5 -77.5t-176.5 -27.5h-27.5t-25.5 2l-57 -135h266q84 0 142 -19.5t95 -54.5t53.5 -82t16.5 -102q0 -86 -34 -147.5t-94 -101.5t-144 -58.5t-183 -18.5q-139 0 -239.5 28.5t-188.5 86.5zM303 666q0 -102 50 -164t165 -62q117 0 168 61.5t51 164.5q0 104 -51 164.5 t-168 60.5q-115 0 -165 -60.5t-50 -164.5zM436 1202v180h180v-180h-180z" />
<glyph unicode="&#x122;" horiz-adv-x="1411" d="M123 715q0 211 48 352t131 227t192.5 123t232.5 37q94 0 178 -20.5t153.5 -66.5t123 -121t88.5 -185l-162 -51q-25 84 -61.5 140t-86 90t-108.5 47t-125 13q-88 0 -166 -26.5t-136 -94t-93 -180t-35 -284.5t35 -285t93 -179.5t136 -92t166 -25.5q86 0 156.5 24.5t122 79 t80 141.5t28.5 214v8h-422v154h596v-162q0 -154 -41 -269.5t-114.5 -191.5t-177 -113.5t-228.5 -37.5q-123 0 -232.5 35.5t-192.5 120.5t-131 226.5t-48 352.5zM619 -545q47 59 68.5 118.5t27.5 125.5h-74v182h183v-125q0 -98 -22.5 -175t-76.5 -148z" />
<glyph unicode="&#x123;" horiz-adv-x="1081" d="M98 -315l68 143q98 -59 179 -81.5t181 -22.5q135 0 208 45t73 122q0 51 -33 80t-121 29h-454v74l106 256q-92 47 -134 133t-42 203q0 84 23.5 153.5t70.5 119.5t121 77.5t174 27.5q43 0 81 -5t73 -15h383v-154h-189q45 -84 45 -204q0 -84 -23.5 -154t-71.5 -120 t-121.5 -77.5t-176.5 -27.5h-27.5t-25.5 2l-57 -135h266q84 0 142 -19.5t95 -54.5t53.5 -82t16.5 -102q0 -86 -34 -147.5t-94 -101.5t-144 -58.5t-183 -18.5q-139 0 -239.5 28.5t-188.5 86.5zM303 666q0 -102 50 -164t165 -62q117 0 168 61.5t51 164.5q0 104 -51 164.5 t-168 60.5q-115 0 -165 -60.5t-50 -164.5zM428 1157v125q0 98 22.5 175t76.5 148l106 -22q-47 -59 -68.5 -118.5t-27.5 -125.5h74v-182h-183z" />
<glyph unicode="&#x124;" horiz-adv-x="1361" d="M154 0v1434h174v-660h706v660h174v-1434h-174v621h-706v-621h-174zM405 1581l209 273h133l211 -273h-176l-100 129l-100 -129h-177z" />
<glyph unicode="&#x125;" horiz-adv-x="1124" d="M-35 1581l209 273h133l211 -273h-176l-100 129l-100 -129h-177zM154 0v1495h174v-618q115 168 323 167q147 0 233.5 -88t86.5 -282v-674h-174v672q0 113 -54.5 166t-142.5 53q-119 0 -195.5 -95.5t-76.5 -285.5v-510h-174z" />
<glyph unicode="&#x126;" horiz-adv-x="1361" d="M20 1110v154h134v170h174v-170h706v170h174v-170h133v-154h-133v-1110h-174v621h-706v-621h-174v1110h-134zM328 774h706v336h-706v-336z" />
<glyph unicode="&#x127;" horiz-adv-x="1124" d="M20 1208v154h134v133h174v-133h245v-154h-245v-331q115 168 323 167q147 0 233.5 -88t86.5 -282v-674h-174v672q0 113 -54.5 166t-142.5 53q-119 0 -195.5 -95.5t-76.5 -285.5v-510h-174v1208h-134z" />
<glyph unicode="&#x128;" horiz-adv-x="716" d="M76 1645q27 109 71.5 146.5t98.5 37.5q31 0 60.5 -12t57 -26.5t51 -27t46.5 -12.5q20 0 31.5 17.5t21.5 60.5l125 -33q-27 -109 -73 -146.5t-99 -37.5q-31 0 -60.5 12.5t-56 26.5t-51.5 26.5t-45 12.5t-32.5 -17.5t-22.5 -60.5zM106 0v154h164v1126h-164v154h504v-154 h-166v-1126h166v-154h-504z" />
<glyph unicode="&#x129;" horiz-adv-x="516" d="M-28 1235q27 109 71.5 146.5t98.5 37.5q31 0 60.5 -12t57 -26.5t51 -27t46.5 -12.5q20 0 31.5 17.5t21.5 60.5l125 -33q-27 -109 -73 -146.5t-99 -37.5q-31 0 -60.5 12.5t-56 26.5t-51.5 26.5t-45 12.5t-32.5 -17.5t-22.5 -60.5zM61 872v152h201q59 0 79.5 -16.5 t20.5 -75.5v-932h-174v872h-127z" />
<glyph unicode="&#x12a;" horiz-adv-x="716" d="M82 1612v150h553v-150h-553zM106 0v154h164v1126h-164v154h504v-154h-166v-1126h166v-154h-504z" />
<glyph unicode="&#x12b;" horiz-adv-x="516" d="M-19 1202v150h553v-150h-553zM61 872v152h201q59 0 79.5 -16.5t20.5 -75.5v-932h-174v872h-127z" />
<glyph unicode="&#x12c;" horiz-adv-x="716" d="M106 0v154h164v1126h-164v154h504v-154h-166v-1126h166v-154h-504zM135 1782v72h145v-66q0 -35 21.5 -51t56.5 -16t56.5 16t21.5 51v66h145v-72q0 -104 -62.5 -152.5t-160.5 -48.5t-160.5 48.5t-62.5 152.5z" />
<glyph unicode="&#x12d;" horiz-adv-x="516" d="M35 1372v72h145v-66q0 -35 21.5 -51t56.5 -16t56.5 16t21.5 51v66h145v-72q0 -104 -62.5 -152.5t-160.5 -48.5t-160.5 48.5t-62.5 152.5zM61 872v152h201q59 0 79.5 -16.5t20.5 -75.5v-932h-174v872h-127z" />
<glyph unicode="&#x12e;" horiz-adv-x="716" d="M106 0v154h164v1126h-164v154h504v-154h-166v-1126h166v-154h-92q-61 -41 -96 -91t-35 -102q0 -35 18.5 -54t61.5 -19h61l-59 -133h-37q-104 0 -149 45t-45 131q0 141 137 223h-269z" />
<glyph unicode="&#x12f;" horiz-adv-x="516" d="M61 872v152h201q59 0 79.5 -16.5t20.5 -75.5v-932q-61 -41 -96 -91t-35 -102q0 -35 18.5 -54t61.5 -19h62l-60 -133h-37q-104 0 -149 45t-45 131q0 61 26.5 121.5t79.5 101.5v872h-127zM180 1243v191h191v-191h-191z" />
<glyph unicode="&#x130;" horiz-adv-x="716" d="M106 0v154h164v1126h-164v154h504v-154h-166v-1126h166v-154h-504zM268 1612v180h180v-180h-180z" />
<glyph unicode="&#x131;" horiz-adv-x="516" d="M61 872v152h201q59 0 79.5 -16.5t20.5 -75.5v-932h-174v872h-127z" />
<glyph unicode="&#x134;" horiz-adv-x="788" d="M37 109l82 145q39 -51 85 -81t107 -30q72 0 111 50.5t39 160.5v926h-205v154h379v-1086q0 -98 -23.5 -167.5t-64.5 -113.5t-98.5 -65.5t-124.5 -21.5q-176 0 -287 129zM204 1581l209 273h133l211 -273h-176l-100 129l-100 -129h-177z" />
<glyph unicode="&#x135;" horiz-adv-x="516" d="M-14 1171l209 273h133l211 -273h-177l-100 129l-100 -129h-176zM61 872v152h201q59 0 79.5 -16.5t20.5 -75.5v-881q0 -78 -6 -140.5t-23.5 -118.5t-46 -109.5t-73.5 -112.5l-150 86q37 51 62 93t39 86t19 94.5t5 115.5v827h-127z" />
<glyph unicode="&#x136;" horiz-adv-x="1277" d="M154 0v1434h174v-752l620 752h223l-501 -607q63 -25 111 -56.5t88 -73.5t72 -96t63 -126l198 -475h-190l-178 426q-25 57 -51.5 100t-58.5 75t-72 55.5t-91 41.5l-233 -282v-416h-174zM529 -545q47 59 68.5 118.5t27.5 125.5h-74v182h183v-125q0 -98 -22.5 -175 t-76.5 -148z" />
<glyph unicode="&#x137;" horiz-adv-x="1087" d="M154 0v1495h174v-956l454 485h228l-363 -385q39 -12 72 -31.5t59.5 -48.5t51 -71t49.5 -101l161 -387h-190l-131 315q-18 45 -37.5 78t-41.5 55.5t-48.5 38t-61.5 27.5l-202 -217v-297h-174zM455 -545q47 59 68.5 118.5t27.5 125.5h-74v182h183v-125q0 -98 -22.5 -175 t-76.5 -148z" />
<glyph unicode="&#x138;" horiz-adv-x="1087" d="M154 0v1024h174v-485l454 485h228l-363 -387q41 -12 73 -30.5t58.5 -48.5t51 -71t49.5 -100l161 -387h-190l-131 315q-18 45 -36.5 77t-40 54.5t-48.5 38t-64 27.5l-202 -217v-295h-174z" />
<glyph unicode="&#x139;" horiz-adv-x="1056" d="M105 1579l190 306l141 -123l-284 -226zM154 0v1434h174v-1280h616v-154h-790z" />
<glyph unicode="&#x13a;" horiz-adv-x="548" d="M105 1579l190 306l141 -123l-284 -226zM154 207v1288h174v-1253q0 -53 20.5 -77t54.5 -24q18 0 40 4.5t44 16.5l31 -150q-80 -33 -158 -32q-88 0 -147 53t-59 174z" />
<glyph unicode="&#x13b;" horiz-adv-x="1056" d="M154 0v1434h174v-1280h616v-154h-790zM449 -545q47 59 68.5 118.5t27.5 125.5h-74v182h183v-125q0 -98 -22.5 -175t-76.5 -148z" />
<glyph unicode="&#x13c;" horiz-adv-x="548" d="M154 207v1288h174v-1253q0 -53 20.5 -77t54.5 -24q18 0 40 4.5t44 16.5l31 -150q-80 -33 -158 -32q-88 0 -147 53t-59 174zM201 -545q47 59 68.5 118.5t27.5 125.5h-74v182h183v-125q0 -98 -22.5 -175t-76.5 -148z" />
<glyph unicode="&#x13d;" horiz-adv-x="1056" d="M154 0v1434h174v-1280h616v-154h-790zM499 1227v207h226v-111q0 -117 -22.5 -210t-80.5 -171l-112 33q45 59 65.5 122.5t26.5 129.5h-103z" />
<glyph unicode="&#x13e;" horiz-adv-x="700" d="M154 207v1288h174v-1253q0 -53 20.5 -77t54.5 -24q18 0 40 4.5t44 16.5l31 -150q-80 -33 -158 -32q-88 0 -147 53t-59 174zM464 1227v207h226v-111q0 -117 -22.5 -210t-80.5 -171l-112 33q45 59 65.5 122.5t26.5 129.5h-103z" />
<glyph unicode="&#x13f;" horiz-adv-x="1056" d="M154 0v1434h174v-1280h616v-154h-790zM512 518v180h180v-180h-180z" />
<glyph unicode="&#x140;" horiz-adv-x="688" d="M154 207v1288h174v-1253q0 -53 20.5 -77t54.5 -24q18 0 40 4.5t44 16.5l31 -150q-80 -33 -158 -32q-88 0 -147 53t-59 174zM477 518v180h180v-180h-180z" />
<glyph unicode="&#x141;" horiz-adv-x="1056" d="M20 410v172l134 65v787h174v-699l293 148v-170l-293 -148v-411h616v-154h-790v477z" />
<glyph unicode="&#x142;" horiz-adv-x="548" d="M20 410v172l134 67v846h174v-760l200 103v-172l-200 -103v-321q0 -53 20.5 -77t54.5 -24q18 0 40 4.5t44 16.5l31 -150q-80 -33 -158 -32q-88 0 -147 53t-59 174v270z" />
<glyph unicode="&#x143;" horiz-adv-x="1351" d="M154 0v1434h163l707 -1096v1096h174v-1434h-164l-706 1094v-1094h-174zM523 1579l190 306l141 -123l-284 -226z" />
<glyph unicode="&#x144;" horiz-adv-x="1124" d="M154 0v1024h174v-147q115 168 323 167q147 0 233.5 -88t86.5 -282v-674h-174v672q0 113 -54.5 166t-142.5 53q-119 0 -195.5 -94.5t-76.5 -286.5v-510h-174zM402 1169l190 306l141 -123l-284 -226z" />
<glyph unicode="&#x145;" horiz-adv-x="1351" d="M154 0v1434h163l707 -1096v1096h174v-1434h-164l-706 1094v-1094h-174zM570 -545q47 59 68.5 118.5t27.5 125.5h-74v182h183v-125q0 -98 -22.5 -175t-76.5 -148z" />
<glyph unicode="&#x146;" horiz-adv-x="1124" d="M154 0v1024h174v-147q115 168 323 167q147 0 233.5 -88t86.5 -282v-674h-174v672q0 113 -54.5 166t-142.5 53q-119 0 -195.5 -94.5t-76.5 -286.5v-510h-174zM455 -545q47 59 68.5 118.5t27.5 125.5h-74v182h183v-125q0 -98 -22.5 -175t-76.5 -148z" />
<glyph unicode="&#x147;" horiz-adv-x="1351" d="M154 0v1434h163l707 -1096v1096h174v-1434h-164l-706 1094v-1094h-174zM405 1854h177l100 -129l100 129h176l-211 -273h-133z" />
<glyph unicode="&#x148;" horiz-adv-x="1124" d="M154 0v1024h174v-147q115 168 323 167q147 0 233.5 -88t86.5 -282v-674h-174v672q0 113 -54.5 166t-142.5 53q-119 0 -195.5 -94.5t-76.5 -286.5v-510h-174zM284 1444h177l100 -129l100 129h176l-211 -273h-133z" />
<glyph unicode="&#x149;" horiz-adv-x="1327" d="M30 1227v207h226v-111q0 -117 -22.5 -210t-80.5 -171l-112 33q45 59 65.5 122.5t26.5 129.5h-103zM357 0v1024h174v-147q115 168 323 167q147 0 233.5 -88t86.5 -282v-674h-174v672q0 113 -54.5 166t-142.5 53q-119 0 -195.5 -94.5t-76.5 -286.5v-510h-174z" />
<glyph unicode="&#x14a;" horiz-adv-x="1351" d="M154 0v1434h163l707 -1096v1096h174v-1497q0 -96 -23.5 -166t-64.5 -115t-98.5 -65.5t-124.5 -20.5q-88 0 -161 34t-126 95l82 147q39 -51 85 -81.5t107 -30.5q72 0 111 49t39 160v71l-696 1080v-1094h-174z" />
<glyph unicode="&#x14b;" horiz-adv-x="1124" d="M154 0v1024h174v-147q115 168 323 167q147 0 233.5 -88t86.5 -282v-737q0 -96 -23.5 -166t-64.5 -115t-98.5 -65.5t-125.5 -20.5q-88 0 -160.5 34t-125.5 95l82 147q39 -51 85 -81.5t107 -30.5q72 0 111 49t39 160v729q0 113 -54.5 166t-142.5 53q-119 0 -195.5 -94.5 t-76.5 -286.5v-510h-174z" />
<glyph unicode="&#x14c;" horiz-adv-x="1435" d="M123 717q0 211 43 352t121 227t187.5 122t242.5 36q135 0 244.5 -36t187.5 -122t121 -227t43 -352t-43 -352.5t-121 -227.5t-187.5 -121.5t-244.5 -35.5q-133 0 -242.5 35.5t-187.5 121.5t-121 227.5t-43 352.5zM297 717q0 -172 29.5 -286t85 -179.5t133.5 -92t172 -26.5 t172 26.5t133 92t86 179.5t31 286t-31 284.5t-86 179t-133 93t-172 26.5t-172 -26.5t-133.5 -93t-85 -179t-29.5 -284.5zM440 1612v150h553v-150h-553z" />
<glyph unicode="&#x14d;" horiz-adv-x="1171" d="M117 512q0 119 29.5 217t88 169t146.5 108.5t205 37.5t205 -37.5t146 -108.5t88 -169t30 -217q0 -121 -30 -218t-88 -168t-146 -108.5t-205 -37.5t-205 37.5t-146.5 108.5t-88 168t-29.5 218zM291 512q0 -174 72.5 -276.5t222.5 -102.5t222.5 102.5t72.5 276.5 t-72.5 276.5t-222.5 102.5t-222.5 -102.5t-72.5 -276.5zM309 1202v150h553v-150h-553z" />
<glyph unicode="&#x14e;" horiz-adv-x="1435" d="M123 717q0 211 43 352t121 227t187.5 122t242.5 36q135 0 244.5 -36t187.5 -122t121 -227t43 -352t-43 -352.5t-121 -227.5t-187.5 -121.5t-244.5 -35.5q-133 0 -242.5 35.5t-187.5 121.5t-121 227.5t-43 352.5zM297 717q0 -172 29.5 -286t85 -179.5t133.5 -92t172 -26.5 t172 26.5t133 92t86 179.5t31 286t-31 284.5t-86 179t-133 93t-172 26.5t-172 -26.5t-133.5 -93t-85 -179t-29.5 -284.5zM494 1782v72h145v-66q0 -35 21.5 -51t56.5 -16t56.5 16t21.5 51v66h145v-72q0 -104 -62.5 -152.5t-160.5 -48.5t-160.5 48.5t-62.5 152.5z" />
<glyph unicode="&#x14f;" horiz-adv-x="1171" d="M117 512q0 119 29.5 217t88 169t146.5 108.5t205 37.5t205 -37.5t146 -108.5t88 -169t30 -217q0 -121 -30 -218t-88 -168t-146 -108.5t-205 -37.5t-205 37.5t-146.5 108.5t-88 168t-29.5 218zM291 512q0 -174 72.5 -276.5t222.5 -102.5t222.5 102.5t72.5 276.5 t-72.5 276.5t-222.5 102.5t-222.5 -102.5t-72.5 -276.5zM363 1372v72h145v-66q0 -35 21.5 -51t56.5 -16t56.5 16t21.5 51v66h145v-72q0 -104 -62.5 -152.5t-160.5 -48.5t-160.5 48.5t-62.5 152.5z" />
<glyph unicode="&#x150;" horiz-adv-x="1435" d="M123 717q0 211 43 352t121 227t187.5 122t242.5 36q135 0 244.5 -36t187.5 -122t121 -227t43 -352t-43 -352.5t-121 -227.5t-187.5 -121.5t-244.5 -35.5q-133 0 -242.5 35.5t-187.5 121.5t-121 227.5t-43 352.5zM297 717q0 -172 29.5 -286t85 -179.5t133.5 -92t172 -26.5 t172 26.5t133 92t86 179.5t31 286t-31 284.5t-86 179t-133 93t-172 26.5t-172 -26.5t-133.5 -93t-85 -179t-29.5 -284.5zM523 1567l127 318l149 -95l-223 -254zM760 1567l125 318l152 -95l-226 -254z" />
<glyph unicode="&#x151;" horiz-adv-x="1171" d="M117 512q0 119 29.5 217t88 169t146.5 108.5t205 37.5t205 -37.5t146 -108.5t88 -169t30 -217q0 -121 -30 -218t-88 -168t-146 -108.5t-205 -37.5t-205 37.5t-146.5 108.5t-88 168t-29.5 218zM291 512q0 -174 72.5 -276.5t222.5 -102.5t222.5 102.5t72.5 276.5 t-72.5 276.5t-222.5 102.5t-222.5 -102.5t-72.5 -276.5zM383 1157l127 318l149 -95l-223 -254zM620 1157l125 318l152 -95l-226 -254z" />
<glyph unicode="&#x152;" horiz-adv-x="2115" d="M123 717q0 211 43 352t121 227t187.5 122t242.5 36q129 0 236.5 -34t185.5 -113v127h850v-154h-676v-485h645v-154h-645v-487h696v-154h-870v127q-78 -80 -185.5 -113.5t-236.5 -33.5q-133 0 -242.5 35.5t-187.5 121.5t-121 227.5t-43 352.5zM297 717q0 -172 29.5 -286 t85 -179.5t133.5 -92t172 -26.5t172 26.5t133 92t85 179.5t30 286t-30 284.5t-85 179t-133 93t-172 26.5t-172 -26.5t-133.5 -93t-85 -179t-29.5 -284.5z" />
<glyph unicode="&#x153;" horiz-adv-x="1904" d="M117 512q0 119 29.5 217t88 169t146.5 108.5t205 37.5q133 0 228 -49t153 -139q59 90 153 139t230 49q113 0 195.5 -37.5t136 -105t79 -160t25.5 -202.5v-97h-727q16 -154 103 -231.5t235 -77.5q70 0 146.5 21.5t156.5 66.5l57 -141q-92 -51 -184 -75.5t-178 -24.5 q-137 0 -246 50t-174 148q-57 -94 -154.5 -146t-234.5 -52q-117 0 -205 37.5t-146.5 108.5t-88 168t-29.5 218zM291 512q0 -174 72.5 -276.5t222.5 -102.5t222.5 102.5t72.5 276.5t-73 276.5t-222 102.5q-150 0 -222.5 -102.5t-72.5 -276.5zM1059 596h551q-6 135 -68.5 215 t-191.5 80q-131 0 -203 -80t-88 -215z" />
<glyph unicode="&#x154;" horiz-adv-x="1173" d="M154 0v1434h446q221 0 335 -103.5t114 -296.5q0 -348 -322 -403l369 -631h-199l-362 621h-207v-621h-174zM328 774h272q139 0 206.5 58.5t67.5 197.5q0 250 -274 250h-272v-506zM435 1579l190 306l141 -123l-284 -226z" />
<glyph unicode="&#x155;" horiz-adv-x="724" d="M154 0v1024h174v-123q39 72 98 107.5t131 35.5q61 0 123 -20l-33 -166q-61 23 -108 23q-100 0 -155.5 -83t-55.5 -249v-549h-174zM220 1169l190 306l141 -123l-284 -226z" />
<glyph unicode="&#x156;" horiz-adv-x="1173" d="M154 0v1434h446q221 0 335 -103.5t114 -296.5q0 -348 -322 -403l369 -631h-199l-362 621h-207v-621h-174zM328 774h272q139 0 206.5 58.5t67.5 197.5q0 250 -274 250h-272v-506zM467 -545q47 59 68.5 118.5t27.5 125.5h-74v182h183v-125q0 -98 -22.5 -175t-76.5 -148z " />
<glyph unicode="&#x157;" horiz-adv-x="724" d="M127 -545q47 59 68.5 118.5t27.5 125.5h-74v182h183v-125q0 -98 -22.5 -175t-76.5 -148zM154 0v1024h174v-123q39 72 98 107.5t131 35.5q61 0 123 -20l-33 -166q-61 23 -108 23q-100 0 -155.5 -83t-55.5 -249v-549h-174z" />
<glyph unicode="&#x158;" horiz-adv-x="1173" d="M154 0v1434h446q221 0 335 -103.5t114 -296.5q0 -348 -322 -403l369 -631h-199l-362 621h-207v-621h-174zM299 1854h177l100 -129l100 129h176l-211 -273h-133zM328 774h272q139 0 206.5 58.5t67.5 197.5q0 250 -274 250h-272v-506z" />
<glyph unicode="&#x159;" horiz-adv-x="724" d="M108 1444h177l100 -129l100 129h176l-211 -273h-133zM154 0v1024h174v-123q39 72 98 107.5t131 35.5q61 0 123 -20l-33 -166q-61 23 -108 23q-100 0 -155.5 -83t-55.5 -249v-549h-174z" />
<glyph unicode="&#x15a;" horiz-adv-x="1228" d="M113 117l69 147q49 -33 97.5 -57.5t97.5 -40.5t103.5 -24.5t119.5 -8.5q70 0 130.5 13.5t104.5 43t68.5 77.5t24.5 120q0 102 -57.5 153.5t-143.5 79t-186.5 49t-186.5 65.5t-143 125t-57 231q0 94 35.5 162.5t97 113.5t144.5 66.5t179 21.5q141 0 256 -32.5t205 -80.5 l-59 -145q-74 41 -174.5 72.5t-227.5 31.5q-59 0 -110 -13t-90 -38.5t-60.5 -65.5t-21.5 -93q0 -82 32.5 -131.5t88 -79t125 -47t141 -36t141.5 -43t125 -68.5t88 -114.5t33 -179.5q0 -117 -40 -195.5t-107.5 -127t-158.5 -68.5t-194 -20q-141 0 -266 38.5t-223 98.5z M455 1579l190 306l141 -123l-284 -226z" />
<glyph unicode="&#x15b;" horiz-adv-x="974" d="M88 102l90 140q59 -49 138 -79t165 -30q39 0 76 7t66.5 25.5t47 47.5t17.5 72q0 59 -41 90t-102.5 51t-134 39.5t-134 53.5t-102.5 91.5t-41 155.5q0 74 31 126t82 86t117.5 50t140.5 16q92 0 182 -23.5t160 -64.5l-72 -147q-129 82 -274 82q-39 0 -74 -7t-61.5 -22.5 t-42 -39t-15.5 -58.5q0 -57 41 -87t102.5 -49.5t134 -38t134 -52t102.5 -93t41 -159.5q0 -82 -31.5 -140.5t-86 -95.5t-124 -53t-145.5 -16q-225 0 -387 122zM326 1169l190 306l141 -123l-284 -226z" />
<glyph unicode="&#x15c;" horiz-adv-x="1228" d="M113 117l69 147q49 -33 97.5 -57.5t97.5 -40.5t103.5 -24.5t119.5 -8.5q70 0 130.5 13.5t104.5 43t68.5 77.5t24.5 120q0 102 -57.5 153.5t-143.5 79t-186.5 49t-186.5 65.5t-143 125t-57 231q0 94 35.5 162.5t97 113.5t144.5 66.5t179 21.5q141 0 256 -32.5t205 -80.5 l-59 -145q-74 41 -174.5 72.5t-227.5 31.5q-59 0 -110 -13t-90 -38.5t-60.5 -65.5t-21.5 -93q0 -82 32.5 -131.5t88 -79t125 -47t141 -36t141.5 -43t125 -68.5t88 -114.5t33 -179.5q0 -117 -40 -195.5t-107.5 -127t-158.5 -68.5t-194 -20q-141 0 -266 38.5t-223 98.5z M344 1581l209 273h133l211 -273h-176l-100 129l-100 -129h-177z" />
<glyph unicode="&#x15d;" horiz-adv-x="974" d="M88 102l90 140q59 -49 138 -79t165 -30q39 0 76 7t66.5 25.5t47 47.5t17.5 72q0 59 -41 90t-102.5 51t-134 39.5t-134 53.5t-102.5 91.5t-41 155.5q0 74 31 126t82 86t117.5 50t140.5 16q92 0 182 -23.5t160 -64.5l-72 -147q-129 82 -274 82q-39 0 -74 -7t-61.5 -22.5 t-42 -39t-15.5 -58.5q0 -57 41 -87t102.5 -49.5t134 -38t134 -52t102.5 -93t41 -159.5q0 -82 -31.5 -140.5t-86 -95.5t-124 -53t-145.5 -16q-225 0 -387 122zM210 1171l209 273h133l211 -273h-176l-100 129l-100 -129h-177z" />
<glyph unicode="&#x15e;" horiz-adv-x="1228" d="M113 117l69 147q49 -33 97.5 -57.5t97.5 -40.5t103.5 -24.5t119.5 -8.5q70 0 130.5 13.5t104.5 43t68.5 77.5t24.5 120q0 102 -57.5 153.5t-143.5 79t-186.5 49t-186.5 65.5t-143 125t-57 231q0 94 35.5 162.5t97 113.5t144.5 66.5t179 21.5q141 0 256 -32.5t205 -80.5 l-59 -145q-74 41 -174.5 72.5t-227.5 31.5q-59 0 -110 -13t-90 -38.5t-60.5 -65.5t-21.5 -93q0 -82 32.5 -131.5t88 -79t125 -47t141 -36t141.5 -43t125 -68.5t88 -114.5t33 -179.5t-34 -183.5t-92 -122.5t-137 -72.5t-169 -30.5l-13 -64q84 -4 119 -45t35 -98 q0 -80 -52 -127t-149 -47q-84 0 -159 30l32 121q35 -16 69 -22t60 -6q29 0 47.5 9t18.5 34q0 41 -74 40h-104l37 177q-123 8 -230.5 43.5t-193.5 89.5z" />
<glyph unicode="&#x15f;" horiz-adv-x="974" d="M88 102l90 140q59 -49 138 -79t165 -30q39 0 76 7t66.5 25.5t47 47.5t17.5 72q0 59 -41 90t-102.5 51t-134 39.5t-134 53.5t-102.5 91.5t-41 155.5q0 74 31 126t82 86t117.5 50t140.5 16q92 0 182 -23.5t160 -64.5l-72 -147q-129 82 -274 82q-39 0 -74 -7t-61.5 -22.5 t-42 -39t-15.5 -58.5q0 -57 41 -87t102.5 -49.5t134 -38t134 -52t102.5 -93t41 -159.5q0 -74 -25.5 -127.5t-68.5 -90t-100.5 -57t-122.5 -26.5l-13 -66q84 -4 119 -45t35 -98q0 -80 -52 -127t-149 -47q-84 0 -159 30l32 121q35 -16 69 -22t60 -6q29 0 47.5 9t18.5 34 q0 41 -74 40h-104l37 177q-186 16 -324 118z" />
<glyph unicode="&#x160;" horiz-adv-x="1228" d="M113 117l69 147q49 -33 97.5 -57.5t97.5 -40.5t103.5 -24.5t119.5 -8.5q70 0 130.5 13.5t104.5 43t68.5 77.5t24.5 120q0 102 -57.5 153.5t-143.5 79t-186.5 49t-186.5 65.5t-143 125t-57 231q0 94 35.5 162.5t97 113.5t144.5 66.5t179 21.5q141 0 256 -32.5t205 -80.5 l-59 -145q-74 41 -174.5 72.5t-227.5 31.5q-59 0 -110 -13t-90 -38.5t-60.5 -65.5t-21.5 -93q0 -82 32.5 -131.5t88 -79t125 -47t141 -36t141.5 -43t125 -68.5t88 -114.5t33 -179.5q0 -117 -40 -195.5t-107.5 -127t-158.5 -68.5t-194 -20q-141 0 -266 38.5t-223 98.5z M344 1854h177l100 -129l100 129h176l-211 -273h-133z" />
<glyph unicode="&#x161;" horiz-adv-x="974" d="M88 102l90 140q59 -49 138 -79t165 -30q39 0 76 7t66.5 25.5t47 47.5t17.5 72q0 59 -41 90t-102.5 51t-134 39.5t-134 53.5t-102.5 91.5t-41 155.5q0 74 31 126t82 86t117.5 50t140.5 16q92 0 182 -23.5t160 -64.5l-72 -147q-129 82 -274 82q-39 0 -74 -7t-61.5 -22.5 t-42 -39t-15.5 -58.5q0 -57 41 -87t102.5 -49.5t134 -38t134 -52t102.5 -93t41 -159.5q0 -82 -31.5 -140.5t-86 -95.5t-124 -53t-145.5 -16q-225 0 -387 122zM210 1444h177l100 -129l100 129h176l-211 -273h-133z" />
<glyph unicode="&#x162;" horiz-adv-x="1105" d="M66 1280v154h974v-154h-401v-1280h-174v1280h-399zM434 -545q47 59 68.5 118.5t27.5 125.5h-74v182h183v-125q0 -98 -22.5 -175t-76.5 -148z" />
<glyph unicode="&#x163;" horiz-adv-x="727" d="M45 870v154h154v328h174v-328h286v-154h-286v-567q0 -94 36.5 -132t94.5 -38q70 0 143 45l41 -145q-100 -53 -209 -53q-59 0 -110.5 16t-89 54t-59 98.5t-21.5 146.5v575h-154zM275 -545q47 59 68.5 118.5t27.5 125.5h-74v182h183v-125q0 -98 -22.5 -175t-76.5 -148z" />
<glyph unicode="&#x164;" horiz-adv-x="1105" d="M66 1280v154h974v-154h-401v-1280h-174v1280h-399zM276 1854h177l100 -129l100 129h176l-211 -273h-133z" />
<glyph unicode="&#x165;" horiz-adv-x="978" d="M45 870v154h154v328h174v-328h286v-154h-286v-567q0 -94 36.5 -132t94.5 -38q70 0 143 45l41 -145q-100 -53 -209 -53q-59 0 -110.5 16t-89 54t-59 98.5t-21.5 146.5v575h-154zM743 1227v207h226v-111q0 -117 -22.5 -210t-80.5 -171l-112 33q45 59 65.5 122.5t26.5 129.5 h-103z" />
<glyph unicode="&#x166;" horiz-adv-x="1105" d="M66 1280v154h974v-154h-401v-369h256v-157h-256v-754h-174v754h-256v157h256v369h-399z" />
<glyph unicode="&#x167;" horiz-adv-x="727" d="M45 512v154h154v204h-154v154h154v328h174v-328h286v-154h-286v-204h286v-154h-286v-209q0 -94 36.5 -132t94.5 -38q70 0 143 45l41 -145q-100 -53 -209 -53q-59 0 -110.5 16t-89 54t-59 98.5t-21.5 146.5v217h-154z" />
<glyph unicode="&#x168;" horiz-adv-x="1382" d="M154 451v983h174v-983q0 -92 30.5 -152.5t82 -97.5t117 -52.5t132.5 -15.5q68 0 133.5 15.5t116.5 52.5t83 97t32 153v983h174v-983q0 -133 -46 -223.5t-122 -145.5t-173 -78.5t-198 -23.5q-100 0 -196.5 24.5t-172 79.5t-121.5 145t-46 222zM410 1645q27 109 71.5 146.5 t98.5 37.5q31 0 60.5 -12t57 -26.5t51 -27t46.5 -12.5q20 0 31.5 17.5t21.5 60.5l125 -33q-27 -109 -73 -146.5t-99 -37.5q-31 0 -60.5 12.5t-56 26.5t-51.5 26.5t-45 12.5t-32.5 -17.5t-22.5 -60.5z" />
<glyph unicode="&#x169;" horiz-adv-x="1124" d="M154 350v674h174v-670q0 -115 53 -168t139 -53q121 0 199 97.5t78 277.5v516h174v-651q0 -104 5 -192.5t17 -180.5h-174q-10 37 -15 74t-7 80q-51 -86 -132 -130t-182 -44q-154 0 -241.5 86t-87.5 284zM279 1235q27 109 71.5 146.5t98.5 37.5q31 0 60.5 -12t57 -26.5 t51 -27t46.5 -12.5q20 0 31.5 17.5t21.5 60.5l125 -33q-27 -109 -73 -146.5t-99 -37.5q-31 0 -60.5 12.5t-56 26.5t-51.5 26.5t-45 12.5t-32.5 -17.5t-22.5 -60.5z" />
<glyph unicode="&#x16a;" horiz-adv-x="1382" d="M154 451v983h174v-983q0 -92 30.5 -152.5t82 -97.5t117 -52.5t132.5 -15.5q68 0 133.5 15.5t116.5 52.5t83 97t32 153v983h174v-983q0 -133 -46 -223.5t-122 -145.5t-173 -78.5t-198 -23.5q-100 0 -196.5 24.5t-172 79.5t-121.5 145t-46 222zM413 1612v150h553v-150h-553 z" />
<glyph unicode="&#x16b;" horiz-adv-x="1124" d="M154 350v674h174v-670q0 -115 53 -168t139 -53q121 0 199 97.5t78 277.5v516h174v-651q0 -104 5 -192.5t17 -180.5h-174q-10 37 -15 74t-7 80q-51 -86 -132 -130t-182 -44q-154 0 -241.5 86t-87.5 284zM284 1202v150h553v-150h-553z" />
<glyph unicode="&#x16c;" horiz-adv-x="1382" d="M154 451v983h174v-983q0 -92 30.5 -152.5t82 -97.5t117 -52.5t132.5 -15.5q68 0 133.5 15.5t116.5 52.5t83 97t32 153v983h174v-983q0 -133 -46 -223.5t-122 -145.5t-173 -78.5t-198 -23.5q-100 0 -196.5 24.5t-172 79.5t-121.5 145t-46 222zM467 1782v72h145v-66 q0 -35 21.5 -51t56.5 -16t56.5 16t21.5 51v66h145v-72q0 -104 -62.5 -152.5t-160.5 -48.5t-160.5 48.5t-62.5 152.5z" />
<glyph unicode="&#x16d;" horiz-adv-x="1124" d="M154 350v674h174v-670q0 -115 53 -168t139 -53q121 0 199 97.5t78 277.5v516h174v-651q0 -104 5 -192.5t17 -180.5h-174q-10 37 -15 74t-7 80q-51 -86 -132 -130t-182 -44q-154 0 -241.5 86t-87.5 284zM338 1372v72h145v-66q0 -35 21.5 -51t56.5 -16t56.5 16t21.5 51v66 h145v-72q0 -104 -62.5 -152.5t-160.5 -48.5t-160.5 48.5t-62.5 152.5z" />
<glyph unicode="&#x16e;" horiz-adv-x="1382" d="M154 451v983h174v-983q0 -92 30.5 -152.5t82 -97.5t117 -52.5t132.5 -15.5q68 0 133.5 15.5t116.5 52.5t83 97t32 153v983h174v-983q0 -133 -46 -223.5t-122 -145.5t-173 -78.5t-198 -23.5q-100 0 -196.5 24.5t-172 79.5t-121.5 145t-46 222zM522 1745q0 82 45 126 t123 44t123 -44t45 -126t-45 -125t-123 -43t-123 43t-45 125zM626 1745q1 -61 64 -61q61 0 61 61q0 63 -61 64q-63 0 -64 -64z" />
<glyph unicode="&#x16f;" horiz-adv-x="1124" d="M154 350v674h174v-670q0 -115 53 -168t139 -53q121 0 199 97.5t78 277.5v516h174v-651q0 -104 5 -192.5t17 -180.5h-174q-10 37 -15 74t-7 80q-51 -86 -132 -130t-182 -44q-154 0 -241.5 86t-87.5 284zM393 1335q0 82 45 126t123 44t123 -44t45 -126t-45 -125t-123 -43 t-123 43t-45 125zM497 1335q1 -61 64 -61q61 0 61 61q0 63 -61 64q-63 0 -64 -64z" />
<glyph unicode="&#x170;" horiz-adv-x="1382" d="M154 451v983h174v-983q0 -92 30.5 -152.5t82 -97.5t117 -52.5t132.5 -15.5q68 0 133.5 15.5t116.5 52.5t83 97t32 153v983h174v-983q0 -133 -46 -223.5t-122 -145.5t-173 -78.5t-198 -23.5q-100 0 -196.5 24.5t-172 79.5t-121.5 145t-46 222zM502 1567l127 318l149 -95 l-223 -254zM739 1567l125 318l152 -95l-226 -254z" />
<glyph unicode="&#x171;" horiz-adv-x="1124" d="M154 350v674h174v-670q0 -115 53 -168t139 -53q121 0 199 97.5t78 277.5v516h174v-651q0 -104 5 -192.5t17 -180.5h-174q-10 37 -15 74t-7 80q-51 -86 -132 -130t-182 -44q-154 0 -241.5 86t-87.5 284zM365 1157l127 318l149 -95l-223 -254zM602 1157l125 318l152 -95 l-226 -254z" />
<glyph unicode="&#x172;" horiz-adv-x="1382" d="M154 451v983h174v-983q0 -92 30.5 -152.5t82 -97.5t117 -52.5t132.5 -15.5q68 0 133.5 15.5t116.5 52.5t83 97t32 153v983h174v-983q0 -104 -30 -183.5t-81 -133.5t-119.5 -88t-144.5 -50q-59 -41 -92 -90t-33 -99q0 -35 18.5 -54t61.5 -19h61l-59 -133h-37 q-104 0 -149 45t-45 131q0 125 106 203q-100 0 -196.5 25.5t-171 80.5t-119.5 144t-45 221z" />
<glyph unicode="&#x173;" horiz-adv-x="1124" d="M154 350v674h174v-670q0 -115 53 -168t139 -53q121 0 199 97.5t78 277.5v516h174v-651q0 -104 5 -192.5t17 -180.5q-61 -41 -96 -91t-35 -102q0 -35 18.5 -54t61.5 -19h62l-60 -133h-37q-104 0 -149 45t-45 131q0 61 26.5 121.5t79.5 101.5q-10 37 -15 74t-7 80 q-51 -86 -132 -130t-182 -44q-154 0 -241.5 86t-87.5 284z" />
<glyph unicode="&#x174;" horiz-adv-x="2019" d="M51 1434h180l342 -1112l345 1112h184l342 -1112l344 1112h180l-442 -1434h-164l-352 1141l-353 -1141h-163zM733 1581l209 273h133l211 -273h-176l-100 129l-100 -129h-177z" />
<glyph unicode="&#x175;" horiz-adv-x="1443" d="M45 1024h186l197 -670l199 670h190l197 -670l198 670h187l-303 -1024h-160l-215 723l-213 -723h-160zM444 1171l209 273h133l211 -273h-176l-100 129l-100 -129h-177z" />
<glyph unicode="&#x176;" horiz-adv-x="1173" d="M51 1434h197l338 -629l340 629h196l-448 -830v-604h-174v604zM309 1581l209 273h133l211 -273h-176l-100 129l-100 -129h-177z" />
<glyph unicode="&#x177;" horiz-adv-x="1046" d="M45 1024h188l289 -719l293 719h186l-579 -1434h-189l195 482zM247 1171l209 273h133l211 -273h-176l-100 129l-100 -129h-177z" />
<glyph unicode="&#x178;" horiz-adv-x="1173" d="M51 1434h197l338 -629l340 629h196l-448 -830v-604h-174v604zM319 1612v180h180v-180h-180zM674 1612v180h180v-180h-180z" />
<glyph unicode="&#x179;" horiz-adv-x="1241" d="M106 0v104l752 1168h-721v162h965v-107l-754 -1167h785v-160h-1027zM455 1579l190 306l141 -123l-284 -226z" />
<glyph unicode="&#x17a;" horiz-adv-x="956" d="M76 0v82l520 780h-502v162h766v-82l-524 -782h543v-160h-803zM316 1169l190 306l141 -123l-284 -226z" />
<glyph unicode="&#x17b;" horiz-adv-x="1241" d="M106 0v104l752 1168h-721v162h965v-107l-754 -1167h785v-160h-1027zM524 1612v180h180v-180h-180z" />
<glyph unicode="&#x17c;" horiz-adv-x="956" d="M76 0v82l520 780h-502v162h766v-82l-524 -782h543v-160h-803zM389 1202v180h180v-180h-180z" />
<glyph unicode="&#x17d;" horiz-adv-x="1241" d="M106 0v104l752 1168h-721v162h965v-107l-754 -1167h785v-160h-1027zM337 1854h177l100 -129l100 129h176l-211 -273h-133z" />
<glyph unicode="&#x17e;" horiz-adv-x="956" d="M76 0v82l520 780h-502v162h766v-82l-524 -782h543v-160h-803zM202 1444h177l100 -129l100 129h176l-211 -273h-133z" />
<glyph unicode="&#x192;" horiz-adv-x="1126" d="M55 -162l39 144q41 -16 79 -24.5t73 -8.5q74 0 124 44t56 154l35 619h-307v154h315l12 223q6 104 37 175t79 115t107.5 63.5t122.5 19.5q53 0 103.5 -11.5t97.5 -31.5l-39 -144q-41 16 -80 24.5t-73 8.5q-72 0 -122 -44t-57 -155l-14 -243h309v-154h-317l-33 -598 q-6 -104 -38 -175t-79 -115t-106.5 -63.5t-122.5 -19.5q-53 0 -103.5 11.5t-97.5 31.5z" />
<glyph unicode="&#x2c6;" horiz-adv-x="593" d="M20 1171l209 273h133l211 -273h-176l-100 129l-100 -129h-177z" />
<glyph unicode="&#x2c7;" horiz-adv-x="593" d="M20 1444h177l100 -129l100 129h176l-211 -273h-133z" />
<glyph unicode="&#x2d8;" horiz-adv-x="507" d="M31 1372v72h145v-66q0 -35 21.5 -51t56.5 -16t56.5 16t21.5 51v66h145v-72q0 -104 -62.5 -152.5t-160.5 -48.5t-160.5 48.5t-62.5 152.5z" />
<glyph unicode="&#x2d9;" horiz-adv-x="282" d="M51 1202v180h180v-180h-180z" />
<glyph unicode="&#x2da;" horiz-adv-x="417" d="M41 1335q0 82 45 126t123 44t123 -44t45 -126t-45 -125t-123 -43t-123 43t-45 125zM145 1335q1 -61 64 -61q61 0 61 61q0 63 -61 64q-63 0 -64 -64z" />
<glyph unicode="&#x2db;" horiz-adv-x="362" d="M41 -223q0 141 137 223h144q-61 -41 -96.5 -91t-35.5 -102q0 -35 18.5 -54t61.5 -19h62l-60 -133h-36q-104 0 -149.5 45t-45.5 131z" />
<glyph unicode="&#x2dc;" horiz-adv-x="624" d="M31 1235q27 109 71.5 146.5t98.5 37.5q31 0 60.5 -12t57 -26.5t51 -27t46.5 -12.5q20 0 31.5 17.5t21.5 60.5l125 -33q-27 -109 -73 -146.5t-99 -37.5q-31 0 -60.5 12.5t-56 26.5t-51.5 26.5t-45 12.5t-32.5 -17.5t-22.5 -60.5z" />
<glyph unicode="&#x2dd;" horiz-adv-x="563" d="M25 1157l127 318l149 -95l-223 -254zM262 1157l125 318l152 -95l-226 -254z" />
<glyph unicode="&#x3c0;" horiz-adv-x="1249" d="M61 1034v154h1141v-154h-211v-786q0 -57 20.5 -82t55.5 -25q47 0 104 29l39 -147q-45 -20 -88 -31.5t-90 -11.5q-96 0 -155.5 60t-59.5 206v788h-418v-1034h-174v1034h-164z" />
<glyph unicode="&#xe01;" horiz-adv-x="1095" d="M119 987q242 57 407 57q121 0 203 -25.5t131 -75.5t70.5 -127t21.5 -177v-639h-174v637q0 137 -55 195.5t-191 58.5q-39 0 -82.5 -5t-97.5 -16l88 -172q-41 -23 -64.5 -48t-36.5 -57t-17.5 -75t-4.5 -100v-418h-174v444q0 59 3.5 101.5t14.5 75t31.5 58.5t57.5 54z" />
<glyph unicode="&#xe02;" horiz-adv-x="1013" d="M127 274v136q0 53 3 86.5t11.5 60.5t24.5 48.5t43 49.5l102 109v106h-184v154h233q76 0 100.5 -24.5t24.5 -94.5v-192l-123 -129q-20 -23 -32.5 -37.5t-18.5 -31.5t-8 -41.5t-2 -63.5v-125q0 -39 17.5 -68t45 -47t63.5 -27.5t73 -9.5t71.5 9.5t62.5 28.5t45 48t17 68v737 h174v-745q0 -74 -31.5 -130.5t-84 -93.5t-119 -56t-135.5 -19q-72 0 -138.5 18t-119 55t-84 92.5t-31.5 128.5z" />
<glyph unicode="&#xe03;" horiz-adv-x="1013" d="M76 891v133h153v-104q0 -51 39 -52q20 0 43 20.5t39 61.5l27 74h108v-373l-123 -129q-20 -23 -32.5 -37t-18.5 -31.5t-8 -42t-2 -63.5v-63q0 -39 17.5 -68t45 -47t63.5 -27.5t73 -9.5t71.5 9.5t62.5 28.5t45 48t17 68v737h174v-745q0 -74 -31.5 -130.5t-84 -93.5 t-119 -56t-135.5 -19q-72 0 -138.5 18t-119 55t-84 92.5t-31.5 128.5v74q0 53 3 87t12.5 59.5t24.5 47t42 50.5l123 131v96q-29 -35 -62.5 -51t-68.5 -16q-49 0 -87 34.5t-38 104.5z" />
<glyph unicode="&#xe04;" horiz-adv-x="1089" d="M117 653q0 80 24.5 150.5t76.5 124t133 85t194 31.5q80 0 152.5 -19t128 -60t88 -107.5t32.5 -161.5v-696h-174v682q0 119 -63.5 164t-169.5 45q-119 0 -183.5 -65.5t-64.5 -188.5q0 -113 28 -205l107 123h215v-154h-164l-164 -401h-188l129 317q-72 63 -104.5 150.5 t-32.5 185.5z" />
<glyph unicode="&#xe05;" horiz-adv-x="1089" d="M117 668q0 186 82 281t217 95q92 0 158.5 -50t113.5 -154h88l31 184h139v-1024h-174v686h-125q-39 0 -53 16.5t-27 49.5q-29 72 -61.5 105.5t-83.5 33.5q-63 0 -97 -58.5t-34 -168.5q0 -74 8 -134.5t23 -107.5l96 108h223v-153h-172l-156 -377h-188l129 317 q-70 66 -103.5 157t-33.5 194z" />
<glyph unicode="&#xe06;" horiz-adv-x="1089" d="M76 891v133h153v-104q0 -51 39 -52q20 0 43 20.5t39 61.5l27 74h108v-373l-108 -116q-45 -47 -55.5 -76t-10.5 -72q0 -49 18.5 -94t52.5 -81t81 -57.5t102 -21.5q92 0 149.5 53.5t57.5 175.5v662h174v-678q0 -104 -28.5 -175t-76.5 -113t-108.5 -60t-124.5 -18 q-104 0 -178 44t-119 113q-2 -61 -20 -137h-174q6 35 9 67.5t6 69.5t4 79t1 97v43q0 53 3 88t12.5 60.5t25 47t41.5 50.5l113 121v96q-29 -35 -62.5 -51t-68.5 -16q-49 0 -87 34.5t-38 104.5z" />
<glyph unicode="&#xe07;" horiz-adv-x="960" d="M55 551h187l168 -397q127 0 197.5 92t70.5 284q0 170 -62.5 255t-220.5 85h-57v154h49q127 0 215 -30.5t143.5 -92t81 -154t25.5 -217.5q0 -260 -114.5 -395t-336.5 -135h-49q-39 0 -55 10t-29 41z" />
<glyph unicode="&#xe08;" horiz-adv-x="1085" d="M92 365v153h260l117 -364h51q129 0 204 98t75 285q0 193 -68.5 273.5t-198.5 80.5q-205 0 -266 -195l-162 60q47 135 155 211.5t273 76.5q217 0 329 -122.5t112 -384.5q0 -117 -27.5 -216.5t-85 -170t-144.5 -110.5t-204 -40h-98q-49 0 -67.5 16.5t-31.5 53.5l-94 295 h-129z" />
<glyph unicode="&#xe09;" horiz-adv-x="1130" d="M86 403v154h147q76 0 99.5 -23.5t23.5 -95.5v-76q0 -123 55.5 -176t139.5 -53q111 0 186.5 87t75.5 257v139q0 145 -70.5 210t-189.5 65q-215 0 -285 -199l-162 60q55 150 168 221t277 71q199 0 317.5 -105t118.5 -323v-303q0 -55 1 -97t4 -79t6 -69.5t10 -67.5h-172 q-10 39 -15.5 70.5t-7.5 66.5q-51 -72 -129 -114.5t-176 -42.5q-66 0 -124 19t-103 61t-72 110t-27 166v67h-96z" />
<glyph unicode="&#xe0a;" horiz-adv-x="1013" d="M127 274v136q0 53 3 86.5t11.5 60.5t24.5 48.5t43 49.5l102 109v106h-184v154h233q74 0 99.5 -23.5t25.5 -95.5v-192l-123 -129q-20 -23 -32.5 -37.5t-18.5 -31.5t-8 -41.5t-2 -63.5v-125q0 -39 17.5 -68t45 -47t63.5 -27.5t73 -9.5t71.5 9.5t62.5 28.5t45 48t17 68v221 q0 49 -8 79.5t-26.5 48t-50 23t-79.5 5.5v84l195 317h193l-185 -299q74 -25 104.5 -81t30.5 -165v-241q0 -74 -31.5 -130.5t-84 -93.5t-119 -56t-135.5 -19q-72 0 -138.5 18t-119 55t-84 92.5t-31.5 128.5z" />
<glyph unicode="&#xe0b;" horiz-adv-x="1013" d="M76 891v133h153v-104q0 -51 39 -52q20 0 43 20.5t39 61.5l27 74h108v-373l-123 -129q-20 -23 -32.5 -37t-18.5 -31.5t-8 -42t-2 -63.5v-63q0 -39 17.5 -68t45 -47t63.5 -27.5t73 -9.5t71.5 9.5t62.5 28.5t45 48t17 68v221q0 49 -8 79.5t-26.5 48t-50 23t-79.5 5.5v84 l195 317h193l-185 -299q74 -25 104.5 -81t30.5 -165v-241q0 -74 -31.5 -130.5t-84 -93.5t-119 -56t-135.5 -19q-72 0 -138.5 18t-119 55t-84 92.5t-31.5 128.5v74q0 53 3 87t12.5 59.5t24.5 47t42 50.5l123 131v96q-29 -35 -62.5 -51t-68.5 -16q-49 0 -87 34.5t-38 104.5z " />
<glyph unicode="&#xe0c;" horiz-adv-x="1730" d="M119 987q242 57 407 57q121 0 203 -25.5t131 -75.5t70.5 -127t21.5 -177v-158q0 -86 21.5 -150.5t56.5 -108.5t82 -66.5t100 -22.5q86 0 143.5 53.5t57.5 175.5v662h174v-678q0 -104 -28.5 -175t-76.5 -113t-108.5 -60t-124.5 -18q-104 0 -179 44t-118 113 q-2 -61 -20 -137h-174q6 35 9 67.5t6 69.5t4 79t1 97v324q0 137 -55 195.5t-191 58.5q-39 0 -82.5 -5t-97.5 -16l88 -172q-41 -23 -64.5 -48t-36.5 -57t-17.5 -75t-4.5 -100v-264h179v-154h-248q-37 0 -57.5 7t-32 25.5t-13.5 47.5t-2 72v292q0 59 3.5 101.5t14.5 75 t31.5 58.5t57.5 54z" />
<glyph unicode="&#xe0d;" horiz-adv-x="1730" d="M119 987q242 57 407 57q121 0 203 -25.5t131 -75.5t70.5 -127t21.5 -177v-317q0 -51 19.5 -87t52.5 -58.5t74 -33t84 -10.5t85 10.5t73.5 33t52 58t20.5 87.5v702h174v-723q0 -74 -25.5 -128t-68.5 -93q84 -68 84 -170t-63.5 -162.5t-192.5 -60.5h-469l68 153h380 q53 0 78 23.5t25 58.5q0 45 -39 84q-82 -26 -182 -26q-76 0 -148.5 18t-129 56t-91.5 99.5t-35 147.5v336q0 137 -55 195.5t-191 58.5q-39 0 -82.5 -5t-97.5 -16l88 -172q-41 -23 -64.5 -48t-36.5 -57t-17.5 -75t-4.5 -100v-264h179v-154h-248q-37 0 -57.5 7t-32 25.5 t-13.5 47.5t-2 72v292q0 59 3.5 101.5t14.5 75t31.5 58.5t57.5 54z" />
<glyph unicode="&#xe0e;" horiz-adv-x="1095" d="M20 0v154h123v290q0 59 3.5 101.5t14.5 75t31.5 58.5t57.5 54l-131 254q242 57 407 57q121 0 203 -25.5t131 -75.5t70.5 -127t21.5 -177v-686q0 -104 -19.5 -174t-64.5 -112t-120.5 -59.5t-186.5 -17.5h-424v154h414q68 0 112 9t69.5 34t35.5 68t10 110v672 q0 137 -55 195.5t-191 58.5q-39 0 -82.5 -5t-97.5 -16l88 -172q-41 -23 -64.5 -48t-36.5 -57t-17.5 -75t-4.5 -100v-295q0 -72 -25.5 -97.5t-101.5 -25.5h-170z" />
<glyph unicode="&#xe0f;" horiz-adv-x="1085" d="M20 0v154h123v290q0 59 3.5 101.5t14.5 75t31.5 58.5t57.5 54l-131 254q242 57 407 57q121 0 203 -25.5t131 -75.5t70.5 -127t21.5 -177v-1049h-141l-268 174q-66 -92 -165 -133t-269 -41v154q82 0 140 10t101 31.5t74 56.5t55 86h107l192 -123v832q0 137 -55 195.5 t-191 58.5q-39 0 -82.5 -5t-97.5 -16l88 -172q-41 -23 -64.5 -48t-36.5 -57t-17.5 -75t-4.5 -100v-295q0 -72 -25.5 -97.5t-101.5 -25.5h-170z" />
<glyph unicode="&#xe10;" horiz-adv-x="1019" d="M80 -256q82 0 140.5 10t101.5 31.5t73.5 56.5t55.5 86h106l193 -123v136h174v-351h-142l-268 174q-66 -92 -165 -133t-269 -41v154zM102 307v154h238l96 -307h43q127 0 177.5 63.5t50.5 200.5v135h-584v86q0 186 107.5 295.5t334.5 109.5q145 0 328 -45l-37 -153 q-59 16 -134 30.5t-149 14.5q-53 0 -99 -9.5t-83 -31t-60.5 -56t-31.5 -87.5h465q72 0 94.5 -25t22.5 -86v-178q0 -98 -20.5 -176t-66.5 -131.5t-124 -82t-191 -28.5h-176l-98 307h-103z" />
<glyph unicode="&#xe11;" horiz-adv-x="1173" d="M55 891v133h154v-104q0 -51 39 -52q53 0 94 117l14 39h90v-123q55 72 120 107.5t151 35.5q63 0 119.5 -22.5t99.5 -67.5t68.5 -114.5t25.5 -161.5v-678h-174v666q0 119 -52 172t-145 53q-131 0 -192 -125t-61 -393v-373h-175v287q0 66 3.5 114t8.5 86.5t12 70.5t17 63 q18 61 29.5 110t15.5 96q-29 -39 -65.5 -57t-71.5 -18q-51 0 -88 34.5t-37 104.5z" />
<glyph unicode="&#xe12;" horiz-adv-x="1761" d="M96 489q0 262 88 408.5t269 146.5q98 0 164.5 -53t117.5 -170h74l37 203h137v-543q0 -86 21.5 -150.5t57.5 -108.5t83 -66.5t100 -22.5q86 0 142.5 53.5t56.5 175.5v662h174v-678q0 -104 -28.5 -175t-77 -113t-109 -60t-123.5 -18q-104 0 -178 44t-119 113 q-2 -61 -20 -137h-175q6 35 9.5 67.5t6.5 69.5t4 79t1 97v355h-107q-51 0 -70.5 21.5t-35.5 55.5q-31 70 -64.5 108t-80.5 38q-84 0 -132.5 -107.5t-48.5 -294.5q0 -168 54.5 -262t164.5 -94q47 0 86 11.5t89 35.5l49 -139q-59 -33 -113.5 -47t-114.5 -14q-186 0 -287.5 134 t-101.5 375z" />
<glyph unicode="&#xe13;" horiz-adv-x="1730" d="M119 987q242 57 407 57q121 0 203 -25.5t131 -75.5t70.5 -127t21.5 -177v-266q0 -129 53.5 -184.5t139.5 -55.5q113 0 190.5 92t77.5 277v522h174v-711q0 -55 1 -97t4 -79t6.5 -69.5t9.5 -67.5h-178q-8 41 -11.5 73.5t-5.5 67.5q-57 -74 -134 -117.5t-181 -43.5 q-66 0 -124.5 20t-101.5 65.5t-68.5 118t-25.5 176.5v277q0 137 -55 195.5t-191 58.5q-39 0 -82.5 -5t-97.5 -16l88 -172q-41 -23 -64.5 -48t-36.5 -57t-17.5 -75t-4.5 -100v-264h179v-154h-248q-37 0 -57.5 7t-32 25.5t-13.5 47.5t-2 72v292q0 59 3.5 101.5t14.5 75 t31.5 58.5t57.5 54z" />
<glyph unicode="&#xe14;" horiz-adv-x="1126" d="M96 483q0 145 35 252t97.5 175.5t150.5 101t196 32.5q90 0 165 -22.5t129.5 -75.5t84 -139t29.5 -213v-594h-174v596q0 86 -18.5 142.5t-51 90t-77 48t-95.5 14.5q-78 0 -134 -30t-92 -84t-53.5 -129t-17.5 -165q0 -166 54.5 -258t164.5 -92q47 0 86 11.5t89 35.5 l49 -139q-59 -33 -111.5 -47t-112.5 -14q-193 0 -293 133.5t-100 369.5z" />
<glyph unicode="&#xe15;" horiz-adv-x="1126" d="M96 489q0 262 88.5 408.5t268.5 146.5q98 0 164.5 -53t117.5 -170h74l37 203h137v-1024h-174v668h-107q-51 0 -70.5 21.5t-35.5 55.5q-31 70 -64.5 108t-80.5 38q-84 0 -132.5 -107.5t-48.5 -294.5q0 -168 54.5 -262t164.5 -94q47 0 86 11.5t89 35.5l49 -139 q-59 -33 -113.5 -47t-114.5 -14q-186 0 -287.5 134t-101.5 375z" />
<glyph unicode="&#xe16;" horiz-adv-x="1095" d="M119 987q242 57 407 57q121 0 203 -25.5t131 -75.5t70.5 -127t21.5 -177v-639h-174v637q0 137 -55 195.5t-191 58.5q-39 0 -82.5 -5t-97.5 -16l88 -172q-41 -23 -64.5 -48t-36.5 -57t-17.5 -75t-4.5 -100v-264h179v-154h-248q-63 0 -84 22.5t-21 81.5v340q0 59 3.5 101.5 t14.5 75t31.5 58.5t57.5 54z" />
<glyph unicode="&#xe17;" horiz-adv-x="1085" d="M123 1024h174q18 -76 20 -137q49 72 122 114.5t177 42.5q61 0 120 -18t105 -61t73.5 -114t27.5 -175v-676h-174v670q0 119 -53 170t-148 51q-106 0 -178 -89t-72 -261v-541h-174v711q0 55 -1 97t-4 79t-6 69.5t-9 67.5z" />
<glyph unicode="&#xe18;" horiz-adv-x="1058" d="M137 297v164h174v-156q0 -51 16.5 -84t46 -52t67.5 -27.5t81 -8.5t82 8.5t70 27.5t49 53t18 85v246h-594v84q0 109 33 186.5t91.5 126.5t137 71.5t171.5 22.5q84 0 167.5 -12t163.5 -33l-37 -149q-70 16 -139 28.5t-135 12.5q-104 0 -181 -40t-93 -144h460 q78 0 103.5 -27t25.5 -100v-285q0 -86 -32.5 -146.5t-88 -98.5t-126 -54t-146.5 -16q-78 0 -147.5 16t-121.5 54t-84 98.5t-32 148.5z" />
<glyph unicode="&#xe19;" horiz-adv-x="1095" d="M143 360v664h174v-651q0 -129 53.5 -184.5t139.5 -55.5q113 0 190.5 92t77.5 277v522h174v-711q0 -55 1 -97t4.5 -79t6.5 -69.5t9 -67.5h-178q-8 41 -11.5 73.5t-5.5 67.5q-57 -74 -134 -117.5t-181 -43.5q-66 0 -124 20t-101 65.5t-69 118t-26 176.5z" />
<glyph unicode="&#xe1a;" horiz-adv-x="1095" d="M143 305v719h174v-705q0 -49 19.5 -83.5t52.5 -58t74 -34t84 -10.5t85 10.5t73.5 34t52 58t20.5 83.5v705h174v-719q0 -86 -34.5 -147.5t-92 -101.5t-130 -58t-148.5 -18t-148.5 18t-129 58t-91.5 101.5t-35 147.5z" />
<glyph unicode="&#xe1b;" horiz-adv-x="1095" d="M143 305v719h174v-705q0 -49 19.5 -83.5t52.5 -58t74 -34t84 -10.5t85 10.5t73.5 34t52 58t20.5 83.5v1115h174v-1129q0 -86 -34.5 -147.5t-92 -101.5t-130 -58t-148.5 -18t-148.5 18t-129 58t-91.5 101.5t-35 147.5z" />
<glyph unicode="&#xe1c;" horiz-adv-x="1239" d="M143 0v668q0 104 12.5 172.5t47.5 109.5t97 57.5t163 16.5h88v-154h-80q-47 0 -76.5 -8t-46 -30.5t-24 -63.5t-7.5 -104v-375l246 352h113l246 -352v735h174v-1024h-174l-304 430l-301 -430h-174z" />
<glyph unicode="&#xe1d;" horiz-adv-x="1239" d="M143 0v668q0 104 12.5 172.5t47.5 109.5t97 57.5t163 16.5h88v-154h-80q-47 0 -76.5 -8t-46 -30.5t-24 -63.5t-7.5 -104v-375l246 352h113l246 -352v1145h174v-1434h-174l-304 430l-301 -430h-174z" />
<glyph unicode="&#xe1e;" horiz-adv-x="1239" d="M143 0v1024h174v-651l248 467h109l248 -467v651h174v-1024h-174l-304 567l-301 -567h-174z" />
<glyph unicode="&#xe1f;" horiz-adv-x="1239" d="M143 0v1024h174v-651l248 467h109l248 -467v1061h174v-1434h-174l-304 567l-301 -567h-174z" />
<glyph unicode="&#xe20;" horiz-adv-x="1095" d="M20 0v154h123v290q0 59 3.5 101.5t14.5 75t31.5 58.5t57.5 54l-131 254q242 57 407 57q121 0 203 -25.5t131 -75.5t70.5 -127t21.5 -177v-639h-174v637q0 137 -55 195.5t-191 58.5q-39 0 -82.5 -5t-97.5 -16l88 -172q-41 -23 -64.5 -48t-36.5 -57t-17.5 -75t-4.5 -100 v-295q0 -72 -25.5 -97.5t-101.5 -25.5h-170z" />
<glyph unicode="&#xe21;" horiz-adv-x="1095" d="M123 0q6 35 9 67.5t6 69.5t4 79t1 97v711h174v-543q0 -86 21.5 -150.5t56.5 -108.5t82 -66.5t101 -22.5q88 0 144 53.5t56 175.5v662h174v-678q0 -104 -28.5 -175t-76.5 -113t-108.5 -60t-124.5 -18q-104 0 -179 44t-118 113q-2 -61 -20 -137h-174z" />
<glyph unicode="&#xe22;" horiz-adv-x="1091" d="M106 319q0 174 148 254q-51 31 -84 85.5t-33 146.5v100q0 70 20.5 94.5t92.5 24.5h293v-154h-232v-69q0 -94 50.5 -123t142.5 -29h82v-153h-72q-129 0 -181 -40t-52 -128q0 -59 22.5 -96t58 -59.5t79.5 -31t87 -8.5q45 0 90.5 11.5t79 39t55 73.5t21.5 114v653h174v-653 q0 -186 -101.5 -288.5t-307.5 -102.5q-96 0 -176 17t-136.5 57t-88.5 104.5t-32 160.5z" />
<glyph unicode="&#xe23;" horiz-adv-x="958" d="M92 61l51 154q66 -33 153 -55.5t179 -22.5q39 0 75 6.5t62.5 22.5t43 44t16.5 71q0 59 -41 92t-102.5 55.5t-134 40.5t-134 52t-102.5 89.5t-41 151.5q0 76 29.5 130t78.5 88t115 49t137 15q88 0 177 -19t163 -54l-53 -152q-141 66 -287 66q-78 0 -132 -28t-54 -97 q0 -55 41 -83t102.5 -47.5t134 -38t134 -52t102.5 -92t41 -156.5q0 -86 -32 -145.5t-84 -96.5t-120.5 -53t-142.5 -16q-98 0 -199.5 22.5t-175.5 58.5z" />
<glyph unicode="&#xe24;" horiz-adv-x="1095" d="M119 987q242 57 407 57q121 0 203 -25.5t131 -75.5t70.5 -127t21.5 -177v-1049h-174v990q0 86 -10 145t-38 96t-75 53.5t-123 16.5q-39 0 -82.5 -5t-97.5 -16l88 -172q-41 -23 -64.5 -48t-36.5 -57t-17.5 -75t-4.5 -100v-264h179v-154h-248q-63 0 -84 22.5t-21 81.5v340 q0 59 3.5 101.5t14.5 75t31.5 58.5t57.5 54z" />
<glyph unicode="&#xe25;" horiz-adv-x="1062" d="M86 276q0 141 101.5 230.5t328.5 89.5q49 0 106.5 -5t122.5 -16v99q0 100 -57 158.5t-158 58.5q-186 0 -237 -168l-166 57q41 129 145.5 196.5t266.5 67.5q82 0 151.5 -22.5t120.5 -68.5t80 -115.5t29 -163.5v-674h-175v420q-68 10 -123 16t-102 6q-145 0 -202.5 -46 t-57.5 -117q0 -80 45 -113t105 -33q80 0 153 39l43 -145q-98 -47 -207 -47q-59 0 -115.5 17t-100.5 53t-70.5 92.5t-26.5 133.5z" />
<glyph unicode="&#xe26;" horiz-adv-x="1095" d="M20 0v154h123v290q0 59 3.5 101.5t14.5 75t31.5 58.5t57.5 54l-131 254q242 57 407 57q121 0 203 -25.5t131 -75.5t70.5 -127t21.5 -177v-1049h-174v1047q0 135 -55 194.5t-191 59.5q-39 0 -82.5 -5t-97.5 -16l88 -172q-41 -23 -64.5 -48t-36.5 -57t-17.5 -75t-4.5 -100 v-295q0 -72 -25.5 -97.5t-101.5 -25.5h-170z" />
<glyph unicode="&#xe27;" horiz-adv-x="1038" d="M82 758q59 152 159.5 219t243.5 67q217 0 326 -135t109 -391q0 -117 -24 -216t-76 -171t-136 -111.5t-207 -39.5q-88 0 -149.5 22.5t-103.5 56t-68.5 75.5t-42.5 83l157 72q29 -74 75 -115t132 -41q76 0 128 27.5t83 79t44 122t13 156.5q0 180 -62 276.5t-198 96.5 q-90 0 -146 -46t-95 -143z" />
<glyph unicode="&#xe28;" horiz-adv-x="1089" d="M117 653q0 80 24.5 150.5t76.5 124t133 85t194 31.5q68 0 131 -14t115 -43l67 98h201l-150 -223q16 -35 26.5 -76t10.5 -90v-696h-174v682q0 119 -63.5 164t-169.5 45q-119 0 -183.5 -65.5t-64.5 -188.5q0 -113 28 -205l107 123h215v-154h-164l-164 -401h-188l129 317 q-72 63 -104.5 150.5t-32.5 185.5z" />
<glyph unicode="&#xe29;" horiz-adv-x="1095" d="M143 305v719h174v-705q0 -49 19.5 -83.5t52.5 -58t74 -34t84 -10.5t85 10.5t73.5 34t52 58t20.5 83.5v173h-231v153h231v379h174v-379h123v-31l-55 -122h-68v-187q0 -86 -34.5 -147.5t-92 -101.5t-130 -58t-148.5 -18t-148.5 18t-129 58t-91.5 101.5t-35 147.5z" />
<glyph unicode="&#xe2a;" horiz-adv-x="1062" d="M86 276q0 141 101.5 230.5t328.5 89.5q49 0 106.5 -5t122.5 -16v99q0 100 -57 158.5t-158 58.5q-186 0 -237 -168l-166 57q41 129 145.5 196.5t266.5 67.5q133 0 225 -59l67 100h201l-153 -229q41 -86 41 -207v-649h-175v420q-68 10 -123 16t-102 6q-145 0 -202.5 -46 t-57.5 -117q0 -80 45 -113t105 -33q80 0 153 39l43 -145q-98 -47 -207 -47q-59 0 -115.5 17t-100.5 53t-70.5 92.5t-26.5 133.5z" />
<glyph unicode="&#xe2b;" horiz-adv-x="1089" d="M143 0v1024h174v-336h191l223 336h203l-232 -348q139 -23 200 -109t61 -266v-301h-175v301q0 61 -10 106.5t-36.5 73t-71.5 41t-113 13.5h-240v-535h-174z" />
<glyph unicode="&#xe2c;" horiz-adv-x="1239" d="M143 0v1024h174v-651l248 467h109l248 -467v493q0 53 -7.5 87t-26 52.5t-49 25.5t-75.5 7h-88v99l221 297h199l-199 -265q94 -18 146.5 -85.5t52.5 -217.5v-866h-174l-304 567l-301 -567h-174z" />
<glyph unicode="&#xe2d;" horiz-adv-x="1126" d="M117 424v49q0 61 20.5 85t91.5 24h334v-154h-272v-29q0 -129 69.5 -197.5t180.5 -68.5q70 0 124 20.5t92 66.5t57.5 121t19.5 181t-23 177t-60.5 114t-86 60.5t-99.5 17.5q-96 0 -160.5 -43t-91.5 -129l-166 57q37 125 148 196.5t270 71.5q98 0 179 -28.5t139.5 -91 t91.5 -161.5t33 -241q0 -279 -118 -410.5t-349 -131.5q-90 0 -168 26.5t-134.5 80.5t-89 138t-32.5 199z" />
<glyph unicode="&#xe2e;" horiz-adv-x="1126" d="M117 424v49q0 61 20.5 85t91.5 24h334v-154h-272v-29q0 -129 69.5 -197.5t180.5 -68.5q70 0 124 20.5t92 66.5t57.5 121t19.5 181t-23 177t-60.5 114t-86 60.5t-99.5 17.5q-96 0 -160.5 -43t-91.5 -129l-166 57q37 125 148 196.5t270 71.5q74 0 137.5 -15t116.5 -50 l74 106h203l-158 -233q35 -61 52.5 -143t17.5 -187q0 -279 -118 -410.5t-349 -131.5q-90 0 -168 26.5t-134.5 80.5t-89 138t-32.5 199z" />
<glyph unicode="&#xe2f;" horiz-adv-x="997" d="M102 748q0 143 74 219.5t209 76.5q72 0 164 -28l-37 -148q-29 10 -56.5 16.5t-54.5 6.5q-61 0 -93 -33t-32 -110q0 -66 29 -106t107 -40q102 0 165.5 73t110.5 238l31 111h135v-1024h-174v596q-104 -147 -301 -147q-57 0 -107.5 15t-88.5 50t-59.5 92.5t-21.5 141.5z" />
<glyph unicode="&#xe30;" horiz-adv-x="632" d="M96 231v150h174v-102h281v-154h-340q-61 0 -88 23.5t-27 82.5zM96 799v151h174v-102h281v-154h-340q-61 0 -88 22.5t-27 82.5z" />
<glyph unicode="&#xe31;" d="M-606 1264v190h164v-143h483l-57 -150h-488q-59 0 -80.5 18.5t-21.5 84.5z" />
<glyph unicode="&#xe32;" horiz-adv-x="731" d="M45 1001q59 20 118.5 31.5t112.5 11.5q70 0 127.5 -18t98.5 -59t63.5 -105.5t22.5 -156.5v-705h-174v698q0 104 -41 148.5t-117 44.5q-41 0 -83 -10.5t-89 -28.5z" />
<glyph unicode="&#xe33;" horiz-adv-x="731" d="M-471 1300q0 80 43 122t121 42q76 0 120 -42t44 -122t-44 -121.5t-120 -41.5q-78 0 -121 42t-43 121zM-365 1300q0 -57 58 -57q55 0 55 57q0 56 -55 56q-57 0 -58 -56zM45 1001q59 20 118.5 31.5t112.5 11.5q70 0 127.5 -18t98.5 -59t63.5 -105.5t22.5 -156.5v-705h-174 v698q0 104 -41 148.5t-117 44.5q-41 0 -83 -10.5t-89 -28.5z" />
<glyph unicode="&#xe34;" d="M-883 1161v150h740l-66 -150h-674z" />
<glyph unicode="&#xe35;" d="M-883 1161l66 150h510v153h164v-303h-740z" />
<glyph unicode="&#xe36;" d="M-883 1161l66 150h375q0 74 41 113.5t110 39.5q72 0 112 -40t40 -111q0 -72 -40 -112t-112 -40h-592zM-350 1313q0 -59 59 -60q27 0 43.5 15.5t16.5 44.5q0 27 -16.5 43t-43.5 16q-29 0 -44 -16.5t-15 -42.5z" />
<glyph unicode="&#xe37;" d="M-883 1161l66 150h315v153h137v-153h82v153h140v-303h-740z" />
<glyph unicode="&#xe38;" d="M-399 -102h149q57 0 78.5 -24t21.5 -107v-197h-153v184h-96v144z" />
<glyph unicode="&#xe39;" d="M-547 -102h144v-142q0 -53 53 -53t53 53v142h143v-152q0 -98 -54 -137t-142 -39t-142.5 39t-54.5 137v152z" />
<glyph unicode="&#xe3a;" d="M-426 -244q0 59 41 100.5t100 41.5t100.5 -41t41.5 -101q0 -59 -41 -100t-101 -41q-59 0 -100 41t-41 100z" />
<glyph unicode="&#xe3f;" horiz-adv-x="1126" d="M147 0v1307h332v188h174v-190q350 -18 351 -334q0 -115 -41 -190.5t-123 -123.5q88 -39 134 -107.5t46 -184.5q0 -180 -90 -267.5t-277 -97.5v-193h-174v193h-332zM322 154h157v421h-157v-421zM322 729h157v424h-157v-424zM653 156q98 10 145.5 59t47.5 160 q0 100 -47 144t-146 54v-417zM653 731q90 12 133 64t43 163q0 92 -44 136.5t-132 54.5v-418z" />
<glyph unicode="&#xe40;" horiz-adv-x="481" d="M143 106v918h174v-870h103v-154h-172q-63 0 -84 22.5t-21 83.5z" />
<glyph unicode="&#xe41;" horiz-adv-x="931" d="M143 106v918h174v-870h117v-154h-186q-63 0 -84 22.5t-21 83.5zM594 106v918h174v-870h102v-154h-172q-63 0 -83.5 22.5t-20.5 83.5z" />
<glyph unicode="&#xe42;" horiz-adv-x="512" d="M20 1645v96h594l-65 -154h-289q25 -41 40 -77.5t23.5 -83t11.5 -106.5t3 -146v-1020h113v-154h-183q-63 0 -83.5 22.5t-20.5 83.5v1068q0 88 -5 152.5t-20.5 116.5t-43 99t-75.5 103z" />
<glyph unicode="&#xe43;" horiz-adv-x="512" d="M-27 1425v37q0 119 69 199t210 80q59 0 110.5 -16.5t89 -49.5t59 -84t21.5 -118q0 -102 -30.5 -181.5t-66.5 -156t-66.5 -163.5t-30.5 -204v-614h113v-154h-183q-63 0 -83.5 22.5t-20.5 83.5v685q0 109 30.5 196.5t66.5 164.5t66.5 148.5t30.5 147.5q0 139 -106 139 q-47 0 -76 -32.5t-29 -98.5v-88z" />
<glyph unicode="&#xe44;" horiz-adv-x="512" d="M-78 1587l66 154h493v-103q-43 -57 -70.5 -111t-44 -113.5t-22.5 -128t-6 -155.5v-976h113v-154h-183q-63 0 -83.5 22.5t-20.5 83.5v1045q0 86 4 149.5t15.5 114.5t28.5 92t42 80h-332z" />
<glyph unicode="&#xe45;" horiz-adv-x="731" d="M45 1001q59 20 118.5 31.5t112.5 11.5q70 0 127.5 -18t98.5 -59t63.5 -105.5t22.5 -156.5v-1115h-174v1108q0 104 -41 148.5t-117 44.5q-41 0 -83 -10.5t-89 -28.5z" />
<glyph unicode="&#xe46;" horiz-adv-x="1034" d="M102 717q0 154 75 240.5t204 86.5q92 0 160.5 -50t132.5 -148h59l39 178h119v-1434h-174v1102h-70q-35 0 -50 15.5t-34 44.5q-37 63 -77 101t-93 38q-57 0 -87 -45t-30 -129q0 -94 33 -133t97 -39q37 0 69.5 9t77.5 28l39 -142q-57 -25 -108.5 -37t-104.5 -12 q-127 0 -202 79t-75 247z" />
<glyph unicode="&#xe47;" d="M-776 1171v134q0 123 51 170t182 47h365l-55 -129h-302q-53 0 -70.5 -12.5t-17.5 -30.5q0 -29 29 -42.5t109 -13.5h26v47h174v-57q0 -72 -42 -100.5t-111 -28.5q-66 0 -111 20.5t-82 61.5l-24 -66h-121z" />
<glyph unicode="&#xe48;" d="M-297 1516v272h141v-272h-141z" />
<glyph unicode="&#xe49;" d="M-614 1667v121h147q55 0 71.5 -16.5t16.5 -65.5v-72h395l-53 -118h-475v151h-102z" />
<glyph unicode="&#xe4a;" d="M-614 1659q0 61 32.5 99t98.5 38q37 0 71.5 -13.5t63.5 -41.5l14 45h88v-170q35 0 46.5 12t11.5 53v105h112v-105q0 -96 -44 -130.5t-126 -34.5h-112v51q0 63 -26 97t-67 34q-43 0 -43 -41q0 -18 11.5 -29.5t42.5 -11.5h47l-35 -100h-33q-78 0 -115.5 37.5t-37.5 105.5z " />
<glyph unicode="&#xe4b;" d="M-379 1587v121h82v76h141v-76h78v-121h-78v-71h-141v71h-82z" />
<glyph unicode="&#xe4c;" d="M-596 1434q0 76 9 127t35 82.5t75 45t129 13.5h311l-57 -129h-242q-39 0 -61.5 -6t-34.5 -22.5t-16.5 -43t-4.5 -67.5h-143z" />
<glyph unicode="&#xe4d;" d="M-471 1300q0 80 43 122t121 42q76 0 120 -42t44 -122t-44 -121.5t-120 -41.5q-78 0 -121 42t-43 121zM-365 1300q0 -57 58 -57q55 0 55 57q0 56 -55 56q-57 0 -58 -56z" />
<glyph unicode="&#xe4e;" d="M-477 1307q0 82 46 121.5t132 39.5h41q12 47 43 81t90 57l109 -66q-80 -29 -103.5 -71t-23.5 -117h-146q-61 0 -61 -47q0 -18 10 -26.5t25 -8.5q37 0 47 30l125 -10q0 -82 -47.5 -115.5t-122.5 -33.5q-74 0 -119 42t-45 124z" />
<glyph unicode="&#xe4f;" horiz-adv-x="1052" d="M59 463q0 96 36 180t99.5 147.5t147.5 99.5t180 36t180 -36t147.5 -99.5t99.5 -147.5t36 -180t-36 -180t-99.5 -147.5t-147.5 -99.5t-180 -36t-180 36t-147.5 99.5t-99.5 147.5t-36 180zM164 463q0 -74 28.5 -139.5t76.5 -113.5t114 -77t139 -29q74 0 139.5 29t113.5 77 t77 113.5t29 139.5t-29 139.5t-77 113.5t-113.5 76.5t-139.5 28.5t-139.5 -28.5t-113.5 -76.5t-76.5 -113.5t-28.5 -139.5zM279 463q0 49 19 94t52 78t78 52.5t94 19.5t94.5 -19.5t78 -52.5t52 -78t19.5 -94t-19.5 -94t-52 -78t-78 -52.5t-94.5 -19.5t-94 19.5t-78 52.5 t-52 78t-19 94z" />
<glyph unicode="&#xe50;" horiz-adv-x="1030" d="M102 410q0 88 21.5 166.5t70 137t127 92.5t193.5 34q117 0 195.5 -34t127 -92.5t70 -137t21.5 -166.5t-21.5 -166t-70 -136.5t-127 -93t-195.5 -34.5q-115 0 -193.5 34.5t-127 93t-70 136.5t-21.5 166zM276 410q0 -59 11.5 -109.5t39 -87.5t73.5 -58.5t114 -21.5 q70 0 116 21.5t73.5 58.5t39 87t11.5 110q0 57 -11.5 107t-39 88t-73.5 59.5t-116 21.5q-68 0 -114 -21.5t-73.5 -59.5t-39 -88t-11.5 -107z" />
<glyph unicode="&#xe51;" horiz-adv-x="1030" d="M102 401q0 88 21.5 168t71 140.5t128 95.5t193.5 35q211 0 311.5 -115t100.5 -338q0 -154 -54.5 -287t-181.5 -243l-112 125q86 76 130 182t44 223q0 141 -54.5 220t-183.5 79q-70 0 -116 -22.5t-73.5 -61.5t-39 -91t-11.5 -110q0 -53 7.5 -101t27 -85t55 -59.5 t91.5 -22.5q35 0 78 6v-151q-41 -8 -82 -8q-102 0 -169 33.5t-108 91t-57.5 134t-16.5 162.5z" />
<glyph unicode="&#xe52;" horiz-adv-x="1030" d="M74 295v729h174v-725q0 -41 22.5 -72.5t59.5 -52t84 -31t96 -10.5q51 0 99 10.5t86 32t61.5 52t23.5 71.5v158q0 117 -58 173t-136 56v-293h-174v281q0 166 139 166q63 0 126.5 -37t104.5 -103l56 119h116v-543q0 -74 -37.5 -130t-100 -93t-142.5 -55t-162 -18 q-84 0 -163 18t-140.5 57t-98 98.5t-36.5 141.5z" />
<glyph unicode="&#xe53;" horiz-adv-x="1030" d="M98 391q0 223 76 336t203 113q98 0 162.5 -57.5t124.5 -164.5h77l47 201h127v-819h-174v465h-116q-39 0 -56.5 14.5t-29.5 40.5q-35 74 -71 120t-83 46t-80 -67.5t-33 -227.5q0 -135 44 -196.5t124 -61.5q74 0 158 43l53 -139q-61 -33 -110 -45t-109 -12q-174 0 -254 109 t-80 302z" />
<glyph unicode="&#xe54;" horiz-adv-x="1030" d="M80 387q0 119 24.5 202t75.5 134t127 73.5t178 22.5h242l68 205h180l-117 -358h-387q-119 0 -168 -63.5t-49 -215.5q0 -127 40 -190.5t128 -63.5q90 0 137 56.5t47 150.5v31q0 68 21.5 93t93.5 25h182v-153h-123q0 -59 9.5 -95t32 -55.5t58 -25.5t89.5 -6v-154 q-131 0 -196.5 25.5t-94.5 85.5q-47 -66 -112.5 -98.5t-159.5 -32.5q-152 0 -239 95t-87 312z" />
<glyph unicode="&#xe55;" horiz-adv-x="1030" d="M80 373q0 188 55 286.5t170 133.5q-14 30 -14 71q0 76 52 128t128 52t128 -52t52 -128q0 -25 -6 -45h82l68 205h180l-117 -358h-387q-119 0 -168 -63.5t-49 -215.5q0 -127 40 -190.5t128 -63.5q90 0 137 56.5t47 150.5v31q0 68 21.5 93t93.5 25h182v-153h-123 q0 -59 9.5 -95t32 -55.5t58 -25.5t89.5 -6v-154q-131 0 -196.5 25.5t-94.5 85.5q-47 -66 -112.5 -98.5t-159.5 -32.5q-152 0 -239 93t-87 300zM414 864q0 -25 16 -41t41 -16t41 16.5t16 40.5q0 25 -16 41.5t-41 16.5t-41 -16.5t-16 -41.5z" />
<glyph unicode="&#xe56;" horiz-adv-x="1030" d="M55 1024h183l67 -205h189q131 0 217 -31.5t137 -89t70.5 -134.5t19.5 -165t-24.5 -164.5t-77 -133t-134 -89t-196.5 -32.5q-117 0 -192.5 34.5t-121 91t-62.5 128t-17 145.5q0 57 20.5 79.5t77.5 22.5h317v-153h-241q8 -84 56 -139.5t163 -55.5q70 0 119 20.5t79.5 55.5 t45 84t14.5 106q0 63 -12.5 113.5t-46 84.5t-94 51.5t-158.5 17.5h-279z" />
<glyph unicode="&#xe57;" horiz-adv-x="1241" d="M84 389q0 223 70.5 337t191.5 114q96 0 152.5 -60.5t101.5 -161.5h31l63 201h107v-665q47 0 79.5 8t54 31.5t31 63.5t9.5 101v666h168v-672q0 -190 -91 -271t-266 -81h-155v465h-56q-41 0 -59 19.5t-31 47.5q-29 66 -54 110t-66 44q-43 0 -75 -72.5t-32 -224.5 q0 -113 34 -184.5t107 -71.5q29 0 55.5 8.5t61.5 30.5l43 -139q-47 -29 -87 -41t-87 -12q-152 0 -226.5 108.5t-74.5 300.5z" />
<glyph unicode="&#xe58;" horiz-adv-x="1030" d="M92 0v377q0 123 24.5 208t74 137t123 74.5t169.5 22.5h244l68 205h180l-117 -358h-375q-121 0 -167 -65.5t-50 -221.5h154q33 -59 58.5 -105.5t52 -77t54 -47t62.5 -16.5q49 0 72.5 32t23.5 79v86h-139v153h172q45 0 73 -4t43 -15t20.5 -32.5t5.5 -56.5v-148 q0 -113 -71 -180t-188 -67q-59 0 -103 16t-81 48t-69.5 78t-67.5 103h-72v-225h-174z" />
<glyph unicode="&#xe59;" horiz-adv-x="1030" d="M84 395q0 215 85 319.5t220 104.5h356l68 205h180l-116 -358h-207q18 -29 35.5 -61t31.5 -68l209 -537h-184l-197 506q-35 86 -70.5 123t-93.5 37q-66 0 -104.5 -67t-38.5 -204q0 -51 8 -98t26.5 -84t48.5 -58.5t73 -21.5q35 0 64.5 8.5t66.5 24.5l45 -148 q-47 -20 -88 -29t-88 -9q-158 0 -244 103t-86 312z" />
<glyph unicode="&#xe5a;" horiz-adv-x="1294" d="M102 748q0 143 74 219.5t209 76.5q72 0 164 -28l-37 -148q-29 10 -56.5 16.5t-54.5 6.5q-61 0 -93 -33t-32 -110q0 -66 29 -106t107 -40q102 0 165.5 73t110.5 238l31 111h135v-1024h-174v596q-104 -147 -301 -147q-57 0 -107.5 15t-88.5 50t-59.5 92.5t-21.5 141.5z M977 0v1024h174v-1024h-174z" />
<glyph unicode="&#xe5b;" horiz-adv-x="1253" d="M82 580q0 143 80 218.5t215 75.5q68 0 123 -24l-45 -143q-31 14 -72 14q-61 0 -94 -38t-33 -103q0 -66 27.5 -105t81.5 -39q39 0 69.5 25.5t55 67.5t45 96.5t38.5 113.5h142l94 -178l57 105h305v-152h-208l-70 -131h-158l-82 154q-20 -49 -46.5 -95.5t-62.5 -82t-83 -56 t-109 -20.5q-57 0 -106 19.5t-86 57t-57.5 93t-20.5 127.5z" />
<glyph unicode="&#x2000;" horiz-adv-x="957" />
<glyph unicode="&#x2001;" horiz-adv-x="1915" />
<glyph unicode="&#x2002;" horiz-adv-x="957" />
<glyph unicode="&#x2003;" horiz-adv-x="1915" />
<glyph unicode="&#x2004;" horiz-adv-x="638" />
<glyph unicode="&#x2005;" horiz-adv-x="478" />
<glyph unicode="&#x2006;" horiz-adv-x="319" />
<glyph unicode="&#x2007;" horiz-adv-x="319" />
<glyph unicode="&#x2008;" horiz-adv-x="239" />
<glyph unicode="&#x2009;" horiz-adv-x="383" />
<glyph unicode="&#x200a;" horiz-adv-x="106" />
<glyph unicode="&#x2010;" horiz-adv-x="583" d="M72 440v154h440v-154h-440z" />
<glyph unicode="&#x2011;" horiz-adv-x="583" d="M72 440v154h440v-154h-440z" />
<glyph unicode="&#x2012;" horiz-adv-x="583" d="M72 440v154h440v-154h-440z" />
<glyph unicode="&#x2013;" horiz-adv-x="808" d="M72 440v154h665v-154h-665z" />
<glyph unicode="&#x2014;" horiz-adv-x="1171" d="M72 440v154h1028v-154h-1028z" />
<glyph unicode="&#x2018;" horiz-adv-x="348" d="M61 963v110q0 117 22.5 210t80.5 171l112 -35q-47 -61 -67.5 -123.5t-26.5 -128.5h105v-204h-226z" />
<glyph unicode="&#x2019;" horiz-adv-x="348" d="M61 1227v207h226v-111q0 -117 -22.5 -210t-80.5 -171l-112 33q45 59 65.5 122.5t26.5 129.5h-103z" />
<glyph unicode="&#x201a;" horiz-adv-x="348" d="M61 0v205h226v-111q0 -117 -22.5 -210t-80.5 -171l-112 35q45 61 65.5 123.5t26.5 128.5h-103z" />
<glyph unicode="&#x201e;" horiz-adv-x="659" d="M61 0v205h226v-111q0 -117 -22.5 -210t-80.5 -171l-112 35q45 61 65.5 123.5t26.5 128.5h-103zM373 0v205h225v-111q0 -117 -22.5 -210t-79.5 -171l-113 35q47 61 67.5 123.5t26.5 128.5h-104z" />
<glyph unicode="&#x2020;" horiz-adv-x="849" d="M82 860v164h184l127 -53l-61 282v181h184v-181l-61 -282l129 53h184v-164h-184l-131 49l63 -622v-492h-184v492l63 622l-129 -49h-184z" />
<glyph unicode="&#x2021;" horiz-adv-x="849" d="M82 205v164h184l129 -50l-63 242v107l63 241l-129 -49h-184v164h184l127 -53l-61 282v181h184v-181l-61 -282l129 53h184v-164h-184l-131 49l63 -241v-107l-63 -242l131 50h184v-164h-184l-129 53l61 -283v-180h-184v180l61 283l-127 -53h-184z" />
<glyph unicode="&#x2022;" horiz-adv-x="581" d="M143 606q0 63 33 105.5t115 42.5t114.5 -42t32.5 -106q0 -63 -32.5 -105t-114.5 -42t-115 42t-33 105z" />
<glyph unicode="&#x2026;" horiz-adv-x="1150" d="M100 0v182h183v-182h-183zM483 0v182h185v-182h-185zM868 0v182h183v-182h-183z" />
<glyph unicode="&#x202f;" horiz-adv-x="383" />
<glyph unicode="&#x2030;" horiz-adv-x="2410" d="M96 1100q0 170 87 262t231 92q143 0 230 -92t87 -262t-87 -262.5t-230 -92.5t-230.5 92.5t-87.5 262.5zM246 0l958 1434h207l-958 -1434h-207zM260 1100q0 -82 35 -139.5t119 -57.5t118.5 57.5t34.5 139.5q0 80 -34.5 137t-118.5 57t-119 -57t-35 -137zM926 334 q0 170 87 262t230 92t230.5 -92t87.5 -262t-87.5 -262t-230.5 -92t-230 92t-87 262zM1090 334q0 -82 34.5 -139.5t118.5 -57.5t119 57.5t35 139.5q0 80 -35 137t-119 57t-118.5 -57t-34.5 -137zM1679 334q0 170 87 262t231 92q143 0 230 -92t87 -262t-87 -262t-230 -92 t-230.5 92t-87.5 262zM1843 334q0 -82 35 -139.5t119 -57.5t118.5 57.5t34.5 139.5q0 80 -34.5 137t-118.5 57t-119 -57t-35 -137z" />
<glyph unicode="&#x2039;" horiz-adv-x="649" d="M82 442v138l485 419v-221l-307 -268l307 -264v-223z" />
<glyph unicode="&#x203a;" horiz-adv-x="649" d="M82 23v223l307 264l-307 268v221l485 -419v-138z" />
<glyph unicode="&#x205f;" horiz-adv-x="478" />
<glyph unicode="&#x2070;" horiz-adv-x="645" d="M35 1311q0 213 68.5 311t218.5 98t218 -98t68 -311t-68 -311.5t-218 -98.5t-218.5 98.5t-68.5 311.5zM188 1311q0 -147 33 -215t101 -68t100.5 67.5t32.5 215.5q0 147 -33 213.5t-100 66.5q-68 0 -101 -66.5t-33 -213.5z" />
<glyph unicode="&#x2074;" horiz-adv-x="645" d="M25 1042v111l362 567l117 -73l-307 -478h174v183h143v-183h102v-127h-102v-120h-143v120h-346z" />
<glyph unicode="&#x2075;" horiz-adv-x="645" d="M41 1133l135 26q6 -66 45 -98.5t96 -32.5t93 36t36 110q0 53 -27.5 89.5t-88.5 36.5q-29 0 -59.5 -9t-69.5 -25h-117l20 434h447v-133h-311l-9 -158q70 20 127 21q68 0 114 -22t74.5 -57.5t41 -80.5t12.5 -92q0 -70 -22.5 -122t-60.5 -86t-90 -51.5t-110 -17.5 q-47 0 -93 14.5t-85 44t-64.5 72.5t-33.5 101z" />
<glyph unicode="&#x2076;" horiz-adv-x="645" d="M45 1280q0 98 16.5 180t53.5 139.5t95 89t140 31.5q74 0 132.5 -29.5t92.5 -91.5l-106 -90q-23 37 -51.5 59.5t-73.5 22.5q-74 0 -111.5 -61.5t-37.5 -167.5q29 35 69.5 50t85.5 15q51 0 96.5 -16t79 -48t53 -80t19.5 -112q0 -49 -14.5 -98t-47 -87t-84 -61.5 t-124.5 -23.5q-78 0 -131.5 27.5t-87 78t-49 120t-15.5 153.5zM205 1165q0 -49 26.5 -93t92.5 -44q35 0 58.5 12.5t36.5 33t19 46t6 49.5q0 51 -24.5 91t-91.5 40q-68 0 -95.5 -40.5t-27.5 -94.5z" />
<glyph unicode="&#x2077;" horiz-adv-x="645" d="M45 1567v133h553v-90l-291 -688h-164l273 645h-371z" />
<glyph unicode="&#x2078;" horiz-adv-x="645" d="M45 1143q0 63 27.5 113.5t85.5 80.5q-84 55 -84 160q0 94 58 158.5t190 64.5q131 0 189 -64.5t58 -158.5q0 -49 -21.5 -90t-62.5 -70q57 -31 85 -81t28 -113q0 -100 -65.5 -171t-210.5 -71t-211 70.5t-66 171.5zM199 1147q0 -49 28.5 -84t94.5 -35t94 35t28 84 q0 53 -28.5 87t-93.5 34q-66 0 -94.5 -34t-28.5 -87zM223 1493q0 -41 23 -68.5t76 -27.5t76.5 27.5t23.5 68.5q0 43 -23.5 70.5t-76.5 27.5t-76 -27.5t-23 -70.5z" />
<glyph unicode="&#x2079;" horiz-adv-x="645" d="M45 1450q0 49 15.5 98t47 87t83 61.5t124.5 23.5q78 0 131.5 -27.5t87 -77.5t49 -120t15.5 -154q0 -98 -16.5 -180t-53 -139t-95 -89t-140.5 -32q-72 0 -131.5 30t-93.5 89l108 92q23 -37 51.5 -60.5t71.5 -23.5q76 0 114 61.5t38 167.5q-29 -33 -71 -49t-87 -16 q-51 0 -96 16.5t-79 48t-53.5 79.5t-19.5 114zM199 1452q0 -51 24.5 -91t91.5 -40q70 0 97.5 41t27.5 92t-26.5 94t-94.5 43q-35 0 -58 -12t-36.5 -31.5t-19.5 -45t-6 -50.5z" />
<glyph unicode="&#x2080;" horiz-adv-x="645" d="M35 103q0 213 68.5 311t218.5 98t218 -98t68 -311t-68 -311.5t-218 -98.5t-218.5 98.5t-68.5 311.5zM188 103q0 -147 33 -215t101 -68t100.5 67.5t32.5 215.5q0 147 -33 213.5t-100 66.5q-68 0 -101 -66.5t-33 -213.5z" />
<glyph unicode="&#x2081;" horiz-adv-x="645" d="M43 414l215 98h143v-665h162v-133h-479v133h164v512l-154 -70z" />
<glyph unicode="&#x2082;" horiz-adv-x="645" d="M39 -170l219 224q39 41 68.5 72.5t50 59t30 54.5t9.5 55q0 41 -29 64.5t-78 23.5q-47 0 -71.5 -22.5t-32.5 -61.5l-150 35q18 84 88 131t168 47q49 0 95.5 -12t83 -40t58 -70t21.5 -101q0 -47 -15 -89t-40 -79t-57.5 -71.5t-65.5 -69.5l-125 -127h338v-139h-565v116z" />
<glyph unicode="&#x2083;" horiz-adv-x="645" d="M35 -98l143 41q4 -59 42 -90t102 -31q59 0 96 31t37 96q0 47 -35 79t-113 32h-104v129h90q80 0 106.5 33.5t26.5 74.5q0 45 -33 65.5t-80 20.5t-78.5 -20.5t-37.5 -61.5l-144 31q8 45 33 79t60.5 56.5t80.5 33.5t92 11q121 0 191 -53t70 -143q0 -55 -21.5 -102.5 t-73.5 -82.5q66 -31 94.5 -80t28.5 -112q0 -61 -22.5 -107.5t-60.5 -77t-90 -46t-111 -15.5q-111 0 -191 52.5t-98 156.5z" />
<glyph unicode="&#x2084;" horiz-adv-x="645" d="M25 -55l362 567l117 -73l-307 -478h174v183h143v-183h102v-127h-102v-120h-143v120h-346v111z" />
<glyph unicode="&#x2085;" horiz-adv-x="645" d="M41 -75l135 26q6 -66 45 -98.5t96 -32.5t93 36t36 110q0 53 -27.5 89.5t-88.5 36.5q-29 0 -59.5 -9t-69.5 -25h-117l20 434h447v-133h-311l-9 -158q70 20 127 21q68 0 114 -22t74.5 -57.5t41 -80.5t12.5 -92q0 -70 -22.5 -122t-60.5 -86t-90 -51.5t-110 -17.5 q-47 0 -93 14.5t-85 44t-64.5 72.5t-33.5 101z" />
<glyph unicode="&#x2086;" horiz-adv-x="645" d="M45 72q0 98 16.5 180t53.5 139.5t95 89t140 31.5q74 0 132.5 -29.5t92.5 -91.5l-106 -90q-23 37 -51.5 59.5t-73.5 22.5q-74 0 -111.5 -61.5t-37.5 -167.5q29 35 69.5 50t85.5 15q51 0 96.5 -16t79 -48t53 -80t19.5 -112q0 -49 -14.5 -98t-47 -87t-84 -61.5t-124.5 -23.5 q-78 0 -131.5 27.5t-87 78t-49 120t-15.5 153.5zM205 -43q0 -49 26.5 -93t92.5 -44q35 0 58.5 12.5t36.5 33t19 46t6 49.5q0 51 -24.5 91t-91.5 40q-68 0 -95.5 -40.5t-27.5 -94.5z" />
<glyph unicode="&#x2087;" horiz-adv-x="645" d="M45 359v133h553v-90l-291 -688h-164l273 645h-371z" />
<glyph unicode="&#x2088;" horiz-adv-x="645" d="M45 -65q0 63 27.5 113.5t85.5 80.5q-84 55 -84 160q0 94 58 158.5t190 64.5q131 0 189 -64.5t58 -158.5q0 -49 -21.5 -90t-62.5 -70q57 -31 85 -81t28 -113q0 -100 -65.5 -171t-210.5 -71t-211 70.5t-66 171.5zM199 -61q0 -49 28.5 -84t94.5 -35t94 35t28 84 q0 53 -28.5 87t-93.5 34q-66 0 -94.5 -34t-28.5 -87zM223 285q0 -41 23 -68.5t76 -27.5t76.5 27.5t23.5 68.5q0 43 -23.5 70.5t-76.5 27.5t-76 -27.5t-23 -70.5z" />
<glyph unicode="&#x2089;" horiz-adv-x="645" d="M45 242q0 49 15.5 98t47 87t83 61.5t124.5 23.5q78 0 131.5 -27.5t87 -77.5t49 -120t15.5 -154q0 -98 -16.5 -180t-53 -139t-95 -89t-140.5 -32q-72 0 -131.5 30t-93.5 89l108 92q23 -37 51.5 -60.5t71.5 -23.5q76 0 114 61.5t38 167.5q-29 -33 -71 -49t-87 -16 q-51 0 -96 16.5t-79 48t-53.5 79.5t-19.5 114zM199 244q0 -51 24.5 -91t91.5 -40q70 0 97.5 41t27.5 92t-26.5 94t-94.5 43q-35 0 -58 -12t-36.5 -31.5t-19.5 -45t-6 -50.5z" />
<glyph unicode="&#x20ac;" horiz-adv-x="1126" d="M10 494v153h140v133h-140v154h154q41 262 185.5 391t361.5 129q127 0 229 -44t176 -132l-127 -104q-96 127 -278 126q-307 0 -373 -366h506v-154h-522v-133h522v-153h-506q68 -360 373 -361q176 0 276 129l129 -104q-74 -90 -176 -134t-229 -44q-217 0 -359.5 126.5 t-187.5 387.5h-154z" />
<glyph unicode="&#x2126;" horiz-adv-x="1597" d="M96 0v158h324q-61 55 -113.5 119.5t-91.5 141.5t-60.5 170t-21.5 206q0 162 54.5 285.5t145.5 206.5t212 125t254 42q131 0 251.5 -42t212 -125t145.5 -206.5t54 -285.5q0 -113 -21.5 -206t-60.5 -170t-92 -141.5t-114 -119.5h325v-158h-606v127q90 63 162.5 130 t125 145.5t80 175t27.5 217.5q0 125 -39 219t-106.5 157.5t-156.5 96t-187 32.5t-187.5 -32.5t-157 -96t-107.5 -157.5t-40 -219q0 -121 29 -217.5t81 -175t124.5 -145.5t163.5 -130v-127h-609z" />
<glyph unicode="&#x2153;" horiz-adv-x="1570" d="M43 1356l215 98h143v-665h162v-133h-479v133h164v512l-154 -70zM215 0l1005 1434h187l-1006 -1434h-186zM961 188l143 41q4 -59 42 -90t102 -31q59 0 96 31t37 96q0 47 -35 79t-113 32h-104v129h90q80 0 106.5 33.5t26.5 74.5q0 45 -33 65.5t-80 20.5t-78.5 -20.5 t-37.5 -61.5l-144 31q8 45 33 79t60.5 56.5t80.5 33.5t92 11q121 0 191 -53t70 -143q0 -55 -21.5 -102.5t-73.5 -82.5q66 -31 94.5 -80t28.5 -112q0 -61 -22.5 -107.5t-60.5 -77t-90 -46t-111 -15.5q-111 0 -191 52.5t-98 156.5z" />
<glyph unicode="&#x2154;" horiz-adv-x="1570" d="M39 656v116l219 224q39 41 68.5 72.5t50 59t30 54.5t9.5 55q0 41 -29 64.5t-78 23.5q-47 0 -71.5 -22.5t-32.5 -61.5l-150 35q18 84 88 131t168 47q49 0 95.5 -12t83 -40t58 -70t21.5 -101q0 -47 -15 -89t-40 -79t-57.5 -71.5t-65.5 -69.5l-125 -127h338v-139h-565z M230 0l1005 1434h187l-1006 -1434h-186zM961 188l143 41q4 -59 42 -90t102 -31q59 0 96 31t37 96q0 47 -35 79t-113 32h-104v129h90q80 0 106.5 33.5t26.5 74.5q0 45 -33 65.5t-80 20.5t-78.5 -20.5t-37.5 -61.5l-144 31q8 45 33 79t60.5 56.5t80.5 33.5t92 11 q121 0 191 -53t70 -143q0 -55 -21.5 -102.5t-73.5 -82.5q66 -31 94.5 -80t28.5 -112q0 -61 -22.5 -107.5t-60.5 -77t-90 -46t-111 -15.5q-111 0 -191 52.5t-98 156.5z" />
<glyph unicode="&#x2155;" horiz-adv-x="1570" d="M43 1356l215 98h143v-665h162v-133h-479v133h164v512l-154 -70zM203 0l1005 1434h187l-1006 -1434h-186zM967 211l135 26q6 -66 45 -98.5t96 -32.5t93 36t36 110q0 53 -27.5 89.5t-88.5 36.5q-29 0 -59.5 -9t-69.5 -25h-117l20 434h447v-133h-311l-9 -158q70 20 127 21 q68 0 114 -22t74.5 -57.5t41 -80.5t12.5 -92q0 -70 -22.5 -122t-60.5 -86t-90 -51.5t-110 -17.5q-47 0 -93 14.5t-85 44t-64.5 72.5t-33.5 101z" />
<glyph unicode="&#x2156;" horiz-adv-x="1570" d="M39 656v116l219 224q39 41 68.5 72.5t50 59t30 54.5t9.5 55q0 41 -29 64.5t-78 23.5q-47 0 -71.5 -22.5t-32.5 -61.5l-150 35q18 84 88 131t168 47q49 0 95.5 -12t83 -40t58 -70t21.5 -101q0 -47 -15 -89t-40 -79t-57.5 -71.5t-65.5 -69.5l-125 -127h338v-139h-565z M213 0l1005 1434h187l-1006 -1434h-186zM967 211l135 26q6 -66 45 -98.5t96 -32.5t93 36t36 110q0 53 -27.5 89.5t-88.5 36.5q-29 0 -59.5 -9t-69.5 -25h-117l20 434h447v-133h-311l-9 -158q70 20 127 21q68 0 114 -22t74.5 -57.5t41 -80.5t12.5 -92q0 -70 -22.5 -122 t-60.5 -86t-90 -51.5t-110 -17.5q-47 0 -93 14.5t-85 44t-64.5 72.5t-33.5 101z" />
<glyph unicode="&#x2157;" horiz-adv-x="1570" d="M35 844l143 41q4 -59 42 -90t102 -31q59 0 96 31t37 96q0 47 -35 79t-113 32h-104v129h90q80 0 106.5 33.5t26.5 74.5q0 45 -33 65.5t-80 20.5t-78.5 -20.5t-37.5 -61.5l-144 31q8 45 33 79t60.5 56.5t80.5 33.5t92 11q121 0 191 -53t70 -143q0 -55 -21.5 -102.5 t-73.5 -82.5q66 -31 94.5 -80t28.5 -112q0 -61 -22.5 -107.5t-60.5 -77t-90 -46t-111 -15.5q-111 0 -191 52.5t-98 156.5zM189 0l1005 1434h187l-1006 -1434h-186zM967 211l135 26q6 -66 45 -98.5t96 -32.5t93 36t36 110q0 53 -27.5 89.5t-88.5 36.5q-29 0 -59.5 -9 t-69.5 -25h-117l20 434h447v-133h-311l-9 -158q70 20 127 21q68 0 114 -22t74.5 -57.5t41 -80.5t12.5 -92q0 -70 -22.5 -122t-60.5 -86t-90 -51.5t-110 -17.5q-47 0 -93 14.5t-85 44t-64.5 72.5t-33.5 101z" />
<glyph unicode="&#x2158;" horiz-adv-x="1570" d="M25 776v111l362 567l117 -73l-307 -478h174v183h143v-183h102v-127h-102v-120h-143v120h-346zM191 0l1005 1434h187l-1006 -1434h-186zM967 211l135 26q6 -66 45 -98.5t96 -32.5t93 36t36 110q0 53 -27.5 89.5t-88.5 36.5q-29 0 -59.5 -9t-69.5 -25h-117l20 434h447v-133 h-311l-9 -158q70 20 127 21q68 0 114 -22t74.5 -57.5t41 -80.5t12.5 -92q0 -70 -22.5 -122t-60.5 -86t-90 -51.5t-110 -17.5q-47 0 -93 14.5t-85 44t-64.5 72.5t-33.5 101z" />
<glyph unicode="&#x2159;" horiz-adv-x="1570" d="M43 1356l215 98h143v-665h162v-133h-479v133h164v512l-154 -70zM230 0l1005 1434h187l-1006 -1434h-186zM971 358q0 98 16.5 180t53.5 139.5t95 89t140 31.5q74 0 132.5 -29.5t92.5 -91.5l-106 -90q-23 37 -51.5 59.5t-73.5 22.5q-74 0 -111.5 -61.5t-37.5 -167.5 q29 35 69.5 50t85.5 15q51 0 96.5 -16t79 -48t53 -80t19.5 -112q0 -49 -14.5 -98t-47 -87t-84 -61.5t-124.5 -23.5q-78 0 -131.5 27.5t-87 78t-49 120t-15.5 153.5zM1131 243q0 -49 26.5 -93t92.5 -44q35 0 58.5 12.5t36.5 33t19 46t6 49.5q0 51 -24.5 91t-91.5 40 q-68 0 -95.5 -40.5t-27.5 -94.5z" />
<glyph unicode="&#x215a;" horiz-adv-x="1570" d="M41 867l135 26q6 -66 45 -98.5t96 -32.5t93 36t36 110q0 53 -27.5 89.5t-88.5 36.5q-29 0 -59.5 -9t-69.5 -25h-117l20 434h447v-133h-311l-9 -158q70 20 127 21q68 0 114 -22t74.5 -57.5t41 -80.5t12.5 -92q0 -70 -22.5 -122t-60.5 -86t-90 -51.5t-110 -17.5 q-47 0 -93 14.5t-85 44t-64.5 72.5t-33.5 101zM205 0l1005 1434h187l-1006 -1434h-186zM971 358q0 98 16.5 180t53.5 139.5t95 89t140 31.5q74 0 132.5 -29.5t92.5 -91.5l-106 -90q-23 37 -51.5 59.5t-73.5 22.5q-74 0 -111.5 -61.5t-37.5 -167.5q29 35 69.5 50t85.5 15 q51 0 96.5 -16t79 -48t53 -80t19.5 -112q0 -49 -14.5 -98t-47 -87t-84 -61.5t-124.5 -23.5q-78 0 -131.5 27.5t-87 78t-49 120t-15.5 153.5zM1131 243q0 -49 26.5 -93t92.5 -44q35 0 58.5 12.5t36.5 33t19 46t6 49.5q0 51 -24.5 91t-91.5 40q-68 0 -95.5 -40.5t-27.5 -94.5z " />
<glyph unicode="&#x215b;" horiz-adv-x="1570" d="M43 1356l215 98h143v-665h162v-133h-479v133h164v512l-154 -70zM221 0l1005 1434h187l-1006 -1434h-186zM971 221q0 63 27.5 113.5t85.5 80.5q-84 55 -84 160q0 94 58 158.5t190 64.5q131 0 189 -64.5t58 -158.5q0 -49 -21.5 -90t-62.5 -70q57 -31 85 -81t28 -113 q0 -100 -65.5 -171t-210.5 -71t-211 70.5t-66 171.5zM1125 225q0 -49 28.5 -84t94.5 -35t94 35t28 84q0 53 -28.5 87t-93.5 34q-66 0 -94.5 -34t-28.5 -87zM1149 571q0 -41 23 -68.5t76 -27.5t76.5 27.5t23.5 68.5q0 43 -23.5 70.5t-76.5 27.5t-76 -27.5t-23 -70.5z" />
<glyph unicode="&#x215c;" horiz-adv-x="1570" d="M35 844l143 41q4 -59 42 -90t102 -31q59 0 96 31t37 96q0 47 -35 79t-113 32h-104v129h90q80 0 106.5 33.5t26.5 74.5q0 45 -33 65.5t-80 20.5t-78.5 -20.5t-37.5 -61.5l-144 31q8 45 33 79t60.5 56.5t80.5 33.5t92 11q121 0 191 -53t70 -143q0 -55 -21.5 -102.5 t-73.5 -82.5q66 -31 94.5 -80t28.5 -112q0 -61 -22.5 -107.5t-60.5 -77t-90 -46t-111 -15.5q-111 0 -191 52.5t-98 156.5zM203 0l1005 1434h187l-1006 -1434h-186zM971 221q0 63 27.5 113.5t85.5 80.5q-84 55 -84 160q0 94 58 158.5t190 64.5q131 0 189 -64.5t58 -158.5 q0 -49 -21.5 -90t-62.5 -70q57 -31 85 -81t28 -113q0 -100 -65.5 -171t-210.5 -71t-211 70.5t-66 171.5zM1125 225q0 -49 28.5 -84t94.5 -35t94 35t28 84q0 53 -28.5 87t-93.5 34q-66 0 -94.5 -34t-28.5 -87zM1149 571q0 -41 23 -68.5t76 -27.5t76.5 27.5t23.5 68.5 q0 43 -23.5 70.5t-76.5 27.5t-76 -27.5t-23 -70.5z" />
<glyph unicode="&#x215d;" horiz-adv-x="1570" d="M41 867l135 26q6 -66 45 -98.5t96 -32.5t93 36t36 110q0 53 -27.5 89.5t-88.5 36.5q-29 0 -59.5 -9t-69.5 -25h-117l20 434h447v-133h-311l-9 -158q70 20 127 21q68 0 114 -22t74.5 -57.5t41 -80.5t12.5 -92q0 -70 -22.5 -122t-60.5 -86t-90 -51.5t-110 -17.5 q-47 0 -93 14.5t-85 44t-64.5 72.5t-33.5 101zM193 0l1005 1434h187l-1006 -1434h-186zM971 221q0 63 27.5 113.5t85.5 80.5q-84 55 -84 160q0 94 58 158.5t190 64.5q131 0 189 -64.5t58 -158.5q0 -49 -21.5 -90t-62.5 -70q57 -31 85 -81t28 -113q0 -100 -65.5 -171 t-210.5 -71t-211 70.5t-66 171.5zM1125 225q0 -49 28.5 -84t94.5 -35t94 35t28 84q0 53 -28.5 87t-93.5 34q-66 0 -94.5 -34t-28.5 -87zM1149 571q0 -41 23 -68.5t76 -27.5t76.5 27.5t23.5 68.5q0 43 -23.5 70.5t-76.5 27.5t-76 -27.5t-23 -70.5z" />
<glyph unicode="&#x215e;" horiz-adv-x="1570" d="M45 1301v133h553v-90l-291 -688h-164l273 645h-371zM135 0l1005 1434h187l-1006 -1434h-186zM971 221q0 63 27.5 113.5t85.5 80.5q-84 55 -84 160q0 94 58 158.5t190 64.5q131 0 189 -64.5t58 -158.5q0 -49 -21.5 -90t-62.5 -70q57 -31 85 -81t28 -113q0 -100 -65.5 -171 t-210.5 -71t-211 70.5t-66 171.5zM1125 225q0 -49 28.5 -84t94.5 -35t94 35t28 84q0 53 -28.5 87t-93.5 34q-66 0 -94.5 -34t-28.5 -87zM1149 571q0 -41 23 -68.5t76 -27.5t76.5 27.5t23.5 68.5q0 43 -23.5 70.5t-76.5 27.5t-76 -27.5t-23 -70.5z" />
<glyph unicode="&#x215f;" horiz-adv-x="1570" d="M43 1356l215 98h143v-665h162v-133h-479v133h164v512l-154 -70zM215 0l1005 1434h187l-1006 -1434h-186z" />
<glyph unicode="&#x2206;" horiz-adv-x="1261" d="M31 0l600 1516l600 -1516h-1200zM276 158h707l-352 897z" />
<glyph unicode="&#x220f;" horiz-adv-x="1218" d="M41 1280v154h1137v-154h-174v-1485h-175v1485h-440v-1485h-174v1485h-174z" />
<glyph unicode="&#x2211;" horiz-adv-x="1024" d="M86 0v147l492 568l-492 569v150h850v-170h-598l428 -494v-106l-430 -496h600v-168h-850z" />
<glyph unicode="&#x2212;" horiz-adv-x="921" d="M72 567v174h778v-174h-778z" />
<glyph unicode="&#x2215;" horiz-adv-x="1171" d="M-10 0l1005 1434h187l-1006 -1434h-186z" />
<glyph unicode="&#x221a;" horiz-adv-x="1083" d="M51 584v157h289l156 -456l415 1210h183l-512 -1495h-168l-201 584h-162z" />
<glyph unicode="&#x221e;" horiz-adv-x="1177" d="M72 780q0 139 75.5 219t221.5 80q72 0 128 -26.5t91 -71.5q35 45 90 71.5t129 26.5q145 0 221 -79.5t76 -219.5q0 -139 -76 -218t-221 -79q-72 0 -128 27t-91 70q-35 -43 -91.5 -70t-127.5 -27q-145 0 -221 79t-76 218zM236 780q0 -61 33.5 -97t99.5 -36t101.5 36 t35.5 97q0 63 -36 99t-101 36q-66 0 -99.5 -36t-33.5 -99zM670 780q0 -61 35.5 -97t101.5 -36t99.5 36t33.5 97q0 63 -34 99t-99 36q-66 0 -101.5 -35.5t-35.5 -99.5z" />
<glyph unicode="&#x222b;" horiz-adv-x="718" d="M53 -184l19 151q63 -20 110 -20q76 0 97.5 54.5t21.5 158.5q0 57 -4 137t-11 170t-14.5 185.5t-14.5 185.5t-11 168.5t-4 136.5q0 176 61.5 274.5t206.5 98.5q33 0 72 -5.5t82 -15.5l-19 -154q-61 20 -108 21q-76 0 -98.5 -55.5t-22.5 -159.5q0 -82 9 -211t20.5 -268.5 t20.5 -274.5t9 -229q0 -176 -61.5 -272.5t-206.5 -96.5q-70 0 -154 21z" />
<glyph unicode="&#x2248;" horiz-adv-x="921" d="M61 375q0 51 14.5 98t42 82t69 55.5t94.5 20.5q49 0 98 -15.5t95 -35t87 -35t74 -15.5q41 0 54 27t13 64h158q0 -53 -14.5 -99.5t-42 -81t-68.5 -55t-94 -20.5q-49 0 -98 15t-95.5 34.5t-87.5 35t-73 15.5q-41 0 -54.5 -26.5t-13.5 -63.5h-158zM61 692q0 51 14.5 98.5 t42 82t69 55t94.5 20.5q49 0 98 -15t95 -34.5t87 -35t74 -15.5q41 0 54 26.5t13 63.5h158q0 -53 -14.5 -99t-42 -81t-68.5 -55.5t-94 -20.5q-49 0 -98 15.5t-95.5 35t-87.5 34.5t-73 15q-41 0 -54.5 -26.5t-13.5 -63.5h-158z" />
<glyph unicode="&#x2260;" horiz-adv-x="921" d="M72 389v174h241l99 185h-340v174h432l67 129h195l-68 -129h152v-174h-244l-98 -185h342v-174h-432l-68 -129h-194l67 129h-151z" />
<glyph unicode="&#x2264;" horiz-adv-x="921" d="M72 0v174h778v-174h-778zM72 655v160l778 342v-190l-526 -234l526 -231v-189z" />
<glyph unicode="&#x2265;" horiz-adv-x="921" d="M72 0v174h778v-174h-778zM72 313v187l526 233l-526 234v190l778 -342v-160z" />
<glyph unicode="&#x25ca;" horiz-adv-x="915" d="M35 748l422 768l424 -768l-424 -768zM227 745l230 -417l229 417l-229 422z" />
<glyph unicode="&#x25fc;" horiz-adv-x="1024" d="M0 0v1024h1024v-1024h-1024z" />
<glyph unicode="&#xf700;" horiz-adv-x="1019" d="M102 307v154h238l96 -307h43q127 0 177.5 63.5t50.5 200.5v135h-584v86q0 186 107.5 295.5t334.5 109.5q145 0 328 -45l-37 -153q-59 16 -134 30.5t-149 14.5q-53 0 -99 -9.5t-83 -31t-60.5 -56t-31.5 -87.5h465q72 0 94.5 -25t22.5 -86v-178q0 -98 -20.5 -176 t-66.5 -131.5t-124 -82t-191 -28.5h-176l-98 307h-103z" />
<glyph unicode="&#xf701;" d="M-1042 1161v150h636l-65 -150h-571z" />
<glyph unicode="&#xf702;" d="M-1042 1161l65 150h408v153h163v-303h-636z" />
<glyph unicode="&#xf703;" d="M-1042 1161l65 150h268q0 74 41 113.5t111 39.5q72 0 111.5 -40t39.5 -111q0 -72 -39.5 -112t-111.5 -40h-485zM-616 1313q0 -59 59 -60q27 0 43 15.5t16 44.5q0 27 -16 43t-43 16q-29 0 -44 -16.5t-15 -42.5z" />
<glyph unicode="&#xf704;" d="M-1042 1161l65 150h213v153h139v-153h82v153h137v-303h-636z" />
<glyph unicode="&#xf705;" d="M-569 1161v314h163v-314h-163z" />
<glyph unicode="&#xf706;" d="M-780 1335v140h174q66 0 84 -18.5t18 -78.5v-78h473l-61 -139h-565v174h-123z" />
<glyph unicode="&#xf707;" d="M-1016 1327q0 66 34 113t112 47q90 0 153 -66l17 54h96v-195q41 0 58.5 13.5t17.5 60.5v121h122v-117q0 -111 -52 -154t-140 -43h-129v62q0 72 -30.5 109.5t-76.5 37.5q-23 0 -36 -11t-13 -34q0 -20 13.5 -32.5t50.5 -12.5h53l-39 -119h-39q-92 0 -132 46t-40 120z" />
<glyph unicode="&#xf708;" d="M-760 1245v144h96v86h164v-86h94v-144h-94v-84h-164v84h-96z" />
<glyph unicode="&#xf709;" d="M-696 1167q0 86 10 145.5t40 95.5t86 51.5t148 15.5h392l-66 -150h-311q-45 0 -72 -7t-41 -25.5t-18 -49.5t-4 -76h-164z" />
<glyph unicode="&#xf70a;" d="M-307 1161v314h164v-314h-164z" />
<glyph unicode="&#xf70b;" d="M-739 1335v140h174q66 0 84 -18.5t18 -78.5v-78h436l-61 -139h-528v174h-123z" />
<glyph unicode="&#xf70c;" d="M-805 1327q0 66 34 113t112 47q88 0 151 -66l16 54h97v-195q41 0 59.5 13.5t18.5 60.5v121h122v-117q0 -111 -52 -154t-142 -43h-129v62q0 72 -30 109.5t-75 37.5q-49 0 -49 -45q0 -20 13.5 -32.5t48.5 -12.5h55l-41 -119h-39q-92 0 -131 46t-39 120z" />
<glyph unicode="&#xf70d;" d="M-498 1245v144h97v86h163v-86h95v-144h-95v-84h-163v84h-97z" />
<glyph unicode="&#xf70e;" d="M-629 1167q0 86 10.5 145.5t40 95.5t86 51.5t148.5 15.5h289l-66 -150h-209q-45 0 -71.5 -7t-41 -25.5t-18.5 -49.5t-4 -76h-164z" />
<glyph unicode="&#xf70f;" horiz-adv-x="1730" d="M119 987q242 57 407 57q121 0 203 -25.5t131 -75.5t70.5 -127t21.5 -177v-317q0 -51 19.5 -87t52.5 -58.5t74 -33t84 -10.5t85 10.5t73.5 33t52 58t20.5 87.5v702h174v-723q0 -86 -34.5 -147.5t-92 -99.5t-130 -56t-148.5 -18t-148.5 18t-129 56t-91.5 99.5t-35 147.5 v336q0 137 -55 195.5t-191 58.5q-39 0 -82.5 -5t-97.5 -16l88 -172q-41 -23 -64.5 -48t-36.5 -57t-17.5 -75t-4.5 -100v-264h179v-154h-248q-37 0 -57.5 7t-32 25.5t-13.5 47.5t-2 72v292q0 59 3.5 101.5t14.5 75t31.5 58.5t57.5 54z" />
<glyph unicode="&#xf710;" d="M-745 1264v190h163v-143h545l-57 -150h-549q-59 0 -80.5 18.5t-21.5 84.5z" />
<glyph unicode="&#xf711;" d="M-733 1300q0 80 44 122t120 42q78 0 120.5 -42t42.5 -122t-42.5 -121.5t-120.5 -41.5q-76 0 -120 42t-44 121zM-625 1300q0 -57 56 -57q57 0 57 57q0 56 -57 56q-55 0 -56 -56z" />
<glyph unicode="&#xf712;" d="M-897 1171v134q0 123 51 170t182 47h574l-55 -129h-510q-53 0 -70.5 -12.5t-17.5 -30.5q0 -29 28.5 -42.5t108.5 -13.5h26v47h174v-57q0 -72 -41.5 -100.5t-111.5 -28.5q-66 0 -111 20.5t-82 61.5l-24 -66h-121z" />
<glyph unicode="&#xf713;" d="M-557 1516v272h141v-272h-141z" />
<glyph unicode="&#xf714;" d="M-731 1667v121h149q55 0 71.5 -16.5t16.5 -65.5v-72h392l-54 -118h-471v151h-104z" />
<glyph unicode="&#xf715;" d="M-774 1659q0 61 31.5 99t99.5 38q37 0 71.5 -13.5t61.5 -41.5l14 45h88v-170q37 0 48.5 12t11.5 53v105h110v-105q0 -96 -44 -130.5t-124 -34.5h-112v51q0 63 -26.5 97t-65.5 34q-45 0 -45 -41q0 -18 11 -29.5t44 -11.5h45l-35 -100h-31q-80 0 -116.5 37.5t-36.5 105.5z " />
<glyph unicode="&#xf716;" d="M-639 1587v121h82v76h141v-76h78v-121h-78v-71h-141v71h-82z" />
<glyph unicode="&#xf717;" d="M-713 1434q0 76 9.5 127t35 82.5t74.5 45t129 13.5h340l-57 -129h-271q-39 0 -61.5 -6t-34.5 -22.5t-16 -43t-4 -67.5h-144z" />
<glyph unicode="&#xf718;" d="M-399 -471h149q53 0 76.5 -19.5t23.5 -91.5v-217h-153v185h-96v143z" />
<glyph unicode="&#xf719;" d="M-547 -471h144v-141q0 -53 53 -54q53 0 53 54v141h143v-152q0 -98 -54 -137t-142 -39t-142.5 39t-54.5 137v152z" />
<glyph unicode="&#xf71a;" d="M-426 -612q0 59 41 100t100 41t100.5 -41t41.5 -100t-41 -100.5t-101 -41.5q-59 0 -100 41.5t-41 100.5z" />
<glyph unicode="&#xf71d;" horiz-adv-x="1239" d="M143 0v1024h174v-698l248 419h109l248 -419v307q0 47 -6.5 77.5t-21.5 49t-42 26t-70 7.5h-55v106l172 207h205l-160 -191q78 -23 115 -88t37 -190v-637h-174l-304 510l-301 -510h-174z" />
<glyph horiz-adv-x="731" d="M-733 1300q0 80 44 122t120 42q78 0 120.5 -42t42.5 -122t-42.5 -121.5t-120.5 -41.5q-76 0 -120 42t-44 121zM-625 1300q0 -57 56 -57q57 0 57 57q0 56 -57 56q-55 0 -56 -56zM45 1001q59 20 118.5 31.5t112.5 11.5q70 0 127.5 -18t98.5 -59t63.5 -105.5t22.5 -156.5 v-705h-174v698q0 104 -41 148.5t-117 44.5q-41 0 -83 -10.5t-89 -28.5z" />
<glyph horiz-adv-x="1073" d="M-739 1307q0 82 46 121.5t132 39.5h41q12 47 43 81t90 57l108 -66q-80 -29 -103.5 -71t-23.5 -117h-145q-61 0 -61 -47q0 -18 10 -26.5t24 -8.5q37 0 48 30l124 -10q0 -82 -47 -115.5t-122 -33.5q-74 0 -119 42t-45 124z" />
<glyph horiz-adv-x="1243" d="M76 909l164 113q20 16 45.5 19t56.5 -1l143 -12v62q0 86 78 120l185 82v-35l-101 -47v-159l-80 -33l146 -14v159l35 17v-181l440 -45v-12l-184 -82q-66 -29 -116 -35t-116 11l-24 6v-172l-35 -31v209l-66 14v-536q0 -41 -22.5 -71t-57.5 -46l-196 -88q57 -37 122.5 -57.5 t137.5 -20.5q23 0 42 2t40 6v420l35 31q0 -51 35.5 -87t86.5 -36t87 36t36 87q0 53 -35.5 88t-87.5 35v34l228 97q29 -45 42 -109.5t13 -118.5q0 -92 -30.5 -176t-85 -151.5t-129 -114.5t-160.5 -66v-100l-33 -35l-2 2v125q-41 -6 -82 -6q-109 0 -204 41t-166 112.5 t-111.5 166t-40.5 202.5q0 66 14 123.5t49 112.5zM117 903l86 -125l389 96l-303 64q-43 10 -76 8t-70 -24zM147 528q0 -117 51.5 -218t139.5 -167l149 68v608l-290 -74q-49 -98 -50 -217zM213 528q0 55 13.5 105.5t35.5 95.5l60 21q-70 -99 -70 -222q0 -94 39 -173t123 -138 l-37 -18q-76 57 -120 143t-44 186zM215 971q16 4 41 1t47 -7l475 -95q51 -10 98.5 -9t112.5 30l101 45l-754 78q-43 6 -80 -15zM518 223l43 21q23 10 38 29.5t15 52.5v526l-96 -25v-604zM518 1034l96 37v123l-43 -18q-23 -10 -38 -31t-15 -51v-60zM748 57q80 20 147.5 64.5 t116.5 107t76.5 139t27.5 160.5q0 55 -10 100.5t-27 84.5l-155 -62q47 -18 75.5 -58t28.5 -91q0 -66 -46 -112t-112 -46q-43 0 -76.5 19.5t-45.5 42.5v-349zM803 502q0 29 19.5 48t47.5 19q29 0 47.5 -19.5t18.5 -47.5q0 -29 -18.5 -48.5t-47.5 -19.5t-48 19.5t-19 48.5z " />
<glyph horiz-adv-x="1177" d="M72 717q0 190 26.5 329.5t88 229.5t159.5 134t242 44q143 0 241.5 -44t160 -134t89 -229.5t27.5 -329.5t-27.5 -329.5t-89 -229.5t-160 -134t-241.5 -44t-241.5 44t-160 134t-88 229t-26.5 330zM246 717q0 -139 14 -247t53 -180.5t105.5 -109.5t169.5 -37q102 0 168.5 37 t105.5 109.5t54.5 180.5t15.5 247q0 141 -15.5 249.5t-54.5 183.5t-105.5 112.5t-168.5 37.5t-169 -37.5t-106 -112.5t-53 -183.5t-14 -249.5z" />
<glyph horiz-adv-x="1003" d="M58 1255l432 199h98v-1300h297v-154h-768v154h297v1087l-301 -137z" />
<glyph horiz-adv-x="1122" d="M59 0v135l455 469q41 41 94 93.5t101 113.5t82 131t34 143q0 104 -70.5 159.5t-199.5 55.5q-131 0 -206 -60t-83 -191l-174 38q8 94 48 164t101.5 115t142.5 66.5t173 21.5q98 0 180 -23.5t140.5 -69.5t90 -114.5t31.5 -161.5q0 -86 -25.5 -156.5t-73.5 -141t-119 -144.5 t-159 -166l-303 -311h739v-166h-999z" />
<glyph horiz-adv-x="1161" d="M76 377l170 37q10 -135 101.5 -208t232.5 -73q145 0 232 71.5t87 219.5q0 113 -81.5 181.5t-278.5 68.5h-180v153h190q92 0 151.5 21.5t94.5 56.5t48 82t13 96q0 57 -22.5 98.5t-61 68t-91 38.5t-111.5 12q-111 0 -192 -45t-93 -145l-170 29q12 80 52 138t101.5 98 t138.5 59.5t163 19.5q92 0 176 -21.5t147.5 -64.5t100 -108.5t36.5 -153.5q0 -100 -40.5 -192.5t-149.5 -153.5q123 -53 178 -138t55 -202q0 -111 -37.5 -194t-103 -138t-156 -81.5t-196.5 -26.5q-98 0 -185 24.5t-155 74.5t-111 125t-53 173z" />
<glyph horiz-adv-x="1157" d="M51 260v131l680 1063l150 -78l-617 -962h463v524h174v-524h205v-154h-205v-260h-174v260h-676z" />
<glyph horiz-adv-x="1148" d="M59 389l172 49q14 -150 104.5 -222.5t219.5 -72.5q70 0 129 21.5t103 63.5t68.5 104.5t24.5 146.5q0 61 -14 116.5t-47 97.5t-87 65.5t-136 23.5q-55 0 -123 -16t-154 -55h-176l35 723h792v-162h-626l-21 -391q160 55 293 55q217 0 327.5 -124t110.5 -333 q0 -125 -37.5 -218t-105.5 -155.5t-160 -94t-198 -31.5q-86 0 -169 25.5t-150.5 76.5t-114 128t-60.5 179z" />
<glyph horiz-adv-x="1155" d="M90 662q0 178 28 324.5t90.5 249.5t161.5 160.5t243 57.5q129 0 233.5 -51t167.5 -160l-141 -102q-49 86 -118 122.5t-142 36.5q-184 0 -267.5 -142t-83.5 -410q53 86 145.5 132t211.5 46q96 0 177 -28t140.5 -84t92 -141t32.5 -198q0 -90 -24.5 -178t-80 -158.5 t-143.5 -114.5t-217 -44q-137 0 -233 49t-156.5 138t-88.5 215t-28 280zM285 457q0 -59 16.5 -116.5t52 -104t93 -75t141.5 -28.5q82 0 139.5 28.5t92 76t51 106.5t16.5 121q0 57 -15.5 112.5t-51 98.5t-92 69.5t-138.5 26.5q-84 0 -142.5 -26.5t-94 -70.5t-52 -100.5 t-16.5 -117.5z" />
<glyph horiz-adv-x="1120" d="M51 1268v166h1018v-86l-572 -1348h-188l534 1268h-792z" />
<glyph horiz-adv-x="1140" d="M93 397q0 123 53 217.5t164 147.5q-84 51 -125 134t-41 187q0 80 24.5 147.5t75.5 117t132 78t194 28.5t193.5 -28.5t133 -78t77 -117t24.5 -147.5q0 -104 -42 -187t-126 -134q111 -53 165 -147.5t54 -217.5q0 -90 -27.5 -165.5t-86 -132t-148.5 -88t-217 -31.5 t-217 31.5t-148.5 88t-85 132t-26.5 165.5zM267 412q0 -61 16 -112.5t53 -88.5t94.5 -57.5t139.5 -20.5q162 0 233.5 78t71.5 201q0 57 -17.5 106t-54.5 86t-94 57.5t-139 20.5t-139.5 -20.5t-94.5 -57.5t-53 -86t-16 -106zM318 1071q0 -104 57.5 -169.5t194.5 -65.5 t195.5 65.5t58.5 169.5q0 100 -58.5 164.5t-195.5 64.5t-194.5 -64.5t-57.5 -164.5z" />
<glyph horiz-adv-x="1155" d="M90 956q0 90 25 179.5t80 160t144 114.5t218 44q137 0 232.5 -49t156 -138t88 -215t27.5 -280q0 -178 -27.5 -324.5t-89 -250t-161 -160.5t-242.5 -57q-129 0 -234.5 51t-168.5 157l143 105q47 -86 115.5 -123t144.5 -37q184 0 267 140.5t83 410.5q-53 -82 -146 -130 t-212 -48q-96 0 -177 28.5t-140.5 85t-92.5 140.5t-33 196zM264 969q0 -59 15.5 -114.5t51.5 -98.5t92.5 -70t137.5 -27q84 0 142.5 27t95.5 71t53.5 101t16.5 117q0 59 -16.5 117.5t-52.5 104.5t-94.5 74.5t-142.5 28.5q-82 0 -139 -28.5t-92 -75.5t-51.5 -106.5 t-16.5 -120.5z" />
<glyph horiz-adv-x="645" d="M35 1045q0 213 68.5 311t218.5 98t218 -98t68 -311t-68 -311.5t-218 -98.5t-218.5 98.5t-68.5 311.5zM188 1045q0 -147 33 -215t101 -68t100.5 67.5t32.5 215.5q0 147 -33 213.5t-100 66.5q-68 0 -101 -66.5t-33 -213.5z" />
<glyph horiz-adv-x="645" d="M43 1356l215 98h143v-665h162v-133h-479v133h164v512l-154 -70z" />
<glyph horiz-adv-x="645" d="M39 656v116l219 224q39 41 68.5 72.5t50 59t30 54.5t9.5 55q0 41 -29 64.5t-78 23.5q-47 0 -71.5 -22.5t-32.5 -61.5l-150 35q18 84 88 131t168 47q49 0 95.5 -12t83 -40t58 -70t21.5 -101q0 -47 -15 -89t-40 -79t-57.5 -71.5t-65.5 -69.5l-125 -127h338v-139h-565z" />
<glyph horiz-adv-x="645" d="M35 844l143 41q4 -59 42 -90t102 -31q59 0 96 31t37 96q0 47 -35 79t-113 32h-104v129h90q80 0 106.5 33.5t26.5 74.5q0 45 -33 65.5t-80 20.5t-78.5 -20.5t-37.5 -61.5l-144 31q8 45 33 79t60.5 56.5t80.5 33.5t92 11q121 0 191 -53t70 -143q0 -55 -21.5 -102.5 t-73.5 -82.5q66 -31 94.5 -80t28.5 -112q0 -61 -22.5 -107.5t-60.5 -77t-90 -46t-111 -15.5q-111 0 -191 52.5t-98 156.5z" />
<glyph horiz-adv-x="645" d="M25 776v111l362 567l117 -73l-307 -478h174v183h143v-183h102v-127h-102v-120h-143v120h-346z" />
<glyph horiz-adv-x="645" d="M41 867l135 26q6 -66 45 -98.5t96 -32.5t93 36t36 110q0 53 -27.5 89.5t-88.5 36.5q-29 0 -59.5 -9t-69.5 -25h-117l20 434h447v-133h-311l-9 -158q70 20 127 21q68 0 114 -22t74.5 -57.5t41 -80.5t12.5 -92q0 -70 -22.5 -122t-60.5 -86t-90 -51.5t-110 -17.5 q-47 0 -93 14.5t-85 44t-64.5 72.5t-33.5 101z" />
<glyph horiz-adv-x="645" d="M45 1014q0 98 16.5 180t53.5 139.5t95 89t140 31.5q74 0 132.5 -29.5t92.5 -91.5l-106 -90q-23 37 -51.5 59.5t-73.5 22.5q-74 0 -111.5 -61.5t-37.5 -167.5q29 35 69.5 50t85.5 15q51 0 96.5 -16t79 -48t53 -80t19.5 -112q0 -49 -14.5 -98t-47 -87t-84 -61.5 t-124.5 -23.5q-78 0 -131.5 27.5t-87 78t-49 120t-15.5 153.5zM205 899q0 -49 26.5 -93t92.5 -44q35 0 58.5 12.5t36.5 33t19 46t6 49.5q0 51 -24.5 91t-91.5 40q-68 0 -95.5 -40.5t-27.5 -94.5z" />
<glyph horiz-adv-x="645" d="M45 1301v133h553v-90l-291 -688h-164l273 645h-371z" />
<glyph horiz-adv-x="645" d="M45 877q0 63 27.5 113.5t85.5 80.5q-84 55 -84 160q0 94 58 158.5t190 64.5q131 0 189 -64.5t58 -158.5q0 -49 -21.5 -90t-62.5 -70q57 -31 85 -81t28 -113q0 -100 -65.5 -171t-210.5 -71t-211 70.5t-66 171.5zM199 881q0 -49 28.5 -84t94.5 -35t94 35t28 84 q0 53 -28.5 87t-93.5 34q-66 0 -94.5 -34t-28.5 -87zM223 1227q0 -41 23 -68.5t76 -27.5t76.5 27.5t23.5 68.5q0 43 -23.5 70.5t-76.5 27.5t-76 -27.5t-23 -70.5z" />
<glyph horiz-adv-x="645" d="M45 1184q0 49 15.5 98t47 87t83 61.5t124.5 23.5q78 0 131.5 -27.5t87 -77.5t49 -120t15.5 -154q0 -98 -16.5 -180t-53 -139t-95 -89t-140.5 -32q-72 0 -131.5 30t-93.5 89l108 92q23 -37 51.5 -60.5t71.5 -23.5q76 0 114 61.5t38 167.5q-29 -33 -71 -49t-87 -16 q-51 0 -96 16.5t-79 48t-53.5 79.5t-19.5 114zM199 1186q0 -51 24.5 -91t91.5 -40q70 0 97.5 41t27.5 92t-26.5 94t-94.5 43q-35 0 -58 -12t-36.5 -31.5t-19.5 -45t-6 -50.5z" />
<glyph horiz-adv-x="645" d="M35 389q0 213 68.5 311t218.5 98t218 -98t68 -311t-68 -311.5t-218 -98.5t-218.5 98.5t-68.5 311.5zM188 389q0 -147 33 -215t101 -68t100.5 67.5t32.5 215.5q0 147 -33 213.5t-100 66.5q-68 0 -101 -66.5t-33 -213.5z" />
<glyph horiz-adv-x="645" d="M43 700l215 98h143v-665h162v-133h-479v133h164v512l-154 -70z" />
<glyph horiz-adv-x="645" d="M39 0v116l219 224q39 41 68.5 72.5t50 59t30 54.5t9.5 55q0 41 -29 64.5t-78 23.5q-47 0 -71.5 -22.5t-32.5 -61.5l-150 35q18 84 88 131t168 47q49 0 95.5 -12t83 -40t58 -70t21.5 -101q0 -47 -15 -89t-40 -79t-57.5 -71.5t-65.5 -69.5l-125 -127h338v-139h-565z" />
<glyph horiz-adv-x="645" d="M35 188l143 41q4 -59 42 -90t102 -31q59 0 96 31t37 96q0 47 -35 79t-113 32h-104v129h90q80 0 106.5 33.5t26.5 74.5q0 45 -33 65.5t-80 20.5t-78.5 -20.5t-37.5 -61.5l-144 31q8 45 33 79t60.5 56.5t80.5 33.5t92 11q121 0 191 -53t70 -143q0 -55 -21.5 -102.5 t-73.5 -82.5q66 -31 94.5 -80t28.5 -112q0 -61 -22.5 -107.5t-60.5 -77t-90 -46t-111 -15.5q-111 0 -191 52.5t-98 156.5z" />
<glyph horiz-adv-x="645" d="M25 120v111l362 567l117 -73l-307 -478h174v183h143v-183h102v-127h-102v-120h-143v120h-346z" />
<glyph horiz-adv-x="645" d="M41 211l135 26q6 -66 45 -98.5t96 -32.5t93 36t36 110q0 53 -27.5 89.5t-88.5 36.5q-29 0 -59.5 -9t-69.5 -25h-117l20 434h447v-133h-311l-9 -158q70 20 127 21q68 0 114 -22t74.5 -57.5t41 -80.5t12.5 -92q0 -70 -22.5 -122t-60.5 -86t-90 -51.5t-110 -17.5 q-47 0 -93 14.5t-85 44t-64.5 72.5t-33.5 101z" />
<glyph horiz-adv-x="645" d="M45 358q0 98 16.5 180t53.5 139.5t95 89t140 31.5q74 0 132.5 -29.5t92.5 -91.5l-106 -90q-23 37 -51.5 59.5t-73.5 22.5q-74 0 -111.5 -61.5t-37.5 -167.5q29 35 69.5 50t85.5 15q51 0 96.5 -16t79 -48t53 -80t19.5 -112q0 -49 -14.5 -98t-47 -87t-84 -61.5 t-124.5 -23.5q-78 0 -131.5 27.5t-87 78t-49 120t-15.5 153.5zM205 243q0 -49 26.5 -93t92.5 -44q35 0 58.5 12.5t36.5 33t19 46t6 49.5q0 51 -24.5 91t-91.5 40q-68 0 -95.5 -40.5t-27.5 -94.5z" />
<glyph horiz-adv-x="645" d="M45 645v133h553v-90l-291 -688h-164l273 645h-371z" />
<glyph horiz-adv-x="645" d="M45 221q0 63 27.5 113.5t85.5 80.5q-84 55 -84 160q0 94 58 158.5t190 64.5q131 0 189 -64.5t58 -158.5q0 -49 -21.5 -90t-62.5 -70q57 -31 85 -81t28 -113q0 -100 -65.5 -171t-210.5 -71t-211 70.5t-66 171.5zM199 225q0 -49 28.5 -84t94.5 -35t94 35t28 84 q0 53 -28.5 87t-93.5 34q-66 0 -94.5 -34t-28.5 -87zM223 571q0 -41 23 -68.5t76 -27.5t76.5 27.5t23.5 68.5q0 43 -23.5 70.5t-76.5 27.5t-76 -27.5t-23 -70.5z" />
<glyph horiz-adv-x="645" d="M45 528q0 49 15.5 98t47 87t83 61.5t124.5 23.5q78 0 131.5 -27.5t87 -77.5t49 -120t15.5 -154q0 -98 -16.5 -180t-53 -139t-95 -89t-140.5 -32q-72 0 -131.5 30t-93.5 89l108 92q23 -37 51.5 -60.5t71.5 -23.5q76 0 114 61.5t38 167.5q-29 -33 -71 -49t-87 -16 q-51 0 -96 16.5t-79 48t-53.5 79.5t-19.5 114zM199 530q0 -51 24.5 -91t91.5 -40q70 0 97.5 41t27.5 92t-26.5 94t-94.5 43q-35 0 -58 -12t-36.5 -31.5t-19.5 -45t-6 -50.5z" />
<glyph horiz-adv-x="1112" d="M92 512q0 137 35 237.5t96.5 166t146.5 97t185 31.5t185 -31.5t147.5 -97t97.5 -166t35 -237.5t-35 -237.5t-97.5 -166t-147.5 -97t-185 -31.5t-185 31.5t-146.5 97t-96.5 166t-35 237.5zM266 512q0 -98 23.5 -170t62.5 -118t91.5 -68.5t111.5 -22.5q57 0 110.5 22.5 t93.5 68.5t63.5 118t23.5 170t-23.5 169t-63.5 118t-93.5 69.5t-110.5 22.5q-59 0 -111.5 -22.5t-91.5 -69.5t-62.5 -118t-23.5 -169z" />
<glyph horiz-adv-x="1112" d="M166 885l348 159h131v-890h256v-154h-686v154h256v688l-250 -115z" />
<glyph horiz-adv-x="1112" d="M133 0v137q178 90 297 163t190.5 137.5t102.5 126t31 128.5q0 98 -55.5 148.5t-147.5 50.5t-150.5 -52.5t-66.5 -162.5l-164 33q6 84 37 146.5t82 104t119.5 63t148.5 21.5t147.5 -21.5t117.5 -63t78 -105t28 -149.5q0 -162 -110.5 -291t-340.5 -254h504v-160h-848z" />
<glyph horiz-adv-x="1112" d="M84 -213l84 137q82 -63 165 -91t181 -28q147 0 229 62.5t82 177.5q0 100 -86 165.5t-270 65.5h-152v154h177q135 0 208.5 68.5t73.5 177.5q0 92 -57 153.5t-189 61.5q-43 0 -83.5 -10.5t-74.5 -32t-57.5 -52t-31.5 -73.5l-164 57q16 68 55 117t94.5 82t123 49t138.5 16 q106 0 186.5 -27.5t131.5 -74.5t76.5 -112.5t25.5 -139.5q0 -104 -46 -188t-138 -144q121 -47 177 -132t56 -189q0 -82 -31.5 -151.5t-93 -122t-151.5 -82t-209 -29.5q-129 0 -228.5 32.5t-201.5 102.5z" />
<glyph horiz-adv-x="1112" d="M92 0v135l582 907l153 -77l-520 -811h365v340h174v-340h174v-154h-174v-328h-174v328h-580z" />
<glyph horiz-adv-x="1112" d="M94 -244l60 152q78 -47 163.5 -76t182.5 -29q147 0 231 79t84 249q0 141 -62.5 208t-174.5 67q-61 0 -129 -20.5t-138 -59.5h-164l60 698h735v-162h-580l-30 -362q139 59 274 59q178 0 280.5 -106.5t102.5 -323.5q0 -123 -35.5 -213t-101.5 -149.5t-156 -88t-200 -28.5 q-104 0 -206 26.5t-196 79.5z" />
<glyph horiz-adv-x="1112" d="M82 662q0 168 26.5 313t88 251.5t160 167t241.5 60.5q127 0 228.5 -48t166.5 -157l-137 -106q-51 86 -119.5 121.5t-146.5 35.5q-90 0 -153.5 -39.5t-104.5 -111.5t-60.5 -173.5t-19.5 -223.5q41 76 129 125t203 49q100 0 182 -29t140.5 -87t91 -145t32.5 -204 q0 -88 -23.5 -174t-78 -155t-142.5 -110.5t-217 -41.5q-137 0 -230 49t-150.5 138t-82 215t-24.5 280zM276 455q0 -59 16.5 -116.5t50.5 -104t88 -74t132 -27.5t133.5 28.5t91 75t52 104.5t16.5 120q0 59 -16.5 115.5t-51 99.5t-89 69.5t-130.5 26.5q-78 0 -133 -26.5 t-91 -71.5t-52.5 -101.5t-16.5 -117.5z" />
<glyph horiz-adv-x="1112" d="M82 862v162h948v-115l-584 -1237h-192l561 1190h-733z" />
<glyph horiz-adv-x="1112" d="M82 408q0 117 53 210t162 146q-82 51 -123 134t-41 181q0 168 103.5 271.5t318.5 103.5q217 0 320.5 -103.5t103.5 -271.5q0 -98 -42 -181t-126 -134q111 -53 165 -146.5t54 -209.5q0 -92 -27.5 -171t-86 -135.5t-147.5 -89t-214 -32.5q-123 0 -213 32.5t-147.5 89 t-85 135t-27.5 171.5zM256 412q0 -127 72.5 -203t226.5 -76q156 0 228.5 76t72.5 203q0 117 -73.5 193.5t-227.5 76.5t-226.5 -77t-72.5 -193zM307 1069q0 -102 59.5 -167.5t188.5 -65.5q131 0 190.5 65.5t59.5 167.5q0 100 -59.5 165.5t-190.5 65.5q-129 0 -188.5 -65.5 t-59.5 -165.5z" />
<glyph horiz-adv-x="1112" d="M96 580q0 86 23.5 168.5t76 149.5t136.5 106.5t205 39.5q129 0 221 -46t149.5 -131t84 -203.5t26.5 -264.5q0 -365 -133 -556t-365 -191q-74 0 -151.5 16.5t-165.5 65.5l59 145q78 -49 138.5 -61.5t119.5 -12.5q80 0 141.5 38t102.5 105.5t61.5 162t20.5 208.5 q-59 -82 -143.5 -125.5t-188.5 -43.5q-94 0 -171 28.5t-132 82.5t-85 134t-30 185zM270 590q0 -55 13.5 -107.5t46 -92.5t84 -63.5t129.5 -23.5q74 0 127 24.5t85.5 65.5t48 94.5t15.5 108.5t-14 107.5t-47 94.5t-85 67.5t-128 25.5t-128 -26.5t-85 -68.5t-47.5 -96.5 t-14.5 -109.5z" />
<glyph horiz-adv-x="1112" d="M92 512q0 137 35 237.5t96.5 166t146.5 97t185 31.5t185 -31.5t147.5 -97t97.5 -166t35 -237.5t-35 -237.5t-97.5 -166t-147.5 -97t-185 -31.5t-185 31.5t-146.5 97t-96.5 166t-35 237.5zM266 512q0 -98 23.5 -170t62.5 -118t91.5 -68.5t111.5 -22.5q57 0 110.5 22.5 t93.5 68.5t63.5 118t23.5 170t-23.5 169t-63.5 118t-93.5 69.5t-110.5 22.5q-59 0 -111.5 -22.5t-91.5 -69.5t-62.5 -118t-23.5 -169z" />
<glyph horiz-adv-x="860" d="M37 885l348 159h131v-890h256v-154h-686v154h256v688l-250 -115z" />
<glyph horiz-adv-x="1021" d="M86 0v137q178 90 297 163t190.5 137.5t102.5 126t31 128.5q0 98 -55.5 148.5t-147.5 50.5t-150.5 -52.5t-66.5 -162.5l-164 33q6 84 37 146.5t82 104t119.5 63t148.5 21.5t147.5 -21.5t117.5 -63t78 -105t28 -149.5q0 -162 -110.5 -291t-340.5 -254h504v-160h-848z" />
<glyph horiz-adv-x="1052" d="M49 -213l84 137q82 -63 165 -91t181 -28q147 0 229 62.5t82 177.5q0 100 -86 165.5t-270 65.5h-152v154h177q135 0 208.5 68.5t73.5 177.5q0 92 -57 153.5t-189 61.5q-43 0 -83.5 -10.5t-74.5 -32t-57.5 -52t-31.5 -73.5l-164 57q16 68 55 117t94.5 82t123 49t138.5 16 q106 0 186.5 -27.5t131.5 -74.5t76.5 -112.5t25.5 -139.5q0 -104 -46 -188t-138 -144q121 -47 177 -132t56 -189q0 -82 -31.5 -151.5t-93 -122t-151.5 -82t-209 -29.5q-129 0 -228.5 32.5t-201.5 102.5z" />
<glyph horiz-adv-x="1060" d="M65 0v135l582 907l153 -77l-520 -811h365v340h174v-340h174v-154h-174v-328h-174v328h-580z" />
<glyph horiz-adv-x="1058" d="M63 -244l60 152q78 -47 163.5 -76t182.5 -29q147 0 231 79t84 249q0 141 -62.5 208t-174.5 67q-61 0 -129 -20.5t-138 -59.5h-164l60 698h735v-162h-580l-30 -362q139 59 274 59q178 0 280.5 -106.5t102.5 -323.5q0 -123 -35.5 -213t-101.5 -149.5t-156 -88t-200 -28.5 q-104 0 -206 26.5t-196 79.5z" />
<glyph horiz-adv-x="1101" d="M76 662q0 168 26.5 313t88 251.5t160 167t241.5 60.5q127 0 228.5 -48t166.5 -157l-137 -106q-51 86 -119.5 121.5t-146.5 35.5q-90 0 -153.5 -39.5t-104.5 -111.5t-60.5 -173.5t-19.5 -223.5q41 76 129 125t203 49q100 0 182 -29t140.5 -87t91 -145t32.5 -204 q0 -88 -23.5 -174t-78 -155t-142.5 -110.5t-217 -41.5q-137 0 -230 49t-150.5 138t-82 215t-24.5 280zM270 455q0 -59 16.5 -116.5t50.5 -104t88 -74t132 -27.5t133.5 28.5t91 75t52 104.5t16.5 120q0 59 -16.5 115.5t-51 99.5t-89 69.5t-130.5 26.5q-78 0 -133 -26.5 t-91 -71.5t-52.5 -101.5t-16.5 -117.5z" />
<glyph horiz-adv-x="1040" d="M45 862v162h948v-115l-584 -1237h-192l561 1190h-733z" />
<glyph horiz-adv-x="1101" d="M76 408q0 117 53 210t162 146q-82 51 -123 134t-41 181q0 168 103.5 271.5t318.5 103.5q217 0 320.5 -103.5t103.5 -271.5q0 -98 -42 -181t-126 -134q111 -53 165 -146.5t54 -209.5q0 -92 -27.5 -171t-86 -135.5t-147.5 -89t-214 -32.5q-123 0 -213 32.5t-147.5 89 t-85 135t-27.5 171.5zM250 412q0 -127 72.5 -203t226.5 -76q156 0 228.5 76t72.5 203q0 117 -73.5 193.5t-227.5 76.5t-226.5 -77t-72.5 -193zM301 1069q0 -102 59.5 -167.5t188.5 -65.5q131 0 190.5 65.5t59.5 167.5q0 100 -59.5 165.5t-190.5 65.5q-129 0 -188.5 -65.5 t-59.5 -165.5z" />
<glyph horiz-adv-x="1101" d="M90 580q0 86 23.5 168.5t76 149.5t136.5 106.5t205 39.5q129 0 221 -46t149.5 -131t84 -203.5t26.5 -264.5q0 -365 -133 -556t-365 -191q-74 0 -151.5 16.5t-165.5 65.5l59 145q78 -49 138.5 -61.5t119.5 -12.5q80 0 141.5 38t102.5 105.5t61.5 162t20.5 208.5 q-59 -82 -143.5 -125.5t-188.5 -43.5q-94 0 -171 28.5t-132 82.5t-85 134t-30 185zM264 590q0 -55 13.5 -107.5t46 -92.5t84 -63.5t129.5 -23.5q74 0 127 24.5t85.5 65.5t48 94.5t15.5 108.5t-14 107.5t-47 94.5t-85 67.5t-128 25.5t-128 -26.5t-85 -68.5t-47.5 -96.5 t-14.5 -109.5z" />
<glyph horiz-adv-x="684" d="M55 801l72 119q49 -37 99 -56.5t110 -19.5q47 0 85 17.5t38 70.5q0 35 -28 53.5t-70 32.5t-91 27.5t-91 38t-69.5 64.5t-27.5 107q0 51 22.5 89t59.5 63t85 36t101 11q66 0 131.5 -16.5t114.5 -44.5l-59 -125q-86 57 -187 57q-45 0 -79.5 -15.5t-34.5 -54.5 q0 -35 27.5 -52t69.5 -30.5t91 -25.5t91 -37t69.5 -64.5t27.5 -107.5q0 -59 -22.5 -101t-61.5 -69t-90 -39t-106 -12q-156 0 -277 84z" />
<glyph horiz-adv-x="548" d="M41 1305v129h104v225h154v-225h197v-129h-197v-355q0 -55 21.5 -78.5t56.5 -23.5q43 0 96 29l35 -123q-80 -37 -156 -37q-92 0 -149.5 52t-57.5 171v365h-104z" />
<glyph horiz-adv-x="731" d="M72 737v697h153v-86q76 106 207 106q106 0 166.5 -61.5t60.5 -196.5v-459h-153v459q0 66 -32 97.5t-85 31.5q-72 0 -118 -60.5t-46 -183.5v-344h-153z" />
<glyph horiz-adv-x="772" d="M55 1065q0 201 87 295t227 94q96 0 178 -63v374h153v-778q0 -72 3.5 -131t13.5 -123h-150q-4 25 -8 49.5t-6 48.5q-82 -115 -215 -114q-59 0 -111.5 21.5t-90.5 64.5t-59.5 108.5t-21.5 153.5zM209 1065q0 -113 42.5 -167t110.5 -54q76 0 130.5 73.5t54.5 215.5v110 q-41 41 -80 61.5t-86 20.5q-80 0 -126 -65.5t-46 -194.5z" />
<glyph horiz-adv-x="485" d="M72 737v697h153v-72q45 92 144 92q43 0 86 -14l-25 -133q-23 6 -43 10t-39 4q-57 0 -90 -51t-33 -156v-377h-153z" />
<glyph horiz-adv-x="731" d="M72 737v1028h153v-417q76 106 207 106q106 0 166.5 -61.5t60.5 -196.5v-459h-153v459q0 66 -32 97.5t-85 31.5q-72 0 -118 -60.5t-46 -183.5v-344h-153z" />
</font>
</defs>
</svg>
