<?xml version="1.0" standalone="no"?>
<!DOCTYPE svg PUBLIC "-//W3C//DTD SVG 1.1//EN" "http://www.w3.org/Graphics/SVG/1.1/DTD/svg11.dtd" >
<svg xmlns="http://www.w3.org/2000/svg" xmlns:xlink="http://www.w3.org/1999/xlink" version="1.1">
<metadata></metadata>
<defs>
<font id="cloudsemibold" horiz-adv-x="0" >
<font-face units-per-em="2048" ascent="1536" descent="-512" />
<missing-glyph horiz-adv-x="634" />
<glyph unicode="&#x3b;&#x3b;For&#x20;Education&#x20;Used&#x20;Only&#x3b;&#x3b;" horiz-adv-x="1720" d="M123 719q0 152 58.5 286t158.5 233t234.5 157.5t287.5 58.5q152 0 286 -58.5t233.5 -157.5t157.5 -233.5t58 -285.5q0 -154 -58 -288t-157.5 -234.5t-233.5 -158.5t-286 -58q-154 0 -288 58t-234 158.5t-158.5 234.5t-58.5 288zM281 719q0 -121 46 -226.5t124.5 -184.5 t184 -125t226.5 -46t226.5 46t184.5 125t125 184.5t46 226.5t-46 226.5t-125 184t-184.5 124.5t-226.5 46t-226.5 -46t-184 -124.5t-124.5 -184t-46 -226.5zM434 719q0 106 26.5 192t81 147.5t134.5 95.5t186 34q135 0 227.5 -53.5t141.5 -149.5l-178 -133q-25 61 -72 96 t-119 35q-104 0 -153.5 -69.5t-49.5 -194.5t49.5 -196.5t153.5 -71.5q76 0 118 36.5t69 102.5l198 -103q-47 -115 -142 -178t-243 -63q-106 0 -186 33.5t-134.5 96t-81 149.5t-26.5 194z" />
<glyph unicode="&#x3b;&#x3b;Registered&#x3b;&#x3b;" horiz-adv-x="1085" d="M61 973q0 100 38 187t103.5 152.5t152.5 103.5t188 38q100 0 187 -38t152.5 -103.5t103.5 -152.5t38 -187t-38 -187.5t-103.5 -153t-152.5 -103t-187 -37.5t-187.5 37.5t-153 103t-103.5 153t-38 187.5zM154 973q0 -80 30.5 -151.5t82.5 -124t124 -83t152 -30.5 t151.5 30.5t123.5 83t83 124t31 151.5t-31 151.5t-83 123.5t-123.5 83t-151.5 31t-152 -31t-124 -83t-82.5 -123.5t-30.5 -151.5zM330 694v559h237q51 0 90 -14t66 -38.5t39 -55.5t12 -64q0 -51 -28.5 -94t-83.5 -65l133 -228h-168l-125 211h-19v-211h-153zM483 1022h82 q29 0 42.5 16.5t13.5 38.5q0 23 -13.5 40.5t-42.5 17.5h-82v-113z" />
<glyph unicode="&#x3b;&#x3b;Multiply&#x3b;&#x3b;" horiz-adv-x="942" d="M63 442l213 213l-213 215l175 174l213 -215l215 215l174 -174l-215 -215l215 -213l-174 -174l-215 213l-213 -213z" />
<glyph unicode="&#x3b;&#x3b;Divide&#x3b;&#x3b;" horiz-adv-x="942" d="M61 543v225h820v-225h-820zM354 236v215h236v-215h-236zM354 860v215h236v-215h-236z" />
<glyph unicode="&#x2018;&#x2018;" horiz-adv-x="716" d="M61 963v106q0 135 25 223t78 162l137 -41q-41 -53 -60.5 -105.5t-29.5 -107.5h106v-237h-256zM399 963v106q0 135 25 223t78 162l137 -41q-41 -53 -60.5 -105.5t-29.5 -107.5h106v-237h-256z" />
<glyph unicode="&#x2019;&#x2019;" horiz-adv-x="716" d="M61 1196v238h256v-107q0 -135 -24.5 -223t-77.5 -162l-137 41q41 53 60.5 104.5t27.5 108.5h-105zM399 1196v238h256v-107q0 -135 -24.5 -223t-77.5 -162l-137 41q41 53 60.5 104.5t27.5 108.5h-105z" />
<glyph unicode="&#x3b;&#x3b;Trademark&#x3b;&#x3b;" horiz-adv-x="1183" d="M41 1290v144h451v-144h-134v-338h-184v338h-133zM553 952v482h203l82 -209l82 209h202v-482h-164v162l-63 -162h-115l-63 162v-162h-164z" />
<glyph unicode="&#xe24;&#xe32;" horiz-adv-x="1607" d="M94 987q260 57 438 57q180 0 283 -53q70 25 139.5 39t132.5 14q84 0 157 -21.5t126 -70.5t84 -128t31 -193v-1041h-246v1037q0 115 -45 158.5t-113 43.5q-55 0 -120 -16q23 -80 22 -178v-1045h-246v1039q0 119 -49 159.5t-141 40.5q-29 0 -62.5 -3t-70.5 -7l67 -131 q-37 -23 -59.5 -47.5t-33.5 -57t-15 -74.5t-4 -99v-195h174v-215h-289q-78 0 -104.5 27.5t-26.5 103.5v307q0 63 3 106.5t14.5 75t32 56t54.5 53.5z" />
<glyph unicode="&#xe26;&#xe32;" horiz-adv-x="1607" d="M20 0v215h140l-37 139v84q0 63 3 106.5t14.5 75t32 56t54.5 53.5l-133 258q260 57 438 57q180 0 283 -53q70 25 139.5 39t132.5 14q84 0 157 -21.5t126 -70.5t84 -128t31 -193v-1041h-246v1037q0 115 -45 158.5t-113 43.5q-55 0 -120 -16q23 -80 22 -178v-1045h-246v1039 q0 119 -49 159.5t-141 40.5q-29 0 -62.5 -3t-70.5 -7l67 -131q-37 -23 -59.5 -47.5t-33.5 -57t-15 -74.5t-4 -99v-242q0 -96 -35 -132t-137 -36h-177z" />
<glyph unicode=" "  horiz-adv-x="634" />
<glyph unicode="&#x09;" horiz-adv-x="634" />
<glyph unicode="&#xa0;" horiz-adv-x="634" />
<glyph unicode="!" horiz-adv-x="471" d="M113 0v246h245v-246h-245zM113 410v1024h245v-1024h-245z" />
<glyph unicode="&#x22;" horiz-adv-x="716" d="M61 1274v160h246v-160l-20 -311h-205zM410 1274v160h245v-160l-20 -311h-205z" />
<glyph unicode="#" horiz-adv-x="1349" d="M82 358v215h233l37 287h-227v215h256l47 359h244l-47 -359h198l47 359h244l-47 -359h201v-215h-230l-37 -287h224v-215h-252l-47 -358h-244l47 358h-199l-47 -358h-243l47 358h-205zM559 573h199l37 287h-199z" />
<glyph unicode="$" horiz-adv-x="1204" d="M123 106l90 207q49 -33 93 -55t88 -36.5t91 -20.5t105 -6q55 0 100 7t78 25.5t50.5 52t17.5 87.5q0 72 -51.5 106.5t-127 56t-166 44t-166 66.5t-127 122t-51.5 215q0 74 26 131t70 99t104.5 67.5t131.5 38.5v182h246v-180q92 -10 170 -36t143 -58l-73 -203 q-68 35 -159 62.5t-208 27.5q-92 0 -148.5 -29.5t-56.5 -101.5q0 -59 30 -93t78 -55.5t109.5 -36t126 -31t127 -41t110.5 -68.5t77.5 -111.5t29.5 -169.5q0 -92 -27.5 -159t-75.5 -113t-112.5 -72.5t-140.5 -36.5v-183h-246v181q-104 10 -194 41.5t-162 76.5z" />
<glyph unicode="%" horiz-adv-x="1679" d="M92 1100q0 170 87 262t231 92q143 0 230 -92t87 -262t-87 -262.5t-230 -92.5t-230.5 92.5t-87.5 262.5zM217 0l959 1434h284l-958 -1434h-285zM317 1100q0 -59 21 -99t72 -40t71.5 39.5t20.5 99.5q0 57 -20.5 98t-71.5 41t-72 -41t-21 -98zM952 334q0 170 87 262t231 92 q143 0 230 -92t87 -262t-87 -262t-230 -92t-230.5 92t-87.5 262zM1178 334q0 -59 20.5 -99t71.5 -40t71.5 39.5t20.5 99.5q0 57 -20.5 98t-71.5 41t-71.5 -41t-20.5 -98z" />
<glyph unicode="&#x26;" horiz-adv-x="1456" d="M92 367q0 145 72 252.5t219 193.5q-61 94 -85 167t-24 144q0 162 99.5 246t265.5 84q152 0 252 -64.5t129 -193.5l-236 -70q-20 113 -139 113q-53 0 -89 -27.5t-36 -85.5q0 -59 35 -119.5t94 -140.5l258 -342l148 350h319v-215h-145l-78 -184q-20 -47 -39.5 -89 t-42.5 -79q41 -53 78 -82.5t80 -29.5q47 0 112 49l76 -205q-45 -27 -99 -43t-114 -16q-72 0 -144.5 28.5t-142.5 100.5q-74 -66 -168 -97.5t-219 -31.5q-119 0 -201.5 34.5t-135 91t-76 125t-23.5 136.5zM338 387q0 -29 8 -61.5t29.5 -62.5t60 -49t99.5 -19q74 0 131 27.5 t102 74.5l-254 338q-86 -47 -131 -105.5t-45 -142.5z" />
<glyph unicode="'" horiz-adv-x="368" d="M61 1274v160h246v-160l-20 -311h-205z" />
<glyph unicode="(" horiz-adv-x="593" d="M102 625q0 156 14.5 280.5t45.5 226t80 181.5t118 141l211 -111q-61 -55 -104 -122.5t-69.5 -153.5t-38 -195.5t-11.5 -246.5t11.5 -247t38 -196t69.5 -153.5t104 -122.5l-211 -111q-70 61 -118.5 141t-79.5 181.5t-45.5 226.5t-14.5 281z" />
<glyph unicode=")" horiz-adv-x="593" d="M23 -94q61 55 104 122.5t69.5 153.5t38 195.5t11.5 247.5q0 137 -11.5 246.5t-38 195.5t-69.5 153.5t-104 122.5l210 111q70 -61 119 -141t80 -181.5t45.5 -226t14.5 -280.5t-14.5 -281t-45.5 -226.5t-80 -181t-119 -141.5z" />
<glyph unicode="*" horiz-adv-x="802" d="M41 1108l86 221l168 -76l-10 181h235l-10 -181l166 76l86 -221l-172 -55l108 -129l-190 -142l-107 162l-104 -162l-191 142l107 129z" />
<glyph unicode="+" horiz-adv-x="942" d="M61 532v246h287v287h246v-287h287v-246h-287v-286h-246v286h-287z" />
<glyph unicode="," horiz-adv-x="378" d="M55 -242q47 59 72 114.5t33 127.5h-78v215h215v-149q0 -111 -26.5 -186t-80.5 -146z" />
<glyph unicode="-" horiz-adv-x="604" d="M61 416v215h482v-215h-482z" />
<glyph unicode="." horiz-adv-x="378" d="M82 0v215h215v-215h-215z" />
<glyph unicode="/" horiz-adv-x="985" d="M0 -205l719 1639h266l-719 -1639h-266z" />
<glyph unicode="0" horiz-adv-x="1208" d="M61 717q0 190 29 329.5t93.5 229.5t168 134t252.5 44q150 0 253.5 -44t168 -134t93 -229.5t28.5 -329.5t-28.5 -329.5t-93 -229.5t-168 -134t-253.5 -44t-253 44t-167.5 134t-93.5 229t-29 330zM307 717q0 -123 13.5 -216t46 -156.5t90 -96.5t147.5 -33q88 0 146.5 33 t91 96.5t46 156.5t13.5 216q0 127 -13.5 224t-46 163.5t-91 100.5t-146.5 34q-90 0 -147.5 -34t-90 -100.5t-46 -163.5t-13.5 -224z" />
<glyph unicode="1" horiz-adv-x="1208" d="M166 1247l452 207h136v-1239h286v-215h-819v215h287v938l-260 -119z" />
<glyph unicode="2" horiz-adv-x="1208" d="M78 0v174l448 463q72 76 127.5 135t93 110.5t57 98.5t19.5 96q0 43 -17.5 73t-48 50.5t-71.5 29.5t-88 9q-111 0 -173.5 -52t-68.5 -169l-245 53q8 98 50 171t106.5 120t149.5 69.5t183 22.5q104 0 191.5 -24.5t148.5 -72.5t95 -118t34 -160q0 -84 -27.5 -156.5t-78 -145 t-124 -150.5t-165.5 -172l-213 -219h667v-236h-1050z" />
<glyph unicode="3" horiz-adv-x="1208" d="M80 391l246 53q8 -115 81.5 -182t202.5 -67q119 0 196 59t77 176q0 96 -76 154.5t-258 58.5h-184v215h198q86 0 139.5 17.5t84 47t42 68.5t11.5 82q0 45 -19.5 77t-51.5 51.5t-76 28.5t-93 9q-92 0 -158.5 -38t-76.5 -120l-246 43q12 82 55 144.5t107.5 103.5t146.5 61.5 t172 20.5q98 0 186 -21.5t155 -64.5t105.5 -108.5t38.5 -153.5q0 -98 -38.5 -188.5t-137.5 -155.5q117 -53 168 -137t51 -199q0 -113 -38.5 -197t-108.5 -139t-165 -82.5t-206 -27.5q-102 0 -194 25.5t-163 76.5t-117 129t-56 180z" />
<glyph unicode="4" horiz-adv-x="1208" d="M51 236v167l672 1051l211 -108l-574 -895h357v403h246v-403h194v-215h-194v-236h-246v236h-666z" />
<glyph unicode="5" horiz-adv-x="1208" d="M80 403l246 68q10 -129 85.5 -202.5t192.5 -73.5q125 0 201 79.5t76 212.5q0 55 -12.5 102.5t-40 83.5t-74.5 55.5t-117 19.5q-45 0 -98.5 -13.5t-122.5 -50.5h-252l37 750h846v-226h-613l-14 -290q131 45 254 45q96 0 179 -27t143.5 -85t95 -148.5t34.5 -215.5 t-38.5 -219t-108.5 -158.5t-167 -97t-214 -32.5q-90 0 -177 26.5t-157.5 79.5t-120 133t-63.5 184z" />
<glyph unicode="6" horiz-adv-x="1208" d="M92 662q0 178 29 324.5t94.5 249.5t168.5 160.5t255 57.5q139 0 252 -52t180 -163l-203 -145q-43 78 -103 111.5t-126 33.5q-147 0 -215 -104.5t-68 -305.5q143 123 328 123q92 0 170 -29.5t136.5 -87t91 -144.5t32.5 -199q0 -92 -26.5 -184.5t-85 -165t-151.5 -117.5 t-228 -45q-143 0 -245 49t-165 138t-92 215t-29 280zM356 469q0 -49 12.5 -98t41 -88t78.5 -63.5t124 -24.5q72 0 121 25.5t79 66.5t43 92t13 104q0 49 -13 94.5t-42 81t-78 57t-119 21.5q-76 0 -126 -22.5t-79.5 -60.5t-42 -86t-12.5 -99z" />
<glyph unicode="7" horiz-adv-x="1208" d="M70 1198v236h1069v-121l-555 -1313h-267l506 1198h-753z" />
<glyph unicode="8" horiz-adv-x="1208" d="M111 403q0 119 48 212.5t150 148.5q-76 53 -111.5 136t-35.5 183q0 80 25.5 147.5t78.5 117t137 78t201 28.5t201 -28.5t137 -78t79 -117t26 -147.5q0 -100 -37 -183t-113 -136q102 -55 151.5 -148.5t49.5 -212.5q0 -90 -29 -166.5t-88 -134t-152.5 -90t-224.5 -32.5 t-224 32.5t-153.5 90t-88 134t-27.5 166.5zM356 432q0 -102 57.5 -169.5t190.5 -67.5q131 0 189.5 67.5t58.5 169.5q0 45 -14.5 85t-44 69.5t-76.5 47t-113 17.5t-113 -17.5t-76.5 -47t-44 -69.5t-14.5 -85zM408 1059q0 -86 45 -139.5t151 -53.5t151.5 53.5t45.5 139.5 q0 78 -45.5 129t-151.5 51t-151 -51t-45 -129z" />
<glyph unicode="9" horiz-adv-x="1208" d="M92 942q0 92 25.5 184.5t84 165t153 117.5t229.5 45q143 0 244.5 -49t165 -138t92 -215t28.5 -280q0 -178 -28.5 -324.5t-94 -250t-170 -160.5t-254.5 -57q-139 0 -251.5 52t-180.5 163l203 145q43 -78 103.5 -111.5t125.5 -33.5q147 0 215 104t68 305 q-145 -123 -328 -123q-92 0 -170 30t-136 87t-91 143t-33 201zM338 950q0 -49 13.5 -94t42 -81t76.5 -57.5t120 -21.5q76 0 126 22.5t79.5 60.5t42 86t12.5 100q0 49 -12.5 98t-41 88t-78.5 63.5t-124 24.5q-72 0 -121 -25.5t-78.5 -66.5t-43 -92t-13.5 -105z" />
<glyph unicode=":" horiz-adv-x="378" d="M82 0v215h215v-215h-215zM82 809v215h215v-215h-215z" />
<glyph unicode=";" horiz-adv-x="378" d="M55 -242q47 59 72 114.5t33 127.5h-78v215h215v-149q0 -111 -26.5 -186t-80.5 -146zM82 809v215h215v-215h-215z" />
<glyph unicode="&#x3c;" horiz-adv-x="942" d="M102 551v164l736 571v-295l-457 -358l457 -359v-294z" />
<glyph unicode="=" horiz-adv-x="942" d="M61 338v246h820v-246h-820zM61 727v246h820v-246h-820z" />
<glyph unicode="&#x3e;" horiz-adv-x="942" d="M104 -20v294l457 359l-457 358v295l736 -571v-164z" />
<glyph unicode="?" horiz-adv-x="1005" d="M72 1130q10 86 48 147.5t94 100.5t128 57.5t150 18.5q84 0 159.5 -18.5t134 -59.5t93 -107.5t34.5 -162.5q0 -76 -19.5 -135.5t-50 -111.5t-66.5 -100t-69.5 -100.5t-60 -113t-37.5 -135.5h-245q8 88 34.5 156.5t60.5 125t70.5 104.5t67.5 95t50.5 96t19.5 109 q0 43 -14.5 70.5t-38 44t-55.5 22.5t-68 6q-68 0 -119 -38t-56 -132zM365 0v246h245v-246h-245z" />
<glyph unicode="@" horiz-adv-x="1675" d="M102 510q0 164 45.5 301t136.5 236.5t229 154.5t325 55q170 0 306 -46t231 -135t146.5 -218t51.5 -293q0 -80 -16.5 -167t-53.5 -159.5t-98.5 -119.5t-153.5 -47q-78 0 -130 42t-74 99q-47 -72 -112 -106.5t-157 -34.5q-156 0 -248 108.5t-92 306.5q0 238 105.5 351.5 t294.5 113.5q90 0 175 -24.5t177 -71.5v-377q0 -39 3 -75.5t10 -64.5t20.5 -45.5t33.5 -17.5q39 0 70 72t31 217q0 115 -36 207t-103.5 156.5t-164 99.5t-216.5 35q-141 0 -240.5 -42t-161 -117t-90.5 -176t-29 -218t29 -218.5t90.5 -176t160.5 -116.5t241 -42q197 0 331 70 l70 -183q-86 -39 -178 -60.5t-223 -21.5q-186 0 -324.5 55.5t-229.5 155t-136.5 236.5t-45.5 301zM664 487q0 -104 36 -157.5t91 -53.5q174 0 174 326v113q-63 33 -123 33q-90 0 -134 -68t-44 -193z" />
<glyph unicode="A" horiz-adv-x="1390" d="M41 0l524 1434h260l525 -1434h-265l-120 330h-539l-121 -330h-264zM504 545h381l-191 520z" />
<glyph unicode="B" horiz-adv-x="1222" d="M133 0v1434h522q225 0 341 -92.5t116 -278.5q0 -123 -45 -205t-133 -135q98 -41 147 -118t49 -199q0 -213 -114.5 -309.5t-360.5 -96.5h-522zM379 215h244q131 0 196.5 47t65.5 168q0 100 -65.5 139t-194.5 39h-246v-393zM379 823h246q121 0 181 48.5t60 160.5 q0 100 -62.5 143.5t-185.5 43.5h-239v-396z" />
<glyph unicode="C" horiz-adv-x="1392" d="M102 715q0 211 49.5 352t133.5 227t196.5 123t241.5 37q98 0 187 -20.5t164 -66.5t133.5 -122t92.5 -186l-231 -78q-20 78 -55 128t-81 79t-100.5 40t-109.5 11q-78 0 -146.5 -23.5t-118.5 -84t-80 -162t-30 -254.5q0 -154 30 -255.5t80 -159.5t118.5 -81.5t146.5 -23.5 q57 0 112.5 13t101.5 46t82 88t54 139l238 -67q-33 -123 -91.5 -206t-135 -134t-169 -72.5t-192.5 -21.5q-129 0 -241.5 35.5t-196.5 120.5t-133.5 226.5t-49.5 352.5z" />
<glyph unicode="D" horiz-adv-x="1361" d="M133 0v1434h404q229 0 370.5 -49.5t219 -143.5t105.5 -230.5t28 -308.5q0 -154 -30 -282.5t-106.5 -222t-213 -145.5t-347.5 -52h-430zM379 215h188q143 0 230.5 35t135.5 98.5t64.5 153.5t16.5 200q0 127 -14.5 224.5t-64.5 162t-144.5 97.5t-253.5 33h-158v-1004z" />
<glyph unicode="E" horiz-adv-x="1146" d="M133 0v1434h901v-215h-655v-394h625v-215h-625v-395h676v-215h-922z" />
<glyph unicode="F" horiz-adv-x="1044" d="M133 0v1434h819v-215h-573v-414h543v-215h-543v-590h-246z" />
<glyph unicode="G" horiz-adv-x="1421" d="M102 715q0 211 50.5 352t136.5 227t200.5 123t243.5 37q98 0 186.5 -20.5t161 -66.5t129 -122t90.5 -188l-227 -74q-23 74 -55.5 124t-76.5 78.5t-96 41t-112 12.5q-78 0 -148.5 -23.5t-122.5 -84t-83 -162t-31 -254.5q0 -154 31 -255.5t83 -159.5t122.5 -81.5 t148.5 -23.5q70 0 129.5 16t103.5 59t71.5 116t33.5 183h-399v215h647v-168q0 -160 -42 -279.5t-119 -199.5t-185.5 -118.5t-239.5 -38.5q-129 0 -243.5 35.5t-200.5 120.5t-136.5 226.5t-50.5 352.5z" />
<glyph unicode="H" horiz-adv-x="1372" d="M133 0v1434h246v-629h614v629h246v-1434h-246v590h-614v-590h-246z" />
<glyph unicode="I" horiz-adv-x="757" d="M102 0v215h154v1004h-154v215h553v-215h-153v-1004h153v-215h-553z" />
<glyph unicode="J" horiz-adv-x="796" d="M20 109l111 206q86 -100 168 -100q59 0 89 44t30 128v832h-185v215h431v-1059q0 -102 -26 -177t-71 -123t-106.5 -71.5t-134.5 -23.5q-80 0 -161 31.5t-145 97.5z" />
<glyph unicode="K" horiz-adv-x="1294" d="M133 0v1434h246v-635l530 635h314l-494 -590q121 -53 193.5 -140.5t132.5 -228.5l198 -475h-268l-172 412q-23 53 -45.5 92t-50 68.5t-61 51t-76.5 40.5l-201 -242v-422h-246z" />
<glyph unicode="L" horiz-adv-x="1067" d="M133 0v1434h246v-1219h596v-215h-842z" />
<glyph unicode="M" horiz-adv-x="1662" d="M113 0l75 1434h254l389 -1020l390 1020h254l75 -1434h-245l-45 856l-326 -856h-205l-328 856l-43 -856h-245z" />
<glyph unicode="N" horiz-adv-x="1361" d="M133 0v1434h225l625 -949v949h246v-1434h-225l-625 948v-948h-246z" />
<glyph unicode="O" horiz-adv-x="1445" d="M102 717q0 211 44 352t126 227t197 122t254 36t254 -36t195.5 -122t125.5 -227t45 -352t-45 -352.5t-125.5 -227.5t-195.5 -121.5t-254 -35.5t-254 35.5t-197 121.5t-126 227.5t-44 352.5zM348 717q0 -154 26.5 -255.5t76 -160.5t119 -82.5t153.5 -23.5t153.5 23.5 t118.5 82.5t76 160.5t27 255.5t-27 255t-76 160.5t-118.5 83t-153.5 23.5t-153.5 -23.5t-119 -83t-76 -161t-26.5 -254.5z" />
<glyph unicode="P" horiz-adv-x="1181" d="M133 0v1434h451q244 0 369.5 -105.5t125.5 -324.5q0 -246 -126 -353.5t-367 -107.5h-207v-543h-246zM379 758h207q61 0 107 11t78 39t47.5 76t15.5 120q0 127 -62.5 171t-185.5 44h-207v-461z" />
<glyph unicode="Q" horiz-adv-x="1445" d="M102 717q0 211 44 352t126 227t197 122t254 36t254 -36t195.5 -122t125.5 -227t45 -352q0 -156 -24.5 -273.5t-71.5 -202.5t-113.5 -139.5t-148.5 -83.5q70 -35 151 -42t201 -7l-80 -215q-115 0 -201.5 10.5t-157.5 37t-131 70.5t-120 112q-125 8 -225 50t-171 129 t-110 222t-39 332zM348 717q0 -154 26.5 -255.5t76 -160.5t119 -82.5t153.5 -23.5t153.5 23.5t118.5 82.5t76 160.5t27 255.5t-27 255t-76 160.5t-118.5 83t-153.5 23.5t-153.5 -23.5t-119 -83t-76 -161t-26.5 -254.5z" />
<glyph unicode="R" horiz-adv-x="1185" d="M133 0v1434h473q233 0 353 -106.5t120 -299.5q0 -344 -303 -414l359 -614h-281l-348 596h-127v-596h-246zM379 811h227q117 0 172.5 45t55.5 166q0 92 -55.5 144.5t-172.5 52.5h-227v-408z" />
<glyph unicode="S" horiz-adv-x="1232" d="M92 119l96 205q55 -35 103.5 -59.5t96.5 -40t100.5 -22.5t115.5 -7q61 0 112.5 10t88.5 34.5t58.5 64.5t21.5 99q0 66 -33 105t-85 62.5t-120.5 39t-139.5 35t-138.5 46t-119.5 74.5t-85 123t-33 187q0 98 38 169t103.5 118t153.5 69.5t188 22.5q147 0 268.5 -32.5 t215.5 -80.5l-82 -202q-74 39 -174.5 69.5t-227.5 30.5q-100 0 -168.5 -40t-68.5 -124q0 -72 32.5 -114.5t85 -68.5t120 -42t138 -33.5t139.5 -42t121 -70t84.5 -115.5t32.5 -179q0 -123 -40.5 -205t-112.5 -132t-167 -71.5t-204 -21.5q-150 0 -280.5 39.5t-233.5 99.5z" />
<glyph unicode="T" horiz-adv-x="1167" d="M72 1219v215h1024v-215h-389v-1219h-246v1219h-389z" />
<glyph unicode="U" horiz-adv-x="1392" d="M133 459v975h246v-975q0 -74 26.5 -124t71.5 -82t102.5 -45t116.5 -13t116.5 13t101.5 45t72 82t28 124v975h246v-975q0 -133 -48.5 -224.5t-128 -147.5t-181 -81.5t-206.5 -25.5q-106 0 -207.5 25.5t-180.5 82.5t-127 148.5t-48 222.5z" />
<glyph unicode="V" horiz-adv-x="1376" d="M41 1434h262l385 -1014l385 1014h262l-544 -1434h-205z" />
<glyph unicode="W" horiz-adv-x="2052" d="M41 1434h256l299 -969l299 969h262l299 -969l299 969h256l-442 -1434h-226l-317 1028l-317 -1028h-226z" />
<glyph unicode="X" horiz-adv-x="1318" d="M41 0l473 737l-446 697h290l301 -471l302 471h290l-446 -697l473 -737h-291l-328 510l-327 -510h-291z" />
<glyph unicode="Y" horiz-adv-x="1204" d="M41 1434h276l285 -529l285 529h276l-438 -809v-625h-246v625z" />
<glyph unicode="Z" horiz-adv-x="1261" d="M92 0v119l688 1089h-657v226h1016v-119l-690 -1090h720v-225h-1077z" />
<glyph unicode="[" horiz-adv-x="593" d="M113 -205v1639h409v-215h-164v-1209h164v-215h-409z" />
<glyph unicode="\" horiz-adv-x="985" d="M0 1434h266l719 -1639h-266z" />
<glyph unicode="]" horiz-adv-x="593" d="M72 10h164v1209h-164v215h409v-1639h-409v215z" />
<glyph unicode="^" horiz-adv-x="1107" d="M20 819l422 615h224l421 -615h-286l-248 359l-246 -359h-287z" />
<glyph unicode="_" horiz-adv-x="1003" d="M61 0h881v-215h-881v215z" />
<glyph unicode="`" horiz-adv-x="417" d="M20 1339l181 156l196 -332l-63 -57z" />
<glyph unicode="a" horiz-adv-x="1062" d="M61 303q0 168 116 247t339 79q39 0 80 -4t88 -13v74q0 74 -46 108.5t-114 34.5q-59 0 -100 -26.5t-51 -73.5l-264 33q12 68 49 121t92 89t125.5 54t150.5 18q82 0 156 -21.5t129 -64.5t87 -108.5t32 -155.5v-329q0 -102 4 -188.5t18 -176.5h-247q-10 29 -13.5 56.5 t-7.5 60.5q-57 -70 -135 -103.5t-160 -33.5q-158 0 -243 81.5t-85 241.5zM307 303q0 -57 35 -82.5t96 -25.5q41 0 84 15t79 45t59.5 73t23.5 96q-47 4 -90 7t-78 3q-111 0 -160 -32.5t-49 -98.5z" />
<glyph unicode="b" horiz-adv-x="1173" d="M111 0q12 92 17 180t5 193v1122h246v-598q47 68 118.5 107.5t176.5 39.5q84 0 156.5 -30.5t126 -94t84 -160.5t30.5 -229q0 -139 -31.5 -242.5t-88 -172t-136.5 -102t-176 -33.5q-80 0 -150.5 32.5t-126.5 98.5q-12 -59 -30 -111h-221zM379 319q51 -61 102 -92.5 t119 -31.5q104 0 164.5 88t60.5 247q0 154 -57 226.5t-150 72.5q-102 0 -170.5 -94t-68.5 -280v-136z" />
<glyph unicode="c" horiz-adv-x="1075" d="M102 512q0 119 31 217t92.5 169t154.5 108.5t216 37.5q160 0 268.5 -61t165.5 -172l-213 -131q-37 78 -94 113.5t-127 35.5q-127 0 -187.5 -86t-60.5 -231t60.5 -231t187.5 -86q72 0 131 36.5t92 120.5l225 -102q-53 -127 -164.5 -198.5t-283.5 -71.5q-123 0 -216 37.5 t-154.5 108.5t-92.5 168t-31 218z" />
<glyph unicode="d" horiz-adv-x="1173" d="M102 494q0 139 31 242.5t88.5 172t137 102t176.5 33.5q72 0 139 -28.5t121 -85.5v565h245v-1122q0 -104 5.5 -192.5t17.5 -180.5h-221q-25 63 -37 135q-59 -76 -136 -115.5t-169 -39.5q-84 0 -157 30.5t-126 94t-84 160.5t-31 229zM348 494q0 -154 57.5 -226.5 t149.5 -72.5q102 0 171 94t69 280v136q-51 61 -102.5 92.5t-119.5 31.5q-104 0 -164.5 -88t-60.5 -247z" />
<glyph unicode="e" horiz-adv-x="1161" d="M102 512q0 119 31 217t93.5 169t154.5 108.5t215 37.5q117 0 204 -36.5t144 -102t86 -157t29 -197.5v-133h-705q23 -119 97.5 -171t197.5 -52q72 0 150 22.5t151 63.5l82 -201q-188 -100 -383 -100q-119 0 -219 32.5t-173 99t-114 167t-41 233.5zM360 633h451 q-8 98 -63.5 147t-151.5 49q-98 0 -155.5 -52t-80.5 -144z" />
<glyph unicode="f" horiz-adv-x="757" d="M41 809v215h143v154q0 166 87 252t241 86q80 0 184 -29l-55 -213q-57 26 -103 26h-3q-45 0 -75 -26.5t-30 -91.5v-158h266v-215h-266v-809h-246v809h-143z" />
<glyph unicode="g" horiz-adv-x="1097" d="M82 -317l92 196q51 -29 94 -47t85 -28.5t85 -14.5t92 -4q106 0 170 29.5t64 95.5q0 39 -22.5 64.5t-86.5 25.5h-477v100l98 240q-88 47 -129 131t-41 195q0 84 25 153.5t76 119.5t129 77.5t186 27.5q47 0 88 -5t76 -15h391v-195h-166q29 -70 29 -163q0 -84 -24.5 -154 t-76 -120t-130 -77.5t-187.5 -27.5h-18l-39 -92h219q92 0 154.5 -20.5t100.5 -57.5t54.5 -87t16.5 -112q0 -94 -36 -159.5t-100.5 -107.5t-151.5 -61.5t-192 -19.5q-76 0 -138 7t-115.5 20.5t-101.5 35t-93 50.5zM352 666q0 -74 40 -119t130 -45q92 0 132 45t40 119 q0 76 -40 119.5t-132 43.5q-90 0 -130 -44t-40 -119z" />
<glyph unicode="h" horiz-adv-x="1134" d="M133 0v1495h246v-584q59 68 131 100.5t168 32.5q154 0 238.5 -92t84.5 -288v-664h-245v657q0 90 -45 131t-119 41q-94 0 -153.5 -80.5t-59.5 -259.5v-489h-246z" />
<glyph unicode="i" horiz-adv-x="552" d="M51 809v215h246q72 0 97.5 -19.5t25.5 -86.5v-918h-246v809h-123zM174 1188v246h246v-246h-246z" />
<glyph unicode="j" horiz-adv-x="552" d="M51 -305q37 49 60.5 88t38 79t19.5 86t5 107v754h-123v215h246q72 0 97.5 -19.5t25.5 -86.5v-852q0 -80 -6 -143.5t-22.5 -122t-47.5 -114t-80 -116.5zM174 1188v246h246v-246h-246z" />
<glyph unicode="k" horiz-adv-x="1112" d="M133 0v1495h246v-850l356 379h324l-352 -375q35 -14 63.5 -34.5t53 -50t46 -70.5t45.5 -97l166 -397h-268l-121 289q-35 80 -66.5 121t-82.5 63l-164 -174v-299h-246z" />
<glyph unicode="l" horiz-adv-x="595" d="M133 229v1266h246v-1206q0 -45 19.5 -64.5t47.5 -19.5q31 0 72 20l37 -213q-93 -32 -179 -32h-5q-49 0 -93.5 13t-76 43t-50 77t-18.5 116z" />
<glyph unicode="m" horiz-adv-x="1708" d="M133 0v1024h246v-115q88 135 246 135q92 0 163.5 -43t110.5 -122q53 82 135 123.5t180 41.5q80 0 145.5 -22.5t114 -66.5t75 -111.5t26.5 -157.5v-686h-246v690q0 72 -45 105.5t-98 33.5q-98 0 -153.5 -73.5t-55.5 -208.5v-547h-246v680q0 78 -43 113.5t-102 35.5 q-88 0 -147.5 -73.5t-59.5 -210.5v-545h-246z" />
<glyph unicode="n" horiz-adv-x="1134" d="M133 0v1024h246v-113q59 68 131 100.5t168 32.5q154 0 238.5 -92t84.5 -288v-664h-245v657q0 90 -45 131t-119 41q-94 0 -153.5 -79.5t-59.5 -257.5v-492h-246z" />
<glyph unicode="o" horiz-adv-x="1191" d="M102 512q0 119 31 217t92.5 169t154.5 108.5t216 37.5t216 -37.5t154.5 -108.5t92.5 -169t31 -217q0 -121 -31 -218t-92.5 -168t-154.5 -108.5t-216 -37.5t-216 37.5t-154.5 108.5t-92.5 168t-31 218zM348 512q0 -145 60.5 -231t187.5 -86t187.5 86t60.5 231t-60.5 231 t-187.5 86t-187.5 -86t-60.5 -231z" />
<glyph unicode="p" horiz-adv-x="1173" d="M133 -410v1434h246v-127q47 68 118.5 107.5t176.5 39.5q84 0 156.5 -30.5t126 -94t84 -160.5t30.5 -229q0 -139 -31.5 -242.5t-88 -172t-136.5 -102t-176 -33.5q-74 0 -140.5 27.5t-119.5 84.5v-502h-246zM379 319q51 -61 102 -92.5t119 -31.5q104 0 164.5 88t60.5 247 q0 154 -57 226.5t-150 72.5q-102 0 -170.5 -94t-68.5 -280v-136z" />
<glyph unicode="q" horiz-adv-x="1173" d="M102 494q0 139 31 242.5t88.5 172t137 102t176.5 33.5q72 0 139 -28.5t121 -85.5v94h245v-1434h-245v533q-41 -49 -115 -96t-180 -47q-84 0 -157 30.5t-126 94t-84 160.5t-31 229zM348 494q0 -154 57.5 -226.5t149.5 -72.5q102 0 171 94t69 280v136q-51 61 -102.5 92.5 t-119.5 31.5q-104 0 -164.5 -88t-60.5 -247z" />
<glyph unicode="r" horiz-adv-x="745" d="M133 0v1024h246v-104q39 66 91 95t118 29q57 0 117 -20l-43 -236q-61 20 -111 21q-98 0 -135 -72.5t-37 -201.5v-535h-246z" />
<glyph unicode="s" horiz-adv-x="987" d="M72 111l123 196q74 -53 145.5 -82.5t146.5 -29.5q31 0 59.5 4t51.5 16t37 31.5t14 50.5q0 45 -40 68.5t-99 41t-128 37t-128 56.5t-99 97t-40 163q0 74 32.5 127t88 89t127 52t149.5 16q98 0 193.5 -23.5t166.5 -64.5l-98 -204q-66 39 -128 58t-134 19q-59 0 -105.5 -15 t-46.5 -60q0 -47 40 -71t99.5 -41t128 -34.5t128 -53.5t99.5 -96.5t40 -160.5q0 -84 -33 -144.5t-90 -99.5t-132 -56t-159 -17q-121 0 -215 30.5t-194 100.5z" />
<glyph unicode="t" horiz-adv-x="757" d="M41 809v215h143v328h246v-328h266v-215h-266v-455q0 -88 29.5 -123.5t85.5 -35.5q61 0 133 43l53 -205q-119 -53 -229 -53q-72 0 -131.5 19t-100.5 62t-63.5 112t-22.5 167v469h-143z" />
<glyph unicode="u" horiz-adv-x="1134" d="M133 362v662h246v-651q0 -92 43 -135t115 -43q98 0 158.5 85t60.5 242v502h245v-651q0 -104 5.5 -192.5t17.5 -180.5h-244q-22 61 -24 127q-45 -72 -117 -109.5t-162 -37.5q-160 0 -252 89t-92 293z" />
<glyph unicode="v" horiz-adv-x="1073" d="M31 1024h264l242 -616l241 616h264l-401 -1024h-209z" />
<glyph unicode="w" horiz-adv-x="1456" d="M31 1024h264l149 -510l166 510h236l166 -510l149 510h264l-303 -1024h-217l-178 600l-176 -600h-217z" />
<glyph unicode="x" horiz-adv-x="1052" d="M31 0l346 526l-326 498h297l178 -272l179 272h296l-327 -498l348 -526h-297l-199 301l-198 -301h-297z" />
<glyph unicode="y" horiz-adv-x="1073" d="M31 1024h266l240 -596l241 596h264l-579 -1434h-264l204 508z" />
<glyph unicode="z" horiz-adv-x="976" d="M61 0v115l465 684h-446v225h817v-115l-467 -684h485v-225h-854z" />
<glyph unicode="{" horiz-adv-x="593" d="M51 526v197q37 10 60.5 23.5t37 33t17.5 47t4 64.5v301q0 68 12.5 114t41 74.5t78.5 41t124 12.5h117v-215h-51q-45 0 -60.5 -17.5t-15.5 -66.5v-256q0 -86 -23.5 -148.5t-89.5 -105.5q66 -43 89.5 -106.5t23.5 -147.5v-256q0 -49 15 -66.5t61 -17.5h51v-215h-117 q-74 0 -124 12t-78.5 41t-41 75t-12.5 113v301q0 37 -4 65t-17.5 47t-37 32.5t-60.5 23.5z" />
<glyph unicode="|" horiz-adv-x="573" d="M164 -225v1781h246v-1781h-246z" />
<glyph unicode="}" horiz-adv-x="593" d="M51 31h51q45 0 60.5 17.5t15.5 66.5v256q0 84 23.5 147.5t89.5 106.5q-66 43 -89.5 105.5t-23.5 148.5v256q0 49 -15.5 66.5t-60.5 17.5h-51v215h117q74 0 124 -12.5t78.5 -41t41 -74.5t12.5 -114v-301q0 -37 4 -64.5t17.5 -47t37 -33t60.5 -23.5v-197 q-37 -10 -60.5 -23.5t-37 -32.5t-17.5 -47t-4 -65v-301q0 -68 -12.5 -113.5t-41 -74.5t-78.5 -41t-124 -12h-117v215z" />
<glyph unicode="~" horiz-adv-x="993" d="M61 532q0 174 62.5 271.5t195.5 97.5q59 0 109.5 -25.5t93.5 -56.5t79 -56.5t65 -25.5t40 29t11 115h215q0 -174 -62.5 -271.5t-195.5 -97.5q-59 0 -109.5 25.5t-93.5 56.5t-79 56.5t-64 25.5q-29 0 -40.5 -29t-11.5 -115h-215z" />
<glyph unicode="&#xa1;" horiz-adv-x="471" d="M113 -246h245v1024h-245v-1024zM113 942h245v246h-245v-246z" />
<glyph unicode="&#xa2;" horiz-adv-x="1204" d="M131 715q0 205 90 343t273 175v201h245v-197q113 -20 193 -77.5t127 -145.5l-213 -131q-37 78 -94.5 113.5t-126.5 35.5q-127 0 -187.5 -86t-60.5 -231t60.5 -231.5t187.5 -86.5q72 0 131 37t92 121l225 -102q-45 -104 -128 -172t-206 -91v-190h-245v195 q-182 39 -272.5 176t-90.5 344z" />
<glyph unicode="&#xa3;" horiz-adv-x="1204" d="M70 0v215q82 0 135 14.5t83.5 46t42 85t11.5 131.5v90h-229v215h229v280q0 94 27.5 165t78 118t120 70.5t153.5 23.5q131 0 228.5 -62.5t125.5 -191.5l-203 -84q-23 123 -147 123q-66 0 -101.5 -40t-35.5 -126v-276h332v-215h-332v-84q0 -102 -15.5 -165t-54.5 -118h617 v-215h-1065z" />
<glyph unicode="&#xa5;" horiz-adv-x="1204" d="M41 1434h276l285 -529l285 529h276l-334 -617h220v-215h-324v-102h324v-215h-324v-285h-246v285h-323v215h323v102h-323v215h219z" />
<glyph unicode="&#xa6;" horiz-adv-x="573" d="M164 -225v788h246v-788h-246zM164 768v788h246v-788h-246z" />
<glyph unicode="&#xa7;" horiz-adv-x="989" d="M82 713q0 90 28.5 158.5t84.5 121.5q-14 35 -22.5 73t-8.5 85q0 80 29.5 137.5t81 94t120 54t146.5 17.5q98 0 191 -23.5t167 -64.5l-90 -213q-115 86 -256 86q-63 0 -103 -27.5t-40 -85.5q0 -55 36.5 -96t92 -76.5t120 -71.5t120 -83t92 -110.5t36.5 -151.5 q0 -92 -28.5 -160t-85.5 -123q33 -72 32 -156q0 -80 -29.5 -137t-80.5 -94t-120 -54.5t-146 -17.5q-98 0 -191.5 23.5t-167.5 64.5l90 213q115 -86 256 -86q63 0 103.5 28t40.5 85q0 55 -37 96t-92.5 77t-120 71.5t-119.5 83t-92 111t-37 151.5zM328 727q0 -49 28.5 -86 t74.5 -69.5t101.5 -65.5t108.5 -72q20 41 21 88q0 49 -29 86t-75 70t-101.5 64.5t-108.5 72.5q-20 -35 -20 -88z" />
<glyph unicode="&#xa8;" horiz-adv-x="675" d="M41 1178v225h225v-225h-225zM410 1178v225h225v-225h-225z" />
<glyph unicode="&#xaa;" horiz-adv-x="745" d="M33 944q0 63 26.5 111.5t71.5 80t106.5 48t131.5 16.5q61 0 116 -14q0 49 -32.5 76.5t-85.5 27.5q-100 0 -121 -73l-183 49q27 96 110 142t204 46q63 0 120.5 -16.5t100.5 -49t67.5 -82t24.5 -114.5v-211q0 -66 2 -125t10 -119h-204q-6 25 -8.5 50.5t-4.5 54.5 q-31 -63 -87 -94t-130 -31q-49 0 -91 14t-74.5 43t-51 71t-18.5 99zM238 956q0 -86 81 -86q35 0 65 14.5t52.5 39t35.5 55t13 63.5q-23 4 -55.5 9.5t-64.5 5.5q-57 0 -92 -28t-35 -73z" />
<glyph unicode="&#xab;" horiz-adv-x="1036" d="M82 408v208l436 420v-325l-205 -199l205 -199v-325zM518 408v208l436 420v-325l-204 -199l204 -199v-325z" />
<glyph unicode="&#xac;" horiz-adv-x="942" d="M72 532v226h798v-422h-245v196h-553z" />
<glyph unicode="&#xad;" horiz-adv-x="604" d="M61 416v215h482v-215h-482z" />
<glyph unicode="&#xaf;" horiz-adv-x="675" d="M41 1178v204h594v-204h-594z" />
<glyph unicode="&#xb0;" horiz-adv-x="659" d="M61 1184q0 127 62.5 198.5t206.5 71.5q143 0 205.5 -71.5t62.5 -198.5t-62.5 -199t-205.5 -72t-206 72t-63 199zM236 1184q0 -45 21.5 -68.5t72.5 -23.5t72.5 23.5t21.5 68.5t-21.5 70.5t-72.5 25.5t-72.5 -25.5t-21.5 -70.5z" />
<glyph unicode="&#xb1;" horiz-adv-x="942" d="M61 0v246h820v-246h-820zM61 655v246h287v287h246v-287h287v-246h-287v-286h-246v286h-287z" />
<glyph unicode="&#xb2;" horiz-adv-x="675" d="M37 922v139l215 219q72 74 108.5 119t36.5 92q0 66 -75 65q-39 0 -55.5 -21.5t-22.5 -55.5l-197 47q20 88 93 141t184 53q119 0 198.5 -58t79.5 -179q0 -43 -9 -78t-29.5 -70t-52.5 -71.5t-77 -81.5l-76 -76h279v-184h-600z" />
<glyph unicode="&#xb3;" horiz-adv-x="675" d="M31 1126l184 50q4 -53 34 -82t75 -29q49 0 82.5 22.5t33.5 69.5q0 35 -29.5 64.5t-95.5 29.5h-116v164h120q53 0 73 24.5t20 51.5q0 35 -22.5 50t-61.5 15q-43 0 -66.5 -19t-28.5 -54l-184 41q8 49 36 86t68 61.5t88 36.5t99 12q143 0 209.5 -60.5t66.5 -139.5 q0 -109 -88 -177q61 -33 89 -81t28 -109q0 -63 -24.5 -110.5t-65.5 -79t-97.5 -47t-119.5 -15.5q-117 0 -202 56.5t-105 168.5z" />
<glyph unicode="&#xb4;" horiz-adv-x="417" d="M20 1163l197 332l180 -156l-313 -233z" />
<glyph unicode="&#xb5;" horiz-adv-x="1134" d="M133 -410v1434h246v-651q0 -92 43 -135t115 -43q98 0 158.5 85t60.5 242v502h245v-651q0 -104 5.5 -192.5t17.5 -180.5h-244q-22 61 -24 127q-45 -72 -117 -109.5t-162 -37.5q-47 0 -98 10v-400h-246z" />
<glyph unicode="&#xb6;" horiz-adv-x="1245" d="M61 985q0 86 20.5 167t73 143.5t140.5 100.5t223 38h604v-1639h-245v1424h-113v-1424h-246v744q-135 0 -223 38.5t-140.5 102t-73 143.5t-20.5 162z" />
<glyph unicode="&#xb7;" horiz-adv-x="378" d="M82 539v215h215v-215h-215z" />
<glyph unicode="&#xb8;" horiz-adv-x="475" d="M20 -397l41 147q43 -16 80 -21t64 -5q55 0 55 28q0 23 -21.5 30t-56.5 7h-110l45 211h174l-17 -82q88 -10 124 -53t36 -101q0 -53 -18.5 -89.5t-50 -59.5t-74.5 -34t-90 -11q-92 0 -181 33z" />
<glyph unicode="&#xb9;" horiz-adv-x="675" d="M35 1618l225 102h184v-624h158v-174h-520v174h158v422l-138 -62z" />
<glyph unicode="&#xba;" horiz-adv-x="835" d="M72 1085q0 166 84 267.5t262 101.5t262 -101.5t84 -267.5t-84 -267t-262 -101t-262 101.5t-84 266.5zM276 1085q0 -92 34 -148t108 -56t107.5 56t33.5 148t-33.5 148.5t-107.5 56.5t-108 -56t-34 -149z" />
<glyph unicode="&#xbb;" horiz-adv-x="1036" d="M82 -12v325l203 199l-203 199v325l436 -420v-208zM518 -12v325l203 199l-203 199v325l436 -420v-208z" />
<glyph unicode="&#xbc;" horiz-adv-x="1638" d="M35 1352l225 102h184v-624h158v-174h-520v174h158v422l-138 -62zM295 0l1005 1434h252l-1006 -1434h-251zM983 102v129l363 567l149 -96l-280 -436h115v127h184v-127h102v-164h-102v-102h-184v102h-347z" />
<glyph unicode="&#xbd;" horiz-adv-x="1638" d="M35 1352l225 102h184v-624h158v-174h-520v174h158v422l-138 -62zM220 0l1005 1434h252l-1006 -1434h-251zM1000 0v139l215 219q72 74 108.5 119t36.5 92q0 66 -75 65q-39 0 -55.5 -21.5t-22.5 -55.5l-197 47q20 88 93 141t184 53q119 0 198.5 -58t79.5 -179q0 -43 -9 -78 t-29.5 -70t-52.5 -71.5t-77 -81.5l-76 -76h279v-184h-600z" />
<glyph unicode="&#xbe;" horiz-adv-x="1638" d="M31 860l184 50q4 -53 34 -82t75 -29q49 0 82.5 22.5t33.5 69.5q0 35 -29.5 64.5t-95.5 29.5h-116v164h120q53 0 73 24.5t20 51.5q0 35 -22.5 50t-61.5 15q-43 0 -66.5 -19t-28.5 -54l-184 41q8 49 36 86t68 61.5t88 36.5t99 12q143 0 209.5 -60.5t66.5 -139.5 q0 -109 -88 -177q61 -33 89 -81t28 -109q0 -63 -24.5 -110.5t-65.5 -79t-97.5 -47t-119.5 -15.5q-117 0 -202 56.5t-105 168.5zM283 0l1005 1434h252l-1006 -1434h-251zM983 102v129l363 567l149 -96l-280 -436h115v127h184v-127h102v-164h-102v-102h-184v102h-347z" />
<glyph unicode="&#xbf;" horiz-adv-x="1005" d="M72 82q0 76 19.5 135.5t50 111.5t66.5 100t69.5 100.5t60 113t37.5 135.5h245q-8 -88 -34.5 -156.5t-60.5 -125t-70.5 -104.5t-67.5 -95t-50.5 -96t-19.5 -109q0 -43 14.5 -70.5t38 -44t55.5 -22.5t68 -6q68 0 119 38t56 132l245 -61q-10 -86 -48 -147.5t-94 -100.5 t-128 -57.5t-150 -18.5q-84 0 -159.5 18.5t-134 59.5t-93 107.5t-34.5 162.5zM375 942v246h245v-246h-245z" />
<glyph unicode="&#xc0;" horiz-adv-x="1390" d="M41 0l524 1434h260l525 -1434h-265l-120 330h-539l-121 -330h-264zM493 1749l181 156l196 -332l-63 -57zM504 545h381l-191 520z" />
<glyph unicode="&#xc1;" horiz-adv-x="1390" d="M41 0l524 1434h260l525 -1434h-265l-120 330h-539l-121 -330h-264zM504 545h381l-191 520zM538 1573l197 332l180 -156l-313 -233z" />
<glyph unicode="&#xc2;" horiz-adv-x="1390" d="M41 0l524 1434h260l525 -1434h-265l-120 330h-539l-121 -330h-264zM372 1567l230 297h184l229 -297h-237l-84 109l-84 -109h-238zM504 545h381l-191 520z" />
<glyph unicode="&#xc3;" horiz-adv-x="1390" d="M41 0l524 1434h260l525 -1434h-265l-120 330h-539l-121 -330h-264zM385 1629q10 61 31 103t46.5 66.5t53 35t54.5 10.5q31 0 62.5 -11.5t62 -25t57.5 -24.5t49 -11q35 0 47 72l158 -41q-10 -61 -30.5 -103.5t-46 -67t-53.5 -34.5t-54 -10q-31 0 -63 11t-62.5 24.5 t-58 24.5t-48.5 11q-35 0 -47 -71zM504 545h381l-191 520z" />
<glyph unicode="&#xc4;" horiz-adv-x="1390" d="M41 0l524 1434h260l525 -1434h-265l-120 330h-539l-121 -330h-264zM397 1588v225h225v-225h-225zM504 545h381l-191 520zM766 1588v225h225v-225h-225z" />
<glyph unicode="&#xc5;" horiz-adv-x="1390" d="M41 0l524 1434h260l525 -1434h-265l-120 330h-539l-121 -330h-264zM504 545h381l-191 520zM510 1741q0 90 50 137.5t134 47.5t134.5 -47.5t50.5 -137.5t-50.5 -137t-134.5 -47t-134 47t-50 137zM639 1741q0 -29 15 -42t40 -13t40.5 13.5t15.5 41.5q0 29 -15.5 42 t-40.5 13t-40 -13t-15 -42z" />
<glyph unicode="&#xc6;" horiz-adv-x="1777" d="M41 0l524 1434h1100v-215h-563v-394h532v-215h-532v-395h584v-215h-830v330h-430l-121 -330h-264zM504 545h352v674h-104z" />
<glyph unicode="&#xc7;" horiz-adv-x="1392" d="M102 715q0 211 49.5 352t133.5 227t196.5 123t241.5 37q98 0 187 -20.5t164 -66.5t133.5 -122t92.5 -186l-231 -78q-20 78 -55 128t-81 79t-100.5 40t-109.5 11q-78 0 -146.5 -23.5t-118.5 -84t-80 -162t-30 -254.5q0 -154 30 -255.5t80 -159.5t118.5 -81.5t146.5 -23.5 q57 0 112.5 13t101.5 46t82 88t54 139l238 -67q-29 -111 -80 -190t-117.5 -130t-147.5 -77.5t-169 -32.5l-13 -66q88 -10 124 -53t36 -101q0 -53 -18.5 -89.5t-50 -59.5t-74.5 -34t-90 -11q-92 0 -181 33l41 147q43 -16 80 -21t64 -5q55 0 55 28q0 23 -21.5 30t-56.5 7h-110 l41 197q-111 12 -206 56t-165 130t-110 219t-40 324z" />
<glyph unicode="&#xc8;" horiz-adv-x="1146" d="M133 0v1434h901v-215h-655v-394h625v-215h-625v-395h676v-215h-922zM370 1749l181 156l196 -332l-63 -57z" />
<glyph unicode="&#xc9;" horiz-adv-x="1146" d="M133 0v1434h901v-215h-655v-394h625v-215h-625v-395h676v-215h-922zM415 1573l197 332l180 -156l-313 -233z" />
<glyph unicode="&#xca;" horiz-adv-x="1146" d="M133 0v1434h901v-215h-655v-394h625v-215h-625v-395h676v-215h-922zM276 1567l230 297h184l229 -297h-237l-84 109l-84 -109h-238z" />
<glyph unicode="&#xcb;" horiz-adv-x="1146" d="M133 0v1434h901v-215h-655v-394h625v-215h-625v-395h676v-215h-922zM303 1588v225h225v-225h-225zM672 1588v225h225v-225h-225z" />
<glyph unicode="&#xcc;" horiz-adv-x="757" d="M102 0v215h154v1004h-154v215h553v-215h-153v-1004h153v-215h-553zM180 1749l181 156l196 -332l-63 -57z" />
<glyph unicode="&#xcd;" horiz-adv-x="757" d="M102 0v215h154v1004h-154v215h553v-215h-153v-1004h153v-215h-553zM225 1573l197 332l180 -156l-313 -233z" />
<glyph unicode="&#xce;" horiz-adv-x="757" d="M57 1567l230 297h184l229 -297h-237l-84 109l-84 -109h-238zM102 0v215h154v1004h-154v215h553v-215h-153v-1004h153v-215h-553z" />
<glyph unicode="&#xcf;" horiz-adv-x="757" d="M82 1588v225h225v-225h-225zM102 0v215h154v1004h-154v215h553v-215h-153v-1004h153v-215h-553zM451 1588v225h225v-225h-225z" />
<glyph unicode="&#xd0;" horiz-adv-x="1361" d="M0 608v215h133v611h404q229 0 370.5 -49.5t219 -143.5t105.5 -230.5t28 -308.5q0 -154 -30 -282.5t-106.5 -222t-213 -145.5t-347.5 -52h-430v608h-133zM379 215h188q143 0 230.5 35t135.5 98.5t64.5 153.5t16.5 200q0 127 -14.5 224.5t-64.5 162t-144.5 97.5t-253.5 33 h-158v-396h358v-215h-358v-393z" />
<glyph unicode="&#xd1;" horiz-adv-x="1361" d="M133 0v1434h225l625 -949v949h246v-1434h-225l-625 948v-948h-246zM385 1629q10 61 31 103t46.5 66.5t53 35t54.5 10.5q31 0 62.5 -11.5t62 -25t57.5 -24.5t49 -11q35 0 47 72l158 -41q-10 -61 -30.5 -103.5t-46 -67t-53.5 -34.5t-54 -10q-31 0 -63 11t-62.5 24.5 t-58 24.5t-48.5 11q-35 0 -47 -71z" />
<glyph unicode="&#xd2;" horiz-adv-x="1445" d="M102 717q0 211 44 352t126 227t197 122t254 36t254 -36t195.5 -122t125.5 -227t45 -352t-45 -352.5t-125.5 -227.5t-195.5 -121.5t-254 -35.5t-254 35.5t-197 121.5t-126 227.5t-44 352.5zM348 717q0 -154 26.5 -255.5t76 -160.5t119 -82.5t153.5 -23.5t153.5 23.5 t118.5 82.5t76 160.5t27 255.5t-27 255t-76 160.5t-118.5 83t-153.5 23.5t-153.5 -23.5t-119 -83t-76 -161t-26.5 -254.5zM534 1749l181 156l196 -332l-63 -57z" />
<glyph unicode="&#xd3;" horiz-adv-x="1445" d="M102 717q0 211 44 352t126 227t197 122t254 36t254 -36t195.5 -122t125.5 -227t45 -352t-45 -352.5t-125.5 -227.5t-195.5 -121.5t-254 -35.5t-254 35.5t-197 121.5t-126 227.5t-44 352.5zM348 717q0 -154 26.5 -255.5t76 -160.5t119 -82.5t153.5 -23.5t153.5 23.5 t118.5 82.5t76 160.5t27 255.5t-27 255t-76 160.5t-118.5 83t-153.5 23.5t-153.5 -23.5t-119 -83t-76 -161t-26.5 -254.5zM534 1573l197 332l180 -156l-313 -233z" />
<glyph unicode="&#xd4;" horiz-adv-x="1445" d="M102 717q0 211 44 352t126 227t197 122t254 36t254 -36t195.5 -122t125.5 -227t45 -352t-45 -352.5t-125.5 -227.5t-195.5 -121.5t-254 -35.5t-254 35.5t-197 121.5t-126 227.5t-44 352.5zM348 717q0 -154 26.5 -255.5t76 -160.5t119 -82.5t153.5 -23.5t153.5 23.5 t118.5 82.5t76 160.5t27 255.5t-27 255t-76 160.5t-118.5 83t-153.5 23.5t-153.5 -23.5t-119 -83t-76 -161t-26.5 -254.5zM401 1567l230 297h184l229 -297h-237l-84 109l-84 -109h-238z" />
<glyph unicode="&#xd5;" horiz-adv-x="1445" d="M102 717q0 211 44 352t126 227t197 122t254 36t254 -36t195.5 -122t125.5 -227t45 -352t-45 -352.5t-125.5 -227.5t-195.5 -121.5t-254 -35.5t-254 35.5t-197 121.5t-126 227.5t-44 352.5zM348 717q0 -154 26.5 -255.5t76 -160.5t119 -82.5t153.5 -23.5t153.5 23.5 t118.5 82.5t76 160.5t27 255.5t-27 255t-76 160.5t-118.5 83t-153.5 23.5t-153.5 -23.5t-119 -83t-76 -161t-26.5 -254.5zM413 1629q10 61 31 103t46.5 66.5t53 35t54.5 10.5q31 0 62.5 -11.5t62 -25t57.5 -24.5t49 -11q35 0 47 72l158 -41q-10 -61 -30.5 -103.5t-46 -67 t-53.5 -34.5t-54 -10q-31 0 -63 11t-62.5 24.5t-58 24.5t-48.5 11q-35 0 -47 -71z" />
<glyph unicode="&#xd6;" horiz-adv-x="1445" d="M102 717q0 211 44 352t126 227t197 122t254 36t254 -36t195.5 -122t125.5 -227t45 -352t-45 -352.5t-125.5 -227.5t-195.5 -121.5t-254 -35.5t-254 35.5t-197 121.5t-126 227.5t-44 352.5zM348 717q0 -154 26.5 -255.5t76 -160.5t119 -82.5t153.5 -23.5t153.5 23.5 t118.5 82.5t76 160.5t27 255.5t-27 255t-76 160.5t-118.5 83t-153.5 23.5t-153.5 -23.5t-119 -83t-76 -161t-26.5 -254.5zM426 1588v225h225v-225h-225zM795 1588v225h225v-225h-225z" />
<glyph unicode="&#xd8;" horiz-adv-x="1445" d="M102 717q0 211 44 352t126 227t197 122t254 36q74 0 141.5 -9t126.5 -32l70 123h242l-134 -238q84 -86 129 -227t45 -354q0 -211 -45 -352.5t-125.5 -227.5t-195.5 -121.5t-254 -35.5q-156 0 -270 40l-68 -122h-242l133 237q-84 86 -129 227.5t-45 354.5zM348 717 q0 -117 15.5 -203t44.5 -145l473 845q-72 25 -158 25q-84 0 -153.5 -23.5t-119 -83t-76 -160.5t-26.5 -255zM565 219q35 -14 74 -19t84 -5q84 0 153.5 23.5t118.5 82.5t76 160.5t27 255.5q0 117 -15.5 202t-44.5 144z" />
<glyph unicode="&#xd9;" horiz-adv-x="1392" d="M133 459v975h246v-975q0 -74 26.5 -124t71.5 -82t102.5 -45t116.5 -13t116.5 13t101.5 45t72 82t28 124v975h246v-975q0 -133 -48.5 -224.5t-128 -147.5t-181 -81.5t-206.5 -25.5q-106 0 -207.5 25.5t-180.5 82.5t-127 148.5t-48 222.5zM507 1749l181 156l196 -332 l-63 -57z" />
<glyph unicode="&#xda;" horiz-adv-x="1392" d="M133 459v975h246v-975q0 -74 26.5 -124t71.5 -82t102.5 -45t116.5 -13t116.5 13t101.5 45t72 82t28 124v975h246v-975q0 -133 -48.5 -224.5t-128 -147.5t-181 -81.5t-206.5 -25.5q-106 0 -207.5 25.5t-180.5 82.5t-127 148.5t-48 222.5zM507 1573l197 332l180 -156 l-313 -233z" />
<glyph unicode="&#xdb;" horiz-adv-x="1392" d="M133 459v975h246v-975q0 -74 26.5 -124t71.5 -82t102.5 -45t116.5 -13t116.5 13t101.5 45t72 82t28 124v975h246v-975q0 -133 -48.5 -224.5t-128 -147.5t-181 -81.5t-206.5 -25.5q-106 0 -207.5 25.5t-180.5 82.5t-127 148.5t-48 222.5zM375 1567l230 297h184l229 -297 h-237l-84 109l-84 -109h-238z" />
<glyph unicode="&#xdc;" horiz-adv-x="1392" d="M133 459v975h246v-975q0 -74 26.5 -124t71.5 -82t102.5 -45t116.5 -13t116.5 13t101.5 45t72 82t28 124v975h246v-975q0 -133 -48.5 -224.5t-128 -147.5t-181 -81.5t-206.5 -25.5q-106 0 -207.5 25.5t-180.5 82.5t-127 148.5t-48 222.5zM399 1588v225h225v-225h-225z M768 1588v225h225v-225h-225z" />
<glyph unicode="&#xdd;" horiz-adv-x="1204" d="M41 1434h276l285 -529l285 529h276l-438 -809v-625h-246v625zM415 1573l197 332l180 -156l-313 -233z" />
<glyph unicode="&#xde;" horiz-adv-x="1144" d="M133 0v1434h246v-246h170q242 0 367.5 -112.5t125.5 -358.5t-125.5 -358.5t-367.5 -112.5h-170v-246h-246zM379 461h170q123 0 185.5 55t62.5 201q0 145 -62.5 200.5t-185.5 55.5h-170v-512z" />
<glyph unicode="&#xdf;" horiz-adv-x="1177" d="M133 0v1067q0 129 33 216t91 138.5t139 73t175 21.5q119 0 242 -30t223 -69l-313 -493q84 -47 152.5 -96.5t117.5 -111t76 -137t27 -173.5q0 -92 -24.5 -171t-75 -135.5t-125 -88t-175.5 -31.5q-43 0 -76.5 4t-64.5 13t-62.5 22.5t-70.5 31.5l70 205q57 -29 105 -45 t95 -16q78 0 118 49t40 157q0 68 -20.5 122.5t-61.5 100.5t-105.5 86t-150.5 81v200l186 293q-72 16 -125 16q-90 0 -142 -47t-52 -163v-1090h-246z" />
<glyph unicode="&#xe0;" horiz-adv-x="1062" d="M61 303q0 168 116 247t339 79q39 0 80 -4t88 -13v74q0 74 -46 108.5t-114 34.5q-59 0 -100 -26.5t-51 -73.5l-264 33q12 68 49 121t92 89t125.5 54t150.5 18q82 0 156 -21.5t129 -64.5t87 -108.5t32 -155.5v-329q0 -102 4 -188.5t18 -176.5h-247q-10 29 -13.5 56.5 t-7.5 60.5q-57 -70 -135 -103.5t-160 -33.5q-158 0 -243 81.5t-85 241.5zM307 303q0 -57 35 -82.5t96 -25.5q41 0 84 15t79 45t59.5 73t23.5 96q-47 4 -90 7t-78 3q-111 0 -160 -32.5t-49 -98.5zM337 1339l181 156l196 -332l-63 -57z" />
<glyph unicode="&#xe1;" horiz-adv-x="1062" d="M61 303q0 168 116 247t339 79q39 0 80 -4t88 -13v74q0 74 -46 108.5t-114 34.5q-59 0 -100 -26.5t-51 -73.5l-264 33q12 68 49 121t92 89t125.5 54t150.5 18q82 0 156 -21.5t129 -64.5t87 -108.5t32 -155.5v-329q0 -102 4 -188.5t18 -176.5h-247q-10 29 -13.5 56.5 t-7.5 60.5q-57 -70 -135 -103.5t-160 -33.5q-158 0 -243 81.5t-85 241.5zM307 303q0 -57 35 -82.5t96 -25.5q41 0 84 15t79 45t59.5 73t23.5 96q-47 4 -90 7t-78 3q-111 0 -160 -32.5t-49 -98.5zM342 1163l197 332l180 -156l-313 -233z" />
<glyph unicode="&#xe2;" horiz-adv-x="1062" d="M61 303q0 168 116 247t339 79q39 0 80 -4t88 -13v74q0 74 -46 108.5t-114 34.5q-59 0 -100 -26.5t-51 -73.5l-264 33q12 68 49 121t92 89t125.5 54t150.5 18q82 0 156 -21.5t129 -64.5t87 -108.5t32 -155.5v-329q0 -102 4 -188.5t18 -176.5h-247q-10 29 -13.5 56.5 t-7.5 60.5q-57 -70 -135 -103.5t-160 -33.5q-158 0 -243 81.5t-85 241.5zM207 1157l230 297h184l229 -297h-237l-84 109l-84 -109h-238zM307 303q0 -57 35 -82.5t96 -25.5q41 0 84 15t79 45t59.5 73t23.5 96q-47 4 -90 7t-78 3q-111 0 -160 -32.5t-49 -98.5z" />
<glyph unicode="&#xe3;" horiz-adv-x="1062" d="M61 303q0 168 116 247t339 79q39 0 80 -4t88 -13v74q0 74 -46 108.5t-114 34.5q-59 0 -100 -26.5t-51 -73.5l-264 33q12 68 49 121t92 89t125.5 54t150.5 18q82 0 156 -21.5t129 -64.5t87 -108.5t32 -155.5v-329q0 -102 4 -188.5t18 -176.5h-247q-10 29 -13.5 56.5 t-7.5 60.5q-57 -70 -135 -103.5t-160 -33.5q-158 0 -243 81.5t-85 241.5zM219 1219q10 61 31 103t46.5 66.5t53 35t54.5 10.5q31 0 62.5 -11.5t62 -25t57.5 -24.5t49 -11q35 0 47 72l158 -41q-10 -61 -30.5 -103.5t-46 -67t-53.5 -34.5t-54 -10q-31 0 -63 11t-62.5 24.5 t-58 24.5t-48.5 11q-35 0 -47 -71zM307 303q0 -57 35 -82.5t96 -25.5q41 0 84 15t79 45t59.5 73t23.5 96q-47 4 -90 7t-78 3q-111 0 -160 -32.5t-49 -98.5z" />
<glyph unicode="&#xe4;" horiz-adv-x="1062" d="M61 303q0 168 116 247t339 79q39 0 80 -4t88 -13v74q0 74 -46 108.5t-114 34.5q-59 0 -100 -26.5t-51 -73.5l-264 33q12 68 49 121t92 89t125.5 54t150.5 18q82 0 156 -21.5t129 -64.5t87 -108.5t32 -155.5v-329q0 -102 4 -188.5t18 -176.5h-247q-10 29 -13.5 56.5 t-7.5 60.5q-57 -70 -135 -103.5t-160 -33.5q-158 0 -243 81.5t-85 241.5zM231 1178v225h225v-225h-225zM307 303q0 -57 35 -82.5t96 -25.5q41 0 84 15t79 45t59.5 73t23.5 96q-47 4 -90 7t-78 3q-111 0 -160 -32.5t-49 -98.5zM600 1178v225h225v-225h-225z" />
<glyph unicode="&#xe5;" horiz-adv-x="1062" d="M61 303q0 168 116 247t339 79q39 0 80 -4t88 -13v74q0 74 -46 108.5t-114 34.5q-59 0 -100 -26.5t-51 -73.5l-264 33q12 68 49 121t92 89t125.5 54t150.5 18q82 0 156 -21.5t129 -64.5t87 -108.5t32 -155.5v-329q0 -102 4 -188.5t18 -176.5h-247q-10 29 -13.5 56.5 t-7.5 60.5q-57 -70 -135 -103.5t-160 -33.5q-158 0 -243 81.5t-85 241.5zM307 303q0 -57 35 -82.5t96 -25.5q41 0 84 15t79 45t59.5 73t23.5 96q-47 4 -90 7t-78 3q-111 0 -160 -32.5t-49 -98.5zM344 1331q0 90 50 137.5t134 47.5t134.5 -47.5t50.5 -137.5t-50.5 -137 t-134.5 -47t-134 47t-50 137zM473 1331q0 -29 15 -42t40 -13t40.5 13.5t15.5 41.5q0 29 -15.5 42t-40.5 13t-40 -13t-15 -42z" />
<glyph unicode="&#xe6;" horiz-adv-x="1730" d="M61 303q0 168 116 247t339 79q37 0 77 -4t85 -13q2 23 6 43.5t8 38.5q-16 74 -60 104.5t-108 30.5q-59 0 -100 -26.5t-51 -73.5l-264 33q12 68 49 121t92 89t125.5 54t150.5 18q92 0 173 -26.5t137 -81.5q61 53 143 80.5t186 27.5q117 0 204 -36.5t144.5 -102t86 -157 t28.5 -197.5v-133h-704q23 -119 97.5 -171t197.5 -52q72 0 149.5 22.5t151.5 63.5l82 -201q-188 -100 -383 -100q-137 0 -250 43t-185 133q-45 -57 -95 -92t-100 -53.5t-96.5 -24.5t-82.5 -6q-174 0 -261.5 81.5t-87.5 241.5zM307 303q0 -57 35 -82.5t96 -25.5q37 0 77 13 t75 38.5t59.5 61.5t32.5 81l-6 35q-45 4 -85 7t-75 3q-111 0 -160 -32.5t-49 -98.5zM930 633h450q-8 98 -63.5 147t-151.5 49q-98 0 -155.5 -52t-79.5 -144z" />
<glyph unicode="&#xe7;" horiz-adv-x="1075" d="M102 512q0 119 31 217t92.5 169t154.5 108.5t216 37.5q160 0 268.5 -61t165.5 -172l-213 -131q-37 78 -94 113.5t-127 35.5q-127 0 -187.5 -86t-60.5 -231t60.5 -231t187.5 -86q72 0 131 36.5t92 120.5l225 -102q-47 -113 -140 -181.5t-232 -84.5l-13 -66q88 -10 124 -53 t36 -101q0 -53 -18.5 -89.5t-50 -59.5t-74.5 -34t-90 -11q-92 0 -180 33l40 147q43 -16 80 -21t64 -5q55 0 55 28q0 23 -21.5 30t-56.5 7h-110l41 199q-199 29 -297.5 168t-98.5 356z" />
<glyph unicode="&#xe8;" horiz-adv-x="1161" d="M102 512q0 119 31 217t93.5 169t154.5 108.5t215 37.5q117 0 204 -36.5t144 -102t86 -157t29 -197.5v-133h-705q23 -119 97.5 -171t197.5 -52q72 0 150 22.5t151 63.5l82 -201q-188 -100 -383 -100q-119 0 -219 32.5t-173 99t-114 167t-41 233.5zM360 633h451 q-8 98 -63.5 147t-151.5 49q-98 0 -155.5 -52t-80.5 -144zM407 1339l181 156l196 -332l-63 -57z" />
<glyph unicode="&#xe9;" horiz-adv-x="1161" d="M102 512q0 119 31 217t93.5 169t154.5 108.5t215 37.5q117 0 204 -36.5t144 -102t86 -157t29 -197.5v-133h-705q23 -119 97.5 -171t197.5 -52q72 0 150 22.5t151 63.5l82 -201q-188 -100 -383 -100q-119 0 -219 32.5t-173 99t-114 167t-41 233.5zM360 633h451 q-8 98 -63.5 147t-151.5 49q-98 0 -155.5 -52t-80.5 -144zM409 1163l197 332l180 -156l-313 -233z" />
<glyph unicode="&#xea;" horiz-adv-x="1161" d="M102 512q0 119 31 217t93.5 169t154.5 108.5t215 37.5q117 0 204 -36.5t144 -102t86 -157t29 -197.5v-133h-705q23 -119 97.5 -171t197.5 -52q72 0 150 22.5t151 63.5l82 -201q-188 -100 -383 -100q-119 0 -219 32.5t-173 99t-114 167t-41 233.5zM274 1157l230 297h184 l229 -297h-237l-84 109l-84 -109h-238zM360 633h451q-8 98 -63.5 147t-151.5 49q-98 0 -155.5 -52t-80.5 -144z" />
<glyph unicode="&#xeb;" horiz-adv-x="1161" d="M102 512q0 119 31 217t93.5 169t154.5 108.5t215 37.5q117 0 204 -36.5t144 -102t86 -157t29 -197.5v-133h-705q23 -119 97.5 -171t197.5 -52q72 0 150 22.5t151 63.5l82 -201q-188 -100 -383 -100q-119 0 -219 32.5t-173 99t-114 167t-41 233.5zM299 1178v225h225v-225 h-225zM360 633h451q-8 98 -63.5 147t-151.5 49q-98 0 -155.5 -52t-80.5 -144zM668 1178v225h225v-225h-225z" />
<glyph unicode="&#xec;" horiz-adv-x="552" d="M51 809v215h246q72 0 97.5 -19.5t25.5 -86.5v-918h-246v809h-123zM55 1339l181 156l196 -332l-63 -57z" />
<glyph unicode="&#xed;" horiz-adv-x="552" d="M51 809v215h246q72 0 97.5 -19.5t25.5 -86.5v-918h-246v809h-123zM90 1163l197 332l180 -156l-313 -233z" />
<glyph unicode="&#xee;" horiz-adv-x="552" d="M-47 1157l230 297h184l229 -297h-237l-84 109l-84 -109h-238zM51 809v215h246q72 0 97.5 -19.5t25.5 -86.5v-918h-246v809h-123z" />
<glyph unicode="&#xef;" horiz-adv-x="552" d="M-22 1178v225h225v-225h-225zM51 809v215h246q72 0 97.5 -19.5t25.5 -86.5v-918h-246v809h-123zM347 1178v225h225v-225h-225z" />
<glyph unicode="&#xf0;" horiz-adv-x="1191" d="M102 512q0 119 31 216t88.5 168t137 109.5t178.5 38.5q82 0 168 -26q-25 43 -53.5 85t-63.5 83l-166 -88l-76 143l123 66q-25 23 -50.5 41t-51.5 36l204 132q31 -23 62 -45.5t59 -47.5l180 95l74 -144l-133 -69q129 -147 203 -330.5t74 -392.5q0 -281 -123 -441.5 t-371 -160.5q-123 0 -216 37.5t-154.5 108.5t-92.5 168t-31 218zM348 512q0 -145 60.5 -231t187.5 -86t187.5 86t60.5 231t-60.5 231t-187.5 86t-187.5 -86t-60.5 -231z" />
<glyph unicode="&#xf1;" horiz-adv-x="1114" d="M123 0v1024h246v-113q59 68 131 100.5t168 32.5q154 0 238.5 -92t84.5 -288v-664h-245v657q0 90 -45 131t-119 41q-94 0 -153.5 -79.5t-59.5 -257.5v-492h-246zM239 1219q10 61 31 103t46.5 66.5t53 35t54.5 10.5q31 0 62.5 -11.5t62 -25t57.5 -24.5t49 -11q35 0 47 72 l158 -41q-10 -61 -30.5 -103.5t-46 -67t-53.5 -34.5t-54 -10q-31 0 -63 11t-62.5 24.5t-58 24.5t-48.5 11q-35 0 -47 -71z" />
<glyph unicode="&#xf2;" horiz-adv-x="1191" d="M102 512q0 119 31 217t92.5 169t154.5 108.5t216 37.5t216 -37.5t154.5 -108.5t92.5 -169t31 -217q0 -121 -31 -218t-92.5 -168t-154.5 -108.5t-216 -37.5t-216 37.5t-154.5 108.5t-92.5 168t-31 218zM348 512q0 -145 60.5 -231t187.5 -86t187.5 86t60.5 231t-60.5 231 t-187.5 86t-187.5 -86t-60.5 -231zM407 1339l181 156l196 -332l-63 -57z" />
<glyph unicode="&#xf3;" horiz-adv-x="1191" d="M102 512q0 119 31 217t92.5 169t154.5 108.5t216 37.5t216 -37.5t154.5 -108.5t92.5 -169t31 -217q0 -121 -31 -218t-92.5 -168t-154.5 -108.5t-216 -37.5t-216 37.5t-154.5 108.5t-92.5 168t-31 218zM348 512q0 -145 60.5 -231t187.5 -86t187.5 86t60.5 231t-60.5 231 t-187.5 86t-187.5 -86t-60.5 -231zM407 1163l197 332l180 -156l-313 -233z" />
<glyph unicode="&#xf4;" horiz-adv-x="1191" d="M102 512q0 119 31 217t92.5 169t154.5 108.5t216 37.5t216 -37.5t154.5 -108.5t92.5 -169t31 -217q0 -121 -31 -218t-92.5 -168t-154.5 -108.5t-216 -37.5t-216 37.5t-154.5 108.5t-92.5 168t-31 218zM274 1157l230 297h184l229 -297h-237l-84 109l-84 -109h-238z M348 512q0 -145 60.5 -231t187.5 -86t187.5 86t60.5 231t-60.5 231t-187.5 86t-187.5 -86t-60.5 -231z" />
<glyph unicode="&#xf5;" horiz-adv-x="1191" d="M102 512q0 119 31 217t92.5 169t154.5 108.5t216 37.5t216 -37.5t154.5 -108.5t92.5 -169t31 -217q0 -121 -31 -218t-92.5 -168t-154.5 -108.5t-216 -37.5t-216 37.5t-154.5 108.5t-92.5 168t-31 218zM286 1219q10 61 31 103t46.5 66.5t53 35t54.5 10.5q31 0 62.5 -11.5 t62 -25t57.5 -24.5t49 -11q35 0 47 72l158 -41q-10 -61 -30.5 -103.5t-46 -67t-53.5 -34.5t-54 -10q-31 0 -63 11t-62.5 24.5t-58 24.5t-48.5 11q-35 0 -47 -71zM348 512q0 -145 60.5 -231t187.5 -86t187.5 86t60.5 231t-60.5 231t-187.5 86t-187.5 -86t-60.5 -231z" />
<glyph unicode="&#xf6;" horiz-adv-x="1191" d="M102 512q0 119 31 217t92.5 169t154.5 108.5t216 37.5t216 -37.5t154.5 -108.5t92.5 -169t31 -217q0 -121 -31 -218t-92.5 -168t-154.5 -108.5t-216 -37.5t-216 37.5t-154.5 108.5t-92.5 168t-31 218zM299 1178v225h225v-225h-225zM348 512q0 -145 60.5 -231t187.5 -86 t187.5 86t60.5 231t-60.5 231t-187.5 86t-187.5 -86t-60.5 -231zM668 1178v225h225v-225h-225z" />
<glyph unicode="&#xf8;" horiz-adv-x="1191" d="M102 512q0 119 31 217t92.5 169t154.5 108.5t216 37.5q90 0 170 -22l59 104h224l-111 -200q76 -70 114 -175.5t38 -238.5q0 -121 -31 -218t-92.5 -168t-154.5 -108.5t-216 -37.5q-92 0 -172 22l-57 -104h-224l111 198q-78 72 -115 176.5t-37 239.5zM348 512 q0 -113 33 -184l274 495q-28 6 -59 6q-127 0 -187.5 -86t-60.5 -231zM535 201q27 -6 61 -6q127 0 187.5 86t60.5 231q0 104 -35 184z" />
<glyph unicode="&#xf9;" horiz-adv-x="1134" d="M133 362v662h246v-651q0 -92 43 -135t115 -43q98 0 158.5 85t60.5 242v502h245v-651q0 -104 5.5 -192.5t17.5 -180.5h-244q-22 61 -24 127q-45 -72 -117 -109.5t-162 -37.5q-160 0 -252 89t-92 293zM374 1339l181 156l196 -332l-63 -57z" />
<glyph unicode="&#xfa;" horiz-adv-x="1134" d="M133 362v662h246v-651q0 -92 43 -135t115 -43q98 0 158.5 85t60.5 242v502h245v-651q0 -104 5.5 -192.5t17.5 -180.5h-244q-22 61 -24 127q-45 -72 -117 -109.5t-162 -37.5q-160 0 -252 89t-92 293zM382 1163l197 332l180 -156l-313 -233z" />
<glyph unicode="&#xfb;" horiz-adv-x="1134" d="M133 362v662h246v-651q0 -92 43 -135t115 -43q98 0 158.5 85t60.5 242v502h245v-651q0 -104 5.5 -192.5t17.5 -180.5h-244q-22 61 -24 127q-45 -72 -117 -109.5t-162 -37.5q-160 0 -252 89t-92 293zM243 1157l230 297h184l229 -297h-237l-84 109l-84 -109h-238z" />
<glyph unicode="&#xfc;" horiz-adv-x="1134" d="M133 362v662h246v-651q0 -92 43 -135t115 -43q98 0 158.5 85t60.5 242v502h245v-651q0 -104 5.5 -192.5t17.5 -180.5h-244q-22 61 -24 127q-45 -72 -117 -109.5t-162 -37.5q-160 0 -252 89t-92 293zM268 1178v225h225v-225h-225zM637 1178v225h225v-225h-225z" />
<glyph unicode="&#xfd;" horiz-adv-x="1073" d="M31 1024h266l240 -596l241 596h264l-579 -1434h-264l204 508zM352 1163l197 332l180 -156l-313 -233z" />
<glyph unicode="&#xfe;" horiz-adv-x="1173" d="M133 -410v1905h246v-598q47 68 118.5 107.5t176.5 39.5q84 0 156.5 -30.5t126 -94t84 -160.5t30.5 -229q0 -139 -31.5 -242.5t-88 -172t-136.5 -102t-176 -33.5q-74 0 -140.5 27.5t-119.5 84.5v-502h-246zM379 319q51 -61 102 -92.5t119 -31.5q104 0 164.5 88t60.5 247 q0 154 -57 226.5t-150 72.5q-102 0 -170.5 -94t-68.5 -280v-136z" />
<glyph unicode="&#xff;" horiz-adv-x="1073" d="M31 1024h266l240 -596l241 596h264l-579 -1434h-264l204 508zM242 1178v225h225v-225h-225zM611 1178v225h225v-225h-225z" />
<glyph unicode="&#x100;" horiz-adv-x="1390" d="M41 0l524 1434h260l525 -1434h-265l-120 330h-539l-121 -330h-264zM397 1588v204h594v-204h-594zM504 545h381l-191 520z" />
<glyph unicode="&#x101;" horiz-adv-x="1062" d="M61 303q0 168 116 247t339 79q39 0 80 -4t88 -13v74q0 74 -46 108.5t-114 34.5q-59 0 -100 -26.5t-51 -73.5l-264 33q12 68 49 121t92 89t125.5 54t150.5 18q82 0 156 -21.5t129 -64.5t87 -108.5t32 -155.5v-329q0 -102 4 -188.5t18 -176.5h-247q-10 29 -13.5 56.5 t-7.5 60.5q-57 -70 -135 -103.5t-160 -33.5q-158 0 -243 81.5t-85 241.5zM231 1178v204h594v-204h-594zM307 303q0 -57 35 -82.5t96 -25.5q41 0 84 15t79 45t59.5 73t23.5 96q-47 4 -90 7t-78 3q-111 0 -160 -32.5t-49 -98.5z" />
<glyph unicode="&#x102;" horiz-adv-x="1390" d="M41 0l524 1434h260l525 -1434h-265l-120 330h-539l-121 -330h-264zM444 1792v72h195v-57q0 -29 16.5 -42.5t38.5 -13.5q23 0 39.5 13.5t16.5 42.5v57h194v-72q0 -117 -70.5 -171t-179.5 -54t-179.5 54.5t-70.5 170.5zM504 545h381l-191 520z" />
<glyph unicode="&#x103;" horiz-adv-x="1062" d="M61 303q0 168 116 247t339 79q39 0 80 -4t88 -13v74q0 74 -46 108.5t-114 34.5q-59 0 -100 -26.5t-51 -73.5l-264 33q12 68 49 121t92 89t125.5 54t150.5 18q82 0 156 -21.5t129 -64.5t87 -108.5t32 -155.5v-329q0 -102 4 -188.5t18 -176.5h-247q-10 29 -13.5 56.5 t-7.5 60.5q-57 -70 -135 -103.5t-160 -33.5q-158 0 -243 81.5t-85 241.5zM278 1382v72h195v-57q0 -29 16.5 -42.5t38.5 -13.5q23 0 39.5 13.5t16.5 42.5v57h194v-72q0 -117 -70.5 -171t-179.5 -54t-179.5 54.5t-70.5 170.5zM307 303q0 -57 35 -82.5t96 -25.5q41 0 84 15 t79 45t59.5 73t23.5 96q-47 4 -90 7t-78 3q-111 0 -160 -32.5t-49 -98.5z" />
<glyph unicode="&#x104;" horiz-adv-x="1390" d="M41 0l524 1434h260l525 -1434q-59 -39 -96 -84t-37 -104q0 -37 22.5 -52.5t60.5 -15.5h62l-78 -174h-31q-231 0 -231 192q0 78 36 134.5t107 103.5h-80l-120 330h-539l-121 -330h-264zM504 545h381l-191 520z" />
<glyph unicode="&#x105;" horiz-adv-x="1062" d="M61 303q0 168 116 247t339 79q39 0 80 -4t88 -13v74q0 74 -46 108.5t-114 34.5q-59 0 -100 -26.5t-51 -73.5l-264 33q12 68 49 121t92 89t125.5 54t150.5 18q82 0 156 -21.5t129 -64.5t87 -108.5t32 -155.5v-329q0 -102 4 -188.5t18 -176.5q-59 -39 -96 -84t-37 -104 q0 -37 22.5 -52.5t61.5 -15.5h62l-78 -174h-31q-231 0 -231 192q0 78 35.5 134.5t107.5 103.5h-63q-10 29 -13.5 56.5t-7.5 60.5q-57 -70 -135 -103.5t-160 -33.5q-158 0 -243 81.5t-85 241.5zM307 303q0 -57 35 -82.5t96 -25.5q41 0 84 15t79 45t59.5 73t23.5 96 q-47 4 -90 7t-78 3q-111 0 -160 -32.5t-49 -98.5z" />
<glyph unicode="&#x106;" horiz-adv-x="1392" d="M102 715q0 211 49.5 352t133.5 227t196.5 123t241.5 37q98 0 187 -20.5t164 -66.5t133.5 -122t92.5 -186l-231 -78q-20 78 -55 128t-81 79t-100.5 40t-109.5 11q-78 0 -146.5 -23.5t-118.5 -84t-80 -162t-30 -254.5q0 -154 30 -255.5t80 -159.5t118.5 -81.5t146.5 -23.5 q57 0 112.5 13t101.5 46t82 88t54 139l238 -67q-33 -123 -91.5 -206t-135 -134t-169 -72.5t-192.5 -21.5q-129 0 -241.5 35.5t-196.5 120.5t-133.5 226.5t-49.5 352.5zM542 1573l197 332l180 -156l-313 -233z" />
<glyph unicode="&#x107;" horiz-adv-x="1075" d="M102 512q0 119 31 217t92.5 169t154.5 108.5t216 37.5q160 0 268.5 -61t165.5 -172l-213 -131q-37 78 -94 113.5t-127 35.5q-127 0 -187.5 -86t-60.5 -231t60.5 -231t187.5 -86q72 0 131 36.5t92 120.5l225 -102q-53 -127 -164.5 -198.5t-283.5 -71.5q-123 0 -216 37.5 t-154.5 108.5t-92.5 168t-31 218zM399 1163l197 332l180 -156l-313 -233z" />
<glyph unicode="&#x108;" horiz-adv-x="1392" d="M102 715q0 211 49.5 352t133.5 227t196.5 123t241.5 37q98 0 187 -20.5t164 -66.5t133.5 -122t92.5 -186l-231 -78q-20 78 -55 128t-81 79t-100.5 40t-109.5 11q-78 0 -146.5 -23.5t-118.5 -84t-80 -162t-30 -254.5q0 -154 30 -255.5t80 -159.5t118.5 -81.5t146.5 -23.5 q57 0 112.5 13t101.5 46t82 88t54 139l238 -67q-33 -123 -91.5 -206t-135 -134t-169 -72.5t-192.5 -21.5q-129 0 -241.5 35.5t-196.5 120.5t-133.5 226.5t-49.5 352.5zM397 1567l230 297h184l229 -297h-237l-84 109l-84 -109h-238z" />
<glyph unicode="&#x109;" horiz-adv-x="1075" d="M102 512q0 119 31 217t92.5 169t154.5 108.5t216 37.5q160 0 268.5 -61t165.5 -172l-213 -131q-37 78 -94 113.5t-127 35.5q-127 0 -187.5 -86t-60.5 -231t60.5 -231t187.5 -86q72 0 131 36.5t92 120.5l225 -102q-53 -127 -164.5 -198.5t-283.5 -71.5q-123 0 -216 37.5 t-154.5 108.5t-92.5 168t-31 218zM262 1157l230 297h184l229 -297h-237l-84 109l-84 -109h-238z" />
<glyph unicode="&#x10a;" horiz-adv-x="1392" d="M102 715q0 211 49.5 352t133.5 227t196.5 123t241.5 37q98 0 187 -20.5t164 -66.5t133.5 -122t92.5 -186l-231 -78q-20 78 -55 128t-81 79t-100.5 40t-109.5 11q-78 0 -146.5 -23.5t-118.5 -84t-80 -162t-30 -254.5q0 -154 30 -255.5t80 -159.5t118.5 -81.5t146.5 -23.5 q57 0 112.5 13t101.5 46t82 88t54 139l238 -67q-33 -123 -91.5 -206t-135 -134t-169 -72.5t-192.5 -21.5q-129 0 -241.5 35.5t-196.5 120.5t-133.5 226.5t-49.5 352.5zM606 1588v225h225v-225h-225z" />
<glyph unicode="&#x10b;" horiz-adv-x="1075" d="M102 512q0 119 31 217t92.5 169t154.5 108.5t216 37.5q160 0 268.5 -61t165.5 -172l-213 -131q-37 78 -94 113.5t-127 35.5q-127 0 -187.5 -86t-60.5 -231t60.5 -231t187.5 -86q72 0 131 36.5t92 120.5l225 -102q-53 -127 -164.5 -198.5t-283.5 -71.5q-123 0 -216 37.5 t-154.5 108.5t-92.5 168t-31 218zM471 1178v225h225v-225h-225z" />
<glyph unicode="&#x10c;" horiz-adv-x="1392" d="M102 715q0 211 49.5 352t133.5 227t196.5 123t241.5 37q98 0 187 -20.5t164 -66.5t133.5 -122t92.5 -186l-231 -78q-20 78 -55 128t-81 79t-100.5 40t-109.5 11q-78 0 -146.5 -23.5t-118.5 -84t-80 -162t-30 -254.5q0 -154 30 -255.5t80 -159.5t118.5 -81.5t146.5 -23.5 q57 0 112.5 13t101.5 46t82 88t54 139l238 -67q-33 -123 -91.5 -206t-135 -134t-169 -72.5t-192.5 -21.5q-129 0 -241.5 35.5t-196.5 120.5t-133.5 226.5t-49.5 352.5zM397 1864h238l84 -108l84 108h237l-229 -297h-184z" />
<glyph unicode="&#x10d;" horiz-adv-x="1075" d="M102 512q0 119 31 217t92.5 169t154.5 108.5t216 37.5q160 0 268.5 -61t165.5 -172l-213 -131q-37 78 -94 113.5t-127 35.5q-127 0 -187.5 -86t-60.5 -231t60.5 -231t187.5 -86q72 0 131 36.5t92 120.5l225 -102q-53 -127 -164.5 -198.5t-283.5 -71.5q-123 0 -216 37.5 t-154.5 108.5t-92.5 168t-31 218zM262 1454h238l84 -108l84 108h237l-229 -297h-184z" />
<glyph unicode="&#x10e;" horiz-adv-x="1361" d="M133 0v1434h404q229 0 370.5 -49.5t219 -143.5t105.5 -230.5t28 -308.5q0 -154 -30 -282.5t-106.5 -222t-213 -145.5t-347.5 -52h-430zM295 1864h238l84 -108l84 108h237l-229 -297h-184zM379 215h188q143 0 230.5 35t135.5 98.5t64.5 153.5t16.5 200q0 127 -14.5 224.5 t-64.5 162t-144.5 97.5t-253.5 33h-158v-1004z" />
<glyph unicode="&#x10f;" horiz-adv-x="1419" d="M102 494q0 139 31 242.5t88.5 172t137 102t176.5 33.5q72 0 139 -28.5t121 -85.5v565h245v-1122q0 -104 5.5 -192.5t17.5 -180.5h-221q-25 63 -37 135q-59 -76 -136 -115.5t-169 -39.5q-84 0 -157 30.5t-126 94t-84 160.5t-31 229zM348 494q0 -154 57.5 -226.5 t149.5 -72.5q102 0 171 94t69 280v136q-51 61 -102.5 92.5t-119.5 31.5q-104 0 -164.5 -88t-60.5 -247zM1163 1196v238h256v-107q0 -135 -24.5 -223t-77.5 -162l-137 41q41 53 60.5 104.5t27.5 108.5h-105z" />
<glyph unicode="&#x111;" horiz-adv-x="1173" d="M102 494q0 139 31 242.5t88.5 172t137 102t176.5 33.5q72 0 139 -28.5t121 -85.5v239h-256v215h256v111h245v-111h113v-215h-113v-796q0 -104 5.5 -192.5t17.5 -180.5h-221q-25 63 -37 135q-59 -76 -136 -115.5t-169 -39.5q-84 0 -157 30.5t-126 94t-84 160.5t-31 229z M348 494q0 -154 57.5 -226.5t149.5 -72.5q102 0 171 94t69 280v136q-51 61 -102.5 92.5t-119.5 31.5q-104 0 -164.5 -88t-60.5 -247z" />
<glyph unicode="&#x112;" horiz-adv-x="1146" d="M133 0v1434h901v-215h-655v-394h625v-215h-625v-395h676v-215h-922zM303 1588v204h594v-204h-594z" />
<glyph unicode="&#x113;" horiz-adv-x="1161" d="M102 512q0 119 31 217t93.5 169t154.5 108.5t215 37.5q117 0 204 -36.5t144 -102t86 -157t29 -197.5v-133h-705q23 -119 97.5 -171t197.5 -52q72 0 150 22.5t151 63.5l82 -201q-188 -100 -383 -100q-119 0 -219 32.5t-173 99t-114 167t-41 233.5zM299 1178v204h594v-204 h-594zM360 633h451q-8 98 -63.5 147t-151.5 49q-98 0 -155.5 -52t-80.5 -144z" />
<glyph unicode="&#x114;" horiz-adv-x="1146" d="M133 0v1434h901v-215h-655v-394h625v-215h-625v-395h676v-215h-922zM350 1792v72h195v-57q0 -29 16.5 -42.5t38.5 -13.5q23 0 39.5 13.5t16.5 42.5v57h194v-72q0 -117 -70.5 -171t-179.5 -54t-179.5 54.5t-70.5 170.5z" />
<glyph unicode="&#x115;" horiz-adv-x="1161" d="M102 512q0 119 31 217t93.5 169t154.5 108.5t215 37.5q117 0 204 -36.5t144 -102t86 -157t29 -197.5v-133h-705q23 -119 97.5 -171t197.5 -52q72 0 150 22.5t151 63.5l82 -201q-188 -100 -383 -100q-119 0 -219 32.5t-173 99t-114 167t-41 233.5zM346 1382v72h195v-57 q0 -29 16.5 -42.5t38.5 -13.5q23 0 39.5 13.5t16.5 42.5v57h194v-72q0 -117 -70.5 -171t-179.5 -54t-179.5 54.5t-70.5 170.5zM360 633h451q-8 98 -63.5 147t-151.5 49q-98 0 -155.5 -52t-80.5 -144z" />
<glyph unicode="&#x116;" horiz-adv-x="1146" d="M133 0v1434h901v-215h-655v-394h625v-215h-625v-395h676v-215h-922zM487 1588v225h225v-225h-225z" />
<glyph unicode="&#x117;" horiz-adv-x="1161" d="M102 512q0 119 31 217t93.5 169t154.5 108.5t215 37.5q117 0 204 -36.5t144 -102t86 -157t29 -197.5v-133h-705q23 -119 97.5 -171t197.5 -52q72 0 150 22.5t151 63.5l82 -201q-188 -100 -383 -100q-119 0 -219 32.5t-173 99t-114 167t-41 233.5zM360 633h451 q-8 98 -63.5 147t-151.5 49q-98 0 -155.5 -52t-80.5 -144zM483 1178v225h225v-225h-225z" />
<glyph unicode="&#x118;" horiz-adv-x="1146" d="M133 0v1434h901v-215h-655v-394h625v-215h-625v-395h676v-215q-59 -39 -96 -84t-37 -104q0 -37 22.5 -52.5t61.5 -15.5h61l-78 -174h-31q-231 0 -231 192q0 78 36 134.5t107 103.5h-737z" />
<glyph unicode="&#x119;" horiz-adv-x="1161" d="M102 512q0 119 31 217t93.5 169t154.5 108.5t215 37.5q117 0 204 -36.5t144 -102t86 -157t29 -197.5v-133h-705q23 -119 97.5 -171t197.5 -52q72 0 150 22.5t151 63.5l82 -201q-66 -35 -132 -57.5t-132 -32.5q-53 -37 -85 -80t-32 -98q0 -37 22.5 -52.5t61.5 -15.5h62 l-78 -174h-31q-231 0 -231 192q0 72 28.5 125.5t87.5 96.5q-104 8 -190 46t-148.5 104.5t-97.5 160.5t-35 217zM360 633h451q-8 98 -63.5 147t-151.5 49q-98 0 -155.5 -52t-80.5 -144z" />
<glyph unicode="&#x11a;" horiz-adv-x="1146" d="M133 0v1434h901v-215h-655v-394h625v-215h-625v-395h676v-215h-922zM278 1864h238l84 -108l84 108h237l-229 -297h-184z" />
<glyph unicode="&#x11b;" horiz-adv-x="1161" d="M102 512q0 119 31 217t93.5 169t154.5 108.5t215 37.5q117 0 204 -36.5t144 -102t86 -157t29 -197.5v-133h-705q23 -119 97.5 -171t197.5 -52q72 0 150 22.5t151 63.5l82 -201q-188 -100 -383 -100q-119 0 -219 32.5t-173 99t-114 167t-41 233.5zM274 1454h238l84 -108 l84 108h237l-229 -297h-184zM360 633h451q-8 98 -63.5 147t-151.5 49q-98 0 -155.5 -52t-80.5 -144z" />
<glyph unicode="&#x11c;" horiz-adv-x="1421" d="M102 715q0 211 50.5 352t136.5 227t200.5 123t243.5 37q98 0 186.5 -20.5t161 -66.5t129 -122t90.5 -188l-227 -74q-23 74 -55.5 124t-76.5 78.5t-96 41t-112 12.5q-78 0 -148.5 -23.5t-122.5 -84t-83 -162t-31 -254.5q0 -154 31 -255.5t83 -159.5t122.5 -81.5 t148.5 -23.5q70 0 129.5 16t103.5 59t71.5 116t33.5 183h-399v215h647v-168q0 -160 -42 -279.5t-119 -199.5t-185.5 -118.5t-239.5 -38.5q-129 0 -243.5 35.5t-200.5 120.5t-136.5 226.5t-50.5 352.5zM424 1567l230 297h184l229 -297h-237l-84 109l-84 -109h-238z" />
<glyph unicode="&#x11d;" horiz-adv-x="1097" d="M82 -317l92 196q51 -29 94 -47t85 -28.5t85 -14.5t92 -4q106 0 170 29.5t64 95.5q0 39 -22.5 64.5t-86.5 25.5h-477v100l98 240q-88 47 -129 131t-41 195q0 84 25 153.5t76 119.5t129 77.5t186 27.5q47 0 88 -5t76 -15h391v-195h-166q29 -70 29 -163q0 -84 -24.5 -154 t-76 -120t-130 -77.5t-187.5 -27.5h-18l-39 -92h219q92 0 154.5 -20.5t100.5 -57.5t54.5 -87t16.5 -112q0 -94 -36 -159.5t-100.5 -107.5t-151.5 -61.5t-192 -19.5q-76 0 -138 7t-115.5 20.5t-101.5 35t-93 50.5zM200 1157l230 297h184l229 -297h-237l-84 109l-84 -109h-238 zM352 666q0 -74 40 -119t130 -45q92 0 132 45t40 119q0 76 -40 119.5t-132 43.5q-90 0 -130 -44t-40 -119z" />
<glyph unicode="&#x11e;" horiz-adv-x="1421" d="M102 715q0 211 50.5 352t136.5 227t200.5 123t243.5 37q98 0 186.5 -20.5t161 -66.5t129 -122t90.5 -188l-227 -74q-23 74 -55.5 124t-76.5 78.5t-96 41t-112 12.5q-78 0 -148.5 -23.5t-122.5 -84t-83 -162t-31 -254.5q0 -154 31 -255.5t83 -159.5t122.5 -81.5 t148.5 -23.5q70 0 129.5 16t103.5 59t71.5 116t33.5 183h-399v215h647v-168q0 -160 -42 -279.5t-119 -199.5t-185.5 -118.5t-239.5 -38.5q-129 0 -243.5 35.5t-200.5 120.5t-136.5 226.5t-50.5 352.5zM495 1792v72h195v-57q0 -29 16.5 -42.5t38.5 -13.5q23 0 39.5 13.5 t16.5 42.5v57h194v-72q0 -117 -70.5 -171t-179.5 -54t-179.5 54.5t-70.5 170.5z" />
<glyph unicode="&#x11f;" horiz-adv-x="1097" d="M82 -317l92 196q51 -29 94 -47t85 -28.5t85 -14.5t92 -4q106 0 170 29.5t64 95.5q0 39 -22.5 64.5t-86.5 25.5h-477v100l98 240q-88 47 -129 131t-41 195q0 84 25 153.5t76 119.5t129 77.5t186 27.5q47 0 88 -5t76 -15h391v-195h-166q29 -70 29 -163q0 -84 -24.5 -154 t-76 -120t-130 -77.5t-187.5 -27.5h-18l-39 -92h219q92 0 154.5 -20.5t100.5 -57.5t54.5 -87t16.5 -112q0 -94 -36 -159.5t-100.5 -107.5t-151.5 -61.5t-192 -19.5q-76 0 -138 7t-115.5 20.5t-101.5 35t-93 50.5zM272 1382v72h195v-57q0 -29 16.5 -42.5t38.5 -13.5 q23 0 39.5 13.5t16.5 42.5v57h194v-72q0 -117 -70.5 -171t-179.5 -54t-179.5 54.5t-70.5 170.5zM352 666q0 -74 40 -119t130 -45q92 0 132 45t40 119q0 76 -40 119.5t-132 43.5q-90 0 -130 -44t-40 -119z" />
<glyph unicode="&#x120;" horiz-adv-x="1421" d="M102 715q0 211 50.5 352t136.5 227t200.5 123t243.5 37q98 0 186.5 -20.5t161 -66.5t129 -122t90.5 -188l-227 -74q-23 74 -55.5 124t-76.5 78.5t-96 41t-112 12.5q-78 0 -148.5 -23.5t-122.5 -84t-83 -162t-31 -254.5q0 -154 31 -255.5t83 -159.5t122.5 -81.5 t148.5 -23.5q70 0 129.5 16t103.5 59t71.5 116t33.5 183h-399v215h647v-168q0 -160 -42 -279.5t-119 -199.5t-185.5 -118.5t-239.5 -38.5q-129 0 -243.5 35.5t-200.5 120.5t-136.5 226.5t-50.5 352.5zM633 1588v225h225v-225h-225z" />
<glyph unicode="&#x121;" horiz-adv-x="1097" d="M82 -317l92 196q51 -29 94 -47t85 -28.5t85 -14.5t92 -4q106 0 170 29.5t64 95.5q0 39 -22.5 64.5t-86.5 25.5h-477v100l98 240q-88 47 -129 131t-41 195q0 84 25 153.5t76 119.5t129 77.5t186 27.5q47 0 88 -5t76 -15h391v-195h-166q29 -70 29 -163q0 -84 -24.5 -154 t-76 -120t-130 -77.5t-187.5 -27.5h-18l-39 -92h219q92 0 154.5 -20.5t100.5 -57.5t54.5 -87t16.5 -112q0 -94 -36 -159.5t-100.5 -107.5t-151.5 -61.5t-192 -19.5q-76 0 -138 7t-115.5 20.5t-101.5 35t-93 50.5zM352 666q0 -74 40 -119t130 -45q92 0 132 45t40 119 q0 76 -40 119.5t-132 43.5q-90 0 -130 -44t-40 -119zM410 1178v225h225v-225h-225z" />
<glyph unicode="&#x122;" horiz-adv-x="1421" d="M102 715q0 211 50.5 352t136.5 227t200.5 123t243.5 37q98 0 186.5 -20.5t161 -66.5t129 -122t90.5 -188l-227 -74q-23 74 -55.5 124t-76.5 78.5t-96 41t-112 12.5q-78 0 -148.5 -23.5t-122.5 -84t-83 -162t-31 -254.5q0 -154 31 -255.5t83 -159.5t122.5 -81.5 t148.5 -23.5q70 0 129.5 16t103.5 59t71.5 116t33.5 183h-399v215h647v-168q0 -160 -42 -279.5t-119 -199.5t-185.5 -118.5t-239.5 -38.5q-129 0 -243.5 35.5t-200.5 120.5t-136.5 226.5t-50.5 352.5zM600 -559q47 59 72 114.5t33 127.5h-78v215h215v-149q0 -111 -26.5 -186 t-80.5 -146z" />
<glyph unicode="&#x123;" horiz-adv-x="1097" d="M82 -317l92 196q51 -29 94 -47t85 -28.5t85 -14.5t92 -4q106 0 170 29.5t64 95.5q0 39 -22.5 64.5t-86.5 25.5h-477v100l98 240q-88 47 -129 131t-41 195q0 84 25 153.5t76 119.5t129 77.5t186 27.5q47 0 88 -5t76 -15h391v-195h-166q29 -70 29 -163q0 -84 -24.5 -154 t-76 -120t-130 -77.5t-187.5 -27.5h-18l-39 -92h219q92 0 154.5 -20.5t100.5 -57.5t54.5 -87t16.5 -112q0 -94 -36 -159.5t-100.5 -107.5t-151.5 -61.5t-192 -19.5q-76 0 -138 7t-115.5 20.5t-101.5 35t-93 50.5zM352 666q0 -74 40 -119t130 -45q92 0 132 45t40 119 q0 76 -40 119.5t-132 43.5q-90 0 -130 -44t-40 -119zM418 1126v149q0 111 26.5 186t80.5 146l135 -24q-47 -59 -72 -114.5t-33 -127.5h78v-215h-215z" />
<glyph unicode="&#x124;" horiz-adv-x="1372" d="M133 0v1434h246v-629h614v629h246v-1434h-246v590h-614v-590h-246zM366 1567l230 297h184l229 -297h-237l-84 109l-84 -109h-238z" />
<glyph unicode="&#x125;" horiz-adv-x="1134" d="M-64 1567l230 297h184l229 -297h-237l-84 109l-84 -109h-238zM133 0v1495h246v-584q59 68 131 100.5t168 32.5q154 0 238.5 -92t84.5 -288v-664h-245v657q0 90 -45 131t-119 41q-94 0 -153.5 -80.5t-59.5 -259.5v-489h-246z" />
<glyph unicode="&#x126;" horiz-adv-x="1372" d="M20 1075v215h113v144h246v-144h614v144h246v-144h113v-215h-113v-1075h-246v590h-614v-590h-246v1075h-113zM379 805h614v270h-614v-270z" />
<glyph unicode="&#x127;" horiz-adv-x="1134" d="M20 1169v215h113v111h246v-111h256v-215h-256v-258q59 68 131 100.5t168 32.5q154 0 238.5 -92t84.5 -288v-664h-245v657q0 90 -45 131t-119 41q-94 0 -153.5 -80.5t-59.5 -259.5v-489h-246v1169h-113z" />
<glyph unicode="&#x128;" horiz-adv-x="757" d="M69 1629q10 61 31 103t46.5 66.5t53 35t54.5 10.5q31 0 62.5 -11.5t62 -25t57.5 -24.5t49 -11q35 0 47 72l158 -41q-10 -61 -30.5 -103.5t-46 -67t-53.5 -34.5t-54 -10q-31 0 -63 11t-62.5 24.5t-58 24.5t-48.5 11q-35 0 -47 -71zM102 0v215h154v1004h-154v215h553v-215 h-153v-1004h153v-215h-553z" />
<glyph unicode="&#x129;" horiz-adv-x="552" d="M-43 1219q10 61 31 103t46.5 66.5t53 35t54.5 10.5q31 0 62.5 -11.5t62 -25t57.5 -24.5t49 -11q35 0 47 72l158 -41q-10 -61 -30.5 -103.5t-46 -67t-53.5 -34.5t-54 -10q-31 0 -63 11t-62.5 24.5t-58 24.5t-48.5 11q-35 0 -47 -71zM51 809v215h246q72 0 97.5 -19.5 t25.5 -86.5v-918h-246v809h-123z" />
<glyph unicode="&#x12a;" horiz-adv-x="757" d="M82 1588v204h594v-204h-594zM102 0v215h154v1004h-154v215h553v-215h-153v-1004h153v-215h-553z" />
<glyph unicode="&#x12b;" horiz-adv-x="552" d="M-22 1178v204h594v-204h-594zM51 809v215h246q72 0 97.5 -19.5t25.5 -86.5v-918h-246v809h-123z" />
<glyph unicode="&#x12c;" horiz-adv-x="757" d="M102 0v215h154v1004h-154v215h553v-215h-153v-1004h153v-215h-553zM131 1792v72h195v-57q0 -29 16.5 -42.5t38.5 -13.5q23 0 39.5 13.5t16.5 42.5v57h194v-72q0 -117 -70.5 -171t-179.5 -54t-179.5 54.5t-70.5 170.5z" />
<glyph unicode="&#x12d;" horiz-adv-x="552" d="M26 1382v72h195v-57q0 -29 16.5 -42.5t38.5 -13.5q23 0 39.5 13.5t16.5 42.5v57h194v-72q0 -117 -70.5 -171t-179.5 -54t-179.5 54.5t-70.5 170.5zM51 809v215h246q72 0 97.5 -19.5t25.5 -86.5v-918h-246v809h-123z" />
<glyph unicode="&#x12e;" horiz-adv-x="757" d="M102 0v215h154v1004h-154v215h553v-215h-153v-1004h153v-215h-86q-59 -39 -96 -84t-37 -104q0 -37 22.5 -52.5t61.5 -15.5h62l-78 -174h-31q-231 0 -231 192q0 78 35.5 134.5t107.5 103.5h-283z" />
<glyph unicode="&#x12f;" horiz-adv-x="552" d="M51 809v215h246q72 0 97.5 -19.5t25.5 -86.5v-918q-59 -39 -96 -84t-37 -104q0 -37 22.5 -52.5t61.5 -15.5h61l-78 -174h-30q-231 0 -232 192q0 78 36 134.5t108 103.5h-62v809h-123zM174 1188v246h246v-246h-246z" />
<glyph unicode="&#x130;" horiz-adv-x="757" d="M102 0v215h154v1004h-154v215h553v-215h-153v-1004h153v-215h-553zM266 1588v225h225v-225h-225z" />
<glyph unicode="&#x131;" horiz-adv-x="552" d="M51 809v215h246q72 0 97.5 -19.5t25.5 -86.5v-918h-246v809h-123z" />
<glyph unicode="&#x134;" horiz-adv-x="796" d="M20 109l111 206q86 -100 168 -100q59 0 89 44t30 128v832h-185v215h431v-1059q0 -102 -26 -177t-71 -123t-106.5 -71.5t-134.5 -23.5q-80 0 -161 31.5t-145 97.5zM155 1567l230 297h184l229 -297h-237l-84 109l-84 -109h-238z" />
<glyph unicode="&#x135;" horiz-adv-x="552" d="M-37 1157l230 297h184l229 -297h-237l-84 109l-84 -109h-238zM51 -305q37 49 60.5 88t38 79t19.5 86t5 107v754h-123v215h246q72 0 97.5 -19.5t25.5 -86.5v-852q0 -80 -6 -143.5t-22.5 -122t-47.5 -114t-80 -116.5z" />
<glyph unicode="&#x136;" horiz-adv-x="1294" d="M133 0v1434h246v-635l530 635h314l-494 -590q121 -53 193.5 -140.5t132.5 -228.5l198 -475h-268l-172 412q-23 53 -45.5 92t-50 68.5t-61 51t-76.5 40.5l-201 -242v-422h-246zM518 -559q47 59 72 114.5t33 127.5h-78v215h215v-149q0 -111 -26.5 -186t-80.5 -146z" />
<glyph unicode="&#x137;" horiz-adv-x="1112" d="M133 0v1495h246v-850l356 379h324l-352 -375q35 -14 63.5 -34.5t53 -50t46 -70.5t45.5 -97l166 -397h-268l-121 289q-35 80 -66.5 121t-82.5 63l-164 -174v-299h-246zM450 -559q47 59 72 114.5t33 127.5h-78v215h215v-149q0 -111 -26.5 -186t-80.5 -146z" />
<glyph unicode="&#x138;" horiz-adv-x="1112" d="M133 0v1024h246v-379l356 379h324l-352 -375q35 -14 63.5 -34.5t53 -50t46 -70.5t45.5 -97l166 -397h-268l-121 289q-35 80 -66.5 121t-82.5 63l-164 -174v-299h-246z" />
<glyph unicode="&#x139;" horiz-adv-x="1067" d="M104 1573l197 332l180 -156l-313 -233zM133 0v1434h246v-1219h596v-215h-842z" />
<glyph unicode="&#x13a;" horiz-adv-x="595" d="M112 1624l197 332l180 -156l-313 -233zM133 229v1266h246v-1206q0 -45 19.5 -64.5t47.5 -19.5q31 0 72 20l37 -213q-96 -33 -184 -32q-49 0 -93.5 13t-76 43t-50 77t-18.5 116z" />
<glyph unicode="&#x13b;" horiz-adv-x="1067" d="M133 0v1434h246v-1219h596v-215h-842zM432 -559q47 59 72 114.5t33 127.5h-78v215h215v-149q0 -111 -26.5 -186t-80.5 -146z" />
<glyph unicode="&#x13c;" horiz-adv-x="595" d="M133 229v1266h246v-1206q0 -45 19.5 -64.5t47.5 -19.5q31 0 72 20l37 -213q-96 -33 -184 -32q-49 0 -93.5 13t-76 43t-50 77t-18.5 116zM194 -559q47 59 72 114.5t33 127.5h-78v215h215v-149q0 -111 -26.5 -186t-80.5 -146z" />
<glyph unicode="&#x13d;" horiz-adv-x="1067" d="M133 0v1434h246v-1219h596v-215h-842zM501 1196v238h256v-107q0 -135 -24.5 -223t-77.5 -162l-137 41q41 53 60.5 104.5t27.5 108.5h-105z" />
<glyph unicode="&#x13e;" horiz-adv-x="757" d="M133 229v1266h246v-1206q0 -45 19.5 -64.5t47.5 -19.5q31 0 72 20l37 -213q-96 -33 -184 -32q-49 0 -93.5 13t-76 43t-50 77t-18.5 116zM501 1196v238h256v-107q0 -135 -24.5 -223t-77.5 -162l-137 41q41 53 60.5 104.5t27.5 108.5h-105z" />
<glyph unicode="&#x13f;" horiz-adv-x="1067" d="M133 0v1434h246v-1219h596v-215h-842zM504 494v225h225v-225h-225z" />
<glyph unicode="&#x140;" horiz-adv-x="768" d="M133 229v1266h246v-1206q0 -45 19.5 -64.5t47.5 -19.5q31 0 72 20l37 -213q-96 -33 -184 -32q-49 0 -93.5 13t-76 43t-50 77t-18.5 116zM502 494v225h225v-225h-225z" />
<glyph unicode="&#x141;" horiz-adv-x="1067" d="M20 362v242l113 55v775h246v-650l293 148v-242l-293 -147v-328h596v-215h-842v418z" />
<glyph unicode="&#x142;" horiz-adv-x="595" d="M20 362v242l113 55v836h246v-711l196 99v-242l-196 -98v-254q0 -45 19.5 -64.5t47.5 -19.5q31 0 72 20l37 -213q-96 -33 -184 -32q-49 0 -93.5 13t-76 43t-50 77t-18.5 116v189z" />
<glyph unicode="&#x143;" horiz-adv-x="1361" d="M133 0v1434h225l625 -949v949h246v-1434h-225l-625 948v-948h-246zM518 1573l197 332l180 -156l-313 -233z" />
<glyph unicode="&#x144;" horiz-adv-x="1134" d="M133 0v1024h246v-113q59 68 131 100.5t168 32.5q154 0 238.5 -92t84.5 -288v-664h-245v657q0 90 -45 131t-119 41q-94 0 -153.5 -79.5t-59.5 -257.5v-492h-246zM391 1163l197 332l180 -156l-313 -233z" />
<glyph unicode="&#x145;" horiz-adv-x="1361" d="M133 0v1434h225l625 -949v949h246v-1434h-225l-625 948v-948h-246zM557 -559q47 59 72 114.5t33 127.5h-78v215h215v-149q0 -111 -26.5 -186t-80.5 -146z" />
<glyph unicode="&#x146;" horiz-adv-x="1134" d="M133 0v1024h246v-113q59 68 131 100.5t168 32.5q154 0 238.5 -92t84.5 -288v-664h-245v657q0 90 -45 131t-119 41q-94 0 -153.5 -79.5t-59.5 -257.5v-492h-246zM434 -559q47 59 72 114.5t33 127.5h-78v215h215v-149q0 -111 -26.5 -186t-80.5 -146z" />
<glyph unicode="&#x147;" horiz-adv-x="1361" d="M133 0v1434h225l625 -949v949h246v-1434h-225l-625 948v-948h-246zM372 1864h238l84 -108l84 108h237l-229 -297h-184z" />
<glyph unicode="&#x148;" horiz-adv-x="1134" d="M133 0v1024h246v-113q59 68 131 100.5t168 32.5q154 0 238.5 -92t84.5 -288v-664h-245v657q0 90 -45 131t-119 41q-94 0 -153.5 -79.5t-59.5 -257.5v-492h-246zM246 1454h238l84 -108l84 108h237l-229 -297h-184z" />
<glyph unicode="&#x149;" horiz-adv-x="1374" d="M41 1196v238h256v-107q0 -135 -24.5 -223t-77.5 -162l-137 41q41 53 60.5 104.5t27.5 108.5h-105zM373 0v1024h246v-113q59 68 131 100.5t168 32.5q154 0 238.5 -92t84.5 -288v-664h-245v657q0 90 -45 131t-119 41q-94 0 -153.5 -79.5t-59.5 -257.5v-492h-246z" />
<glyph unicode="&#x14a;" horiz-adv-x="1361" d="M133 0v1434h225l625 -949v949h246v-1469q0 -102 -25.5 -177t-71 -123t-106.5 -71.5t-135 -23.5q-80 0 -161 31.5t-144 97.5l110 207q86 -100 168 -101q59 0 89 44.5t30 127.5v54l-604 917v-948h-246z" />
<glyph unicode="&#x14b;" horiz-adv-x="1134" d="M133 0v1024h246v-113q59 68 131 100.5t168 32.5q154 0 238.5 -92t84.5 -288v-699q0 -102 -25.5 -177t-70.5 -123t-106.5 -71.5t-134.5 -23.5q-80 0 -161 31.5t-145 97.5l111 207q86 -100 168 -101q59 0 89 44.5t30 127.5v680q0 90 -45 131t-119 41q-94 0 -153.5 -79.5 t-59.5 -257.5v-492h-246z" />
<glyph unicode="&#x14c;" horiz-adv-x="1445" d="M102 717q0 211 44 352t126 227t197 122t254 36t254 -36t195.5 -122t125.5 -227t45 -352t-45 -352.5t-125.5 -227.5t-195.5 -121.5t-254 -35.5t-254 35.5t-197 121.5t-126 227.5t-44 352.5zM348 717q0 -154 26.5 -255.5t76 -160.5t119 -82.5t153.5 -23.5t153.5 23.5 t118.5 82.5t76 160.5t27 255.5t-27 255t-76 160.5t-118.5 83t-153.5 23.5t-153.5 -23.5t-119 -83t-76 -161t-26.5 -254.5zM426 1588v204h594v-204h-594z" />
<glyph unicode="&#x14d;" horiz-adv-x="1191" d="M102 512q0 119 31 217t92.5 169t154.5 108.5t216 37.5t216 -37.5t154.5 -108.5t92.5 -169t31 -217q0 -121 -31 -218t-92.5 -168t-154.5 -108.5t-216 -37.5t-216 37.5t-154.5 108.5t-92.5 168t-31 218zM299 1178v204h594v-204h-594zM348 512q0 -145 60.5 -231t187.5 -86 t187.5 86t60.5 231t-60.5 231t-187.5 86t-187.5 -86t-60.5 -231z" />
<glyph unicode="&#x14e;" horiz-adv-x="1445" d="M102 717q0 211 44 352t126 227t197 122t254 36t254 -36t195.5 -122t125.5 -227t45 -352t-45 -352.5t-125.5 -227.5t-195.5 -121.5t-254 -35.5t-254 35.5t-197 121.5t-126 227.5t-44 352.5zM348 717q0 -154 26.5 -255.5t76 -160.5t119 -82.5t153.5 -23.5t153.5 23.5 t118.5 82.5t76 160.5t27 255.5t-27 255t-76 160.5t-118.5 83t-153.5 23.5t-153.5 -23.5t-119 -83t-76 -161t-26.5 -254.5zM473 1792v72h195v-57q0 -29 16.5 -42.5t38.5 -13.5q23 0 39.5 13.5t16.5 42.5v57h194v-72q0 -117 -70.5 -171t-179.5 -54t-179.5 54.5t-70.5 170.5z " />
<glyph unicode="&#x14f;" horiz-adv-x="1191" d="M102 512q0 119 31 217t92.5 169t154.5 108.5t216 37.5t216 -37.5t154.5 -108.5t92.5 -169t31 -217q0 -121 -31 -218t-92.5 -168t-154.5 -108.5t-216 -37.5t-216 37.5t-154.5 108.5t-92.5 168t-31 218zM346 1382v72h195v-57q0 -29 16.5 -42.5t38.5 -13.5q23 0 39.5 13.5 t16.5 42.5v57h194v-72q0 -117 -70.5 -171t-179.5 -54t-179.5 54.5t-70.5 170.5zM348 512q0 -145 60.5 -231t187.5 -86t187.5 86t60.5 231t-60.5 231t-187.5 86t-187.5 -86t-60.5 -231z" />
<glyph unicode="&#x150;" horiz-adv-x="1445" d="M102 717q0 211 44 352t126 227t197 122t254 36t254 -36t195.5 -122t125.5 -227t45 -352t-45 -352.5t-125.5 -227.5t-195.5 -121.5t-254 -35.5t-254 35.5t-197 121.5t-126 227.5t-44 352.5zM348 717q0 -154 26.5 -255.5t76 -160.5t119 -82.5t153.5 -23.5t153.5 23.5 t118.5 82.5t76 160.5t27 255.5t-27 255t-76 160.5t-118.5 83t-153.5 23.5t-153.5 -23.5t-119 -83t-76 -161t-26.5 -254.5zM514 1557l130 348l186 -117l-246 -272zM785 1557l129 348l186 -117l-246 -272z" />
<glyph unicode="&#x151;" horiz-adv-x="1191" d="M102 512q0 119 31 217t92.5 169t154.5 108.5t216 37.5t216 -37.5t154.5 -108.5t92.5 -169t31 -217q0 -121 -31 -218t-92.5 -168t-154.5 -108.5t-216 -37.5t-216 37.5t-154.5 108.5t-92.5 168t-31 218zM348 512q0 -145 60.5 -231t187.5 -86t187.5 86t60.5 231t-60.5 231 t-187.5 86t-187.5 -86t-60.5 -231zM374 1147l130 348l186 -117l-246 -272zM645 1147l129 348l186 -117l-246 -272z" />
<glyph unicode="&#x152;" horiz-adv-x="2111" d="M102 717q0 211 44 352t126 227t197 122t254 36q111 0 205 -22.5t170 -73.5v76h901v-215h-656v-394h625v-215h-625v-395h676v-215h-921v74q-76 -51 -170 -72.5t-205 -21.5q-139 0 -254 35.5t-197 121.5t-126 227.5t-44 352.5zM348 717q0 -154 26.5 -255.5t76 -160.5 t119 -82.5t153.5 -23.5t153.5 23.5t118.5 82.5t76 160.5t27 255.5t-27 255t-76 160.5t-118.5 83t-153.5 23.5t-153.5 -23.5t-119 -83t-76 -161t-26.5 -254.5z" />
<glyph unicode="&#x153;" horiz-adv-x="1902" d="M102 512q0 119 31 217t92.5 169t154.5 108.5t216 37.5t216 -38.5t155 -108.5q61 72 153 109.5t217 37.5q117 0 204 -36.5t144.5 -102t86 -157t28.5 -197.5v-133h-704q23 -119 97.5 -171t197.5 -52q72 0 149.5 22.5t151.5 63.5l82 -201q-188 -100 -383 -100 q-129 0 -235.5 38.5t-180.5 116.5q-61 -74 -155.5 -114.5t-223.5 -40.5q-123 0 -216 37.5t-154.5 108.5t-92.5 168t-31 218zM348 512q0 -145 60.5 -231t187.5 -86t187.5 86t60.5 231t-60.5 231t-187.5 86t-187.5 -86t-60.5 -231zM1102 633h450q-8 98 -63.5 147t-151.5 49 q-98 0 -155.5 -52t-79.5 -144z" />
<glyph unicode="&#x154;" horiz-adv-x="1185" d="M133 0v1434h473q233 0 353 -106.5t120 -299.5q0 -344 -303 -414l359 -614h-281l-348 596h-127v-596h-246zM379 811h227q117 0 172.5 45t55.5 166q0 92 -55.5 144.5t-172.5 52.5h-227v-408zM434 1573l197 332l180 -156l-313 -233z" />
<glyph unicode="&#x155;" horiz-adv-x="745" d="M133 0v1024h246v-104q39 66 91 95t118 29q57 0 117 -20l-43 -236q-61 20 -111 21q-98 0 -135 -72.5t-37 -201.5v-535h-246zM229 1163l197 332l180 -156l-313 -233z" />
<glyph unicode="&#x156;" horiz-adv-x="1185" d="M133 0v1434h473q233 0 353 -106.5t120 -299.5q0 -344 -303 -414l359 -614h-281l-348 596h-127v-596h-246zM379 811h227q117 0 172.5 45t55.5 166q0 92 -55.5 144.5t-172.5 52.5h-227v-408zM458 -559q47 59 72 114.5t33 127.5h-78v215h215v-149q0 -111 -26.5 -186 t-80.5 -146z" />
<glyph unicode="&#x157;" horiz-adv-x="745" d="M121 -559q47 59 72 114.5t33 127.5h-78v215h215v-149q0 -111 -26.5 -186t-80.5 -146zM133 0v1024h246v-104q39 66 91 95t118 29q57 0 117 -20l-43 -236q-61 20 -111 21q-98 0 -135 -72.5t-37 -201.5v-535h-246z" />
<glyph unicode="&#x158;" horiz-adv-x="1185" d="M133 0v1434h473q233 0 353 -106.5t120 -299.5q0 -344 -303 -414l359 -614h-281l-348 596h-127v-596h-246zM250 1864h238l84 -108l84 108h237l-229 -297h-184zM379 811h227q117 0 172.5 45t55.5 166q0 92 -55.5 144.5t-172.5 52.5h-227v-408z" />
<glyph unicode="&#x159;" horiz-adv-x="745" d="M96 1454h238l84 -108l84 108h237l-229 -297h-184zM133 0v1024h246v-104q39 66 91 95t118 29q57 0 117 -20l-43 -236q-61 20 -111 21q-98 0 -135 -72.5t-37 -201.5v-535h-246z" />
<glyph unicode="&#x15a;" horiz-adv-x="1232" d="M92 119l96 205q55 -35 103.5 -59.5t96.5 -40t100.5 -22.5t115.5 -7q61 0 112.5 10t88.5 34.5t58.5 64.5t21.5 99q0 66 -33 105t-85 62.5t-120.5 39t-139.5 35t-138.5 46t-119.5 74.5t-85 123t-33 187q0 98 38 169t103.5 118t153.5 69.5t188 22.5q147 0 268.5 -32.5 t215.5 -80.5l-82 -202q-74 39 -174.5 69.5t-227.5 30.5q-100 0 -168.5 -40t-68.5 -124q0 -72 32.5 -114.5t85 -68.5t120 -42t138 -33.5t139.5 -42t121 -70t84.5 -115.5t32.5 -179q0 -123 -40.5 -205t-112.5 -132t-167 -71.5t-204 -21.5q-150 0 -280.5 39.5t-233.5 99.5z M442 1573l197 332l180 -156l-313 -233z" />
<glyph unicode="&#x15b;" horiz-adv-x="987" d="M72 111l123 196q74 -53 145.5 -82.5t146.5 -29.5q31 0 59.5 4t51.5 16t37 31.5t14 50.5q0 45 -40 68.5t-99 41t-128 37t-128 56.5t-99 97t-40 163q0 74 32.5 127t88 89t127 52t149.5 16q98 0 193.5 -23.5t166.5 -64.5l-98 -204q-66 39 -128 58t-134 19q-59 0 -105.5 -15 t-46.5 -60q0 -47 40 -71t99.5 -41t128 -34.5t128 -53.5t99.5 -96.5t40 -160.5q0 -84 -33 -144.5t-90 -99.5t-132 -56t-159 -17q-121 0 -215 30.5t-194 100.5zM317 1163l197 332l180 -156l-313 -233z" />
<glyph unicode="&#x15c;" horiz-adv-x="1232" d="M92 119l96 205q55 -35 103.5 -59.5t96.5 -40t100.5 -22.5t115.5 -7q61 0 112.5 10t88.5 34.5t58.5 64.5t21.5 99q0 66 -33 105t-85 62.5t-120.5 39t-139.5 35t-138.5 46t-119.5 74.5t-85 123t-33 187q0 98 38 169t103.5 118t153.5 69.5t188 22.5q147 0 268.5 -32.5 t215.5 -80.5l-82 -202q-74 39 -174.5 69.5t-227.5 30.5q-100 0 -168.5 -40t-68.5 -124q0 -72 32.5 -114.5t85 -68.5t120 -42t138 -33.5t139.5 -42t121 -70t84.5 -115.5t32.5 -179q0 -123 -40.5 -205t-112.5 -132t-167 -71.5t-204 -21.5q-150 0 -280.5 39.5t-233.5 99.5z M309 1567l230 297h184l229 -297h-237l-84 109l-84 -109h-238z" />
<glyph unicode="&#x15d;" horiz-adv-x="987" d="M72 111l123 196q74 -53 145.5 -82.5t146.5 -29.5q31 0 59.5 4t51.5 16t37 31.5t14 50.5q0 45 -40 68.5t-99 41t-128 37t-128 56.5t-99 97t-40 163q0 74 32.5 127t88 89t127 52t149.5 16q98 0 193.5 -23.5t166.5 -64.5l-98 -204q-66 39 -128 58t-134 19q-59 0 -105.5 -15 t-46.5 -60q0 -47 40 -71t99.5 -41t128 -34.5t128 -53.5t99.5 -96.5t40 -160.5q0 -84 -33 -144.5t-90 -99.5t-132 -56t-159 -17q-121 0 -215 30.5t-194 100.5zM172 1157l230 297h184l229 -297h-237l-84 109l-84 -109h-238z" />
<glyph unicode="&#x15e;" horiz-adv-x="1232" d="M92 119l96 205q55 -35 103.5 -59.5t96.5 -40t100.5 -22.5t115.5 -7q61 0 112.5 10t88.5 34.5t58.5 64.5t21.5 99q0 66 -33 105t-85 62.5t-120.5 39t-139.5 35t-138.5 46t-119.5 74.5t-85 123t-33 187q0 98 38 169t103.5 118t153.5 69.5t188 22.5q147 0 268.5 -32.5 t215.5 -80.5l-82 -202q-74 39 -174.5 69.5t-227.5 30.5q-100 0 -168.5 -40t-68.5 -124q0 -72 32.5 -114.5t85 -68.5t120 -42t138 -33.5t139.5 -42t121 -70t84.5 -116t32.5 -178.5q0 -111 -33.5 -189t-92 -128t-138.5 -76.5t-172 -32.5l-12 -66q88 -10 124 -53t36 -101 q0 -53 -18.5 -89.5t-50.5 -59.5t-75 -34t-90 -11q-92 0 -180 33l41 147q43 -16 80 -21t63 -5q55 0 56 28q0 23 -21.5 30t-56.5 7h-111l41 195q-123 10 -232.5 46t-195.5 89z" />
<glyph unicode="&#x15f;" horiz-adv-x="987" d="M72 111l123 196q74 -53 145.5 -82.5t146.5 -29.5q31 0 59.5 4t51.5 16t37 31.5t14 50.5q0 45 -40 68.5t-99 41t-128 37t-128 56.5t-99 97t-40 163q0 74 32.5 127t88 89t127 52t149.5 16q98 0 193.5 -23.5t166.5 -64.5l-98 -204q-66 39 -128 58t-134 19q-59 0 -105.5 -15 t-46.5 -60q0 -47 40 -71t99.5 -41t128 -34.5t128 -53.5t99.5 -96.5t40 -160.5q0 -74 -25.5 -128t-69.5 -93t-103.5 -60.5t-127.5 -29.5l-12 -68q88 -10 124 -53t36 -101q0 -53 -18.5 -89.5t-50.5 -59.5t-75 -34t-90 -11q-92 0 -180 33l41 147q43 -16 80 -21t63 -5 q55 0 56 28q0 23 -21.5 30t-56.5 7h-111l41 195q-90 10 -164.5 39.5t-158.5 87.5z" />
<glyph unicode="&#x160;" horiz-adv-x="1232" d="M92 119l96 205q55 -35 103.5 -59.5t96.5 -40t100.5 -22.5t115.5 -7q61 0 112.5 10t88.5 34.5t58.5 64.5t21.5 99q0 66 -33 105t-85 62.5t-120.5 39t-139.5 35t-138.5 46t-119.5 74.5t-85 123t-33 187q0 98 38 169t103.5 118t153.5 69.5t188 22.5q147 0 268.5 -32.5 t215.5 -80.5l-82 -202q-74 39 -174.5 69.5t-227.5 30.5q-100 0 -168.5 -40t-68.5 -124q0 -72 32.5 -114.5t85 -68.5t120 -42t138 -33.5t139.5 -42t121 -70t84.5 -115.5t32.5 -179q0 -123 -40.5 -205t-112.5 -132t-167 -71.5t-204 -21.5q-150 0 -280.5 39.5t-233.5 99.5z M309 1864h238l84 -108l84 108h237l-229 -297h-184z" />
<glyph unicode="&#x161;" horiz-adv-x="987" d="M72 111l123 196q74 -53 145.5 -82.5t146.5 -29.5q31 0 59.5 4t51.5 16t37 31.5t14 50.5q0 45 -40 68.5t-99 41t-128 37t-128 56.5t-99 97t-40 163q0 74 32.5 127t88 89t127 52t149.5 16q98 0 193.5 -23.5t166.5 -64.5l-98 -204q-66 39 -128 58t-134 19q-59 0 -105.5 -15 t-46.5 -60q0 -47 40 -71t99.5 -41t128 -34.5t128 -53.5t99.5 -96.5t40 -160.5q0 -84 -33 -144.5t-90 -99.5t-132 -56t-159 -17q-121 0 -215 30.5t-194 100.5zM172 1454h238l84 -108l84 108h237l-229 -297h-184z" />
<glyph unicode="&#x162;" horiz-adv-x="1167" d="M72 1219v215h1024v-215h-389v-1219h-246v1219h-389zM442 -559q47 59 72 114.5t33 127.5h-78v215h215v-149q0 -111 -26.5 -186t-80.5 -146z" />
<glyph unicode="&#x163;" horiz-adv-x="757" d="M41 809v215h143v328h246v-328h266v-215h-266v-455q0 -88 29.5 -123.5t85.5 -35.5q61 0 133 43l53 -205q-119 -53 -229 -53q-72 0 -131.5 19t-100.5 62t-63.5 112t-22.5 167v469h-143zM272 -559q47 59 72 114.5t33 127.5h-78v215h215v-149q0 -111 -26.5 -186t-80.5 -146z " />
<glyph unicode="&#x164;" horiz-adv-x="1167" d="M72 1219v215h1024v-215h-389v-1219h-246v1219h-389zM264 1864h238l84 -108l84 108h237l-229 -297h-184z" />
<glyph unicode="&#x165;" horiz-adv-x="1007" d="M41 809v215h143v328h246v-328h266v-215h-266v-455q0 -88 29.5 -123.5t85.5 -35.5q61 0 133 43l53 -205q-119 -53 -229 -53q-72 0 -131.5 19t-100.5 62t-63.5 112t-22.5 167v469h-143zM751 1196v238h256v-107q0 -135 -24.5 -223t-77.5 -162l-137 41q41 53 60.5 104.5 t27.5 108.5h-105z" />
<glyph unicode="&#x166;" horiz-adv-x="1167" d="M72 1219v215h1024v-215h-389v-308h245v-221h-245v-690h-246v690h-246v221h246v308h-389z" />
<glyph unicode="&#x167;" horiz-adv-x="757" d="M41 451v215h143v143h-143v215h143v328h246v-328h266v-215h-266v-143h266v-215h-266v-97q0 -88 29.5 -123.5t85.5 -35.5q61 0 133 43l53 -205q-119 -53 -229 -53q-72 0 -131.5 19t-100.5 62t-63.5 112t-22.5 167v111h-143z" />
<glyph unicode="&#x168;" horiz-adv-x="1392" d="M133 459v975h246v-975q0 -74 26.5 -124t71.5 -82t102.5 -45t116.5 -13t116.5 13t101.5 45t72 82t28 124v975h246v-975q0 -133 -48.5 -224.5t-128 -147.5t-181 -81.5t-206.5 -25.5q-106 0 -207.5 25.5t-180.5 82.5t-127 148.5t-48 222.5zM387 1629q10 61 31 103t46.5 66.5 t53 35t54.5 10.5q31 0 62.5 -11.5t62 -25t57.5 -24.5t49 -11q35 0 47 72l158 -41q-10 -61 -30.5 -103.5t-46 -67t-53.5 -34.5t-54 -10q-31 0 -63 11t-62.5 24.5t-58 24.5t-48.5 11q-35 0 -47 -71z" />
<glyph unicode="&#x169;" horiz-adv-x="1134" d="M133 362v662h246v-651q0 -92 43 -135t115 -43q98 0 158.5 85t60.5 242v502h245v-651q0 -104 5.5 -192.5t17.5 -180.5h-244q-22 61 -24 127q-45 -72 -117 -109.5t-162 -37.5q-160 0 -252 89t-92 293zM256 1219q10 61 31 103t46.5 66.5t53 35t54.5 10.5q31 0 62.5 -11.5 t62 -25t57.5 -24.5t49 -11q35 0 47 72l158 -41q-10 -61 -30.5 -103.5t-46 -67t-53.5 -34.5t-54 -10q-31 0 -63 11t-62.5 24.5t-58 24.5t-48.5 11q-35 0 -47 -71z" />
<glyph unicode="&#x16a;" horiz-adv-x="1392" d="M133 459v975h246v-975q0 -74 26.5 -124t71.5 -82t102.5 -45t116.5 -13t116.5 13t101.5 45t72 82t28 124v975h246v-975q0 -133 -48.5 -224.5t-128 -147.5t-181 -81.5t-206.5 -25.5q-106 0 -207.5 25.5t-180.5 82.5t-127 148.5t-48 222.5zM399 1588v204h594v-204h-594z" />
<glyph unicode="&#x16b;" horiz-adv-x="1134" d="M133 362v662h246v-651q0 -92 43 -135t115 -43q98 0 158.5 85t60.5 242v502h245v-651q0 -104 5.5 -192.5t17.5 -180.5h-244q-22 61 -24 127q-45 -72 -117 -109.5t-162 -37.5q-160 0 -252 89t-92 293zM268 1178v204h594v-204h-594z" />
<glyph unicode="&#x16c;" horiz-adv-x="1392" d="M133 459v975h246v-975q0 -74 26.5 -124t71.5 -82t102.5 -45t116.5 -13t116.5 13t101.5 45t72 82t28 124v975h246v-975q0 -133 -48.5 -224.5t-128 -147.5t-181 -81.5t-206.5 -25.5q-106 0 -207.5 25.5t-180.5 82.5t-127 148.5t-48 222.5zM446 1792v72h195v-57 q0 -29 16.5 -42.5t38.5 -13.5q23 0 39.5 13.5t16.5 42.5v57h194v-72q0 -117 -70.5 -171t-179.5 -54t-179.5 54.5t-70.5 170.5z" />
<glyph unicode="&#x16d;" horiz-adv-x="1134" d="M133 362v662h246v-651q0 -92 43 -135t115 -43q98 0 158.5 85t60.5 242v502h245v-651q0 -104 5.5 -192.5t17.5 -180.5h-244q-22 61 -24 127q-45 -72 -117 -109.5t-162 -37.5q-160 0 -252 89t-92 293zM315 1382v72h195v-57q0 -29 16.5 -42.5t38.5 -13.5q23 0 39.5 13.5 t16.5 42.5v57h194v-72q0 -117 -70.5 -171t-179.5 -54t-179.5 54.5t-70.5 170.5z" />
<glyph unicode="&#x16e;" horiz-adv-x="1392" d="M133 459v975h246v-975q0 -74 26.5 -124t71.5 -82t102.5 -45t116.5 -13t116.5 13t101.5 45t72 82t28 124v975h246v-975q0 -133 -48.5 -224.5t-128 -147.5t-181 -81.5t-206.5 -25.5q-106 0 -207.5 25.5t-180.5 82.5t-127 148.5t-48 222.5zM512 1741q0 90 50 137.5t134 47.5 t134.5 -47.5t50.5 -137.5t-50.5 -137t-134.5 -47t-134 47t-50 137zM641 1741q0 -29 15 -42t40 -13t40.5 13.5t15.5 41.5q0 29 -15.5 42t-40.5 13t-40 -13t-15 -42z" />
<glyph unicode="&#x16f;" horiz-adv-x="1134" d="M133 362v662h246v-651q0 -92 43 -135t115 -43q98 0 158.5 85t60.5 242v502h245v-651q0 -104 5.5 -192.5t17.5 -180.5h-244q-22 61 -24 127q-45 -72 -117 -109.5t-162 -37.5q-160 0 -252 89t-92 293zM381 1331q0 90 50 137.5t134 47.5t134.5 -47.5t50.5 -137.5t-50.5 -137 t-134.5 -47t-134 47t-50 137zM510 1331q0 -29 15 -42t40 -13t40.5 13.5t15.5 41.5q0 29 -15.5 42t-40.5 13t-40 -13t-15 -42z" />
<glyph unicode="&#x170;" horiz-adv-x="1392" d="M133 459v975h246v-975q0 -74 26.5 -124t71.5 -82t102.5 -45t116.5 -13t116.5 13t101.5 45t72 82t28 124v975h246v-975q0 -133 -48.5 -224.5t-128 -147.5t-181 -81.5t-206.5 -25.5q-106 0 -207.5 25.5t-180.5 82.5t-127 148.5t-48 222.5zM499 1557l130 348l186 -117 l-246 -272zM770 1557l129 348l186 -117l-246 -272z" />
<glyph unicode="&#x171;" horiz-adv-x="1134" d="M133 362v662h246v-651q0 -92 43 -135t115 -43q98 0 158.5 85t60.5 242v502h245v-651q0 -104 5.5 -192.5t17.5 -180.5h-244q-22 61 -24 127q-45 -72 -117 -109.5t-162 -37.5q-160 0 -252 89t-92 293zM354 1147l130 348l186 -117l-246 -272zM625 1147l129 348l186 -117 l-246 -272z" />
<glyph unicode="&#x172;" horiz-adv-x="1392" d="M133 459v975h246v-975q0 -74 26.5 -124t71.5 -82t102.5 -45t116.5 -13t116.5 13t101.5 45t72 82t28 124v975h246v-975q0 -106 -32 -185t-85 -135.5t-126 -91.5t-153 -51q-57 -37 -92 -82t-35 -102q0 -37 22.5 -52.5t61.5 -15.5h62l-78 -174h-31q-231 0 -231 192 q0 72 27.5 124.5t86.5 95.5q-102 4 -196 31.5t-167 85t-117 146.5t-44 214z" />
<glyph unicode="&#x173;" horiz-adv-x="1134" d="M133 362v662h246v-651q0 -92 43 -135t115 -43q98 0 158.5 85t60.5 242v502h245v-651q0 -104 5.5 -192.5t17.5 -180.5q-59 -39 -96 -84t-37 -104q0 -37 22.5 -52.5t61.5 -15.5h61l-78 -174h-30q-231 0 -232 192q0 78 36 134.5t108 103.5h-60q-23 61 -24 127 q-45 -72 -117 -109.5t-162 -37.5q-160 0 -252 89t-92 293z" />
<glyph unicode="&#x174;" horiz-adv-x="2052" d="M41 1434h256l299 -969l299 969h262l299 -969l299 969h256l-442 -1434h-226l-317 1028l-317 -1028h-226zM704 1567l230 297h184l229 -297h-237l-84 109l-84 -109h-238z" />
<glyph unicode="&#x175;" horiz-adv-x="1456" d="M31 1024h264l149 -510l166 510h236l166 -510l149 510h264l-303 -1024h-217l-178 600l-176 -600h-217zM405 1157l230 297h184l229 -297h-237l-84 109l-84 -109h-238z" />
<glyph unicode="&#x176;" horiz-adv-x="1204" d="M41 1434h276l285 -529l285 529h276l-438 -809v-625h-246v625zM280 1567l230 297h184l229 -297h-237l-84 109l-84 -109h-238z" />
<glyph unicode="&#x177;" horiz-adv-x="1073" d="M31 1024h266l240 -596l241 596h264l-579 -1434h-264l204 508zM217 1157l230 297h184l229 -297h-237l-84 109l-84 -109h-238z" />
<glyph unicode="&#x178;" horiz-adv-x="1204" d="M41 1434h276l285 -529l285 529h276l-438 -809v-625h-246v625zM305 1588v225h225v-225h-225zM674 1588v225h225v-225h-225z" />
<glyph unicode="&#x179;" horiz-adv-x="1261" d="M92 0v119l688 1089h-657v226h1016v-119l-690 -1090h720v-225h-1077zM444 1573l197 332l180 -156l-313 -233z" />
<glyph unicode="&#x17a;" horiz-adv-x="976" d="M61 0v115l465 684h-446v225h817v-115l-467 -684h485v-225h-854zM307 1163l197 332l180 -156l-313 -233z" />
<glyph unicode="&#x17b;" horiz-adv-x="1261" d="M92 0v119l688 1089h-657v226h1016v-119l-690 -1090h720v-225h-1077zM508 1588v225h225v-225h-225z" />
<glyph unicode="&#x17c;" horiz-adv-x="976" d="M61 0v115l465 684h-446v225h817v-115l-467 -684h485v-225h-854zM379 1178v225h225v-225h-225z" />
<glyph unicode="&#x17d;" horiz-adv-x="1261" d="M92 0v119l688 1089h-657v226h1016v-119l-690 -1090h720v-225h-1077zM299 1864h238l84 -108l84 108h237l-229 -297h-184z" />
<glyph unicode="&#x17e;" horiz-adv-x="976" d="M61 0v115l465 684h-446v225h817v-115l-467 -684h485v-225h-854zM170 1454h238l84 -108l84 108h237l-229 -297h-184z" />
<glyph unicode="&#x192;" horiz-adv-x="1204" d="M61 -162l54 201q43 -12 85 -20.5t79 -8.5q63 0 105 37t48 139l29 539h-287v215h299l10 182q6 113 40 188.5t85 122t115.5 65t134.5 18.5q63 0 124.5 -12.5t119.5 -30.5l-53 -201q-45 12 -86 20t-78 8q-63 0 -105.5 -36.5t-48.5 -139.5l-10 -184h293v-215h-305l-29 -537 q-6 -115 -40 -189.5t-85 -120.5t-116.5 -64.5t-135.5 -18.5q-61 0 -123.5 12.5t-118.5 30.5z" />
<glyph unicode="&#x2c6;" horiz-adv-x="663" d="M10 1157l230 297h184l229 -297h-237l-84 109l-84 -109h-238z" />
<glyph unicode="&#x2c7;" horiz-adv-x="663" d="M10 1454h238l84 -108l84 108h237l-229 -297h-184z" />
<glyph unicode="&#x2d8;" horiz-adv-x="540" d="M20 1382v72h195v-57q0 -29 16.5 -42.5t38.5 -13.5q23 0 39.5 13.5t16.5 42.5v57h194v-72q0 -117 -70.5 -171t-179.5 -54t-179.5 54.5t-70.5 170.5z" />
<glyph unicode="&#x2d9;" horiz-adv-x="307" d="M41 1178v225h225v-225h-225z" />
<glyph unicode="&#x2da;" horiz-adv-x="450" d="M41 1331q0 90 50 137.5t134 47.5t134.5 -47.5t50.5 -137.5t-50.5 -137t-134.5 -47t-134 47t-50 137zM170 1331q0 -29 15 -42t40 -13t40.5 13.5t15.5 41.5q0 29 -15.5 42t-40.5 13t-40 -13t-15 -42z" />
<glyph unicode="&#x2db;" horiz-adv-x="401" d="M41 -238q0 78 36 134.5t107 103.5h185q-59 -39 -96 -84t-37 -104q0 -37 22.5 -52.5t60.5 -15.5h62l-78 -174h-31q-231 0 -231 192z" />
<glyph unicode="&#x2dc;" horiz-adv-x="661" d="M20 1219q10 61 31 103t46.5 66.5t53 35t54.5 10.5q31 0 62.5 -11.5t62 -25t57.5 -24.5t49 -11q35 0 47 72l158 -41q-10 -61 -30.5 -103.5t-46 -67t-53.5 -34.5t-54 -10q-31 0 -63 11t-62.5 24.5t-58 24.5t-48.5 11q-35 0 -47 -71z" />
<glyph unicode="&#x2dd;" horiz-adv-x="626" d="M20 1147l130 348l186 -117l-246 -272zM291 1147l129 348l186 -117l-246 -272z" />
<glyph unicode="&#x3c0;" horiz-adv-x="1292" d="M61 973v215h1192v-215h-211v-678q0 -90 66 -90q25 0 46.5 7t49.5 24l49 -213q-55 -20 -104 -31.5t-102 -11.5q-123 0 -186.5 73.5t-63.5 253.5v666h-326v-973h-246v973h-164z" />
<glyph unicode="&#xe01;" horiz-adv-x="1105" d="M94 987q260 57 438 57q129 0 215.5 -25.5t138.5 -76.5t74.5 -128t22.5 -179v-635h-246v629q0 119 -49 159.5t-141 40.5q-29 0 -62.5 -3t-70.5 -7l67 -131q-37 -23 -59.5 -47.5t-33.5 -57t-15 -74.5t-4 -99v-410h-246v438q0 63 3 106.5t14.5 75t32 56t54.5 53.5z" />
<glyph unicode="&#xe02;" horiz-adv-x="1030" d="M113 291v102q0 55 3 91t10 61.5t22.5 47t39.5 48.5l109 115v53h-184v215h258q102 0 137 -31.5t35 -124.5v-176l-123 -129q-20 -23 -32.5 -37t-19 -30.5t-8.5 -40t-2 -60.5v-82q0 -59 47.5 -88.5t104.5 -29.5t104.5 29.5t47.5 90.5v709h245v-725q0 -78 -34.5 -137.5 t-90 -99t-127 -61t-145.5 -21.5q-76 0 -147.5 20t-127 60t-89 97.5t-33.5 133.5z" />
<glyph unicode="&#xe03;" horiz-adv-x="1030" d="M72 891v133h204v-94q0 -47 31 -47q16 0 32.5 16t29.5 49l26 76h148v-381l-123 -129q-20 -23 -32.5 -37t-19 -30.5t-8.5 -40t-2 -60.5v-33q0 -59 47.5 -88.5t104.5 -29.5t104.5 29.5t47.5 90.5v709h245v-725q0 -78 -34.5 -137.5t-90 -99t-127 -61t-145.5 -21.5 q-76 0 -147.5 20t-127 60t-89 97.5t-33.5 133.5v53q0 55 3 91t10 61.5t22.5 47t39.5 48.5l150 158v57q-31 -35 -68 -51.5t-71 -16.5q-51 0 -89 37t-38 115z" />
<glyph unicode="&#xe04;" horiz-adv-x="1095" d="M92 0l139 344q-139 115 -139 313q0 86 27.5 157t84 122t141.5 79.5t200 28.5q86 0 163.5 -19t136 -63t93.5 -115t35 -171v-676h-246v647q0 104 -51 143t-144 39q-98 0 -146 -52t-48 -150v-45h287v-215h-117l-150 -367h-266z" />
<glyph unicode="&#xe05;" horiz-adv-x="1095" d="M92 0l139 344q-139 117 -139 313q0 184 88 285.5t232 101.5q94 0 157.5 -40.5t112.5 -126.5h55l39 147h197v-1024h-246v662h-113q-37 0 -51 14t-26 47q-23 55 -47.5 80.5t-65.5 25.5q-43 0 -64.5 -35.5t-21.5 -113.5v-150h287v-215h-136l-131 -315h-266z" />
<glyph unicode="&#xe06;" horiz-adv-x="1095" d="M72 891v133h204v-94q0 -47 31 -47q16 0 32.5 16t29.5 49l26 76h148v-381l-123 -129q-41 -43 -51.5 -77t-10.5 -75q0 -74 54.5 -120.5t138.5 -46.5q82 0 129 42t47 144v643h246v-674q0 -104 -31 -176t-80 -115t-111.5 -61t-127.5 -18q-94 0 -160 35.5t-105 90.5 q-2 -49 -20 -106h-246q6 35 9 67.5t6.5 69.5t4.5 79t1 97v31q0 55 3 91t10 61.5t22.5 47t39.5 48.5l150 158v57q-31 -35 -68 -51.5t-71 -16.5q-51 0 -89 37t-38 115z" />
<glyph unicode="&#xe07;" horiz-adv-x="970" d="M31 571h258l151 -356q92 0 142.5 83t50.5 239q0 139 -60.5 205.5t-212.5 66.5h-38v215h59q135 0 229.5 -31.5t154.5 -93t87 -153t27 -209.5q0 -260 -122 -398.5t-356 -138.5h-49q-49 0 -68.5 12.5t-35.5 48.5z" />
<glyph unicode="&#xe08;" horiz-adv-x="1091" d="M72 330v215h315l107 -330h26q109 0 171.5 88t62.5 244q0 160 -57.5 221t-164.5 61q-84 0 -141 -39.5t-82 -125.5l-229 81q51 141 163.5 220t288.5 79q229 0 348 -117.5t119 -379.5q0 -117 -29.5 -217.5t-90 -174t-153.5 -114.5t-220 -41h-107q-59 0 -79.5 18.5 t-32.5 59.5l-82 252h-133z" />
<glyph unicode="&#xe09;" horiz-adv-x="1142" d="M72 369v215h170q51 0 83.5 -7.5t51 -24.5t26 -48t7.5 -78v-43q0 -102 43 -145t106 -43q96 0 155.5 71.5t59.5 210.5v139q0 113 -57.5 163t-153.5 50q-92 0 -151.5 -40.5t-94.5 -133.5l-229 84q59 156 177 230.5t292 74.5q211 0 337 -105t126 -323v-303q0 -55 1 -97t4 -79 t6 -69.5t9 -67.5h-243q-10 29 -15.5 53.5t-7.5 52.5q-53 -59 -130 -92.5t-157 -33.5q-66 0 -125 20t-103 63t-69.5 110t-25.5 157v39h-92z" />
<glyph unicode="&#xe0a;" horiz-adv-x="1030" d="M113 291v102q0 55 3 91t10 61.5t22.5 47t39.5 48.5l109 115v53h-184v215h258q102 0 137 -31.5t35 -124.5v-57h24l156 254h264l-184 -303q59 -35 81.5 -92.5t22.5 -149.5v-221q0 -78 -34.5 -137.5t-90 -99t-127 -61t-145.5 -21.5q-76 0 -147.5 20t-127 60t-89 97.5 t-33.5 133.5zM358 313q0 -59 47.5 -88.5t104.5 -29.5t104.5 29.5t47.5 90.5v181q0 90 -27 122.5t-103 32.5h-28l-84 -88q-20 -23 -32.5 -37t-19 -30.5t-8.5 -40t-2 -60.5v-82z" />
<glyph unicode="&#xe0b;" horiz-adv-x="1030" d="M72 891v133h204v-94q0 -47 31 -47q14 0 31.5 16t30.5 49l26 76h148v-213h24l156 254h264l-184 -303q59 -35 81.5 -92.5t22.5 -149.5v-221q0 -78 -34.5 -137.5t-90 -99t-127 -61t-145.5 -21.5q-76 0 -147.5 20t-127 60t-89 97.5t-33.5 133.5v53q0 55 3 91t10 61.5t22.5 47 t39.5 48.5l150 158v57q-31 -35 -68 -51.5t-71 -16.5q-51 0 -89 37t-38 115zM358 313q0 -59 47.5 -88.5t104.5 -29.5t104.5 29.5t47.5 90.5v181q0 88 -27 114.5t-96 28.5l-119 -125q-20 -23 -32.5 -37t-19 -30.5t-8.5 -40t-2 -60.5v-33z" />
<glyph unicode="&#xe0c;" horiz-adv-x="1720" d="M94 987q260 57 438 57q129 0 215.5 -25.5t138.5 -76.5t74.5 -128t22.5 -179v-148q0 -143 61.5 -217.5t145.5 -74.5q72 0 117 42t45 144v643h245v-674q0 -104 -30.5 -176t-79.5 -115t-111.5 -61t-128.5 -18q-94 0 -159.5 35.5t-104.5 90.5q-2 -49 -20 -106h-246 q6 35 9 67.5t6 69.5t4 79t1 97v316q0 119 -49 159.5t-141 40.5q-29 0 -62.5 -3t-70.5 -7l67 -131q-37 -23 -59.5 -47.5t-33.5 -57t-15 -74.5t-4 -99v-195h174v-215h-289q-78 0 -104.5 27.5t-26.5 103.5v307q0 63 3 106.5t14.5 75t32 56t54.5 53.5z" />
<glyph unicode="&#xe0d;" horiz-adv-x="1720" d="M94 987q260 57 438 57q129 0 215.5 -25.5t138.5 -76.5t74.5 -128t22.5 -179v-270q0 -47 15.5 -79t42 -52.5t59.5 -29.5t67 -9q35 0 68 9t59.5 29.5t42 52t15.5 76.5v662h245v-707q0 -72 -24.5 -127t-65.5 -96q43 -39 66.5 -86t23.5 -106q0 -102 -73.5 -171t-227.5 -69 h-475l94 215h340q47 0 72 19.5t25 48.5q0 27 -23 55q-76 -20 -162 -20q-82 0 -158.5 19t-137 60t-97.5 106.5t-37 158.5v305q0 119 -49 159.5t-141 40.5q-29 0 -62.5 -3t-70.5 -7l67 -131q-37 -23 -59.5 -47.5t-33.5 -57t-15 -74.5t-4 -99v-195h174v-215h-289 q-78 0 -104.5 27.5t-26.5 103.5v307q0 63 3 106.5t14.5 75t32 56t54.5 53.5z" />
<glyph unicode="&#xe0e;" horiz-adv-x="1105" d="M20 0v215h140l-37 139v84q0 63 3 106.5t14.5 75t32 56t54.5 53.5l-133 258q260 57 438 57q129 0 215.5 -25.5t138.5 -76.5t74.5 -128t22.5 -179v-662q0 -109 -20.5 -182.5t-67.5 -117.5t-128 -63.5t-200 -19.5h-454v215h434q53 0 90 7.5t59.5 29t31.5 59.5t9 99v629 q0 119 -49 159.5t-141 40.5q-29 0 -62.5 -3t-70.5 -7l67 -131q-37 -23 -59.5 -47.5t-33.5 -57t-15 -74.5t-4 -99v-242q0 -96 -35 -132t-137 -36h-177z" />
<glyph unicode="&#xe0f;" horiz-adv-x="1105" d="M20 0v215h140l-37 139v84q0 63 3 106.5t14.5 75t32 56t54.5 53.5l-133 258q260 57 438 57q129 0 215.5 -25.5t138.5 -76.5t74.5 -128t22.5 -179v-1045h-221l-242 154q-68 -74 -168 -114t-264 -40v215q143 0 230.5 36t127.5 118h127l164 -104v774q0 119 -49 159.5 t-141 40.5q-29 0 -62.5 -3t-70.5 -7l67 -131q-37 -23 -59.5 -47.5t-33.5 -57t-15 -74.5t-4 -99v-242q0 -96 -35 -132t-137 -36h-177z" />
<glyph unicode="&#xe10;" horiz-adv-x="1009" d="M53 -195q143 0 230.5 28t128.5 110h127l163 -95v95h246v-353h-221l-240 140q-68 -74 -169 -107t-265 -33v215zM72 246v215h280l80 -256h41q102 0 140 54t38 159v104h-563v105q0 96 27.5 173t85 131t145.5 83.5t209 29.5q154 0 352 -45l-49 -194q-53 16 -127 30.5 t-145 14.5q-41 0 -81 -6t-74 -20.5t-59.5 -38t-37.5 -58.5h409q92 0 123 -32.5t31 -110.5v-166q0 -98 -21.5 -176t-71.5 -131.5t-132 -82t-203 -28.5h-217l-76 246h-104z" />
<glyph unicode="&#xe11;" horiz-adv-x="1165" d="M41 891v133h205v-94q0 -47 30 -47q16 0 33 16t29 49l27 76h147v-94q61 70 122.5 92t133.5 22q129 0 201.5 -92t72.5 -270v-682h-245v657q0 92 -41 132t-119 40q-92 0 -145.5 -76.5t-53.5 -234.5v-518h-245v266q0 86 8 157t22.5 131t36 112.5t47.5 103.5v37 q-31 -35 -67.5 -51.5t-71.5 -16.5q-51 0 -89 37t-38 115z" />
<glyph unicode="&#xe12;" horiz-adv-x="1746" d="M72 477q0 293 94 430t287 137q98 0 162.5 -51t115.5 -155h33l53 186h193v-537q0 -143 61.5 -217.5t145.5 -74.5q72 0 116.5 42t44.5 144v643h246v-674q0 -104 -30.5 -176t-80 -115t-112 -61t-127.5 -18q-94 0 -159.5 35.5t-104.5 90.5q-2 -49 -21 -106h-246 q6 35 9.5 67.5t6.5 69.5t4 79t1 97v310h-68q-59 0 -82.5 24.5t-44.5 67.5q-27 55 -54.5 84.5t-65.5 29.5q-66 0 -99 -87t-33 -238q0 -147 43 -228t129 -81q41 0 77 9t79 32l68 -195q-59 -33 -114.5 -47t-115.5 -14q-197 0 -304 132t-107 365z" />
<glyph unicode="&#xe13;" horiz-adv-x="1720" d="M94 987q260 57 438 57q129 0 215.5 -25.5t138.5 -76.5t74.5 -128t22.5 -179v-232q0 -111 40 -159.5t107 -48.5q98 0 160 79.5t62 251.5v498h245v-711q0 -55 1 -97t4.5 -79t6.5 -69.5t9 -67.5h-252q-12 63 -14 115q-66 -66 -136.5 -100.5t-162.5 -34.5q-70 0 -127.5 22.5 t-99.5 70.5t-65.5 123.5t-23.5 182.5v250q0 119 -49 159.5t-141 40.5q-29 0 -62.5 -3t-70.5 -7l67 -131q-37 -23 -59.5 -47.5t-33.5 -57t-15 -74.5t-4 -99v-195h174v-215h-289q-78 0 -104.5 27.5t-26.5 103.5v307q0 63 3 106.5t14.5 75t32 56t54.5 53.5z" />
<glyph unicode="&#xe14;" horiz-adv-x="1132" d="M72 489q0 143 36.5 249t102 173.5t159 100t205.5 32.5q96 0 176 -23.5t137.5 -76.5t89.5 -141t32 -217v-586h-246v588q0 70 -16.5 117t-44 74.5t-64.5 38.5t-80 11q-63 0 -109.5 -24.5t-75 -69.5t-43 -107.5t-14.5 -138.5q0 -139 43 -216.5t129 -77.5q41 0 77 9t79 32 l68 -195q-59 -33 -111.5 -47t-112.5 -14q-205 0 -311 134.5t-106 374.5z" />
<glyph unicode="&#xe15;" horiz-adv-x="1132" d="M72 477q0 293 94 430t287 137q98 0 162.5 -51t115.5 -155h33l53 186h193v-1024h-246v623h-68q-59 0 -82.5 24.5t-44.5 67.5q-27 55 -54.5 84.5t-65.5 29.5q-66 0 -99 -87t-33 -238q0 -147 43 -228t129 -81q41 0 77 9t79 32l68 -195q-59 -33 -115 -47t-115 -14 q-197 0 -304 132t-107 365z" />
<glyph unicode="&#xe16;" horiz-adv-x="1105" d="M94 987q260 57 438 57q129 0 215.5 -25.5t138.5 -76.5t74.5 -128t22.5 -179v-635h-246v629q0 119 -49 159.5t-141 40.5q-29 0 -62.5 -3t-70.5 -7l67 -131q-37 -23 -59.5 -47.5t-33.5 -57t-15 -74.5t-4 -99v-195h174v-215h-289q-78 0 -104.5 27.5t-26.5 103.5v307 q0 63 3 106.5t14.5 75t32 56t54.5 53.5z" />
<glyph unicode="&#xe17;" horiz-adv-x="1095" d="M102 1024h248q10 -29 13.5 -55.5t5.5 -50.5q49 59 114.5 92.5t157.5 33.5q61 0 120.5 -18t106.5 -61t76 -115t29 -178v-672h-246v657q0 92 -41 132t-119 40q-92 0 -145 -74.5t-53 -219.5v-535h-246v711q0 55 -1 97t-4 79t-6 69.5t-10 67.5z" />
<glyph unicode="&#xe18;" horiz-adv-x="1054" d="M113 324v137h245v-109q0 -92 43 -124.5t111 -32.5t121 33.5t53 125.5v168h-573v101q0 125 33.5 205.5t93 129t143.5 67.5t186 19q90 0 182.5 -13t180.5 -32l-49 -196q-47 14 -116 25.5t-138 11.5q-92 0 -162 -23.5t-96 -89.5h381q53 0 87.5 -8t55 -28.5t29 -54.5t8.5 -83 v-231q0 -92 -36 -158t-94.5 -107t-134 -59t-155.5 -18q-82 0 -154.5 18t-127 59t-86 106.5t-31.5 160.5z" />
<glyph unicode="&#xe19;" horiz-adv-x="1105" d="M123 379v645h246v-621q0 -111 40 -159.5t107 -48.5q98 0 159.5 79.5t61.5 251.5v498h246v-711q0 -55 1 -97t4 -79t6 -69.5t10 -67.5h-252q-12 63 -15 115q-66 -66 -136.5 -100.5t-162.5 -34.5q-70 0 -127 22.5t-99 70.5t-65.5 123.5t-23.5 182.5z" />
<glyph unicode="&#xe1a;" horiz-adv-x="1105" d="M123 322v702h246v-672q0 -41 15 -70.5t42 -49t59.5 -28.5t67.5 -9t67.5 9t59.5 28.5t42 49t15 70.5v672h246v-702q0 -90 -37 -155t-97.5 -106t-137 -61t-158.5 -20t-159 20t-137 61t-97 105.5t-37 155.5z" />
<glyph unicode="&#xe1b;" horiz-adv-x="1105" d="M123 322v702h246v-672q0 -41 15 -70.5t42 -49t59.5 -28.5t67.5 -9t67.5 9t59.5 28.5t42 49t15 70.5v1082h246v-1112q0 -90 -37 -155t-97.5 -106t-137 -61t-158.5 -20t-159 20t-137 61t-97 105.5t-37 155.5z" />
<glyph unicode="&#xe1c;" horiz-adv-x="1249" d="M123 0v653q0 109 13.5 180.5t51 113.5t105 59.5t176.5 17.5h109v-215h-95q-35 0 -56 -6t-34.5 -24.5t-18.5 -50.5t-5 -83v-264l174 287h164l174 -287v643h245v-1024h-245l-256 371l-256 -371h-246z" />
<glyph unicode="&#xe1d;" horiz-adv-x="1249" d="M123 0v653q0 109 13.5 180.5t51 113.5t105 59.5t176.5 17.5h109v-215h-95q-35 0 -56 -6t-34.5 -24.5t-18.5 -50.5t-5 -83v-264l174 287h164l174 -287v1053h245v-1434h-245l-256 371l-256 -371h-246z" />
<glyph unicode="&#xe1e;" horiz-adv-x="1249" d="M123 0v1024h246v-563l178 405h155l179 -405v563h245v-1024h-245l-256 481l-256 -481h-246z" />
<glyph unicode="&#xe1f;" horiz-adv-x="1249" d="M123 0v1024h246v-563l178 405h155l179 -405v973h245v-1434h-245l-256 481l-256 -481h-246z" />
<glyph unicode="&#xe20;" horiz-adv-x="1105" d="M20 0v215h140l-37 139v84q0 63 3 106.5t14.5 75t32 56t54.5 53.5l-133 258q260 57 438 57q129 0 215.5 -25.5t138.5 -76.5t74.5 -128t22.5 -179v-635h-246v629q0 119 -49 159.5t-141 40.5q-29 0 -62.5 -3t-70.5 -7l67 -131q-37 -23 -59.5 -47.5t-33.5 -57t-15 -74.5 t-4 -99v-242q0 -96 -35 -132t-137 -36h-177z" />
<glyph unicode="&#xe21;" horiz-adv-x="1105" d="M102 0q6 35 9.5 67.5t6.5 69.5t4 79t1 97v711h246v-537q0 -143 61.5 -217.5t144.5 -74.5q72 0 117 42t45 144v643h246v-674q0 -104 -30.5 -176t-80 -115t-112 -61t-127.5 -18q-94 0 -159.5 35.5t-104.5 90.5q-2 -49 -21 -106h-246z" />
<glyph unicode="&#xe22;" horiz-adv-x="1097" d="M82 326q0 168 139 247q-47 35 -77.5 92.5t-30.5 153.5v72q0 76 25.5 104.5t111.5 28.5h303v-215h-195q0 -78 32 -105.5t106 -27.5h106v-215h-98q-94 0 -135 -27.5t-41 -93.5q0 -43 17 -71.5t45 -45t61.5 -22.5t68.5 -6q92 0 150.5 44t58.5 148v637h246v-676 q0 -102 -34 -172t-92 -114t-138 -63t-172 -19t-174 17t-145.5 57t-100.5 106.5t-37 165.5z" />
<glyph unicode="&#xe23;" horiz-adv-x="968" d="M72 61l69 215q74 -35 158 -53t180 -18q59 0 105.5 15.5t46.5 70.5q0 47 -40 72.5t-99.5 44t-128 38t-128 55.5t-99.5 95t-40 156q0 78 32 133t85 91t123 52t145 16q92 0 186.5 -19t172.5 -54l-74 -213q-74 35 -143.5 48t-141.5 13q-57 0 -98 -13t-41 -58q0 -41 40 -63.5 t99.5 -39t128 -35t128 -53.5t99.5 -93t40 -155q0 -92 -34 -154.5t-89.5 -101.5t-129 -56t-153.5 -17q-51 0 -105.5 6t-106.5 16t-100 25.5t-87 33.5z" />
<glyph unicode="&#xe24;" horiz-adv-x="1105" d="M94 987q260 57 438 57q129 0 215.5 -25.5t138.5 -76.5t74.5 -128t22.5 -179v-1045h-246v1039q0 119 -49 159.5t-141 40.5q-29 0 -62.5 -3t-70.5 -7l67 -131q-37 -23 -59.5 -47.5t-33.5 -57t-15 -74.5t-4 -99v-195h174v-215h-289q-78 0 -104.5 27.5t-26.5 103.5v307 q0 63 3 106.5t14.5 75t32 56t54.5 53.5z" />
<glyph unicode="&#xe25;" horiz-adv-x="1069" d="M61 287q0 76 26 137t80 105t138 69t203 25q41 0 89 -4.5t103 -10.5v60q0 74 -47 117.5t-131 43.5q-154 0 -196 -139l-232 80q47 135 160 204.5t285 69.5q86 0 160.5 -23.5t130 -70.5t86 -117.5t30.5 -166.5v-666h-246v389q-109 18 -180 19q-121 0 -167 -33t-46 -84 q0 -53 31 -74.5t72 -21.5q74 0 141 38l55 -206q-100 -47 -215 -47q-63 0 -122.5 18t-105.5 56t-74 96.5t-28 136.5z" />
<glyph unicode="&#xe26;" horiz-adv-x="1105" d="M20 0v215h140l-37 139v84q0 63 3 106.5t14.5 75t32 56t54.5 53.5l-133 258q260 57 438 57q129 0 215.5 -25.5t138.5 -76.5t74.5 -128t22.5 -179v-1045h-246v1039q0 119 -49 159.5t-141 40.5q-29 0 -62.5 -3t-70.5 -7l67 -131q-37 -23 -59.5 -47.5t-33.5 -57t-15 -74.5 t-4 -99v-242q0 -96 -35 -132t-137 -36h-177z" />
<glyph unicode="&#xe27;" horiz-adv-x="1044" d="M61 741q66 160 171.5 231.5t259.5 71.5q229 0 344.5 -135t115.5 -391q0 -117 -24.5 -216t-79.5 -171t-145.5 -111.5t-219.5 -39.5q-94 0 -160.5 24.5t-111.5 61t-72.5 83t-46.5 89.5l219 104q25 -70 63 -108.5t109 -38.5q63 0 106.5 23.5t69 66.5t37 102t11.5 131 q0 150 -51.5 230.5t-163.5 80.5q-80 0 -124 -43t-79 -120z" />
<glyph unicode="&#xe28;" horiz-adv-x="1095" d="M92 0l139 344q-139 115 -139 313q0 86 27.5 157t84 122t141.5 79.5t200 28.5q53 0 103 -8t95 -26l52 75h280l-153 -227q51 -92 51 -225v-633h-246v647q0 104 -51 143t-144 39q-98 0 -146 -52t-48 -150v-45h287v-215h-117l-150 -367h-266z" />
<glyph unicode="&#xe29;" horiz-adv-x="1105" d="M123 322v702h246v-672q0 -41 15 -70.5t42 -49t59.5 -28.5t67.5 -9t67.5 9t59.5 28.5t42 49t15 70.5v111h-184v215h184v346h246v-346h102v-103l-102 -112v-141q0 -90 -37 -155t-97.5 -106t-137 -61t-158.5 -20t-159 20t-137 61t-97 105.5t-37 155.5z" />
<glyph unicode="&#xe2a;" horiz-adv-x="1069" d="M61 287q0 76 26 137t80 105t138 69t203 25q41 0 89 -4.5t103 -10.5v60q0 74 -47 117.5t-131 43.5q-154 0 -196 -139l-232 80q47 135 160 204.5t285 69.5q100 0 180 -30l49 71h281l-154 -229q51 -96 51 -240v-616h-246v389q-109 18 -180 19q-121 0 -167 -33t-46 -84 q0 -53 31 -74.5t72 -21.5q74 0 141 38l55 -206q-100 -47 -215 -47q-63 0 -122.5 18t-105.5 56t-74 96.5t-28 136.5z" />
<glyph unicode="&#xe2b;" horiz-adv-x="1105" d="M123 0v1024h246v-309h116l205 309h281l-217 -328q129 -31 184 -123t55 -272v-301h-245v301q0 106 -38 152.5t-147 46.5h-194v-500h-246z" />
<glyph unicode="&#xe2c;" horiz-adv-x="1249" d="M123 0v1024h246v-563l178 405h155l179 -405v405q0 86 -25 117t-102 31h-115v141l209 279h278l-186 -248q90 -23 138 -95.5t48 -224.5v-866h-245l-256 481l-256 -481h-246z" />
<glyph unicode="&#xe2d;" horiz-adv-x="1126" d="M92 424v49q0 76 25.5 105.5t111.5 29.5h355v-215h-246q0 -96 56.5 -147t146.5 -51q117 0 182 73.5t65 253.5q0 88 -19 147.5t-50 95.5t-71 50t-83 14q-78 0 -133 -34.5t-78 -106.5l-231 80q39 129 156.5 202.5t285.5 73.5q104 0 190.5 -28.5t149 -91t96 -161.5t33.5 -241 q0 -279 -125 -410.5t-368 -131.5q-96 0 -178 26.5t-141.5 80.5t-94.5 138t-35 199z" />
<glyph unicode="&#xe2e;" horiz-adv-x="1126" d="M92 424v49q0 76 25.5 105.5t111.5 29.5h355v-215h-246q0 -96 56.5 -147t146.5 -51q117 0 182 73.5t65 253.5q0 88 -19 147.5t-50 95.5t-71 50t-83 14q-78 0 -133 -34.5t-78 -106.5l-231 80q39 129 156.5 202.5t285.5 73.5q115 0 209 -34l51 75h281l-152 -225 q39 -61 59.5 -144t20.5 -194q0 -279 -125 -410.5t-368 -131.5q-96 0 -178 26.5t-141.5 80.5t-94.5 138t-35 199z" />
<glyph unicode="&#xe2f;" horiz-adv-x="1007" d="M82 733q0 152 81 231.5t228 79.5q41 0 84 -7t90 -21l-51 -207q-23 8 -49.5 14t-48.5 6q-41 0 -64.5 -20.5t-23.5 -75.5q0 -43 19.5 -68.5t72.5 -25.5q88 0 141 65.5t94 208.5l33 111h197v-1024h-246v532q-49 -53 -115.5 -80.5t-156.5 -27.5q-59 0 -111.5 15.5t-90.5 51 t-60.5 95t-22.5 147.5z" />
<glyph unicode="&#xe30;" horiz-adv-x="679" d="M92 221v176h246v-92h260v-215h-367q-76 0 -107.5 28.5t-31.5 102.5zM92 795v176h246v-92h260v-215h-367q-76 0 -107.5 28.5t-31.5 102.5z" />
<glyph unicode="&#xe31;" d="M-682 1264v211h225v-134h477l-73 -204h-506q-72 0 -97.5 23.5t-25.5 103.5z" />
<glyph unicode="&#xe32;" horiz-adv-x="741" d="M31 1001q63 20 126.5 31.5t123.5 11.5q76 0 137 -18t106 -60t69.5 -110t24.5 -166v-690h-245v678q0 86 -34 118.5t-97 32.5q-76 0 -162 -36z" />
<glyph unicode="&#xe33;" horiz-adv-x="741" d="M-471 1300q0 86 46 130.5t128 44.5t128 -44.5t46 -130.5t-46 -130t-128 -44t-128 44t-46 130zM-348 1300q0 -51 51 -51t51 51q0 52 -51 52t-51 -52zM31 1001q63 20 126.5 31.5t123.5 11.5q76 0 137 -18t106 -60t69.5 -110t24.5 -166v-690h-245v678q0 86 -34 118.5 t-97 32.5q-76 0 -162 -36z" />
<glyph unicode="&#xe34;" d="M-887 1137v204h764l-90 -204h-674z" />
<glyph unicode="&#xe35;" d="M-887 1137l90 204h449v134h225v-338h-764z" />
<glyph unicode="&#xe36;" d="M-887 1137l90 204h348q10 66 54.5 100t111.5 34q78 0 124 -44.5t46 -125.5q0 -80 -46 -124t-124 -44h-604zM-340 1305q0 -57 57 -58q57 0 58 58q-1 57 -58 57t-57 -57z" />
<glyph unicode="&#xe37;" d="M-887 1137l90 204h265v134h174v-134h61v134h174v-338h-764z" />
<glyph unicode="&#xe38;" d="M-410 -82h160q68 0 97.5 -24.5t29.5 -110.5v-234h-205v175h-82v194z" />
<glyph unicode="&#xe39;" d="M-567 -82h184v-147q0 -47 33 -47t33 47v147h184v-166q0 -111 -59.5 -157t-157.5 -46t-157.5 46.5t-59.5 156.5v166z" />
<glyph unicode="&#xe3a;" d="M-440 -246q0 68 48 116t116 48t115.5 -48t47.5 -116t-48 -116t-115 -48q-68 0 -116 48t-48 116z" />
<glyph unicode="&#xe3f;" horiz-adv-x="1204" d="M160 0v1307h315v188h246v-192q346 -31 346 -340q0 -109 -38 -182.5t-114 -121.5q84 -41 126 -110.5t42 -183.5q0 -174 -89 -261.5t-273 -101.5v-195h-246v193h-315zM406 215h210q111 0 166.5 37t55.5 135q0 92 -55.5 125t-168.5 33h-208v-330zM406 760h210 q104 0 154.5 41t50.5 141q0 84 -52 117t-161 33h-202v-332z" />
<glyph unicode="&#xe40;" horiz-adv-x="522" d="M123 133v891h246v-809h92v-215h-207q-78 0 -104.5 27.5t-26.5 105.5z" />
<glyph unicode="&#xe41;" horiz-adv-x="1013" d="M123 133v891h246v-809h102v-215h-217q-78 0 -104.5 27.5t-26.5 105.5zM614 133v891h246v-809h92v-215h-207q-78 0 -104.5 27.5t-26.5 105.5z" />
<glyph unicode="&#xe42;" horiz-adv-x="542" d="M0 1604v137h672l-92 -215h-244q18 -35 28.5 -67t15.5 -70.5t7 -90t2 -124.5v-959h92v-215h-207q-78 0 -104.5 27.5t-26.5 105.5v1041q0 86 -5 146t-20.5 108.5t-43 89.5t-74.5 86z" />
<glyph unicode="&#xe43;" horiz-adv-x="542" d="M-37 1407v45q0 123 75 206t230 83q137 0 221 -65.5t84 -207.5q0 -100 -28.5 -179t-63.5 -158.5t-63.5 -170t-28.5 -215.5v-530h92v-215h-207q-78 0 -104.5 27.5t-26.5 105.5v658q0 104 29 191t63.5 164t63.5 144.5t29 130.5q0 49 -14.5 77t-45.5 28q-59 0 -59 -90v-105z " />
<glyph unicode="&#xe44;" horiz-adv-x="542" d="M-104 1526l92 215h524v-150q-39 -53 -62.5 -103t-37 -105.5t-18.5 -119t-5 -143.5v-905h92v-215h-207q-78 0 -104.5 27.5t-26.5 105.5v1026q0 74 3.5 128t9.5 96t17 76t28 67h-305z" />
<glyph unicode="&#xe45;" horiz-adv-x="741" d="M31 1001q63 20 126.5 31.5t123.5 11.5q76 0 137 -18t106 -60t69.5 -110t24.5 -166v-1100h-245v1088q0 86 -34 118.5t-97 32.5q-76 0 -162 -36z" />
<glyph unicode="&#xe46;" horiz-adv-x="1044" d="M82 707q0 160 82 248.5t223 88.5q96 0 160.5 -41.5t128.5 -125.5h35l47 147h164v-1434h-246v1072h-35q-35 0 -55.5 19t-48.5 58q-25 35 -53.5 62.5t-69.5 27.5q-86 0 -86 -120q0 -68 26.5 -97.5t73.5 -29.5q33 0 59.5 7t63.5 23l55 -194q-59 -29 -116.5 -40t-110.5 -11 q-63 0 -117.5 19.5t-94.5 60t-62.5 105t-22.5 155.5z" />
<glyph unicode="&#xe47;" d="M-797 1157v146q0 68 12.5 113.5t41 73.5t78 40t120.5 12h391l-71 -164h-303q-37 0 -50.5 -6t-13.5 -20q0 -16 18.5 -23.5t65.5 -7.5h244v-37q0 -78 -40 -112.5t-116 -34.5q-66 0 -108.5 24.5t-79.5 71.5l-29 -76h-160z" />
<glyph unicode="&#xe48;" d="M-332 1516v305h193v-305h-193z" />
<glyph unicode="&#xe49;" d="M-625 1663v158h183q61 0 78.5 -17.5t17.5 -70.5v-60h399l-69 -157h-504v147h-105z" />
<glyph unicode="&#xe4a;" d="M-616 1677q0 57 29.5 104.5t105.5 47.5q72 0 131 -53l16 43h96v-183q29 0 36 13.5t7 46.5v123h132v-117q0 -104 -47.5 -145t-125.5 -41h-133v57q0 59 -18.5 99t-52.5 40q-14 0 -21.5 -10t-7.5 -27q0 -16 9 -27.5t32 -11.5h31l-33 -120h-25q-49 0 -80.5 14t-49 36.5 t-24.5 51.5t-7 59z" />
<glyph unicode="&#xe4b;" d="M-453 1616v115h121v90h193v-90h121v-115h-121v-100h-193v100h-121z" />
<glyph unicode="&#xe4c;" d="M-608 1434q0 86 9 145t38 94t82 50.5t143 15.5h344l-78 -174h-241q-68 0 -86.5 -30t-18.5 -101h-192z" />
<glyph unicode="&#xe4d;" d="M-471 1300q0 86 46 130.5t128 44.5t128 -44.5t46 -130.5t-46 -130t-128 -44t-128 44t-46 130zM-348 1300q0 -51 51 -51t51 51q0 52 -51 52t-51 -52z" />
<glyph unicode="&#xe4e;" d="M-481 1313q0 90 49 131t141 41h31q27 92 135 129l131 -80q-43 -16 -67.5 -33.5t-39 -40t-18.5 -52.5t-4 -67h-147q-51 0 -52 -30q0 -12 9.5 -21.5t31.5 -9.5h158q0 -86 -52 -114.5t-132 -28.5q-78 0 -126 44t-48 132z" />
<glyph unicode="&#xe4f;" horiz-adv-x="1052" d="M59 463q0 96 36 180t99.5 147.5t147.5 99.5t180 36t180 -36t147.5 -99.5t99.5 -147.5t36 -180t-36 -180t-99.5 -147.5t-147.5 -99.5t-180 -36t-180 36t-147.5 99.5t-99.5 147.5t-36 180zM164 463q0 -74 28.5 -139.5t76.5 -113.5t114 -77t139 -29q74 0 139.5 29t113.5 77 t77 113.5t29 139.5t-29 139.5t-77 113.5t-113.5 76.5t-139.5 28.5t-139.5 -28.5t-113.5 -76.5t-76.5 -113.5t-28.5 -139.5zM279 463q0 49 19 94t52 78t78 52.5t94 19.5t94.5 -19.5t78 -52.5t52 -78t19.5 -94t-19.5 -94t-52 -78t-78 -52.5t-94.5 -19.5t-94 19.5t-78 52.5 t-52 78t-19 94z" />
<glyph unicode="&#xe50;" horiz-adv-x="1040" d="M82 410q0 88 22.5 166.5t73.5 137t135 92.5t207 34t207 -34t135 -92.5t73.5 -137t22.5 -166.5t-22.5 -166t-73.5 -136.5t-135 -93t-207 -34.5t-207 34.5t-135 93t-73.5 136.5t-22.5 166zM328 410q0 -45 9 -84t31.5 -69t59.5 -46t92 -16t92 16t59.5 46t32 69t9.5 84 t-9.5 83.5t-32 68.5t-59.5 46.5t-92 16.5t-92 -16.5t-59.5 -46.5t-31.5 -68.5t-9 -83.5z" />
<glyph unicode="&#xe51;" horiz-adv-x="1040" d="M82 401q0 88 22.5 168t74.5 140.5t136 95.5t207 35q223 0 329.5 -115t106.5 -338q0 -154 -50 -285t-173 -245l-160 176q63 72 100.5 163t37.5 191q0 113 -43 175.5t-148 62.5q-55 0 -93 -17.5t-60.5 -48.5t-31.5 -72t-9 -86q0 -41 5 -77.5t20.5 -65.5t43 -46t72.5 -17h57 l-12 -215h-53q-111 0 -183.5 33.5t-115.5 91t-61.5 134t-18.5 162.5z" />
<glyph unicode="&#xe52;" horiz-adv-x="1040" d="M53 319v705h236v-690q0 -35 20.5 -61.5t53 -44t73.5 -25.5t82 -8t83 9t75 27.5t53.5 46t20.5 64.5v129q0 66 -34 97.5t-89 31.5v-227h-236v289q0 84 36 131t112 47q74 0 128 -38t101 -104l57 121h160v-524q0 -80 -40 -138.5t-106.5 -98.5t-150.5 -59t-170 -19 q-88 0 -171 21.5t-148.5 63t-105.5 105t-40 149.5z" />
<glyph unicode="&#xe53;" horiz-adv-x="1040" d="M86 385q0 229 77 342t216 113q109 0 178.5 -47.5t130.5 -137.5h51l35 164h180v-819h-245v440h-76q-51 0 -73.5 17.5t-41.5 52.5q-29 49 -53.5 82t-58.5 33q-74 0 -74 -226q0 -102 29.5 -153t99.5 -51q49 0 117 24l71 -190q-55 -29 -102 -39t-101 -10q-188 0 -274 108.5 t-86 296.5z" />
<glyph unicode="&#xe54;" horiz-adv-x="1040" d="M49 369q0 125 26.5 212t82 139t139.5 75.5t199 23.5h182l67 205h265l-140 -420h-403q-94 0 -133 -46t-39 -159q0 -102 30.5 -153t98.5 -51t99.5 38.5t31.5 106.5v29q0 88 28.5 120.5t118.5 32.5h222v-215h-123q0 -53 32.5 -72.5t108.5 -19.5h47v-215h-74 q-102 0 -158.5 25.5t-84.5 70.5q-47 -57 -112.5 -86.5t-158.5 -29.5q-166 0 -259 92t-93 297z" />
<glyph unicode="&#xe55;" horiz-adv-x="1040" d="M49 369q0 166 47 264t146 143q-11 31 -11 64q0 43 15.5 79.5t43 64.5t64.5 44t78 16q86 0 145.5 -59t59.5 -145q0 -14 -2 -21h43l67 205h265l-140 -420h-403q-94 0 -133 -46t-39 -159q0 -102 30.5 -153t98.5 -51t99.5 38.5t31.5 106.5v29q0 88 28.5 120.5t118.5 32.5h222 v-215h-123q0 -53 32.5 -72.5t108.5 -19.5h47v-215h-74q-102 0 -158.5 25.5t-84.5 70.5q-47 -57 -112.5 -86.5t-158.5 -29.5q-166 0 -259 92t-93 297zM371 840q0 -27 17.5 -44.5t43.5 -17.5q29 0 46.5 17.5t17.5 44.5q0 29 -17.5 46t-46.5 17q-27 0 -44 -17t-17 -46z" />
<glyph unicode="&#xe56;" horiz-adv-x="1040" d="M31 1024h264l67 -205h148q139 0 230 -31.5t144.5 -89t74 -134.5t20.5 -165t-25.5 -164.5t-81 -133t-141.5 -89t-209 -32.5q-125 0 -205.5 34.5t-129 91t-67 128t-18.5 145.5q0 72 27 100.5t98 28.5h332v-215h-205q14 -47 52 -72.5t116 -25.5q115 0 163 57t48 147 q0 43 -8 81t-32.5 65.5t-68.5 43t-114 15.5h-340z" />
<glyph unicode="&#xe57;" horiz-adv-x="1241" d="M59 389q0 223 76 337t211 114q100 0 157.5 -50.5t94.5 -134.5h31l41 164h141v-604q59 0 91 30.5t32 127.5v651h235v-666q0 -96 -27.5 -164.5t-77.5 -111.5t-121 -62.5t-159 -19.5h-209v440q-45 0 -69.5 27t-40.5 59q-18 37 -35.5 68t-46.5 31q-78 0 -78 -236 q0 -86 24.5 -140t80.5 -54q20 0 34.5 3t38.5 13l52 -188q-41 -23 -73 -33t-77 -10q-164 0 -245 108.5t-81 300.5z" />
<glyph unicode="&#xe58;" horiz-adv-x="1040" d="M61 0v377q0 123 27 208t79 137t131 74.5t181 22.5h199l67 205h265l-140 -420h-391q-88 0 -128 -45t-44 -149h131q53 -104 93 -159.5t100 -55.5q31 0 46 19t15 48v33h-102v215h213q86 0 110.5 -29.5t24.5 -105.5v-148q0 -113 -78 -180t-205 -67q-61 0 -106 15t-81 43 t-67.5 67.5t-66.5 89.5h-27v-195h-246z" />
<glyph unicode="&#xe59;" horiz-adv-x="1040" d="M59 395q0 213 92.5 318.5t237.5 105.5h299l68 205h264l-139 -420h-148q8 -14 15.5 -31.5t15.5 -35.5l209 -537h-262l-197 504q-23 59 -44 79.5t-56 20.5q-53 0 -81 -48t-28 -161q0 -39 6 -75.5t18.5 -64.5t33 -44t51.5 -16t56.5 6t57.5 22l62 -205q-47 -20 -88 -29 t-88 -9q-170 0 -262.5 103t-92.5 312z" />
<glyph unicode="&#xe5a;" horiz-adv-x="1355" d="M82 733q0 152 81 231.5t228 79.5q41 0 84 -7t90 -21l-51 -207q-23 8 -49.5 14t-48.5 6q-41 0 -64.5 -20.5t-23.5 -75.5q0 -43 19.5 -68.5t72.5 -25.5q88 0 141 65.5t94 208.5l33 111h197v-1024h-246v532q-49 -53 -115.5 -80.5t-156.5 -27.5q-59 0 -111.5 15.5t-90.5 51 t-60.5 95t-22.5 147.5zM987 0v1024h246v-1024h-246z" />
<glyph unicode="&#xe5b;" horiz-adv-x="1265" d="M61 580q0 156 87.5 238.5t234.5 82.5q78 0 143 -37l-59 -196q-41 18 -74 18q-39 0 -62.5 -26.5t-23.5 -79.5q0 -106 74 -107q29 0 53.5 22.5t46 62.5t42 93.5t42.5 114.5h170l80 -156l47 86h342v-213h-213l-63 -125h-203l-68 125q-20 -45 -46.5 -86t-62.5 -71.5t-83 -49 t-107 -18.5q-63 0 -117.5 21.5t-94.5 62.5t-62.5 100.5t-22.5 137.5z" />
<glyph unicode="&#x2000;" horiz-adv-x="978" />
<glyph unicode="&#x2001;" horiz-adv-x="1956" />
<glyph unicode="&#x2002;" horiz-adv-x="978" />
<glyph unicode="&#x2003;" horiz-adv-x="1956" />
<glyph unicode="&#x2004;" horiz-adv-x="652" />
<glyph unicode="&#x2005;" horiz-adv-x="489" />
<glyph unicode="&#x2006;" horiz-adv-x="326" />
<glyph unicode="&#x2007;" horiz-adv-x="326" />
<glyph unicode="&#x2008;" horiz-adv-x="244" />
<glyph unicode="&#x2009;" horiz-adv-x="391" />
<glyph unicode="&#x200a;" horiz-adv-x="108" />
<glyph unicode="&#x2010;" horiz-adv-x="604" d="M61 416v215h482v-215h-482z" />
<glyph unicode="&#x2011;" horiz-adv-x="604" d="M61 416v215h482v-215h-482z" />
<glyph unicode="&#x2012;" horiz-adv-x="604" d="M61 416v215h482v-215h-482z" />
<glyph unicode="&#x2013;" horiz-adv-x="849" d="M61 416v215h727v-215h-727z" />
<glyph unicode="&#x2014;" horiz-adv-x="1212" d="M61 416v215h1090v-215h-1090z" />
<glyph unicode="&#x2018;" horiz-adv-x="378" d="M61 963v106q0 135 25 223t78 162l137 -41q-41 -53 -60.5 -105.5t-29.5 -107.5h106v-237h-256z" />
<glyph unicode="&#x2019;" horiz-adv-x="378" d="M61 1196v238h256v-107q0 -135 -24.5 -223t-77.5 -162l-137 41q41 53 60.5 104.5t27.5 108.5h-105z" />
<glyph unicode="&#x201a;" horiz-adv-x="378" d="M61 0v238h256v-107q0 -135 -24.5 -223t-77.5 -162l-137 41q41 53 60.5 105.5t27.5 107.5h-105z" />
<glyph unicode="&#x201e;" horiz-adv-x="716" d="M61 0v238h256v-107q0 -135 -24.5 -223t-77.5 -162l-137 41q41 53 60.5 105.5t27.5 107.5h-105zM399 0v238h256v-107q0 -135 -24.5 -223t-77.5 -162l-137 41q41 53 60.5 105.5t27.5 107.5h-105z" />
<glyph unicode="&#x2020;" horiz-adv-x="901" d="M82 809v215h205l123 -70l-82 285v195h245v-195l-81 -285l122 70h205v-215h-205l-122 63l81 -569v-508h-245v508l82 569l-123 -63h-205z" />
<glyph unicode="&#x2021;" horiz-adv-x="901" d="M82 205v215h205l123 -64l-82 205v107l82 204l-123 -63h-205v215h205l123 -70l-82 285v195h245v-195l-81 -285l122 70h205v-215h-205l-122 63l81 -204v-107l-81 -205l122 64h205v-215h-205l-122 69l81 -284v-195h-245v195l82 284l-123 -69h-205z" />
<glyph unicode="&#x2022;" horiz-adv-x="581" d="M143 606q0 63 33 105.5t115 42.5t114.5 -42t32.5 -106q0 -63 -32.5 -105t-114.5 -42t-115 42t-33 105z" />
<glyph unicode="&#x2026;" horiz-adv-x="1136" d="M82 0v215h215v-215h-215zM461 0v215h215v-215h-215zM840 0v215h215v-215h-215z" />
<glyph unicode="&#x202f;" horiz-adv-x="391" />
<glyph unicode="&#x2030;" horiz-adv-x="2416" d="M92 1100q0 170 87 262t231 92q143 0 230 -92t87 -262t-87 -262.5t-230 -92.5t-230.5 92.5t-87.5 262.5zM217 0l959 1434h284l-958 -1434h-285zM317 1100q0 -59 21 -99t72 -40t71.5 39.5t20.5 99.5q0 57 -20.5 98t-71.5 41t-72 -41t-21 -98zM952 334q0 170 87 262t231 92 q143 0 230 -92t87 -262t-87 -262t-230 -92t-230.5 92t-87.5 262zM1178 334q0 -59 20.5 -99t71.5 -40t71.5 39.5t20.5 99.5q0 57 -20.5 98t-71.5 41t-71.5 -41t-20.5 -98zM1690 334q0 170 87 262t230 92t230 -92t87 -262t-87 -262t-230 -92t-230 92t-87 262zM1915 334 q0 -59 20.5 -99t71.5 -40t71.5 39.5t20.5 99.5q0 57 -20.5 98t-71.5 41t-71.5 -41t-20.5 -98z" />
<glyph unicode="&#x2039;" horiz-adv-x="649" d="M82 420v184l485 420v-319l-223 -193l223 -193v-319z" />
<glyph unicode="&#x203a;" horiz-adv-x="649" d="M82 0v319l221 193l-221 193v319l485 -420v-184z" />
<glyph unicode="&#x205f;" horiz-adv-x="489" />
<glyph unicode="&#x2070;" horiz-adv-x="675" d="M31 1311q0 213 73.5 311t233.5 98t233.5 -98t73.5 -311t-73.5 -311.5t-233.5 -98.5t-233.5 98.5t-73.5 311.5zM236 1311q0 -129 24.5 -187.5t77.5 -58.5t77.5 58.5t24.5 187.5t-24.5 187t-77.5 58t-77.5 -58t-24.5 -187z" />
<glyph unicode="&#x2074;" horiz-adv-x="675" d="M20 1024v129l363 567l149 -96l-280 -436h115v127h184v-127h102v-164h-102v-102h-184v102h-347z" />
<glyph unicode="&#x2075;" horiz-adv-x="675" d="M37 1149l174 33q6 -59 40 -88t83 -29q43 0 70.5 27.5t27.5 87.5q0 41 -22.5 71.5t-75.5 30.5q-25 0 -50.5 -9t-60.5 -28h-143l20 455h488v-174h-312l-6 -99q68 18 115 19q70 0 118 -22.5t77.5 -59.5t43 -84t13.5 -96q0 -72 -23.5 -125t-65.5 -88t-97.5 -52.5 t-116.5 -17.5q-51 0 -101.5 15.5t-91.5 47t-68.5 77.5t-35.5 108z" />
<glyph unicode="&#x2076;" horiz-adv-x="675" d="M41 1280q0 98 18.5 180t57.5 139.5t100.5 89t149.5 31.5q80 0 143 -30.5t102 -96.5l-139 -112q-20 35 -46 55t-67 20q-57 0 -85.5 -41.5t-28.5 -113.5q23 23 57.5 33t71.5 10q53 0 100 -16.5t83 -49t56.5 -83t20.5 -115.5q0 -51 -16.5 -101.5t-52.5 -89.5t-91 -63.5 t-135 -24.5q-84 0 -140.5 27.5t-92 78t-51 120t-15.5 153.5zM246 1171q0 -39 19.5 -72.5t68.5 -33.5q55 0 75.5 35t20.5 76t-18.5 72.5t-71.5 31.5t-73.5 -34t-20.5 -75z" />
<glyph unicode="&#x2077;" horiz-adv-x="675" d="M41 1526v174h594v-129l-275 -649h-221l254 604h-352z" />
<glyph unicode="&#x2078;" horiz-adv-x="675" d="M41 1149q0 59 24.5 108.5t77.5 81.5q-74 57 -73 148q0 98 63.5 165.5t204.5 67.5t204.5 -67.5t63.5 -165.5q0 -90 -76 -148q104 -66 105 -190q0 -51 -17.5 -96t-53.5 -79t-92 -53.5t-134 -19.5t-134.5 19.5t-92 53.5t-53 79t-17.5 96zM246 1157q0 -39 21.5 -65.5 t70.5 -26.5t70.5 26.5t21.5 65.5q0 41 -21.5 67.5t-70.5 26.5t-70.5 -26.5t-21.5 -67.5zM264 1485q0 -29 18.5 -49.5t55.5 -20.5t55.5 20.5t18.5 49.5q0 33 -18.5 52t-55.5 19t-55.5 -19t-18.5 -52z" />
<glyph unicode="&#x2079;" horiz-adv-x="675" d="M41 1442q0 51 16.5 101t52 89t91 63.5t135.5 24.5q82 0 139 -27.5t93 -77.5t51.5 -120t15.5 -154q0 -98 -18.5 -180t-57.5 -139t-100.5 -89t-149.5 -32q-80 0 -143.5 31t-102.5 96l140 113q20 -35 45.5 -55.5t66.5 -20.5q57 0 86 42t29 114q-23 -23 -57.5 -33t-71.5 -10 q-53 0 -101 16t-83 49t-55.5 83t-20.5 116zM246 1446q0 -41 18.5 -73t71.5 -32t73.5 34t20.5 75q0 39 -19.5 72.5t-68.5 33.5q-55 0 -75.5 -34.5t-20.5 -75.5z" />
<glyph unicode="&#x2080;" horiz-adv-x="675" d="M31 103q0 213 73.5 311t233.5 98t233.5 -98t73.5 -311t-73.5 -311.5t-233.5 -98.5t-233.5 98.5t-73.5 311.5zM236 103q0 -129 24.5 -187.5t77.5 -58.5t77.5 58.5t24.5 187.5t-24.5 187t-77.5 58t-77.5 -58t-24.5 -187z" />
<glyph unicode="&#x2081;" horiz-adv-x="675" d="M35 410l225 102h184v-624h158v-174h-520v174h158v422l-138 -62z" />
<glyph unicode="&#x2082;" horiz-adv-x="675" d="M37 -147l215 219q72 74 108.5 119t36.5 92q0 66 -75 65q-39 0 -55.5 -21.5t-22.5 -55.5l-197 47q20 88 93 141t184 53q119 0 198.5 -58t79.5 -179q0 -43 -9 -78t-29.5 -70t-52.5 -71.5t-77 -81.5l-76 -76h279v-184h-600v139z" />
<glyph unicode="&#x2083;" horiz-adv-x="675" d="M31 -82l184 50q4 -53 34 -82t75 -29q49 0 82.5 22.5t33.5 69.5q0 35 -29.5 64.5t-95.5 29.5h-116v164h120q53 0 73 24.5t20 51.5q0 35 -22.5 50t-61.5 15q-43 0 -66.5 -19t-28.5 -54l-184 41q8 49 36 86t68 61.5t88 36.5t99 12q143 0 209.5 -60.5t66.5 -139.5 q0 -109 -88 -177q61 -33 89 -81t28 -109q0 -63 -24.5 -110.5t-65.5 -79t-97.5 -47t-119.5 -15.5q-117 0 -202 56.5t-105 168.5z" />
<glyph unicode="&#x2084;" horiz-adv-x="675" d="M20 -55l363 567l149 -96l-280 -436h115v127h184v-127h102v-164h-102v-102h-184v102h-347v129z" />
<glyph unicode="&#x2085;" horiz-adv-x="675" d="M37 -59l174 33q6 -59 40 -88t83 -29q43 0 70.5 27.5t27.5 87.5q0 41 -22.5 71.5t-75.5 30.5q-25 0 -50.5 -9t-60.5 -28h-143l20 455h488v-174h-312l-6 -99q68 18 115 19q70 0 118 -22.5t77.5 -59.5t43 -84t13.5 -96q0 -72 -23.5 -125t-65.5 -88t-97.5 -52.5t-116.5 -17.5 q-51 0 -101.5 15.5t-91.5 47t-68.5 77.5t-35.5 108z" />
<glyph unicode="&#x2086;" horiz-adv-x="675" d="M41 72q0 98 18.5 180t57.5 139.5t100.5 89t149.5 31.5q80 0 143 -30.5t102 -96.5l-139 -112q-20 35 -46 55t-67 20q-57 0 -85.5 -41.5t-28.5 -113.5q23 23 57.5 33t71.5 10q53 0 100 -16.5t83 -49t56.5 -83t20.5 -115.5q0 -51 -16.5 -101.5t-52.5 -89.5t-91 -63.5 t-135 -24.5q-84 0 -140.5 27.5t-92 78t-51 120t-15.5 153.5zM246 -37q0 -39 19.5 -72.5t68.5 -33.5q55 0 75.5 35t20.5 76t-18.5 72.5t-71.5 31.5t-73.5 -34t-20.5 -75z" />
<glyph unicode="&#x2087;" horiz-adv-x="675" d="M41 318v174h594v-129l-275 -649h-221l254 604h-352z" />
<glyph unicode="&#x2088;" horiz-adv-x="675" d="M41 -59q0 59 24.5 108.5t77.5 81.5q-74 57 -73 148q0 98 63.5 165.5t204.5 67.5t204.5 -67.5t63.5 -165.5q0 -90 -76 -148q104 -66 105 -190q0 -51 -17.5 -96t-53.5 -79t-92 -53.5t-134 -19.5t-134.5 19.5t-92 53.5t-53 79t-17.5 96zM246 -51q0 -39 21.5 -65.5 t70.5 -26.5t70.5 26.5t21.5 65.5q0 41 -21.5 67.5t-70.5 26.5t-70.5 -26.5t-21.5 -67.5zM264 277q0 -29 18.5 -49.5t55.5 -20.5t55.5 20.5t18.5 49.5q0 33 -18.5 52t-55.5 19t-55.5 -19t-18.5 -52z" />
<glyph unicode="&#x2089;" horiz-adv-x="675" d="M41 234q0 51 16.5 101t52 89t91 63.5t135.5 24.5q82 0 139 -27.5t93 -77.5t51.5 -120t15.5 -154q0 -98 -18.5 -180t-57.5 -139t-100.5 -89t-149.5 -32q-80 0 -143.5 31t-102.5 96l140 113q20 -35 45.5 -55.5t66.5 -20.5q57 0 86 42t29 114q-23 -23 -57.5 -33t-71.5 -10 q-53 0 -101 16t-83 49t-55.5 83t-20.5 116zM246 238q0 -41 18.5 -73t71.5 -32t73.5 34t20.5 75q0 39 -19.5 72.5t-68.5 33.5q-55 0 -75.5 -34.5t-20.5 -75.5z" />
<glyph unicode="&#x20ac;" horiz-adv-x="1204" d="M14 449v215h156v102h-156v215h179q25 131 74.5 222t122.5 146.5t164 80t196 24.5q139 0 250.5 -42t189.5 -144l-184 -152q-43 70 -107.5 96.5t-148.5 26.5q-117 0 -196 -55.5t-114 -202.5h465v-215h-489v-102h489v-215h-465q35 -145 115 -199.5t195 -54.5q80 0 142 24.5 t105 87.5l193 -143q-78 -102 -189.5 -143t-250.5 -41q-104 0 -195.5 23.5t-163.5 78.5t-123 145t-75 222h-179z" />
<glyph unicode="&#x2126;" horiz-adv-x="1638" d="M92 0v215h268q-100 102 -165.5 241.5t-65.5 331.5q0 162 56.5 287t151.5 209t220 127t262 43t262 -43t220.5 -127t151.5 -209t56 -287q0 -193 -66.5 -332t-166.5 -241h270v-215h-661v164q86 59 156.5 121.5t119.5 136.5t76 163t27 203q0 109 -36 193t-96.5 141.5 t-141.5 87t-171 29.5t-171 -29.5t-141.5 -87t-96 -141.5t-35.5 -193q0 -115 26.5 -203.5t75.5 -162.5t120 -136.5t157 -121.5v-164h-662z" />
<glyph unicode="&#x2153;" horiz-adv-x="1638" d="M35 1352l225 102h184v-624h158v-174h-520v174h158v422l-138 -62zM226 0l1005 1434h252l-1006 -1434h-251zM994 204l184 50q4 -53 34 -82t75 -29q49 0 82.5 22.5t33.5 69.5q0 35 -29.5 64.5t-95.5 29.5h-116v164h120q53 0 73 24.5t20 51.5q0 35 -22.5 50t-61.5 15 q-43 0 -66.5 -19t-28.5 -54l-184 41q8 49 36 86t68 61.5t88 36.5t99 12q143 0 209.5 -60.5t66.5 -139.5q0 -109 -88 -177q61 -33 89 -81t28 -109q0 -63 -24.5 -110.5t-65.5 -79t-97.5 -47t-119.5 -15.5q-117 0 -202 56.5t-105 168.5z" />
<glyph unicode="&#x2154;" horiz-adv-x="1638" d="M37 656v139l215 219q72 74 108.5 119t36.5 92q0 66 -75 65q-39 0 -55.5 -21.5t-22.5 -55.5l-197 47q20 88 93 141t184 53q119 0 198.5 -58t79.5 -179q0 -43 -9 -78t-29.5 -70t-52.5 -71.5t-77 -81.5l-76 -76h279v-184h-600zM240 0l1005 1434h252l-1006 -1434h-251z M994 204l184 50q4 -53 34 -82t75 -29q49 0 82.5 22.5t33.5 69.5q0 35 -29.5 64.5t-95.5 29.5h-116v164h120q53 0 73 24.5t20 51.5q0 35 -22.5 50t-61.5 15q-43 0 -66.5 -19t-28.5 -54l-184 41q8 49 36 86t68 61.5t88 36.5t99 12q143 0 209.5 -60.5t66.5 -139.5 q0 -109 -88 -177q61 -33 89 -81t28 -109q0 -63 -24.5 -110.5t-65.5 -79t-97.5 -47t-119.5 -15.5q-117 0 -202 56.5t-105 168.5z" />
<glyph unicode="&#x2155;" horiz-adv-x="1638" d="M35 1352l225 102h184v-624h158v-174h-520v174h158v422l-138 -62zM207 0l1005 1434h252l-1006 -1434h-251zM1000 227l174 33q6 -59 40 -88t83 -29q43 0 70.5 27.5t27.5 87.5q0 41 -22.5 71.5t-75.5 30.5q-25 0 -50.5 -9t-60.5 -28h-143l20 455h488v-174h-312l-6 -99 q68 18 115 19q70 0 118 -22.5t77.5 -59.5t43 -84t13.5 -96q0 -72 -23.5 -125t-65.5 -88t-97.5 -52.5t-116.5 -17.5q-51 0 -101.5 15.5t-91.5 47t-68.5 77.5t-35.5 108z" />
<glyph unicode="&#x2156;" horiz-adv-x="1638" d="M37 656v139l215 219q72 74 108.5 119t36.5 92q0 66 -75 65q-39 0 -55.5 -21.5t-22.5 -55.5l-197 47q20 88 93 141t184 53q119 0 198.5 -58t79.5 -179q0 -43 -9 -78t-29.5 -70t-52.5 -71.5t-77 -81.5l-76 -76h279v-184h-600zM220 0l1005 1434h252l-1006 -1434h-251z M1000 227l174 33q6 -59 40 -88t83 -29q43 0 70.5 27.5t27.5 87.5q0 41 -22.5 71.5t-75.5 30.5q-25 0 -50.5 -9t-60.5 -28h-143l20 455h488v-174h-312l-6 -99q68 18 115 19q70 0 118 -22.5t77.5 -59.5t43 -84t13.5 -96q0 -72 -23.5 -125t-65.5 -88t-97.5 -52.5t-116.5 -17.5 q-51 0 -101.5 15.5t-91.5 47t-68.5 77.5t-35.5 108z" />
<glyph unicode="&#x2157;" horiz-adv-x="1638" d="M31 860l184 50q4 -53 34 -82t75 -29q49 0 82.5 22.5t33.5 69.5q0 35 -29.5 64.5t-95.5 29.5h-116v164h120q53 0 73 24.5t20 51.5q0 35 -22.5 50t-61.5 15q-43 0 -66.5 -19t-28.5 -54l-184 41q8 49 36 86t68 61.5t88 36.5t99 12q143 0 209.5 -60.5t66.5 -139.5 q0 -109 -88 -177q61 -33 89 -81t28 -109q0 -63 -24.5 -110.5t-65.5 -79t-97.5 -47t-119.5 -15.5q-117 0 -202 56.5t-105 168.5zM195 0l1005 1434h252l-1006 -1434h-251zM1000 227l174 33q6 -59 40 -88t83 -29q43 0 70.5 27.5t27.5 87.5q0 41 -22.5 71.5t-75.5 30.5 q-25 0 -50.5 -9t-60.5 -28h-143l20 455h488v-174h-312l-6 -99q68 18 115 19q70 0 118 -22.5t77.5 -59.5t43 -84t13.5 -96q0 -72 -23.5 -125t-65.5 -88t-97.5 -52.5t-116.5 -17.5q-51 0 -101.5 15.5t-91.5 47t-68.5 77.5t-35.5 108z" />
<glyph unicode="&#x2158;" horiz-adv-x="1638" d="M20 758v129l363 567l149 -96l-280 -436h115v127h184v-127h102v-164h-102v-102h-184v102h-347zM199 0l1005 1434h252l-1006 -1434h-251zM1000 227l174 33q6 -59 40 -88t83 -29q43 0 70.5 27.5t27.5 87.5q0 41 -22.5 71.5t-75.5 30.5q-25 0 -50.5 -9t-60.5 -28h-143l20 455 h488v-174h-312l-6 -99q68 18 115 19q70 0 118 -22.5t77.5 -59.5t43 -84t13.5 -96q0 -72 -23.5 -125t-65.5 -88t-97.5 -52.5t-116.5 -17.5q-51 0 -101.5 15.5t-91.5 47t-68.5 77.5t-35.5 108z" />
<glyph unicode="&#x2159;" horiz-adv-x="1638" d="M35 1352l225 102h184v-624h158v-174h-520v174h158v422l-138 -62zM238 0l1005 1434h252l-1006 -1434h-251zM1004 358q0 98 18.5 180t57.5 139.5t100.5 89t149.5 31.5q80 0 143 -30.5t102 -96.5l-139 -112q-20 35 -46 55t-67 20q-57 0 -85.5 -41.5t-28.5 -113.5 q23 23 57.5 33t71.5 10q53 0 100 -16.5t83 -49t56.5 -83t20.5 -115.5q0 -51 -16.5 -101.5t-52.5 -89.5t-91 -63.5t-135 -24.5q-84 0 -140.5 27.5t-92 78t-51 120t-15.5 153.5zM1209 249q0 -39 19.5 -72.5t68.5 -33.5q55 0 75.5 35t20.5 76t-18.5 72.5t-71.5 31.5t-73.5 -34 t-20.5 -75z" />
<glyph unicode="&#x215a;" horiz-adv-x="1638" d="M37 883l174 33q6 -59 40 -88t83 -29q43 0 70.5 27.5t27.5 87.5q0 41 -22.5 71.5t-75.5 30.5q-25 0 -50.5 -9t-60.5 -28h-143l20 455h488v-174h-312l-6 -99q68 18 115 19q70 0 118 -22.5t77.5 -59.5t43 -84t13.5 -96q0 -72 -23.5 -125t-65.5 -88t-97.5 -52.5t-116.5 -17.5 q-51 0 -101.5 15.5t-91.5 47t-68.5 77.5t-35.5 108zM207 0l1005 1434h252l-1006 -1434h-251zM1004 358q0 98 18.5 180t57.5 139.5t100.5 89t149.5 31.5q80 0 143 -30.5t102 -96.5l-139 -112q-20 35 -46 55t-67 20q-57 0 -85.5 -41.5t-28.5 -113.5q23 23 57.5 33t71.5 10 q53 0 100 -16.5t83 -49t56.5 -83t20.5 -115.5q0 -51 -16.5 -101.5t-52.5 -89.5t-91 -63.5t-135 -24.5q-84 0 -140.5 27.5t-92 78t-51 120t-15.5 153.5zM1209 249q0 -39 19.5 -72.5t68.5 -33.5q55 0 75.5 35t20.5 76t-18.5 72.5t-71.5 31.5t-73.5 -34t-20.5 -75z" />
<glyph unicode="&#x215b;" horiz-adv-x="1638" d="M35 1352l225 102h184v-624h158v-174h-520v174h158v422l-138 -62zM236 0l1005 1434h252l-1006 -1434h-251zM1004 227q0 59 24.5 108.5t77.5 81.5q-74 57 -73 148q0 98 63.5 165.5t204.5 67.5t204.5 -67.5t63.5 -165.5q0 -90 -76 -148q104 -66 105 -190q0 -51 -17.5 -96 t-53.5 -79t-92 -53.5t-134 -19.5t-134.5 19.5t-92 53.5t-53 79t-17.5 96zM1209 235q0 -39 21.5 -65.5t70.5 -26.5t70.5 26.5t21.5 65.5q0 41 -21.5 67.5t-70.5 26.5t-70.5 -26.5t-21.5 -67.5zM1227 563q0 -29 18.5 -49.5t55.5 -20.5t55.5 20.5t18.5 49.5q0 33 -18.5 52 t-55.5 19t-55.5 -19t-18.5 -52z" />
<glyph unicode="&#x215c;" horiz-adv-x="1638" d="M31 860l184 50q4 -53 34 -82t75 -29q49 0 82.5 22.5t33.5 69.5q0 35 -29.5 64.5t-95.5 29.5h-116v164h120q53 0 73 24.5t20 51.5q0 35 -22.5 50t-61.5 15q-43 0 -66.5 -19t-28.5 -54l-184 41q8 49 36 86t68 61.5t88 36.5t99 12q143 0 209.5 -60.5t66.5 -139.5 q0 -109 -88 -177q61 -33 89 -81t28 -109q0 -63 -24.5 -110.5t-65.5 -79t-97.5 -47t-119.5 -15.5q-117 0 -202 56.5t-105 168.5zM203 0l1005 1434h252l-1006 -1434h-251zM1004 227q0 59 24.5 108.5t77.5 81.5q-74 57 -73 148q0 98 63.5 165.5t204.5 67.5t204.5 -67.5 t63.5 -165.5q0 -90 -76 -148q104 -66 105 -190q0 -51 -17.5 -96t-53.5 -79t-92 -53.5t-134 -19.5t-134.5 19.5t-92 53.5t-53 79t-17.5 96zM1209 235q0 -39 21.5 -65.5t70.5 -26.5t70.5 26.5t21.5 65.5q0 41 -21.5 67.5t-70.5 26.5t-70.5 -26.5t-21.5 -67.5zM1227 563 q0 -29 18.5 -49.5t55.5 -20.5t55.5 20.5t18.5 49.5q0 33 -18.5 52t-55.5 19t-55.5 -19t-18.5 -52z" />
<glyph unicode="&#x215d;" horiz-adv-x="1638" d="M37 883l174 33q6 -59 40 -88t83 -29q43 0 70.5 27.5t27.5 87.5q0 41 -22.5 71.5t-75.5 30.5q-25 0 -50.5 -9t-60.5 -28h-143l20 455h488v-174h-312l-6 -99q68 18 115 19q70 0 118 -22.5t77.5 -59.5t43 -84t13.5 -96q0 -72 -23.5 -125t-65.5 -88t-97.5 -52.5t-116.5 -17.5 q-51 0 -101.5 15.5t-91.5 47t-68.5 77.5t-35.5 108zM197 0l1005 1434h252l-1006 -1434h-251zM1004 227q0 59 24.5 108.5t77.5 81.5q-74 57 -73 148q0 98 63.5 165.5t204.5 67.5t204.5 -67.5t63.5 -165.5q0 -90 -76 -148q104 -66 105 -190q0 -51 -17.5 -96t-53.5 -79 t-92 -53.5t-134 -19.5t-134.5 19.5t-92 53.5t-53 79t-17.5 96zM1209 235q0 -39 21.5 -65.5t70.5 -26.5t70.5 26.5t21.5 65.5q0 41 -21.5 67.5t-70.5 26.5t-70.5 -26.5t-21.5 -67.5zM1227 563q0 -29 18.5 -49.5t55.5 -20.5t55.5 20.5t18.5 49.5q0 33 -18.5 52t-55.5 19 t-55.5 -19t-18.5 -52z" />
<glyph unicode="&#x215e;" horiz-adv-x="1638" d="M41 1260v174h594v-129l-275 -649h-221l254 604h-352zM152 0l1005 1434h252l-1006 -1434h-251zM1004 227q0 59 24.5 108.5t77.5 81.5q-74 57 -73 148q0 98 63.5 165.5t204.5 67.5t204.5 -67.5t63.5 -165.5q0 -90 -76 -148q104 -66 105 -190q0 -51 -17.5 -96t-53.5 -79 t-92 -53.5t-134 -19.5t-134.5 19.5t-92 53.5t-53 79t-17.5 96zM1209 235q0 -39 21.5 -65.5t70.5 -26.5t70.5 26.5t21.5 65.5q0 41 -21.5 67.5t-70.5 26.5t-70.5 -26.5t-21.5 -67.5zM1227 563q0 -29 18.5 -49.5t55.5 -20.5t55.5 20.5t18.5 49.5q0 33 -18.5 52t-55.5 19 t-55.5 -19t-18.5 -52z" />
<glyph unicode="&#x215f;" horiz-adv-x="1638" d="M35 1352l225 102h184v-624h158v-174h-520v174h158v422l-138 -62zM226 0l1005 1434h252l-1006 -1434h-251z" />
<glyph unicode="&#x2206;" horiz-adv-x="1294" d="M20 0l627 1516l627 -1516h-1254zM373 215h549l-275 662z" />
<glyph unicode="&#x220f;" horiz-adv-x="1269" d="M41 1219v215h1188v-215h-174v-1424h-246v1424h-348v-1424h-246v1424h-174z" />
<glyph unicode="&#x2211;" horiz-adv-x="1044" d="M72 0v195l450 522l-450 522v195h901v-236h-539l371 -428v-106l-371 -428h539v-236h-901z" />
<glyph unicode="&#x2212;" horiz-adv-x="942" d="M61 532v246h820v-246h-820z" />
<glyph unicode="&#x2215;" horiz-adv-x="1216" d="M-20 0l1005 1434h252l-1006 -1434h-251z" />
<glyph unicode="&#x221a;" horiz-adv-x="1126" d="M41 553v215h346l125 -369l377 1096h258l-512 -1495h-242l-190 553h-162z" />
<glyph unicode="&#x221e;" horiz-adv-x="1228" d="M61 780q0 156 85 245t249 89q72 0 128.5 -26.5t90.5 -71.5q35 45 91.5 71.5t130.5 26.5q164 0 247.5 -89t83.5 -245q0 -154 -83.5 -242.5t-247.5 -88.5q-72 0 -129.5 26.5t-92.5 69.5q-35 -43 -91 -69.5t-128 -26.5q-164 0 -249 89t-85 242zM276 780q0 -49 28 -76.5 t81 -27.5t85 27.5t32 76.5q0 51 -32 80t-85 29t-81 -29t-28 -80zM727 780q0 -49 27.5 -76.5t81.5 -27.5q53 0 84.5 27.5t31.5 76.5q0 51 -31.5 80t-84.5 29t-81 -29t-28 -80z" />
<glyph unicode="&#x222b;" horiz-adv-x="731" d="M41 -184l25 215q59 -20 102 -21q66 0 85 42t19 122q0 55 -4 132t-11 164t-14 180t-14.5 180.5t-11.5 164t-4 131.5q0 184 69.5 287t233.5 103q37 0 81 -5.5t93 -15.5l-24 -215q-59 20 -103 20q-66 0 -85 -43t-19 -122q0 -78 9 -203t20.5 -262.5t20.5 -267.5t9 -220 q0 -184 -69.5 -285.5t-233.5 -101.5q-37 0 -81 5t-93 16z" />
<glyph unicode="&#x2248;" horiz-adv-x="942" d="M41 344q0 61 16.5 114.5t49 94.5t80 64.5t108.5 23.5q49 0 96 -16.5t91 -35t82 -34.5t67 -16q35 0 46 25.5t11 56.5h213q0 -61 -16.5 -114.5t-49 -94.5t-79.5 -64.5t-109 -23.5q-49 0 -97 16t-91 34.5t-81 35t-67 16.5q-35 0 -46 -25.5t-11 -56.5h-213zM41 692 q0 61 16.5 114.5t49 94.5t80 64.5t108.5 23.5q49 0 96 -16.5t91 -34.5t82 -34.5t67 -16.5q35 0 46 25.5t11 56.5h213q0 -61 -16.5 -114.5t-49 -94.5t-79.5 -64.5t-109 -23.5q-49 0 -97 16.5t-91 34.5t-81 34.5t-67 16.5q-35 0 -46 -25.5t-11 -56.5h-213z" />
<glyph unicode="&#x2260;" horiz-adv-x="942" d="M61 338v246h236l74 143h-310v246h439l57 106h274l-57 -106h107v-246h-236l-74 -143h310v-246h-439l-55 -105h-274l55 105h-107z" />
<glyph unicode="&#x2264;" horiz-adv-x="942" d="M61 0v246h820v-246h-820zM61 690v238l820 342v-269l-463 -192l463 -193v-268z" />
<glyph unicode="&#x2265;" horiz-adv-x="942" d="M61 0v246h820v-246h-820zM61 348v268l461 193l-461 192v269l820 -342v-238z" />
<glyph unicode="&#x25ca;" horiz-adv-x="937" d="M20 748l449 768l449 -768l-449 -768zM297 748l172 -293l170 293l-170 290z" />
<glyph unicode="&#x25fc;" horiz-adv-x="1024" d="M0 0v1024h1024v-1024h-1024z" />
<glyph unicode="&#xf700;" horiz-adv-x="1009" d="M72 246v215h280l80 -256h41q102 0 140 54t38 159v104h-563v105q0 96 27.5 173t85 131t145.5 83.5t209 29.5q154 0 352 -45l-49 -194q-53 16 -127 30.5t-145 14.5q-41 0 -81 -6t-74 -20.5t-59.5 -38t-37.5 -58.5h409q92 0 123 -32.5t31 -110.5v-166q0 -98 -21.5 -176 t-71.5 -131.5t-132 -82t-203 -28.5h-217l-76 246h-104z" />
<glyph unicode="&#xf701;" d="M-1065 1137v204h625l-90 -204h-535z" />
<glyph unicode="&#xf702;" d="M-1065 1137l90 204h309v134h226v-338h-625z" />
<glyph unicode="&#xf703;" d="M-1065 1137l90 204h199q10 66 54 100t112 34q78 0 124 -44.5t46 -125.5q0 -80 -46 -124t-124 -44h-455zM-668 1305q0 -57 58 -58q57 0 57 58q0 57 -57 57t-58 -57z" />
<glyph unicode="&#xf704;" d="M-1065 1137l90 204h125v134h174v-134h62v134h174v-338h-625z" />
<glyph unicode="&#xf705;" d="M-666 1137v358h226v-358h-226z" />
<glyph unicode="&#xf706;" d="M-838 1311v184h213q74 0 94.5 -20.5t20.5 -83.5v-70h469l-82 -184h-592v174h-123z" />
<glyph unicode="&#xf707;" d="M-1092 1327q0 33 8.5 65.5t27 58.5t49 41t75.5 15q84 0 154 -63l18 51h115v-215q33 0 42 15.5t9 54.5v145h154v-137q0 -125 -55.5 -173t-147.5 -48h-156v69q0 70 -22.5 116t-63.5 46q-16 0 -24.5 -12.5t-8.5 -30.5q0 -16 10.5 -30.5t39.5 -14.5h34l-38 -143h-29 q-57 0 -94 16t-58.5 43t-30 61.5t-8.5 69.5z" />
<glyph unicode="&#xf708;" d="M-952 1255v134h143v106h225v-106h144v-134h-144v-118h-225v118h-143z" />
<glyph unicode="&#xf709;" d="M-756 1137q0 102 10.5 170.5t44 110.5t97 59.5t168.5 17.5h401l-90 -205h-283q-80 0 -101 -34.5t-21 -118.5h-226z" />
<glyph unicode="&#xf70a;" d="M-348 1137v358h225v-358h-225z" />
<glyph unicode="&#xf70b;" d="M-756 1311v184h213q74 0 94.5 -20.5t20.5 -83.5v-70h436l-82 -184h-559v174h-123z" />
<glyph unicode="&#xf70c;" d="M-811 1327q0 33 8 65.5t26.5 58.5t49.5 41t76 15q84 0 153 -63l19 51h114v-215q33 0 42.5 15.5t9.5 54.5v145h153v-137q0 -125 -55 -173t-147 -48h-156v69q0 70 -22.5 116t-63.5 46q-16 0 -24.5 -12.5t-8.5 -30.5q0 -16 10.5 -30.5t38.5 -14.5h35l-39 -143h-29 q-57 0 -94 16t-58.5 43t-29.5 61.5t-8 69.5z" />
<glyph unicode="&#xf70d;" d="M-635 1255v134h143v106h226v-106h143v-134h-143v-118h-226v118h-143z" />
<glyph unicode="&#xf70e;" d="M-651 1137q0 102 10 170.5t44 110.5t97.5 59.5t167.5 17.5h299l-90 -205h-180q-80 0 -101.5 -34.5t-21.5 -118.5h-225z" />
<glyph unicode="&#xf70f;" horiz-adv-x="1720" d="M94 987q260 57 438 57q129 0 215.5 -25.5t138.5 -76.5t74.5 -128t22.5 -179v-270q0 -47 15.5 -79t42 -52.5t59.5 -29.5t67 -9q35 0 68 9t59.5 29.5t42 52t15.5 76.5v662h245v-707q0 -90 -36.5 -154.5t-98 -105.5t-138.5 -59t-157 -18q-82 0 -158.5 19t-137 60 t-97.5 106.5t-37 158.5v305q0 119 -49 159.5t-141 40.5q-29 0 -62.5 -3t-70.5 -7l67 -131q-37 -23 -59.5 -47.5t-33.5 -57t-15 -74.5t-4 -99v-195h174v-215h-289q-78 0 -104.5 27.5t-26.5 103.5v307q0 63 3 106.5t14.5 75t32 56t54.5 53.5z" />
<glyph unicode="&#xf710;" d="M-776 1264v211h225v-134h500l-74 -204h-528q-72 0 -97.5 23.5t-25.5 103.5z" />
<glyph unicode="&#xf711;" d="M-788 1300q0 86 46 130.5t128 44.5t128 -44.5t46 -130.5t-46 -130t-128 -44t-128 44t-46 130zM-666 1300q0 -51 52 -51q51 0 51 51q0 52 -51 52t-52 -52z" />
<glyph unicode="&#xf712;" d="M-963 1157v146q0 68 12.5 113.5t41 73.5t78 40t120.5 12h658l-72 -164h-569q-37 0 -50.5 -6t-13.5 -20q0 -16 18.5 -23.5t65.5 -7.5h234v-37q0 -78 -35 -112.5t-111 -34.5q-66 0 -108.5 24.5t-79.5 71.5l-29 -76h-160z" />
<glyph unicode="&#xf713;" d="M-649 1516v305h192v-305h-192z" />
<glyph unicode="&#xf714;" d="M-754 1663v158h183q61 0 78.5 -17.5t17.5 -70.5v-60h397l-69 -157h-502v147h-105z" />
<glyph unicode="&#xf715;" d="M-836 1677q0 57 30 104.5t106 47.5q72 0 131 -53l16 43h96v-183q29 0 36 13.5t7 46.5v123h131v-117q0 -104 -47 -145t-125 -41h-133v57q0 59 -18.5 99t-52.5 40q-14 0 -21.5 -10t-7.5 -27q0 -16 9 -27.5t32 -11.5h31l-33 -120h-25q-49 0 -80.5 14t-49 36.5t-25 51.5 t-7.5 59z" />
<glyph unicode="&#xf716;" d="M-770 1616v115h121v90h192v-90h121v-115h-121v-100h-192v100h-121z" />
<glyph unicode="&#xf717;" d="M-737 1434q0 86 9 145t37.5 94t82 50.5t143.5 15.5h344l-78 -174h-241q-68 0 -86.5 -30t-18.5 -101h-192z" />
<glyph unicode="&#xf718;" d="M-410 -471h160q68 0 97.5 -24.5t29.5 -110.5v-234h-205v174h-82v195z" />
<glyph unicode="&#xf719;" d="M-567 -471h184v-147q0 -47 33 -48q33 0 33 48v147h184v-166q0 -111 -59.5 -157t-157.5 -46t-157.5 46t-59.5 157v166z" />
<glyph unicode="&#xf71a;" d="M-440 -635q0 68 48 116t116 48t115.5 -48t47.5 -116t-48 -116t-115 -48q-68 0 -116 48t-48 116z" />
<glyph unicode="&#xf71d;" horiz-adv-x="1249" d="M123 0v1024h246v-645l178 299h155l179 -299v246q0 86 -25 116.5t-102 30.5h-49v162l143 172h280l-143 -172q76 -29 108.5 -101.5t32.5 -197.5v-635h-245l-256 371l-256 -371h-246z" />
<glyph horiz-adv-x="741" d="M-788 1300q0 86 46 130.5t128 44.5t128 -44.5t46 -130.5t-46 -130t-128 -44t-128 44t-46 130zM-666 1300q0 -51 52 -51q51 0 51 51q0 52 -51 52t-52 -52zM31 1001q63 20 126.5 31.5t123.5 11.5q76 0 137 -18t106 -60t69.5 -110t24.5 -166v-690h-245v678q0 86 -34 118.5 t-97 32.5q-76 0 -162 -36z" />
<glyph horiz-adv-x="1073" d="M-799 1313q0 90 49.5 131t141.5 41h30q27 92 136 129l131 -80q-43 -16 -67.5 -33.5t-39 -40t-18.5 -52.5t-4 -67h-148q-51 0 -51 -30q0 -12 9 -21.5t32 -9.5h158q0 -86 -52.5 -114.5t-132.5 -28.5q-78 0 -126 44t-48 132z" />
<glyph horiz-adv-x="1243" d="M76 909l164 113q20 16 45.5 19t56.5 -1l143 -12v62q0 86 78 120l185 82v-35l-101 -47v-159l-80 -33l146 -14v159l35 17v-181l440 -45v-12l-184 -82q-66 -29 -116 -35t-116 11l-24 6v-172l-35 -31v209l-66 14v-536q0 -41 -22.5 -71t-57.5 -46l-196 -88q57 -37 122.5 -57.5 t137.5 -20.5q23 0 42 2t40 6v420l35 31q0 -51 35.5 -87t86.5 -36t87 36t36 87q0 53 -35.5 88t-87.5 35v34l228 97q29 -45 42 -109.5t13 -118.5q0 -92 -30.5 -176t-85 -151.5t-129 -114.5t-160.5 -66v-100l-33 -35l-2 2v125q-41 -6 -82 -6q-109 0 -204 41t-166 112.5 t-111.5 166t-40.5 202.5q0 66 14 123.5t49 112.5zM117 903l86 -125l389 96l-303 64q-43 10 -76 8t-70 -24zM147 528q0 -117 51.5 -218t139.5 -167l149 68v608l-290 -74q-49 -98 -50 -217zM213 528q0 55 13.5 105.5t35.5 95.5l60 21q-70 -99 -70 -222q0 -94 39 -173t123 -138 l-37 -18q-76 57 -120 143t-44 186zM215 971q16 4 41 1t47 -7l475 -95q51 -10 98.5 -9t112.5 30l101 45l-754 78q-43 6 -80 -15zM518 223l43 21q23 10 38 29.5t15 52.5v526l-96 -25v-604zM518 1034l96 37v123l-43 -18q-23 -10 -38 -31t-15 -51v-60zM748 57q80 20 147.5 64.5 t116.5 107t76.5 139t27.5 160.5q0 55 -10 100.5t-27 84.5l-155 -62q47 -18 75.5 -58t28.5 -91q0 -66 -46 -112t-112 -46q-43 0 -76.5 19.5t-45.5 42.5v-349zM803 502q0 29 19.5 48t47.5 19q29 0 47.5 -19.5t18.5 -47.5q0 -29 -18.5 -48.5t-47.5 -19.5t-48 19.5t-19 48.5z " />
<glyph horiz-adv-x="1208" d="M61 717q0 190 29 329.5t93.5 229.5t168 134t252.5 44q150 0 253.5 -44t168 -134t93 -229.5t28.5 -329.5t-28.5 -329.5t-93 -229.5t-168 -134t-253.5 -44t-253 44t-167.5 134t-93.5 229t-29 330zM307 717q0 -123 13.5 -216t46 -156.5t90 -96.5t147.5 -33q88 0 146.5 33 t91 96.5t46 156.5t13.5 216q0 127 -13.5 224t-46 163.5t-91 100.5t-146.5 34q-90 0 -147.5 -34t-90 -100.5t-46 -163.5t-13.5 -224z" />
<glyph horiz-adv-x="1024" d="M47 1247l452 207h136v-1239h286v-215h-819v215h287v938l-260 -119z" />
<glyph horiz-adv-x="1173" d="M62 0v174l448 463q72 76 127.5 135t93 110.5t57 98.5t19.5 96q0 43 -17.5 73t-48 50.5t-71.5 29.5t-88 9q-111 0 -173.5 -52t-68.5 -169l-245 53q8 98 50 171t106.5 120t149.5 69.5t183 22.5q104 0 191.5 -24.5t148.5 -72.5t95 -118t34 -160q0 -84 -27.5 -156.5t-78 -145 t-124 -150.5t-165.5 -172l-213 -219h667v-236h-1050z" />
<glyph horiz-adv-x="1191" d="M62 391l246 53q8 -115 81.5 -182t202.5 -67q119 0 196 59t77 176q0 96 -76 154.5t-258 58.5h-184v215h198q86 0 139.5 17.5t84 47t42 68.5t11.5 82q0 45 -19.5 77t-51.5 51.5t-76 28.5t-93 9q-92 0 -158.5 -38t-76.5 -120l-246 43q12 82 55 144.5t107.5 103.5t146.5 61.5 t172 20.5q98 0 186 -21.5t155 -64.5t105.5 -108.5t38.5 -153.5q0 -98 -38.5 -188.5t-137.5 -155.5q117 -53 168 -137t51 -199q0 -113 -38.5 -197t-108.5 -139t-165 -82.5t-206 -27.5q-102 0 -194 25.5t-163 76.5t-117 129t-56 180z" />
<glyph horiz-adv-x="1187" d="M41 236v167l672 1051l211 -108l-574 -895h357v403h246v-403h194v-215h-194v-236h-246v236h-666z" />
<glyph horiz-adv-x="1189" d="M62 403l246 68q10 -129 85.5 -202.5t192.5 -73.5q125 0 201 79.5t76 212.5q0 55 -12.5 102.5t-40 83.5t-74.5 55.5t-117 19.5q-45 0 -98.5 -13.5t-122.5 -50.5h-252l37 750h846v-226h-613l-14 -290q131 45 254 45q96 0 179 -27t143.5 -85t95 -148.5t34.5 -215.5 t-38.5 -219t-108.5 -158.5t-167 -97t-214 -32.5q-90 0 -177 26.5t-157.5 79.5t-120 133t-63.5 184z" />
<glyph horiz-adv-x="1185" d="M82 662q0 178 29 324.5t94.5 249.5t168.5 160.5t255 57.5q139 0 252 -52t180 -163l-203 -145q-43 78 -103 111.5t-126 33.5q-147 0 -215 -104.5t-68 -305.5q143 123 328 123q92 0 170 -29.5t136.5 -87t91 -144.5t32.5 -199q0 -92 -26.5 -184.5t-85 -165t-151.5 -117.5 t-228 -45q-143 0 -245 49t-165 138t-92 215t-29 280zM346 469q0 -49 12.5 -98t41 -88t78.5 -63.5t124 -24.5q72 0 121 25.5t79 66.5t43 92t13 104q0 49 -13 94.5t-42 81t-78 57t-119 21.5q-76 0 -126 -22.5t-79.5 -60.5t-42 -86t-12.5 -99z" />
<glyph horiz-adv-x="1171" d="M52 1198v236h1069v-121l-555 -1313h-267l506 1198h-753z" />
<glyph horiz-adv-x="1191" d="M103 403q0 119 48 212.5t150 148.5q-76 53 -111.5 136t-35.5 183q0 80 25.5 147.5t78.5 117t137 78t201 28.5t201 -28.5t137 -78t79 -117t26 -147.5q0 -100 -37 -183t-113 -136q102 -55 151.5 -148.5t49.5 -212.5q0 -90 -29 -166.5t-88 -134t-152.5 -90t-224.5 -32.5 t-224 32.5t-153.5 90t-88 134t-27.5 166.5zM348 432q0 -102 57.5 -169.5t190.5 -67.5q131 0 189.5 67.5t58.5 169.5q0 45 -14.5 85t-44 69.5t-76.5 47t-113 17.5t-113 -17.5t-76.5 -47t-44 -69.5t-14.5 -85zM400 1059q0 -86 45 -139.5t151 -53.5t151.5 53.5t45.5 139.5 q0 78 -45.5 129t-151.5 51t-151 -51t-45 -129z" />
<glyph horiz-adv-x="1185" d="M82 942q0 92 25.5 184.5t84 165t153 117.5t229.5 45q143 0 244.5 -49t165 -138t92 -215t28.5 -280q0 -178 -28.5 -324.5t-94 -250t-170 -160.5t-254.5 -57q-139 0 -251.5 52t-180.5 163l203 145q43 -78 103.5 -111.5t125.5 -33.5q147 0 215 104t68 305 q-145 -123 -328 -123q-92 0 -170 30t-136 87t-91 143t-33 201zM328 950q0 -49 13.5 -94t42 -81t76.5 -57.5t120 -21.5q76 0 126 22.5t79.5 60.5t42 86t12.5 100q0 49 -12.5 98t-41 88t-78.5 63.5t-124 24.5q-72 0 -121 -25.5t-78.5 -66.5t-43 -92t-13.5 -105z" />
<glyph horiz-adv-x="675" d="M31 1045q0 213 73.5 311t233.5 98t233.5 -98t73.5 -311t-73.5 -311.5t-233.5 -98.5t-233.5 98.5t-73.5 311.5zM236 1045q0 -129 24.5 -187.5t77.5 -58.5t77.5 58.5t24.5 187.5t-24.5 187t-77.5 58t-77.5 -58t-24.5 -187z" />
<glyph horiz-adv-x="675" d="M35 1352l225 102h184v-624h158v-174h-520v174h158v422l-138 -62z" />
<glyph horiz-adv-x="675" d="M37 656v139l215 219q72 74 108.5 119t36.5 92q0 66 -75 65q-39 0 -55.5 -21.5t-22.5 -55.5l-197 47q20 88 93 141t184 53q119 0 198.5 -58t79.5 -179q0 -43 -9 -78t-29.5 -70t-52.5 -71.5t-77 -81.5l-76 -76h279v-184h-600z" />
<glyph horiz-adv-x="675" d="M31 860l184 50q4 -53 34 -82t75 -29q49 0 82.5 22.5t33.5 69.5q0 35 -29.5 64.5t-95.5 29.5h-116v164h120q53 0 73 24.5t20 51.5q0 35 -22.5 50t-61.5 15q-43 0 -66.5 -19t-28.5 -54l-184 41q8 49 36 86t68 61.5t88 36.5t99 12q143 0 209.5 -60.5t66.5 -139.5 q0 -109 -88 -177q61 -33 89 -81t28 -109q0 -63 -24.5 -110.5t-65.5 -79t-97.5 -47t-119.5 -15.5q-117 0 -202 56.5t-105 168.5z" />
<glyph horiz-adv-x="675" d="M20 758v129l363 567l149 -96l-280 -436h115v127h184v-127h102v-164h-102v-102h-184v102h-347z" />
<glyph horiz-adv-x="675" d="M37 883l174 33q6 -59 40 -88t83 -29q43 0 70.5 27.5t27.5 87.5q0 41 -22.5 71.5t-75.5 30.5q-25 0 -50.5 -9t-60.5 -28h-143l20 455h488v-174h-312l-6 -99q68 18 115 19q70 0 118 -22.5t77.5 -59.5t43 -84t13.5 -96q0 -72 -23.5 -125t-65.5 -88t-97.5 -52.5t-116.5 -17.5 q-51 0 -101.5 15.5t-91.5 47t-68.5 77.5t-35.5 108z" />
<glyph horiz-adv-x="675" d="M41 1014q0 98 18.5 180t57.5 139.5t100.5 89t149.5 31.5q80 0 143 -30.5t102 -96.5l-139 -112q-20 35 -46 55t-67 20q-57 0 -85.5 -41.5t-28.5 -113.5q23 23 57.5 33t71.5 10q53 0 100 -16.5t83 -49t56.5 -83t20.5 -115.5q0 -51 -16.5 -101.5t-52.5 -89.5t-91 -63.5 t-135 -24.5q-84 0 -140.5 27.5t-92 78t-51 120t-15.5 153.5zM246 905q0 -39 19.5 -72.5t68.5 -33.5q55 0 75.5 35t20.5 76t-18.5 72.5t-71.5 31.5t-73.5 -34t-20.5 -75z" />
<glyph horiz-adv-x="675" d="M41 1260v174h594v-129l-275 -649h-221l254 604h-352z" />
<glyph horiz-adv-x="675" d="M41 883q0 59 24.5 108.5t77.5 81.5q-74 57 -73 148q0 98 63.5 165.5t204.5 67.5t204.5 -67.5t63.5 -165.5q0 -90 -76 -148q104 -66 105 -190q0 -51 -17.5 -96t-53.5 -79t-92 -53.5t-134 -19.5t-134.5 19.5t-92 53.5t-53 79t-17.5 96zM246 891q0 -39 21.5 -65.5 t70.5 -26.5t70.5 26.5t21.5 65.5q0 41 -21.5 67.5t-70.5 26.5t-70.5 -26.5t-21.5 -67.5zM264 1219q0 -29 18.5 -49.5t55.5 -20.5t55.5 20.5t18.5 49.5q0 33 -18.5 52t-55.5 19t-55.5 -19t-18.5 -52z" />
<glyph horiz-adv-x="675" d="M41 1176q0 51 16.5 101t52 89t91 63.5t135.5 24.5q82 0 139 -27.5t93 -77.5t51.5 -120t15.5 -154q0 -98 -18.5 -180t-57.5 -139t-100.5 -89t-149.5 -32q-80 0 -143.5 31t-102.5 96l140 113q20 -35 45.5 -55.5t66.5 -20.5q57 0 86 42t29 114q-23 -23 -57.5 -33t-71.5 -10 q-53 0 -101 16t-83 49t-55.5 83t-20.5 116zM246 1180q0 -41 18.5 -73t71.5 -32t73.5 34t20.5 75q0 39 -19.5 72.5t-68.5 33.5q-55 0 -75.5 -34.5t-20.5 -75.5z" />
<glyph horiz-adv-x="675" d="M31 389q0 213 73.5 311t233.5 98t233.5 -98t73.5 -311t-73.5 -311.5t-233.5 -98.5t-233.5 98.5t-73.5 311.5zM236 389q0 -129 24.5 -187.5t77.5 -58.5t77.5 58.5t24.5 187.5t-24.5 187t-77.5 58t-77.5 -58t-24.5 -187z" />
<glyph horiz-adv-x="675" d="M35 696l225 102h184v-624h158v-174h-520v174h158v422l-138 -62z" />
<glyph horiz-adv-x="675" d="M37 0v139l215 219q72 74 108.5 119t36.5 92q0 66 -75 65q-39 0 -55.5 -21.5t-22.5 -55.5l-197 47q20 88 93 141t184 53q119 0 198.5 -58t79.5 -179q0 -43 -9 -78t-29.5 -70t-52.5 -71.5t-77 -81.5l-76 -76h279v-184h-600z" />
<glyph horiz-adv-x="675" d="M31 204l184 50q4 -53 34 -82t75 -29q49 0 82.5 22.5t33.5 69.5q0 35 -29.5 64.5t-95.5 29.5h-116v164h120q53 0 73 24.5t20 51.5q0 35 -22.5 50t-61.5 15q-43 0 -66.5 -19t-28.5 -54l-184 41q8 49 36 86t68 61.5t88 36.5t99 12q143 0 209.5 -60.5t66.5 -139.5 q0 -109 -88 -177q61 -33 89 -81t28 -109q0 -63 -24.5 -110.5t-65.5 -79t-97.5 -47t-119.5 -15.5q-117 0 -202 56.5t-105 168.5z" />
<glyph horiz-adv-x="675" d="M20 102v129l363 567l149 -96l-280 -436h115v127h184v-127h102v-164h-102v-102h-184v102h-347z" />
<glyph horiz-adv-x="675" d="M37 227l174 33q6 -59 40 -88t83 -29q43 0 70.5 27.5t27.5 87.5q0 41 -22.5 71.5t-75.5 30.5q-25 0 -50.5 -9t-60.5 -28h-143l20 455h488v-174h-312l-6 -99q68 18 115 19q70 0 118 -22.5t77.5 -59.5t43 -84t13.5 -96q0 -72 -23.5 -125t-65.5 -88t-97.5 -52.5t-116.5 -17.5 q-51 0 -101.5 15.5t-91.5 47t-68.5 77.5t-35.5 108z" />
<glyph horiz-adv-x="675" d="M41 358q0 98 18.5 180t57.5 139.5t100.5 89t149.5 31.5q80 0 143 -30.5t102 -96.5l-139 -112q-20 35 -46 55t-67 20q-57 0 -85.5 -41.5t-28.5 -113.5q23 23 57.5 33t71.5 10q53 0 100 -16.5t83 -49t56.5 -83t20.5 -115.5q0 -51 -16.5 -101.5t-52.5 -89.5t-91 -63.5 t-135 -24.5q-84 0 -140.5 27.5t-92 78t-51 120t-15.5 153.5zM246 249q0 -39 19.5 -72.5t68.5 -33.5q55 0 75.5 35t20.5 76t-18.5 72.5t-71.5 31.5t-73.5 -34t-20.5 -75z" />
<glyph horiz-adv-x="675" d="M41 604v174h594v-129l-275 -649h-221l254 604h-352z" />
<glyph horiz-adv-x="675" d="M41 227q0 59 24.5 108.5t77.5 81.5q-74 57 -73 148q0 98 63.5 165.5t204.5 67.5t204.5 -67.5t63.5 -165.5q0 -90 -76 -148q104 -66 105 -190q0 -51 -17.5 -96t-53.5 -79t-92 -53.5t-134 -19.5t-134.5 19.5t-92 53.5t-53 79t-17.5 96zM246 235q0 -39 21.5 -65.5 t70.5 -26.5t70.5 26.5t21.5 65.5q0 41 -21.5 67.5t-70.5 26.5t-70.5 -26.5t-21.5 -67.5zM264 563q0 -29 18.5 -49.5t55.5 -20.5t55.5 20.5t18.5 49.5q0 33 -18.5 52t-55.5 19t-55.5 -19t-18.5 -52z" />
<glyph horiz-adv-x="675" d="M41 520q0 51 16.5 101t52 89t91 63.5t135.5 24.5q82 0 139 -27.5t93 -77.5t51.5 -120t15.5 -154q0 -98 -18.5 -180t-57.5 -139t-100.5 -89t-149.5 -32q-80 0 -143.5 31t-102.5 96l140 113q20 -35 45.5 -55.5t66.5 -20.5q57 0 86 42t29 114q-23 -23 -57.5 -33t-71.5 -10 q-53 0 -101 16t-83 49t-55.5 83t-20.5 116zM246 524q0 -41 18.5 -73t71.5 -32t73.5 34t20.5 75q0 39 -19.5 72.5t-68.5 33.5q-55 0 -75.5 -34.5t-20.5 -75.5z" />
<glyph horiz-adv-x="1142" d="M82 512q0 137 37 237.5t102.5 166t154.5 97t195 31.5t195.5 -31.5t155 -97t102.5 -166t37 -237.5t-37 -237.5t-102.5 -166t-155 -97t-195.5 -31.5t-195 31.5t-154.5 97t-102.5 166t-37 237.5zM328 512q0 -82 19.5 -142.5t53 -99.5t77.5 -57t93 -18t93.5 18t78 57t53 99.5 t19.5 142.5t-19.5 142.5t-53 99.5t-77.5 57t-94 18q-49 0 -93 -18t-77.5 -57t-53 -99.5t-19.5 -142.5z" />
<glyph horiz-adv-x="1142" d="M150 885l348 159h198v-829h246v-215h-737v215h246v547l-222 -100z" />
<glyph horiz-adv-x="1142" d="M123 0v180q168 80 282.5 144.5t185.5 122t101.5 111.5t30.5 114q0 78 -45 117.5t-117 39.5q-74 0 -121 -43t-53 -135l-227 43q12 174 125.5 262t287.5 88q86 0 159 -21.5t125 -64.5t82 -108.5t30 -153.5q0 -147 -84 -258.5t-254 -212.5h391v-225h-899z" />
<glyph horiz-adv-x="1142" d="M80 -211l121 195q150 -117 327 -117q123 0 195 46t72 148q0 80 -74 132.5t-232 52.5h-182v215h199q115 0 177 53t62 139q0 78 -46 127t-152 49q-72 0 -132.5 -35.5t-74.5 -109.5l-231 78q18 72 60 125t100.5 88t130 52t147.5 17q113 0 196.5 -28.5t139 -77.5t82 -116.5 t26.5 -145.5q0 -94 -39 -175t-121 -139q111 -51 160 -131.5t49 -179.5q0 -86 -32.5 -158.5t-97 -126t-160 -84t-220.5 -30.5q-135 0 -239.5 33.5t-210.5 103.5z" />
<glyph horiz-adv-x="1142" d="M82 0v178l555 866l219 -110l-461 -719h256v260h246v-260h164v-215h-164v-328h-246v328h-569z" />
<glyph horiz-adv-x="1142" d="M90 -244l80 215q72 -41 160 -73.5t186 -32.5q127 0 197.5 66.5t70.5 213.5q0 117 -49 171.5t-141 54.5q-57 0 -114.5 -20.5t-114.5 -55.5h-228l64 729h782v-225h-561l-23 -262q119 49 240 49q86 0 158.5 -27t124 -82t80 -139t28.5 -197q0 -129 -38 -222t-106.5 -153.5 t-163.5 -88t-208 -27.5q-106 0 -216 26.5t-208 79.5z" />
<glyph horiz-adv-x="1142" d="M61 662q0 178 29 324.5t94.5 249.5t169 160.5t254.5 57.5q139 0 252 -52t180 -163l-202 -145q-43 78 -103.5 111.5t-126.5 33.5q-147 0 -214.5 -104.5t-67.5 -305.5q143 123 327 123q92 0 170 -29.5t136.5 -87t91 -144.5t32.5 -199q0 -92 -26.5 -184.5t-85 -165 t-151.5 -117.5t-228 -45q-143 0 -244.5 49t-165 138t-92.5 215t-29 280zM326 469q0 -49 12 -98t41 -88t79 -63.5t124 -24.5q72 0 121 25.5t78.5 66.5t43 92t13.5 104q0 49 -13.5 94.5t-42 81t-78 57t-118.5 21.5q-76 0 -126 -22.5t-80 -60.5t-42 -86t-12 -99z" />
<glyph horiz-adv-x="1142" d="M72 799v225h999v-180l-553 -1172h-272l530 1127h-704z" />
<glyph horiz-adv-x="1142" d="M78 403q0 119 48 212.5t150 148.5q-76 53 -111.5 136t-35.5 183q0 80 25.5 147.5t79 117t137.5 78t200 28.5q117 0 201 -28.5t137.5 -78t79 -117t25.5 -147.5q0 -100 -37 -183t-113 -136q102 -55 151.5 -148.5t49.5 -212.5q0 -90 -28.5 -166.5t-88 -134t-153 -90 t-224.5 -32.5t-224 32.5t-153.5 90t-88 134t-27.5 166.5zM324 432q0 -102 57 -169.5t190 -67.5q131 0 189.5 67.5t58.5 169.5q0 45 -14 85t-44 69.5t-77 47t-113 17.5t-112.5 -17.5t-76.5 -47t-44 -69.5t-14 -85zM375 1059q0 -86 45 -139.5t151 -53.5t151.5 53.5t45.5 139.5 q0 78 -45.5 129t-151.5 51t-151 -51t-45 -129z" />
<glyph horiz-adv-x="1142" d="M86 561q0 90 24.5 177t80 155t144.5 109.5t218 41.5q137 0 233.5 -46t157 -131t88 -203.5t27.5 -264.5q0 -369 -140.5 -558t-388.5 -189q-84 0 -163.5 19.5t-169.5 62.5l77 207q80 -49 137.5 -61.5t116.5 -12.5q72 0 125.5 27.5t89 79t53 121t17.5 153.5 q-129 -123 -303 -123q-193 0 -308.5 114.5t-115.5 321.5zM332 582q0 -47 12 -90t40 -77t74 -54.5t113 -20.5q61 0 105.5 21.5t72 56.5t40 80t12.5 92q0 45 -12.5 88t-40 76.5t-72 54t-107.5 20.5q-66 0 -111.5 -21.5t-73.5 -57t-40 -79.5t-12 -89z" />
<glyph horiz-adv-x="1142" d="M82 512q0 137 37 237.5t102.5 166t154.5 97t195 31.5t195.5 -31.5t155 -97t102.5 -166t37 -237.5t-37 -237.5t-102.5 -166t-155 -97t-195.5 -31.5t-195 31.5t-154.5 97t-102.5 166t-37 237.5zM328 512q0 -82 19.5 -142.5t53 -99.5t77.5 -57t93 -18t93.5 18t78 57t53 99.5 t19.5 142.5t-19.5 142.5t-53 99.5t-77.5 57t-94 18q-49 0 -93 -18t-77.5 -57t-53 -99.5t-19.5 -142.5z" />
<glyph horiz-adv-x="880" d="M17 885l348 159h198v-829h246v-215h-737v215h246v547l-222 -100z" />
<glyph horiz-adv-x="1042" d="M72 0v180q168 80 282.5 144.5t185.5 122t101.5 111.5t30.5 114q0 78 -45 117.5t-117 39.5q-74 0 -121 -43t-53 -135l-227 43q12 174 125.5 262t287.5 88q86 0 159 -21.5t125 -64.5t82 -108.5t30 -153.5q0 -147 -84 -258.5t-254 -212.5h391v-225h-899z" />
<glyph horiz-adv-x="1073" d="M41 -211l121 195q150 -117 327 -117q123 0 195 46t72 148q0 80 -74 132.5t-232 52.5h-182v215h199q115 0 177 53t62 139q0 78 -46 127t-152 49q-72 0 -132.5 -35.5t-74.5 -109.5l-231 78q18 72 60 125t100.5 88t130 52t147.5 17q113 0 196.5 -28.5t139 -77.5t82 -116.5 t26.5 -145.5q0 -94 -39 -175t-121 -139q111 -51 160 -131.5t49 -179.5q0 -86 -32.5 -158.5t-97 -126t-160 -84t-220.5 -30.5q-135 0 -239.5 33.5t-210.5 103.5z" />
<glyph horiz-adv-x="1081" d="M51 0v178l555 866l219 -110l-461 -719h256v260h246v-260h164v-215h-164v-328h-246v328h-569z" />
<glyph horiz-adv-x="1079" d="M55 -244l80 215q72 -41 160 -73.5t186 -32.5q127 0 197.5 66.5t70.5 213.5q0 117 -49 171.5t-141 54.5q-57 0 -114.5 -20.5t-114.5 -55.5h-228l64 729h782v-225h-561l-23 -262q119 49 240 49q86 0 158.5 -27t124 -82t80 -139t28.5 -197q0 -129 -38 -222t-106.5 -153.5 t-163.5 -88t-208 -27.5q-106 0 -216 26.5t-208 79.5z" />
<glyph horiz-adv-x="1122" d="M51 662q0 178 29 324.5t94.5 249.5t169 160.5t254.5 57.5q139 0 252 -52t180 -163l-202 -145q-43 78 -103.5 111.5t-126.5 33.5q-147 0 -214.5 -104.5t-67.5 -305.5q143 123 327 123q92 0 170 -29.5t136.5 -87t91 -144.5t32.5 -199q0 -92 -26.5 -184.5t-85 -165 t-151.5 -117.5t-228 -45q-143 0 -244.5 49t-165 138t-92.5 215t-29 280zM316 469q0 -49 12 -98t41 -88t79 -63.5t124 -24.5q72 0 121 25.5t78.5 66.5t43 92t13.5 104q0 49 -13.5 94.5t-42 81t-78 57t-118.5 21.5q-76 0 -126 -22.5t-80 -60.5t-42 -86t-12 -99z" />
<glyph horiz-adv-x="1060" d="M31 799v225h999v-180l-553 -1172h-272l530 1127h-704z" />
<glyph horiz-adv-x="1122" d="M68 403q0 119 48 212.5t150 148.5q-76 53 -111.5 136t-35.5 183q0 80 25.5 147.5t79 117t137.5 78t200 28.5q117 0 201 -28.5t137.5 -78t79 -117t25.5 -147.5q0 -100 -37 -183t-113 -136q102 -55 151.5 -148.5t49.5 -212.5q0 -90 -28.5 -166.5t-88 -134t-153 -90 t-224.5 -32.5t-224 32.5t-153.5 90t-88 134t-27.5 166.5zM314 432q0 -102 57 -169.5t190 -67.5q131 0 189.5 67.5t58.5 169.5q0 45 -14 85t-44 69.5t-77 47t-113 17.5t-112.5 -17.5t-76.5 -47t-44 -69.5t-14 -85zM365 1059q0 -86 45 -139.5t151 -53.5t151.5 53.5t45.5 139.5 q0 78 -45.5 129t-151.5 51t-151 -51t-45 -129z" />
<glyph horiz-adv-x="1122" d="M76 561q0 90 24.5 177t80 155t144.5 109.5t218 41.5q137 0 233.5 -46t157 -131t88 -203.5t27.5 -264.5q0 -369 -140.5 -558t-388.5 -189q-84 0 -163.5 19.5t-169.5 62.5l77 207q80 -49 137.5 -61.5t116.5 -12.5q72 0 125.5 27.5t89 79t53 121t17.5 153.5 q-129 -123 -303 -123q-193 0 -308.5 114.5t-115.5 321.5zM322 582q0 -47 12 -90t40 -77t74 -54.5t113 -20.5q61 0 105.5 21.5t72 56.5t40 80t12.5 92q0 45 -12.5 88t-40 76.5t-72 54t-107.5 20.5q-66 0 -111.5 -21.5t-73.5 -57t-40 -79.5t-12 -89z" />
<glyph horiz-adv-x="692" d="M41 807l92 154q53 -41 101.5 -60.5t101.5 -19.5q35 0 62.5 9t27.5 50q0 25 -26.5 39t-66.5 25.5t-87 25.5t-87 42t-66.5 71t-26.5 112q0 51 23.5 89t63.5 63t92 36t107 11q70 0 138.5 -16.5t121.5 -44.5l-73 -160q-45 29 -89 43t-94 14q-33 0 -59.5 -8t-26.5 -37 q0 -25 27 -38t66.5 -24.5t87 -24.5t87.5 -37.5t66.5 -65.5t26.5 -107q0 -63 -23.5 -107t-64.5 -72t-94.5 -40t-114.5 -12q-86 0 -152.5 21.5t-140.5 68.5z" />
<glyph horiz-adv-x="559" d="M31 1270v164h98v225h205v-225h184v-164h-184v-289q0 -49 19.5 -71.5t52.5 -22.5q23 0 43 7t45 19l34 -159q-84 -37 -166 -37q-106 0 -169.5 57t-63.5 195v301h-98z" />
<glyph horiz-adv-x="751" d="M61 737v697h205v-72q74 92 197 92q106 0 166.5 -64.5t60.5 -203.5v-449h-205v449q0 53 -25.5 78.5t-66.5 25.5q-55 0 -91 -51t-36 -164v-338h-205z" />
<glyph horiz-adv-x="794" d="M51 1073q0 193 87 287t229 94q90 0 161 -61v372h205v-778q0 -72 3 -129t14 -121h-193q-6 20 -11 41t-9 43q-39 -51 -88.5 -77.5t-116.5 -26.5q-59 0 -109.5 21.5t-89.5 65.5t-60.5 110.5t-21.5 158.5zM256 1073q0 -98 35 -145t90 -47q61 0 104 62.5t43 180.5v97 q-29 35 -59.5 52t-71.5 17q-66 0 -103.5 -56t-37.5 -161z" />
<glyph horiz-adv-x="499" d="M61 737v697h205v-66q23 45 53.5 65.5t77.5 20.5q39 0 82 -14l-30 -178q-49 18 -84 18q-53 0 -76 -43t-23 -133v-367h-205z" />
<glyph horiz-adv-x="751" d="M61 737v1028h205v-403q74 92 197 92q106 0 166.5 -64.5t60.5 -203.5v-449h-205v449q0 53 -25.5 78.5t-66.5 25.5q-55 0 -91 -51t-36 -164v-338h-205z" />
</font>
</defs>
</svg>
