<svg xmlns="http://www.w3.org/2000/svg" width="29" height="29" viewBox="0 0 29 29"><g id="Group_503" data-name="Group 503" transform="translate(-929 -1351)"><circle id="Ellipse_67" data-name="Ellipse 67" cx="14.5" cy="14.5" r="14.5" transform="translate(929 1351)" fill="#00b400"></circle><g id="instagram" transform="translate(929.095 1351.094)"><path id="Path_325" data-name="Path 325" d="M18.358,7H10.786A3.786,3.786,0,0,0,7,10.786v7.572a3.786,3.786,0,0,0,3.786,3.786h7.572a3.786,3.786,0,0,0,3.786-3.786V10.786A3.786,3.786,0,0,0,18.358,7ZM14.572,18.207a3.635,3.635,0,1,1,3.635-3.635A3.635,3.635,0,0,1,14.572,18.207Zm4.24-6.966a1.212,1.212,0,1,1,1.212-1.212A1.212,1.212,0,0,1,18.812,11.24Z" fill="#fff"></path></g></g></svg>