<svg xmlns="http://www.w3.org/2000/svg" width="140.865" height="20" viewBox="0 0 140.865 20"><g id="mirror-logo" data-name="Group 491-3" transform="translate(-20.9 -87.859)"><path id="Path_8333" data-name="Path 8333" d="M112.568,98.469c2.9-.362,4.877-2.028,4.877-5.1,0-3.271-2-5.132-5.919-5.132h-4.285v19.455h1.24v-9.22h2.651l5.836,9.216h1.548Zm-1.608-1.088h-2.479V89.369h3.129c2.706,0,4.566,1.185,4.567,4h0C116.176,96.611,113.753,97.373,110.96,97.381Z" transform="translate(-6.296 -0.028)" fill="#030504"></path><path id="Path_8334" data-name="Path 8334" d="M166.008,98.469c2.9-.362,4.877-2.028,4.877-5.1,0-3.271-2-5.132-5.919-5.132h-4.285V107.7h1.24v-9.22h2.651l5.835,9.212h1.551ZM164.4,97.381h-2.479V89.373h3.129c2.707,0,4.567,1.185,4.567,4V93.37C169.618,96.611,167.195,97.373,164.4,97.381Z" transform="translate(-10.193 -0.028)" fill="#030504"></path><path id="Path_8335-3" data-name="Path 8335-3" d="M20.908,107.279h3.075V88.331H20.908v-.389h6.234l5.126,14.907h.056l5.126-14.907h6.119v.389H40.491v18.948h3.077v.389H34.646v-.389h3.076V88.5h-.056l-6.621,19.2L24.451,88.692H24.4v18.587H27.47v.389H20.9Z" transform="translate(0 -0.006)" fill="#f0acbd"></path><path id="Path_8336" data-name="Path 8336" d="M54.29,107.279h3.077V88.331H54.29v-.389h8.92v.389H60.135v18.948H63.21v.389H54.29Z" transform="translate(-2.435 -0.006)" fill="#f0acbd"></path><path id="Path_8337" data-name="Path 8337" d="M91.866,106.832a1.829,1.829,0,0,1-.693.443,2.17,2.17,0,0,1-.748.139,1.262,1.262,0,0,1-1.163-.582,4.265,4.265,0,0,1-.527-1.3,7.126,7.126,0,0,1-.153-1.164c-.027-.464-.056-.941-.083-1.44s-.065-.984-.11-1.456a6.777,6.777,0,0,0-.235-1.261,3.245,3.245,0,0,0-.943-1.537,5.858,5.858,0,0,0-1.454-.952,7.226,7.226,0,0,0-1.553-.512c-.51-.1-.911-.171-1.205-.209v-.056a6.714,6.714,0,0,0,2.575-.76,4.988,4.988,0,0,0,1.483-1.247,3.62,3.62,0,0,0,.665-1.331,4.927,4.927,0,0,0,.151-1.066,4.525,4.525,0,0,0-.4-1.774,4.272,4.272,0,0,0-1.371-1.69,4.806,4.806,0,0,0-2.328-1.039,20.5,20.5,0,0,0-2.88-.18q-.332,0-.665.013t-.665.015c-.222.018-.445.027-.667.04s-.443.013-.665.013H72.968v.389h3.075v18.943H72.968v.388h8.92v-.389H78.817v-10h2.769a10.373,10.373,0,0,1,1.113.07,2.981,2.981,0,0,1,1.234.429,3.042,3.042,0,0,1,1.037,1.137,5.247,5.247,0,0,1,.556,2.16l.193,2.521a10.668,10.668,0,0,0,.29,1.843,3.424,3.424,0,0,0,.649,1.329,2.7,2.7,0,0,0,1.173.818,5.253,5.253,0,0,0,1.843.278,5.9,5.9,0,0,0,.982-.069,3.515,3.515,0,0,0,.68-.18,2.288,2.288,0,0,0,.456-.236c.121-.082.226-.16.319-.235Zm-10.5-9.942H78.814V88.331a7.235,7.235,0,0,1,.872-.07c.341-.008.679-.013,1.011-.013a7.827,7.827,0,0,1,1.456.139,3.21,3.21,0,0,1,1.329.58,3.131,3.131,0,0,1,.97,1.317,5.962,5.962,0,0,1,.371,2.313,7.463,7.463,0,0,1-.25,2.1,3.238,3.238,0,0,1-.706,1.316,2.454,2.454,0,0,1-1.093.68,4.87,4.87,0,0,1-1.411.193Z" transform="translate(-3.797)" fill="#f0acbd"></path><path id="Path_8338" data-name="Path 8338" d="M138.007,87.938a9.814,9.814,0,1,0,9.812,10.037h0c.007-.176.008-.353.006-.529a9.661,9.661,0,0,0-9.818-9.507Zm0,18.363a8.55,8.55,0,1,1,8.549-8.881h0c0,.119.007.238.007.357a8.538,8.538,0,0,1-8.552,8.524Z" transform="translate(-7.824 -0.006)" fill="#030504"></path></g></svg>