<svg xmlns="http://www.w3.org/2000/svg" width="100px" height="21.578" viewBox="0 0 151.94 21.578"><g id="Group_491-2" data-name="Group 491-2" transform="translate(-20.905 -87.854)"><path id="Path_8333-1" data-name="Path 8333-1" d="M112.987,99.274c3.132-.391,5.261-2.187,5.261-5.5,0-3.528-2.158-5.536-6.385-5.536h-4.622v20.985h1.338V99.278h2.859l6.295,9.941h1.67ZM111.253,98.1h-2.674V89.458h3.375c2.919,0,4.925,1.278,4.926,4.319v0h0C116.879,97.27,114.265,98.092,111.253,98.1Z" fill="#030504"></path><path id="Path_8334_1" data-name="Path 8334_1" d="M166.427,99.274c3.132-.391,5.261-2.187,5.261-5.5,0-3.528-2.158-5.536-6.385-5.536h-4.622v20.989h1.338V99.282h2.859l6.294,9.937h1.673ZM164.693,98.1h-2.674V89.462h3.375c2.92,0,4.926,1.278,4.926,4.32v-.008C170.321,97.27,167.707,98.092,164.693,98.1Z" fill="#030504"></path><path id="Path_8335-2" data-name="Path 8335-2" d="M20.909,108.8h3.317V88.362H20.909v-.42h6.724l5.529,16.079h.06l5.529-16.079h6.6v.42H42.032V108.8h3.319v.42H35.727v-.42h3.318V88.541h-.06l-7.142,20.71-7.113-20.5h-.06V108.8h3.317v.42H20.9Z" fill="#f0acbd"></path><path id="Path_8336_1" data-name="Path 8336_1" d="M54.29,108.8h3.319V88.362H54.29v-.42h9.622v.42H60.595V108.8h3.317v.42H54.29Z" fill="#f0acbd"></path><path id="Path_8337_1" data-name="Path 8337_1" d="M93.352,108.324a1.973,1.973,0,0,1-.748.478,2.341,2.341,0,0,1-.807.15,1.361,1.361,0,0,1-1.255-.628,4.6,4.6,0,0,1-.568-1.4,7.687,7.687,0,0,1-.165-1.256c-.029-.5-.06-1.015-.089-1.553s-.07-1.061-.119-1.57a7.309,7.309,0,0,0-.253-1.36,3.5,3.5,0,0,0-1.017-1.658A6.318,6.318,0,0,0,86.763,98.5a7.794,7.794,0,0,0-1.675-.552c-.55-.109-.983-.185-1.3-.225v-.06a7.242,7.242,0,0,0,2.777-.82,5.381,5.381,0,0,0,1.6-1.345,3.905,3.905,0,0,0,.717-1.436,5.316,5.316,0,0,0,.163-1.15,4.882,4.882,0,0,0-.433-1.914,4.608,4.608,0,0,0-1.479-1.823,5.184,5.184,0,0,0-2.511-1.121,22.111,22.111,0,0,0-3.107-.194q-.358,0-.717.014t-.717.016c-.239.019-.48.029-.719.043s-.478.014-.717.014H72.968v.42h3.317V108.8H72.968l0,.418h9.622v-.42H79.277V98.012h2.987a11.189,11.189,0,0,1,1.2.076,3.215,3.215,0,0,1,1.331.463,3.281,3.281,0,0,1,1.119,1.226,5.66,5.66,0,0,1,.6,2.33l.208,2.719a11.507,11.507,0,0,0,.313,1.988,3.693,3.693,0,0,0,.7,1.434A2.916,2.916,0,0,0,89,109.13a5.666,5.666,0,0,0,1.988.3,6.364,6.364,0,0,0,1.059-.074,3.79,3.79,0,0,0,.733-.194,2.469,2.469,0,0,0,.492-.255c.13-.088.244-.173.344-.253ZM82.022,97.6H79.274l0-9.232a7.8,7.8,0,0,1,.941-.076c.368-.009.732-.014,1.09-.014a8.444,8.444,0,0,1,1.57.15,3.463,3.463,0,0,1,1.434.626,3.378,3.378,0,0,1,1.046,1.421,6.431,6.431,0,0,1,.4,2.495,8.048,8.048,0,0,1-.27,2.27,3.492,3.492,0,0,1-.762,1.419,2.647,2.647,0,0,1-1.179.733A5.253,5.253,0,0,1,82.022,97.6Z" fill="#f0acbd"></path><path id="Path_8338_1" data-name="Path 8338_1" d="M138.779,87.938a10.586,10.586,0,1,0,10.584,10.826v0c.007-.19.009-.381.006-.571A10.421,10.421,0,0,0,138.779,87.938Zm0,19.807A9.222,9.222,0,1,1,148,98.166v0c.005.128.007.257.007.385A9.21,9.21,0,0,1,138.782,107.745Z" fill="#030504"></path></g></svg>