<svg xmlns="http://www.w3.org/2000/svg" width="16.715" height="16.715" viewBox="0 0 16.715 16.715"><path fill="#00B400" id="searchPath" data-name="searchPath" d="M685.758,303.932a4.51,4.51,0,1,0-1.321,3.179A4.335,4.335,0,0,0,685.758,303.932Zm5.143,8.357a1.3,1.3,0,0,1-1.286,1.286,1.2,1.2,0,0,1-.9-.382l-3.445-3.435A6.882,6.882,0,0,1,681.258,311a6.954,6.954,0,0,1-2.747-.557,6.929,6.929,0,0,1-3.767-3.767,7.043,7.043,0,0,1,0-5.495,6.923,6.923,0,0,1,3.767-3.766,7.041,7.041,0,0,1,5.494,0,6.923,6.923,0,0,1,3.767,3.766,6.962,6.962,0,0,1,.557,2.748,6.877,6.877,0,0,1-1.245,4.007l3.445,3.446A1.23,1.23,0,0,1,690.9,312.289Z" transform="translate(-674.186 -296.86)"></path></svg>