<svg xmlns="http://www.w3.org/2000/svg" width="29" height="29" viewBox="0 0 29 29"><defs><clipPath id="twitter-path"><rect width="14.901" height="14.901" fill="none"></rect></clipPath></defs><g id="Group_502" data-name="Group 502" transform="translate(-831 -1351)"><circle id="Ellipse_66" data-name="Ellipse 66" cx="14.5" cy="14.5" r="14.5" transform="translate(831 1351)" fill="#00b400"></circle><g id="twitter" transform="translate(839.094 1358.094)" clip-path="url(#twitter-path)"><path id="Path_308" data-name="Path 308" d="M14.9,29.5h0Z" transform="translate(0 -14.603)" fill="#fff"></path><path id="Path_2" data-name="Path 2" d="M42.719,14.086a8.615,8.615,0,0,0,8.692-8.692V4.98A6.729,6.729,0,0,0,52.9,3.407a6.872,6.872,0,0,1-1.738.5,3.221,3.221,0,0,0,1.325-1.656,7.593,7.593,0,0,1-1.9.745A2.956,2.956,0,0,0,48.348,2a3.11,3.11,0,0,0-3.063,3.063,1.614,1.614,0,0,0,.083.662A8.559,8.559,0,0,1,39.076,2.5a3.17,3.17,0,0,0-.414,1.573,3.289,3.289,0,0,0,1.325,2.566,2.791,2.791,0,0,1-1.407-.414h0A3.025,3.025,0,0,0,41.063,9.2a2.552,2.552,0,0,1-.828.083,1.409,1.409,0,0,1-.579-.083,3.136,3.136,0,0,0,2.9,2.152,6.25,6.25,0,0,1-3.808,1.325A2.292,2.292,0,0,1,38,12.6a7.814,7.814,0,0,0,4.719,1.49" transform="translate(-38 -0.138)" fill="#fff" fill-rule="evenodd"></path></g></g></svg>