<svg xmlns="http://www.w3.org/2000/svg" width="29" height="29" viewBox="0 0 29 29"><defs><clipPath id="youtube-path"><rect width="17.022" height="11.969" fill="none"></rect></clipPath></defs><g id="Group_504" data-name="Group 504" transform="translate(-1056 -1351)"><circle id="Ellipse_68" data-name="Ellipse 68" cx="14.5" cy="14.5" r="14.5" transform="translate(1056 1351)" fill="#00b400"></circle><g id="icon_youtube" data-name="icon youtube" transform="translate(1062.728 1360)" clip-path="url(#youtube-path)"><path id="youtube-brands" d="M31.6,65.873a2.139,2.139,0,0,0-1.5-1.515A50.546,50.546,0,0,0,23.444,64a50.546,50.546,0,0,0-6.651.358,2.139,2.139,0,0,0-1.5,1.515,24.083,24.083,0,0,0,0,8.248,2.107,2.107,0,0,0,1.5,1.491,50.546,50.546,0,0,0,6.651.358,50.547,50.547,0,0,0,6.651-.358,2.107,2.107,0,0,0,1.5-1.491,24.083,24.083,0,0,0,0-8.248Zm-9.9,6.655V67.466L26.152,70,21.7,72.528Z" transform="translate(-14.933 -64)" fill="#fff"></path></g></g></svg>